#N canvas 0 23 881 826 12;
#X obj 314 448 - 48;
#X obj 311 624 +;
#X obj 279 678 float;
#X obj 321 596 * 10;
#X obj 314 504 * 1;
#X msg 377 467 1;
#X msg 400 602 10;
#X msg 448 460 0;
#X obj 106 290 until;
#X obj 119 373 list store;
#X obj 106 315 f;
#X obj 144 316 + 1;
#X msg 106 346 get \$1 1;
#X obj 253 282 t b b b l, f 32;
#X obj 118 405 moses 58;
#X obj 118 450 moses 48;
#X obj 96 503 sel 46;
#X obj 545 589 * 0.1;
#X obj 483 583 f;
#X obj 483 607 t f f;
#X msg 519 533 0.1;
#X obj 463 533 spigot;
#X msg 96 553 1;
#X obj 333 565 f;
#X obj 314 472 t f b b;
#X obj 253 160 inlet;
#X obj 279 702 outlet;
#X obj 255 231 list fromsymbol;
#X obj 253 184 symbol;
#X connect 0 0 24 0;
#X connect 1 0 2 1;
#X connect 1 0 23 1;
#X connect 2 0 26 0;
#X connect 3 0 1 1;
#X connect 4 0 1 0;
#X connect 5 0 4 1;
#X connect 6 0 3 1;
#X connect 7 0 1 1;
#X connect 7 0 10 1;
#X connect 7 0 21 1;
#X connect 7 0 23 0;
#X connect 8 0 10 0;
#X connect 9 0 14 0;
#X connect 9 1 8 1;
#X connect 10 0 12 0;
#X connect 10 0 11 0;
#X connect 11 0 10 1;
#X connect 12 0 9 0;
#X connect 13 0 2 0;
#X connect 13 1 8 0;
#X connect 13 2 5 0;
#X connect 13 2 6 0;
#X connect 13 2 7 0;
#X connect 13 2 20 0;
#X connect 13 3 9 1;
#X connect 14 0 15 0;
#X connect 15 0 16 0;
#X connect 15 1 0 0;
#X connect 16 0 22 0;
#X connect 17 0 18 1;
#X connect 18 0 19 0;
#X connect 19 0 4 1;
#X connect 19 1 17 0;
#X connect 20 0 18 1;
#X connect 21 0 18 0;
#X connect 22 0 21 1;
#X connect 22 0 3 1;
#X connect 23 0 3 0;
#X connect 24 0 4 0;
#X connect 24 1 21 0;
#X connect 24 2 23 0;
#X connect 25 0 28 0;
#X connect 27 0 13 0;
#X connect 28 0 27 0;
