#N canvas 615 196 1200 1011 12;
#X obj 37 252 inlet;
#X msg 307 263 symbol /Users/pa/Documents/documents@hudd/research/projects/fluid\\\ corpus\\\ navigation/research/fluid_decomposition/AudioFiles/\$1
;
#X msg 497 227 symbol Green-Box639.wav;
#X msg 306 225 symbol Nicol-LoopE-M.wav;
#X msg 690 226 symbol Tremblay-SA-UprightPianoPedalWide.wav;
#X msg 96 149 symbol /Volumes/machins/essai_cpp/supercollider-ugen/supercollider-source/sounds/\$1
;
#X msg 242 34 symbol SinedPink.aiff;
#X msg 50 45 symbol a11wlk01-44_1.aiff;
#X obj 37 330 sel clear, f 35;
#X obj 106 752 text define filelist;
#X obj 220 493 float;
#X obj 268 493 + 1;
#X msg 38 387 -1;
#X obj 38 480 text delete filelist;
#X msg 214 385 0;
#X obj 333 576 text set filelist;
#X obj 418 406 soundfiler;
#X obj 484 430 unpack f f f f f f;
#X msg 419 383 read \$1;
#X obj 329 519 pack s f f f;
#X text 336 537 path sr nbFrames nbChans;
#X obj 294 439 spigot;
#X msg 329 398 0;
#X msg 355 427 1;
#X obj 418 430 t b f;
#X obj 282 371 t s s b;
#X obj 294 463 t s b;
#X text 500 478 reads the headers and write the data is valid audio
file;
#X connect 0 0 8 0;
#X connect 1 0 8 0;
#X connect 2 0 1 0;
#X connect 3 0 1 0;
#X connect 4 0 1 0;
#X connect 5 0 8 0;
#X connect 6 0 5 0;
#X connect 7 0 5 0;
#X connect 8 0 12 0;
#X connect 8 0 14 0;
#X connect 8 1 25 0;
#X connect 10 0 11 0;
#X connect 10 0 15 1;
#X connect 11 0 10 1;
#X connect 12 0 13 0;
#X connect 14 0 10 1;
#X connect 16 0 24 0;
#X connect 16 1 17 0;
#X connect 17 0 19 1;
#X connect 17 2 19 3;
#X connect 18 0 16 0;
#X connect 19 0 15 0;
#X connect 21 0 26 0;
#X connect 22 0 21 1;
#X connect 23 0 21 1;
#X connect 24 0 23 0;
#X connect 24 1 19 2;
#X connect 25 0 21 0;
#X connect 25 1 18 0;
#X connect 25 2 22 0;
#X connect 26 0 19 0;
#X connect 26 1 10 0;
