#N canvas 55 97 1043 871 12;
#X obj 46 29 inlet;
#X obj 559 471 float;
#X obj 529 471 + 1;
#X msg 293 125 -1;
#X msg 659 410 0;
#X obj 707 313 soundfiler;
#X msg 708 290 read \$1;
#X obj 600 346 spigot;
#X msg 658 298 0;
#X msg 664 322 1;
#X obj 649 262 t s s b;
#X obj 600 370 t s b;
#X obj 601 569 text set \$2;
#X obj 763 349 unpack f f f;
#X obj 366 92 s \$0-clear;
#X obj 657 388 r \$0-clear;
#X obj 105 148 float;
#X obj 71 148 + 1;
#X msg 153 145 0;
#X obj 153 121 r \$0-clear;
#X obj 107 95 list length;
#X obj 107 119 until;
#X obj 157 222 list store;
#X msg 105 172 get \$1 1;
#X obj 45 61 t b l l b, f 39;
#X obj 785 457 + 0;
#X obj 721 460 float;
#X obj 706 339 t b f b;
#X obj 843 482 t f f;
#X obj 843 458 expr max($f1 \, $f2);
#X msg 961 433 0;
#X obj 959 411 r \$0-clear;
#X obj 843 509 v \$0-nChans;
#X obj 279 464 v \$0-nChans;
#X obj 721 509 v \$0-nFrames;
#X obj 220 564 v \$0-nFrames;
#X obj 504 521 v \$0-nFiles;
#X obj 45 385 v \$0-nFiles;
#X obj 559 495 + 1;
#X obj 333 122 v \$0-nFiles;
#X msg 326 92 0;
#X obj 279 490 until;
#X obj 244 589 array size;
#X obj 311 564 makefilename \$1-%d;
#X obj 279 515 float;
#X obj 251 516 + 1;
#X msg 327 512 0;
#X obj 327 490 r \$0-clear;
#X obj 279 539 t b f;
#X obj 45 409 sel 0;
#X obj 43 514 print no_audio_files;
#X obj 76 594 text get \$2;
#X obj 76 544 until;
#X obj 76 569 float;
#X obj 48 570 + 1;
#X msg 124 566 0;
#X obj 124 544 r \$0-clear;
#X text 625 537 path sr nbChans startFrame endframe;
#X obj 601 508 pack s f f f f;
#X obj 150 723 soundfiler;
#X obj 148 661 pack s s;
#X obj 200 638 symbol \$0-tmp-array;
#X obj 558 823 clone fluid.multiarray 8 \$0-tmp-array;
#X msg 148 692 read -resize \$1 \$2-0 \$2-1 \$2-2 \$2-3 \$2-4 \$2-5 \$2-6 \$2-7;
#X obj 150 747 t b;
#X obj 160 823 fluid.bufcompose -source \$0-tmp-array -destination \$1;
#X obj 76 618 list split 1;
#X msg 114 778 numchans \$2 \, deststartframe \$3;
#X text 241 216 2) iterates through the list;
#X text 341 59 1) resets;
#X text 707 250 3) reads the headers and write the data is valid audio file, f 30;
#X text 255 428 4) after the iteration \, resizes the destination, f 24;
#X text 239 723 5) then iterates through each valid file \, loading in a temp multiarray and copying in the destination array at the right place.;
#X obj 77 436 t b f b, f 18;
#X obj 77 460 outlet;
#X obj 293 149 text delete;
#X obj 461 82 loadbang;
#X obj 461 106 list store \$2;
#X obj 461 130 route symbol;
#X connect 0 0 24 0;
#X connect 1 0 2 0;
#X connect 1 0 12 1;
#X connect 1 0 38 0;
#X connect 2 0 1 1;
#X connect 3 0 75 0;
#X connect 4 0 1 1;
#X connect 4 0 26 0;
#X connect 5 0 27 0;
#X connect 5 1 13 0;
#X connect 6 0 5 0;
#X connect 7 0 11 0;
#X connect 8 0 7 1;
#X connect 9 0 7 1;
#X connect 10 0 7 0;
#X connect 10 1 6 0;
#X connect 10 2 8 0;
#X connect 11 0 58 0;
#X connect 11 1 1 0;
#X connect 13 0 58 1;
#X connect 13 2 29 0;
#X connect 13 2 58 2;
#X connect 15 0 4 0;
#X connect 16 0 17 0;
#X connect 16 0 23 0;
#X connect 17 0 16 1;
#X connect 18 0 16 1;
#X connect 19 0 18 0;
#X connect 20 0 21 0;
#X connect 21 0 16 0;
#X connect 22 0 10 0;
#X connect 23 0 22 0;
#X connect 24 0 37 0;
#X connect 24 1 20 0;
#X connect 24 2 22 1;
#X connect 24 3 14 0;
#X connect 24 3 3 0;
#X connect 24 3 40 0;
#X connect 25 0 26 1;
#X connect 25 0 58 4;
#X connect 25 0 34 0;
#X connect 26 0 25 1;
#X connect 26 0 58 3;
#X connect 27 0 9 0;
#X connect 27 1 25 0;
#X connect 27 2 26 0;
#X connect 28 0 32 0;
#X connect 28 1 29 1;
#X connect 29 0 28 0;
#X connect 30 0 29 1;
#X connect 31 0 30 0;
#X connect 33 0 41 0;
#X connect 35 0 42 0;
#X connect 37 0 49 0;
#X connect 38 0 36 0;
#X connect 40 0 39 0;
#X connect 41 0 44 0;
#X connect 43 0 42 1;
#X connect 44 0 45 0;
#X connect 44 0 48 0;
#X connect 45 0 44 1;
#X connect 46 0 44 1;
#X connect 47 0 46 0;
#X connect 48 0 35 0;
#X connect 48 1 43 0;
#X connect 49 0 50 0;
#X connect 49 1 73 0;
#X connect 51 0 66 0;
#X connect 52 0 53 0;
#X connect 53 0 54 0;
#X connect 53 0 51 0;
#X connect 54 0 53 1;
#X connect 55 0 53 1;
#X connect 56 0 55 0;
#X connect 58 0 12 0;
#X connect 59 0 64 0;
#X connect 60 0 63 0;
#X connect 61 0 60 1;
#X connect 63 0 59 0;
#X connect 64 0 65 0;
#X connect 66 0 60 0;
#X connect 66 1 67 0;
#X connect 67 0 65 0;
#X connect 73 0 74 0;
#X connect 73 1 52 0;
#X connect 73 2 33 0;
#X connect 73 2 61 0;
#X connect 76 0 77 0;
#X connect 77 0 78 0;
#X connect 78 0 75 1;
