#N canvas 446 142 532 858 12;
#X obj 205 315 until;
#X obj 48 311 f;
#X obj 91 356 + 1;
#X msg 84 39 0;
#X msg 120 400 getlabel \$1;
#X obj 120 377 makefilename %s;
#X obj 85 9 bng 15 250 50 0 empty empty empty 17 7 0 10 -262144 -1
-1;
#X obj 156 473 route getlabel;
#X obj 156 497 list;
#X obj 286 636 route getpoint;
#X obj 156 692 list;
#X obj 90 332 t f f f, f 9;
#X obj 157 193 route getids size cols;
#X obj 160 252 int;
#X obj 255 244 array define \$0_point;
#X obj 156 726 text set \$2;
#X obj 293 695 array get \$0_point;
#X obj 41 9 inlet;
#X msg 255 218 resize \$1;
#X obj 41 39 t b b;
#X obj 41 70 symbol \$0_ids;
#X msg 41 105 cols \, size \, getids \$1;
#X obj 201 545 symbol \$0_point;
#X obj 156 518 t l l b;
#X obj 178 568 list;
#X msg 178 589 getpoint \$1 \$2;
#X obj 41 139 fluid.dataset \$1;
#X obj 120 422 fluid.labelset \$0_ids;
#X obj 180 618 fluid.dataset \$1;
#X obj 139 279 t b f;
#X obj 139 303 outlet;
#X obj 158 223 t b;
#X obj 289 668 t b;
#X obj 264 26 inlet;
#X connect 0 0 1 0;
#X connect 1 0 11 0;
#X connect 2 0 1 1;
#X connect 3 0 1 1;
#X connect 4 0 27 0;
#X connect 5 0 4 0;
#X connect 6 0 19 0;
#X connect 7 0 8 0;
#X connect 8 0 23 0;
#X connect 9 0 32 0;
#X connect 10 0 15 0;
#X connect 11 0 2 0;
#X connect 11 1 5 0;
#X connect 11 2 15 1;
#X connect 12 0 31 0;
#X connect 12 1 13 1;
#X connect 12 2 18 0;
#X connect 13 0 29 0;
#X connect 16 0 10 1;
#X connect 17 0 19 0;
#X connect 18 0 14 0;
#X connect 19 0 20 0;
#X connect 19 1 3 0;
#X connect 20 0 21 0;
#X connect 21 0 26 0;
#X connect 22 0 24 1;
#X connect 23 0 10 0;
#X connect 23 1 24 0;
#X connect 23 2 22 0;
#X connect 24 0 25 0;
#X connect 25 0 28 0;
#X connect 26 0 12 0;
#X connect 27 0 7 0;
#X connect 28 0 9 0;
#X connect 29 0 30 0;
#X connect 29 1 0 0;
#X connect 31 0 13 0;
#X connect 32 0 16 0;
#X connect 33 0 26 0;
#X connect 33 0 28 0;
