#N struct 1055-draw-item float x float y float c float a float b;
#N struct 1004-rectangle float x float c;
#N struct 1004-pixel float x0 float y0 float x1 float y1;
#N canvas 84 -1080 1920 1058 12;
#X obj 479 66 inlet;
#X obj 1148 421 inlet;
#X obj 134 538 outlet;
#X obj 625 482 bng 15 250 50 0 empty empty empty 17 7 0 10 -262144
-1 -1;
#X obj 837 744 pointer;
#N canvas 616 87 1103 936 \$0-draw-space 0;
#X scalar 1055-draw-item 287.91 257.79 0 -3 3 \;;
#X scalar 1055-draw-item 73.41 137.61 0 -3 3 \;;
#X scalar 1055-draw-item 49.035 175.86 0 -3 3 \;;
#X scalar 1055-draw-item 230.625 112.695 0 -3 3 \;;
#X scalar 1055-draw-item 97.62 125.265 0 -3 3 \;;
#X scalar 1055-draw-item 184.515 260.76 0 -3 3 \;;
#X scalar 1055-draw-item 290.91 19.68 0 -3 3 \;;
#X scalar 1055-draw-item 215.67 76.875 0 -3 3 \;;
#X scalar 1055-draw-item 151.935 31.47 0 -3 3 \;;
#X scalar 1055-draw-item 224.895 163.8 0 -3 3 \;;
#X scalar 1055-draw-item 1.2 20.445 0 -3 3 \;;
#X scalar 1055-draw-item 86.82 183.81 0 -3 3 \;;
#X scalar 1055-draw-item 61.755 49.875 0 -3 3 \;;
#X scalar 1055-draw-item 162.495 201.045 0 -3 3 \;;
#X scalar 1055-draw-item 94.005 251.25 0 -3 3 \;;
#X scalar 1055-draw-item 53.07 235.05 0 -3 3 \;;
#X scalar 1055-draw-item 245.58 178.515 0 -3 3 \;;
#X scalar 1055-draw-item 201.345 103.155 0 -3 3 \;;
#X scalar 1055-draw-item 58.335 247.995 0 -3 3 \;;
#X scalar 1055-draw-item 107.385 31.53 0 -3 3 \;;
#X scalar 1055-draw-item 97.185 177.24 0 -3 3 \;;
#X scalar 1055-draw-item 133.05 199.845 0 -3 3 \;;
#X scalar 1055-draw-item 6.36 250.545 0 -3 3 \;;
#X scalar 1055-draw-item 116.4 97.41 0 -3 3 \;;
#X scalar 1055-draw-item 255.48 13.89 0 -3 3 \;;
#X scalar 1055-draw-item 283.545 76.74 0 -3 3 \;;
#X scalar 1055-draw-item 116.565 239.175 0 -3 3 \;;
#X scalar 1055-draw-item 192.12 184.2 0 -3 3 \;;
#X scalar 1055-draw-item 75.765 27.015 0 -3 3 \;;
#X scalar 1055-draw-item 106.605 162.84 0 -3 3 \;;
#X scalar 1055-draw-item 110.25 248.805 0 -3 3 \;;
#X scalar 1055-draw-item 233.64 23.115 0 -3 3 \;;
#X scalar 1055-draw-item 51.015 295.515 0 -3 3 \;;
#X scalar 1055-draw-item 60.855 95.205 0 -3 3 \;;
#X scalar 1055-draw-item 138.69 200.04 0 -3 3 \;;
#X scalar 1055-draw-item 166.275 109.995 0 -3 3 \;;
#X scalar 1055-draw-item 210.735 61.275 0 -3 3 \;;
#X scalar 1055-draw-item 153.93 213.555 0 -3 3 \;;
#X scalar 1055-draw-item 122.73 231.03 0 -3 3 \;;
#X scalar 1055-draw-item 13.335 159.105 0 -3 3 \;;
#X scalar 1055-draw-item 156.105 88.02 0 -3 3 \;;
#X scalar 1055-draw-item 278.175 279.75 0 -3 3 \;;
#X scalar 1055-draw-item 2.64 172.32 0 -3 3 \;;
#X scalar 1055-draw-item 144.75 288.375 0 -3 3 \;;
#X scalar 1055-draw-item 89.79 160.05 0 -3 3 \;;
#X scalar 1055-draw-item 28.29 242.535 0 -3 3 \;;
#X scalar 1055-draw-item 198.78 231.255 0 -3 3 \;;
#X scalar 1055-draw-item 89.985 212.91 0 -3 3 \;;
#X scalar 1055-draw-item 8.655 162.78 0 -3 3 \;;
#X scalar 1055-draw-item 279.21 113.205 0 -3 3 \;;
#X scalar 1055-draw-item 90.72 38.19 0 -3 3 \;;
#X scalar 1055-draw-item 8.25 299.895 0 -3 3 \;;
#X scalar 1055-draw-item 121.95 28.95 0 -3 3 \;;
#X scalar 1055-draw-item 201.9 31.815 0 -3 3 \;;
#X scalar 1055-draw-item 155.985 4.905 0 -3 3 \;;
#X scalar 1055-draw-item 68.415 145.26 0 -3 3 \;;
#X scalar 1055-draw-item 239.52 121.965 0 -3 3 \;;
#X scalar 1055-draw-item 71.325 75.045 0 -3 3 \;;
#X scalar 1055-draw-item 288.885 289.47 0 -3 3 \;;
#X scalar 1055-draw-item 20.82 125.61 0 -3 3 \;;
#X scalar 1055-draw-item 130.83 148.095 0 -3 3 \;;
#X scalar 1055-draw-item 14.955 85.935 0 -3 3 \;;
#X scalar 1055-draw-item 226.83 65.835 0 -3 3 \;;
#X scalar 1055-draw-item 200.925 91.62 0 -3 3 \;;
#X scalar 1055-draw-item 26.22 77.655 0 -3 3 \;;
#X scalar 1055-draw-item 46.35 175.2 0 -3 3 \;;
#X scalar 1055-draw-item 56.94 167.25 0 -3 3 \;;
#X scalar 1055-draw-item 56.775 147.93 0 -3 3 \;;
#X scalar 1055-draw-item 210.45 142.86 0 -3 3 \;;
#X scalar 1055-draw-item 186.765 256.515 0 -3 3 \;;
#X scalar 1055-draw-item 216.135 103.515 0 -3 3 \;;
#X scalar 1055-draw-item 225.51 119.82 0 -3 3 \;;
#X scalar 1055-draw-item 196.785 268.59 0 -3 3 \;;
#X scalar 1055-draw-item 254.055 240.9 0 -3 3 \;;
#X scalar 1055-draw-item 252.99 53.64 0 -3 3 \;;
#X scalar 1055-draw-item 130.725 4.785 0 -3 3 \;;
#X scalar 1055-draw-item 146.655 183.075 0 -3 3 \;;
#X scalar 1055-draw-item 183.45 109.335 0 -3 3 \;;
#X scalar 1055-draw-item 209.19 205.335 0 -3 3 \;;
#X scalar 1055-draw-item 94.29 103.74 0 -3 3 \;;
#X scalar 1055-draw-item 218.19 213.885 0 -3 3 \;;
#X scalar 1055-draw-item 189.66 74.94 0 -3 3 \;;
#X scalar 1055-draw-item 29.985 176.34 0 -3 3 \;;
#X scalar 1055-draw-item 143.025 204 0 -3 3 \;;
#X scalar 1055-draw-item 193.98 142.275 0 -3 3 \;;
#X scalar 1055-draw-item 211.41 22.965 0 -3 3 \;;
#X scalar 1055-draw-item 47.04 140.73 0 -3 3 \;;
#X scalar 1055-draw-item 87.72 298.875 0 -3 3 \;;
#X scalar 1055-draw-item 102.45 117.6 0 -3 3 \;;
#X scalar 1055-draw-item 196.11 119.085 0 -3 3 \;;
#X scalar 1055-draw-item 220.905 193.815 0 -3 3 \;;
#X scalar 1055-draw-item 166.95 70.515 0 -3 3 \;;
#X scalar 1055-draw-item 31.005 54.375 0 -3 3 \;;
#X scalar 1055-draw-item 271.785 205.65 0 -3 3 \;;
#X scalar 1055-draw-item 30.705 89.295 0 -3 3 \;;
#X scalar 1055-draw-item 138.285 210.855 0 -3 3 \;;
#X scalar 1055-draw-item 216.525 237 0 -3 3 \;;
#X scalar 1055-draw-item 253.32 130.29 0 -3 3 \;;
#X scalar 1055-draw-item 144.585 83.25 0 -3 3 \;;
#X scalar 1055-draw-item 107.355 66.915 0 -3 3 \;;
#X coords 0 300 300 0 300 300 2 0 0;
#X restore 100 100 pd \$0-draw-space;
#N canvas 26 545 591 350 \$0-draw-item 0;
#X obj 37 37 struct \$0-draw-item float x float y float c float a float
b;
#X obj 62 137 filledcurve -x c 0 0 a a a b b b b a;
#X restore 727 461 pd \$0-draw-item;
#X msg 792 541 clear;
#X obj 791 563 s pd-\$0-draw-space;
#X msg 837 722 traverse \$1 \, bang;
#X obj 837 702 symbol pd-\$0-draw-space;
#X obj 98 409 unpack s f f;
#X obj 1148 446 route setlabels;
#X obj 514 137 route setpoints range xrange yrange highlight, f 154
;
#X obj 628 208 text define \$0-points;
#X msg 628 186 clear;
#X msg 611 77 setpoints plotter-help-DS-text;
#X obj 514 161 t b b a b;
#X obj 579 187 symbol;
#X obj 543 404 text set \$0-points;
#X obj 544 359 text get dummy 0 3;
#X msg 541 188 0;
#X obj 520 220 text size;
#X obj 520 281 until;
#X obj 520 305 float;
#X obj 520 329 t f f f;
#X obj 584 311 + 1;
#X msg 644 587 0;
#X obj 579 587 until;
#X obj 579 611 float;
#X obj 579 635 t f f f;
#X obj 643 617 + 1;
#X obj 579 563 text size \$0-points;
#X obj 627 505 t b b b b b b b;
#X obj 602 833 append \$0-draw-item x y a b c;
#X obj 602 659 text get \$0-points 1 5;
#X obj 100 100 xy 300 300 0;
#X obj 1248 236 expr 300 / ($f2 - $f1);
#X obj 1192 212 expr -1 * $f1 * $f2;
#X obj 1159 166 t b l;
#X obj 898 164 t b l;
#X obj 731 167 t b l;
#X obj 788 208 s \$0-redraw;
#X obj 591 456 r \$0-redraw;
#X obj 520 244 t b f;
#X obj 434 282 s \$0-redraw;
#X floatatom 857 23 5 0 0 0 - - -;
#X floatatom 915 12 5 0 0 0 - - -;
#X obj 861 62 pack f f;
#X obj 915 35 t b f;
#X obj 953 251 expr 300 / ($f2 - $f1);
#X obj 897 227 expr -1 * $f1 * $f2;
#X obj 1160 260 s \$0-redraw;
#X obj 1191 189 t f l, f 7;
#X obj 897 206 t f l, f 7;
#X obj 952 273 s \$0-mX;
#X obj 897 251 s \$0-bX;
#X obj 541 721 r \$0-mX;
#X obj 510 746 * 150;
#X obj 510 770 + 150;
#X obj 551 746 r \$0-bX;
#X obj 510 794 clip 0 300;
#X obj 612 746 * 150;
#X obj 612 770 + 150;
#X obj 612 794 clip 0 300;
#X obj 643 721 r \$0-mY;
#X obj 653 746 r \$0-bY;
#X obj 1247 258 s \$0-mY;
#X obj 1193 236 s \$0-bY;
#X msg 861 83 range \$1 \$2;
#X text 43 579 the browsing is using the vanilla xy code by ingox from
https://forum.pdpatchrepo.info/topic/10854/xy-abstraction-to-get-mouse-click-and-drag-coordinates-vanilla
;
#X msg 724 769 900;
#X msg 756 769 90;
#X msg 788 769 9;
#X msg 723 793 909;
#X msg 755 793 990;
#X msg 787 793 99;
#X obj 719 723 sel 1 2 3 4 5 6;
#X obj 1443 337 until;
#X obj 1442 409 list store;
#X obj 1443 362 f;
#X obj 1481 363 + 1;
#X msg 1500 337 0, f 2;
#X msg 1443 387 get \$1 1;
#X msg 1028 82 highlight index3 index7 index9;
#X obj 1421 255 list;
#X obj 1528 338 until;
#X obj 1527 410 list store;
#X obj 1528 363 f;
#X obj 1566 364 + 1;
#X msg 1585 338 0, f 2;
#X msg 1528 388 get \$1 1;
#X msg 1026 58 highlight index1 index17 index29;
#X obj 1422 278 t b b b l b b;
#X obj 1568 444 text search \$0-points;
#X obj 1570 561 text set \$0-points 0 3;
#X obj 1570 496 text get \$0-points 5;
#X obj 544 381 list append -3 3 0;
#X msg 1570 531 -3 3 \$1;
#X obj 1569 466 t f f;
#X obj 1410 442 text search \$0-points;
#X obj 1412 494 text get \$0-points 5;
#X obj 1411 464 t f f;
#X msg 1412 529 -6 6 \$1;
#X obj 1355 313 s \$0-redraw;
#X msg 1023 34 highlight;
#X obj 134 485 / 150;
#X obj 134 461 - 150;
#X obj 236 461 - 150;
#X obj 236 485 / 150;
#X obj 277 461 r \$0-mY;
#X obj 267 436 r \$0-bY;
#X obj 165 436 r \$0-bX;
#X obj 175 461 r \$0-mX;
#X obj 134 509 pack f f;
#X obj 1199 514 symbol;
#X msg 1161 515 0;
#X obj 1140 547 text size;
#X obj 1140 608 until;
#X obj 1140 632 float;
#X obj 1204 638 + 1;
#X obj 1140 571 t b f;
#X obj 1054 609 s \$0-redraw;
#X obj 1147 474 t b b a;
#X obj 1277 760 text search \$0-points;
#X obj 1175 874 text set \$0-points 0 5;
#X obj 1164 686 text get dummy 0 2;
#X msg 1284 62 setlabels plotter-help-LS-text;
#X msg 1277 718 \$1;
#X obj 1277 739 symbol;
#X obj 1140 656 t f f;
#X msg 1164 740 \$2;
#X obj 602 683 unpack f f f f f;
#X obj 1164 710 t a a;
#X obj 1148 781 symbol;
#X obj 1148 805 list fromsymbol;
#X obj 1148 829 - 47;
#X connect 0 0 13 0;
#X connect 1 0 12 0;
#X connect 3 0 33 0;
#X connect 4 0 34 5;
#X connect 7 0 8 0;
#X connect 9 0 4 0;
#X connect 10 0 9 0;
#X connect 11 1 107 0;
#X connect 11 2 108 0;
#X connect 12 0 123 0;
#X connect 13 0 17 0;
#X connect 13 1 41 0;
#X connect 13 2 40 0;
#X connect 13 3 39 0;
#X connect 13 4 85 0;
#X connect 15 0 14 0;
#X connect 16 0 13 0;
#X connect 17 0 22 0;
#X connect 17 1 21 0;
#X connect 17 2 18 0;
#X connect 17 3 15 0;
#X connect 18 0 20 3;
#X connect 18 0 22 1;
#X connect 20 0 97 0;
#X connect 21 0 24 1;
#X connect 22 0 44 0;
#X connect 23 0 24 0;
#X connect 24 0 25 0;
#X connect 25 0 26 0;
#X connect 25 1 20 0;
#X connect 25 2 19 1;
#X connect 26 0 24 1;
#X connect 27 0 29 1;
#X connect 28 0 29 0;
#X connect 29 0 30 0;
#X connect 30 0 31 0;
#X connect 30 1 35 0;
#X connect 31 0 29 1;
#X connect 32 0 28 0;
#X connect 33 3 32 0;
#X connect 33 4 27 0;
#X connect 33 5 10 0;
#X connect 33 6 7 0;
#X connect 35 0 132 0;
#X connect 36 0 11 0;
#X connect 37 0 38 1;
#X connect 37 0 67 0;
#X connect 38 0 68 0;
#X connect 39 0 52 0;
#X connect 39 1 53 0;
#X connect 40 0 42 0;
#X connect 40 1 54 0;
#X connect 41 0 42 0;
#X connect 41 1 53 0;
#X connect 41 1 54 0;
#X connect 43 0 33 0;
#X connect 44 0 45 0;
#X connect 44 1 23 0;
#X connect 46 0 48 0;
#X connect 47 0 49 0;
#X connect 48 0 69 0;
#X connect 49 0 48 0;
#X connect 49 1 48 1;
#X connect 50 0 51 1;
#X connect 50 0 55 0;
#X connect 51 0 56 0;
#X connect 53 0 38 0;
#X connect 53 1 37 0;
#X connect 54 0 51 0;
#X connect 54 1 50 0;
#X connect 57 0 58 1;
#X connect 58 0 59 0;
#X connect 59 0 61 0;
#X connect 60 0 59 1;
#X connect 61 0 34 0;
#X connect 62 0 63 0;
#X connect 63 0 64 0;
#X connect 64 0 34 1;
#X connect 65 0 62 1;
#X connect 66 0 63 1;
#X connect 69 0 13 0;
#X connect 71 0 34 4;
#X connect 72 0 34 4;
#X connect 73 0 34 4;
#X connect 74 0 34 4;
#X connect 75 0 34 4;
#X connect 76 0 34 4;
#X connect 77 0 71 0;
#X connect 77 1 72 0;
#X connect 77 2 73 0;
#X connect 77 3 74 0;
#X connect 77 4 75 0;
#X connect 77 5 76 0;
#X connect 77 6 34 4;
#X connect 78 0 80 0;
#X connect 79 0 100 0;
#X connect 79 1 78 1;
#X connect 80 0 81 0;
#X connect 80 0 83 0;
#X connect 81 0 80 1;
#X connect 82 0 80 1;
#X connect 83 0 79 0;
#X connect 84 0 13 0;
#X connect 85 0 93 0;
#X connect 86 0 88 0;
#X connect 87 0 94 0;
#X connect 87 1 86 1;
#X connect 88 0 89 0;
#X connect 88 0 91 0;
#X connect 89 0 88 1;
#X connect 90 0 88 1;
#X connect 91 0 87 0;
#X connect 92 0 13 0;
#X connect 93 0 104 0;
#X connect 93 1 78 0;
#X connect 93 2 82 0;
#X connect 93 3 79 1;
#X connect 93 3 87 1;
#X connect 93 4 86 0;
#X connect 93 5 90 0;
#X connect 94 0 99 0;
#X connect 96 0 98 0;
#X connect 97 0 19 0;
#X connect 98 0 95 0;
#X connect 99 0 96 0;
#X connect 99 1 95 1;
#X connect 100 0 102 0;
#X connect 101 0 103 0;
#X connect 102 0 101 0;
#X connect 102 1 95 1;
#X connect 103 0 95 0;
#X connect 105 0 13 0;
#X connect 106 0 114 0;
#X connect 107 0 106 0;
#X connect 108 0 109 0;
#X connect 109 0 114 1;
#X connect 110 0 109 1;
#X connect 111 0 108 1;
#X connect 112 0 107 1;
#X connect 113 0 106 1;
#X connect 114 0 2 0;
#X connect 115 0 117 1;
#X connect 115 0 126 3;
#X connect 116 0 119 1;
#X connect 117 0 121 0;
#X connect 118 0 119 0;
#X connect 119 0 130 0;
#X connect 120 0 119 1;
#X connect 121 0 122 0;
#X connect 121 1 118 0;
#X connect 123 0 117 0;
#X connect 123 1 116 0;
#X connect 123 2 115 0;
#X connect 124 0 125 1;
#X connect 126 0 133 0;
#X connect 127 0 12 0;
#X connect 128 0 129 0;
#X connect 129 0 124 0;
#X connect 130 0 120 0;
#X connect 130 1 126 0;
#X connect 131 0 134 0;
#X connect 132 0 58 0;
#X connect 132 1 62 0;
#X connect 132 2 34 2;
#X connect 132 3 34 3;
#X connect 132 4 77 0;
#X connect 133 0 131 0;
#X connect 133 1 128 0;
#X connect 134 0 135 0;
#X connect 135 0 136 0;
#X connect 136 0 125 0;
#X coords 0 0 300 300 300 300 2 100 100;
