#N canvas 615 196 1200 1011 12;
#X obj 37 252 inlet;
#X obj 331 366 file handle;
#X obj 113 745 list split 2;
#X obj 391 927 print ch;
#X obj 530 931 print sr;
#X msg 329 270 symbol /Users/pa/Documents/documents@hudd/research/projects/fluid\\\ corpus\\\ navigation/research/fluid_decomposition/AudioFiles/\$1
;
#X msg 514 245 symbol Green-Box639.wav;
#X msg 323 243 symbol Nicol-LoopE-M.wav;
#X msg 707 244 symbol Tremblay-SA-UprightPianoPedalWide.wav;
#X obj 216 796 expr $f1 + ($f2 << 8) + ($f3 << 16) + ($f4 << 24);
#X obj 54 795 expr $f1 + ($f2 << 8);
#X msg 96 149 symbol /Volumes/machins/essai_cpp/supercollider-ugen/supercollider-source/sounds/\$1
;
#X msg 242 34 symbol SinedPink.aiff;
#X msg 50 45 symbol a11wlk01-44_1.aiff;
#X obj 363 437 list split 4;
#X obj 331 390 list split 8;
#X obj 194 567 list store;
#X obj 239 475 list tosymbol;
#X obj 149 507 sel WAVE AIFC AIFF;
#X obj 69 709 list split 10;
#X obj 433 541 list split 4;
#X obj 392 588 list tosymbol;
#X obj 268 533 print errorFileType;
#X obj 392 612 sel COMM;
#X obj 448 642 print errorChunk;
#X obj 518 710 list store;
#X msg 557 840 \$6;
#X obj 605 758 list split 12;
#X msg 331 340 open \$1 \, 38 \, close;
#X msg 798 145 symbol /Users/pa/Desktop/48k.aif;
#X obj 603 912 print;
#X obj 649 796 route 64;
#X obj 649 820 route 14;
#X obj 649 844 route 187 172;
#X obj 666 905 sel 128;
#X msg 652 874 \$1;
#X msg 701 869 \$1;
#X obj 752 908 sel 68;
#X msg 758 936 44100;
#X msg 666 929 48000;
#X text 768 797 cheap 10bit sr detection cheat;
#X connect 1 0 15 0;
#X connect 2 0 10 0;
#X connect 2 1 9 0;
#X connect 5 0 28 0;
#X connect 6 0 5 0;
#X connect 7 0 5 0;
#X connect 8 0 5 0;
#X connect 9 0 4 0;
#X connect 10 0 3 0;
#X connect 11 0 28 0;
#X connect 12 0 11 0;
#X connect 13 0 11 0;
#X connect 14 0 17 0;
#X connect 14 1 16 1;
#X connect 14 1 20 0;
#X connect 15 1 14 0;
#X connect 16 0 19 0;
#X connect 17 0 18 0;
#X connect 18 0 16 0;
#X connect 18 3 22 0;
#X connect 19 1 2 0;
#X connect 20 0 21 0;
#X connect 20 1 25 1;
#X connect 21 0 23 0;
#X connect 23 0 25 0;
#X connect 23 1 24 0;
#X connect 25 0 27 0;
#X connect 26 0 3 0;
#X connect 27 0 26 0;
#X connect 27 1 31 0;
#X connect 28 0 1 0;
#X connect 29 0 28 0;
#X connect 31 0 32 0;
#X connect 32 0 33 0;
#X connect 33 0 35 0;
#X connect 33 1 36 0;
#X connect 34 0 39 0;
#X connect 35 0 34 0;
#X connect 36 0 37 0;
#X connect 37 0 38 0;
