#N struct 1152-rectangle float x float c;
#N struct 1152-pixel float x0 float y0 float x1 float y1;
#N canvas 84 23 1920 1058 12;
#X obj 479 66 inlet;
#X obj 1149 430 inlet;
#X obj 134 538 outlet;
#X obj 625 482 bng 15 250 50 0 empty empty empty 17 7 0 10 #fcfcfc
#000000 #000000;
#X obj 837 744 pointer;
#N canvas 616 87 1103 936 \$0-draw-space 0;
#X coords 0 300 300 0 300 300 2 0 0;
#X restore 100 100 pd \$0-draw-space;
#N canvas 26 545 591 350 \$0-draw-item 0;
#X obj 37 37 struct \$0-draw-item float x float y float c float a float
b;
#X obj 62 137 filledcurve -x c 0 0 a a a b b b b a;
#X restore 727 461 pd \$0-draw-item;
#X msg 792 541 clear;
#X obj 791 563 s pd-\$0-draw-space;
#X msg 837 722 traverse \$1 \, bang;
#X obj 837 702 symbol pd-\$0-draw-space;
#X obj 98 409 unpack s f f;
#X obj 628 208 text define \$0-points;
#X msg 628 186 clear;
#X msg 611 77 setpoints plotter-help-DS-text;
#X obj 514 161 t b b a b;
#X obj 579 187 symbol;
#X obj 543 404 text set \$0-points;
#X obj 544 359 text get dummy 0 3;
#X msg 541 188 0;
#X obj 520 220 text size;
#X obj 520 281 until;
#X obj 520 305 float;
#X obj 520 329 t f f f;
#X obj 584 311 + 1;
#X msg 644 587 0;
#X obj 579 587 until;
#X obj 579 611 float;
#X obj 579 635 t f f f;
#X obj 643 617 + 1;
#X obj 579 563 text size \$0-points;
#X obj 627 505 t b b b b b b b;
#X obj 602 833 append \$0-draw-item x y a b c;
#X obj 602 659 text get \$0-points 1 5;
#X obj 100 100 xy 300 300 0;
#X obj 1248 236 expr 300 / ($f2 - $f1);
#X obj 1192 212 expr -1 * $f1 * $f2;
#X obj 1159 166 t b l;
#X obj 898 164 t b l;
#X obj 731 167 t b l;
#X obj 788 208 s \$0-redraw;
#X obj 591 456 r \$0-redraw;
#X obj 520 244 t b f;
#X obj 434 282 s \$0-redraw;
#X floatatom 857 23 5 0 0 0 - - - 0;
#X floatatom 915 12 5 0 0 0 - - - 0;
#X obj 861 62 pack f f;
#X obj 915 35 t b f;
#X obj 953 251 expr 300 / ($f2 - $f1);
#X obj 897 227 expr -1 * $f1 * $f2;
#X obj 1160 260 s \$0-redraw;
#X obj 1191 189 t f l, f 7;
#X obj 897 206 t f l, f 7;
#X obj 952 273 s \$0-mX;
#X obj 897 251 s \$0-bX;
#X obj 541 721 r \$0-mX;
#X obj 551 746 r \$0-bX;
#X obj 510 794 clip 0 300;
#X obj 612 794 clip 0 300;
#X obj 643 721 r \$0-mY;
#X obj 653 746 r \$0-bY;
#X obj 1247 258 s \$0-mY;
#X obj 1193 236 s \$0-bY;
#X msg 861 83 range \$1 \$2;
#X text 43 579 the browsing is using the vanilla xy code by ingox from
https://forum.pdpatchrepo.info/topic/10854/xy-abstraction-to-get-mouse-click-and-drag-coordinates-vanilla
;
#X msg 724 769 900;
#X msg 756 769 90;
#X msg 788 769 9;
#X msg 723 793 909;
#X msg 755 793 990;
#X msg 787 793 99;
#X obj 719 723 sel 1 2 3 4 5 6;
#X msg 1028 82 highlight index3 index7 index9;
#X msg 1026 58 highlight index1 index17 index29;
#X obj 544 381 list append -3 3 0;
#X msg 1023 34 highlight;
#X obj 277 461 r \$0-mY;
#X obj 267 436 r \$0-bY;
#X obj 165 436 r \$0-bX;
#X obj 175 461 r \$0-mX;
#X obj 134 509 pack f f;
#X obj 1200 523 symbol;
#X msg 1162 524 0;
#X obj 1141 556 text size;
#X obj 1141 617 until;
#X obj 1141 641 float;
#X obj 1205 647 + 1;
#X obj 1141 580 t b f;
#X obj 1055 618 s \$0-redraw;
#X obj 1148 483 t b b a;
#X obj 1278 769 text search \$0-points;
#X obj 1176 883 text set \$0-points 0 5;
#X obj 1165 695 text get dummy 0 2;
#X msg 1073 386 setlabels plotter-help-LS-text;
#X msg 1278 727 \$1;
#X obj 1278 748 symbol;
#X obj 1141 665 t f f;
#X msg 1165 749 \$2;
#X obj 602 683 unpack f f f f f;
#X obj 1165 719 t a a;
#X obj 1149 790 symbol;
#X obj 1149 814 list fromsymbol;
#X obj 1149 838 - 47;
#X obj 134 461 - 0;
#X obj 134 485 / 300;
#X obj 236 485 / 300;
#X obj 236 461 - 0;
#X obj 510 746 * 300;
#X obj 510 770 + 0;
#X obj 612 746 * 300;
#X obj 612 770 + 0;
#X obj 1149 455 route setlabels;
#N canvas 131 166 531 403 pointsize 0;
#X obj 134 20 inlet;
#X msg 231 193 \$1;
#X obj 231 214 symbol;
#X msg 137 130 \$2;
#X obj 73 287 s \$0-redraw;
#X obj 137 178 t f f;
#X obj 137 233 pack f f;
#X obj 189 203 * -1;
#X obj 231 235 text search \$0-points;
#X obj 180 281 text set \$0-points 0 3;
#X obj 131 54 list;
#X obj 132 84 t b l l;
#X obj 137 154 expr min(-1 \, int(abs($f1)+0.5) * -1);
#X connect 0 0 10 0;
#X connect 1 0 2 0;
#X connect 2 0 8 0;
#X connect 3 0 12 0;
#X connect 5 0 6 0;
#X connect 5 1 7 0;
#X connect 6 0 9 0;
#X connect 7 0 6 1;
#X connect 8 0 9 1;
#X connect 10 0 11 0;
#X connect 11 0 4 0;
#X connect 11 1 3 0;
#X connect 11 2 1 0;
#X connect 12 0 5 0;
#X restore 1440 345 pd pointsize;
#N canvas 131 166 531 403 pointcolor 0;
#X obj 134 20 inlet;
#X msg 231 193 \$1;
#X obj 231 214 symbol;
#X msg 137 130 \$2;
#X obj 73 287 s \$0-redraw;
#X obj 231 235 text search \$0-points;
#X obj 131 54 list;
#X obj 132 84 t b l l;
#X obj 180 281 text set \$0-points 0 5;
#X obj 137 154 expr max(0 \, int(abs($f1)+0.5));
#X connect 0 0 6 0;
#X connect 1 0 2 0;
#X connect 2 0 5 0;
#X connect 3 0 9 0;
#X connect 5 0 8 1;
#X connect 6 0 7 0;
#X connect 7 0 4 0;
#X connect 7 1 3 0;
#X connect 7 2 1 0;
#X connect 9 0 8 0;
#X restore 1540 375 pd pointcolor;
#N canvas 152 189 487 507 highlight 0;
#X obj 116 48 inlet;
#X obj 139 170 until;
#X obj 138 242 list store;
#X obj 139 195 f;
#X obj 177 196 + 1;
#X msg 196 170 0, f 2;
#X msg 139 220 get \$1 1;
#X obj 117 88 list;
#X obj 224 171 until;
#X obj 223 243 list store;
#X obj 224 196 f;
#X obj 262 197 + 1;
#X msg 281 171 0, f 2;
#X msg 224 221 get \$1 1;
#X obj 118 111 t b b b l b b;
#X obj 264 277 text search \$0-points;
#X obj 266 394 text set \$0-points 0 3;
#X obj 266 329 text get \$0-points 5;
#X msg 266 364 -3 3 \$1;
#X obj 265 299 t f f;
#X obj 106 275 text search \$0-points;
#X obj 108 327 text get \$0-points 5;
#X obj 107 297 t f f;
#X msg 108 362 -6 6 \$1;
#X obj 51 146 s \$0-redraw;
#X connect 0 0 7 0;
#X connect 1 0 3 0;
#X connect 2 0 20 0;
#X connect 2 1 1 1;
#X connect 3 0 4 0;
#X connect 3 0 6 0;
#X connect 4 0 3 1;
#X connect 5 0 3 1;
#X connect 6 0 2 0;
#X connect 7 0 14 0;
#X connect 8 0 10 0;
#X connect 9 0 15 0;
#X connect 9 1 8 1;
#X connect 10 0 11 0;
#X connect 10 0 13 0;
#X connect 11 0 10 1;
#X connect 12 0 10 1;
#X connect 13 0 9 0;
#X connect 14 0 24 0;
#X connect 14 1 1 0;
#X connect 14 2 5 0;
#X connect 14 3 2 1;
#X connect 14 3 9 1;
#X connect 14 4 8 0;
#X connect 14 5 12 0;
#X connect 15 0 19 0;
#X connect 17 0 18 0;
#X connect 18 0 16 0;
#X connect 19 0 17 0;
#X connect 19 1 16 1;
#X connect 20 0 22 0;
#X connect 21 0 23 0;
#X connect 22 0 21 0;
#X connect 22 1 16 1;
#X connect 23 0 16 0;
#X restore 1616 348 pd highlight;
#X obj 514 137 route setpoints range xrange yrange, f 123;
#X obj 1480 307 route pointsize pointcolor highlight setpoint;
#N canvas 131 166 531 403 setpoint 1;
#X obj 130 24 inlet;
#X msg 253 194 \$1;
#X obj 253 215 symbol;
#X obj 73 287 s \$0-redraw;
#X obj 253 236 text search \$0-points;
#X obj 131 54 list;
#X obj 132 84 t b l l;
#X obj 253 260 sel -1;
#X msg 226 294 1e+15;
#N canvas 672 870 746 312 sanitycheck 0;
#X obj 43 38 inlet;
#X obj 13 268 outlet;
#X obj 19 138 symbol;
#X obj 43 215 pack s f f f f f, f 39;
#X obj 183 152 t f f;
#X obj 229 185 * -1;
#X obj 424 123 expr max(0 \, int(abs($f1)+0.5));
#X obj 43 62 unpack s f f f f;
#X obj 137 124 expr min(-1 \, int(abs($f1)+0.5) * -1);
#X connect 0 0 7 0;
#X connect 2 0 3 0;
#X connect 3 0 1 0;
#X connect 4 0 3 3;
#X connect 4 1 5 0;
#X connect 5 0 3 4;
#X connect 6 0 3 5;
#X connect 7 0 2 0;
#X connect 7 1 3 1;
#X connect 7 2 3 2;
#X connect 7 3 8 0;
#X connect 7 4 6 0;
#X connect 8 0 4 0;
#X restore 125 202 pd sanitycheck;
#X obj 180 354 text set \$0-points;
#X connect 0 0 5 0;
#X connect 1 0 2 0;
#X connect 2 0 4 0;
#X connect 4 0 7 0;
#X connect 5 0 6 0;
#X connect 6 0 3 0;
#X connect 6 1 9 0;
#X connect 6 2 1 0;
#X connect 7 0 8 0;
#X connect 7 1 10 1;
#X connect 8 0 10 1;
#X connect 9 0 10 0;
#X restore 1712 384 pd setpoint;
#X msg 1517 206 setpoint index0 \$1 \$2;
#X msg 1511 127 0.5 0.5;
#X msg 1551 261 setpoint test 0.4 0.5 10 4;
#X connect 0 0 115 0;
#X connect 1 0 111 0;
#X connect 3 0 31 0;
#X connect 4 0 32 5;
#X connect 7 0 8 0;
#X connect 9 0 4 0;
#X connect 10 0 9 0;
#X connect 11 1 103 0;
#X connect 11 2 106 0;
#X connect 13 0 12 0;
#X connect 14 0 115 0;
#X connect 15 0 20 0;
#X connect 15 1 19 0;
#X connect 15 2 16 0;
#X connect 15 3 13 0;
#X connect 16 0 18 3;
#X connect 16 0 20 1;
#X connect 18 0 74 0;
#X connect 19 0 22 1;
#X connect 20 0 42 0;
#X connect 21 0 22 0;
#X connect 22 0 23 0;
#X connect 23 0 24 0;
#X connect 23 1 18 0;
#X connect 23 2 17 1;
#X connect 24 0 22 1;
#X connect 25 0 27 1;
#X connect 26 0 27 0;
#X connect 27 0 28 0;
#X connect 28 0 29 0;
#X connect 28 1 33 0;
#X connect 29 0 27 1;
#X connect 30 0 26 0;
#X connect 31 3 30 0;
#X connect 31 4 25 0;
#X connect 31 5 10 0;
#X connect 31 6 7 0;
#X connect 33 0 98 0;
#X connect 34 0 11 0;
#X connect 35 0 36 1;
#X connect 35 0 61 0;
#X connect 36 0 62 0;
#X connect 37 0 50 0;
#X connect 37 1 51 0;
#X connect 38 0 40 0;
#X connect 38 1 52 0;
#X connect 39 0 40 0;
#X connect 39 1 51 0;
#X connect 39 1 52 0;
#X connect 41 0 31 0;
#X connect 42 0 43 0;
#X connect 42 1 21 0;
#X connect 44 0 46 0;
#X connect 45 0 47 0;
#X connect 46 0 63 0;
#X connect 47 0 46 0;
#X connect 47 1 46 1;
#X connect 48 0 49 1;
#X connect 48 0 53 0;
#X connect 49 0 54 0;
#X connect 51 0 36 0;
#X connect 51 1 35 0;
#X connect 52 0 49 0;
#X connect 52 1 48 0;
#X connect 55 0 107 1;
#X connect 56 0 108 1;
#X connect 57 0 32 0;
#X connect 58 0 32 1;
#X connect 59 0 109 1;
#X connect 60 0 110 1;
#X connect 63 0 115 0;
#X connect 65 0 32 4;
#X connect 66 0 32 4;
#X connect 67 0 32 4;
#X connect 68 0 32 4;
#X connect 69 0 32 4;
#X connect 70 0 32 4;
#X connect 71 0 65 0;
#X connect 71 1 66 0;
#X connect 71 2 67 0;
#X connect 71 3 68 0;
#X connect 71 4 69 0;
#X connect 71 5 70 0;
#X connect 71 6 32 4;
#X connect 72 0 115 0;
#X connect 73 0 115 0;
#X connect 74 0 17 0;
#X connect 75 0 115 0;
#X connect 76 0 105 1;
#X connect 77 0 106 1;
#X connect 78 0 103 1;
#X connect 79 0 104 1;
#X connect 80 0 2 0;
#X connect 81 0 83 1;
#X connect 81 0 92 3;
#X connect 82 0 85 1;
#X connect 83 0 87 0;
#X connect 84 0 85 0;
#X connect 85 0 96 0;
#X connect 86 0 85 1;
#X connect 87 0 88 0;
#X connect 87 1 84 0;
#X connect 89 0 83 0;
#X connect 89 1 82 0;
#X connect 89 2 81 0;
#X connect 90 0 91 1;
#X connect 92 0 99 0;
#X connect 93 0 111 0;
#X connect 94 0 95 0;
#X connect 95 0 90 0;
#X connect 96 0 86 0;
#X connect 96 1 92 0;
#X connect 97 0 100 0;
#X connect 98 0 107 0;
#X connect 98 1 109 0;
#X connect 98 2 32 2;
#X connect 98 3 32 3;
#X connect 98 4 71 0;
#X connect 99 0 97 0;
#X connect 99 1 94 0;
#X connect 100 0 101 0;
#X connect 101 0 102 0;
#X connect 102 0 91 0;
#X connect 103 0 104 0;
#X connect 104 0 80 0;
#X connect 105 0 80 1;
#X connect 106 0 105 0;
#X connect 107 0 108 0;
#X connect 108 0 57 0;
#X connect 109 0 110 0;
#X connect 110 0 58 0;
#X connect 111 0 89 0;
#X connect 115 0 15 0;
#X connect 115 1 39 0;
#X connect 115 2 38 0;
#X connect 115 3 37 0;
#X connect 115 4 116 0;
#X connect 116 0 112 0;
#X connect 116 1 113 0;
#X connect 116 2 114 0;
#X connect 116 3 117 0;
#X connect 118 0 116 0;
#X connect 119 0 118 0;
#X connect 120 0 116 0;
#X coords 0 0 300 300 300 300 2 100 100;
