#N canvas 152 85 703 873 12;
#X obj 18 149 phasor~ 1.11;
#X obj 18 193 clip~ 0 1;
#X obj 18 171 biquad~ 0 0 -1 1 0;
#X obj 86 492 delread~ \$0-latencycomp;
#X obj 259 284 r pd-dsp-started;
#X obj 431 367 samplerate~;
#X obj 259 310 t b b, f 25;
#X obj 86 468 * 1000;
#X obj 417 449 / 1;
#X msg 259 341 getlatency;
#X obj 28 752 snapshot~;
#X floatatom 28 777 5 0 0 0 - - - 0;
#X obj 38 726 metro 100;
#X obj 38 704 loadbang;
#X obj 199 609 samphold~;
#X obj 28 659 -~, f 25;
#X obj 28 609 samphold~;
#X obj 103 534 fexpr~ $y1[-1] + 1;
#X text 71 777 spectral frame accurate detection, f 55;
#X obj 17 13 cnv 15 660 42 empty empty fluid.noveltyslice~ 1 22 0 36
#4ba3fb #ffffff 0;
#X obj 509 60 fluid.referencelauncher fluid.noveltyslice~.html reference/noveltyslice/
;
#X obj 17 60 cnv 15 488 17 empty empty Real-Time\\\ Novelty-Based\\\ Slicer
4 8 0 13 #e0e0e0 #404040 0;
#X text 17 79 A real-time slicer using an algorithm assessing novelty
in the signal to estimate the slicing points.;
#X obj 259 367 fluid.noveltyslice~ -threshold 0.01 -fftsettings 128
-kernelsize 31, f 23;
#X text 26 798 Once latency compensated with the delay~ above the detection
is always at the beginning of the spectral frame in which it appears.
Change the window size above to explore the changes., f 62;
#N canvas 1257 -1048 732 932 parameters 0;
#X floatatom 499 191 8 0 0 0 - - - 0;
#X floatatom 29 549 8 0 0 0 - - - 0;
#X msg 499 250 filtersize \$1 \, getlatency;
#X msg 29 587 kernelsize \$1 \, getlatency;
#X msg 499 169 3;
#X floatatom 29 229 8 0 0 0 - - - 0;
#X text 47 160 0: spectrum;
#X text 47 175 1: MFCC, f 11;
#X text 47 190 2: pitch;
#X text 47 205 3: loudness;
#X msg 29 527 11;
#X msg 267 587 minslicelength \$1;
#X floatatom 267 549 8 0 0 0 - - - 0;
#X msg 267 527 2;
#X msg 262 250 fftsettings \$1 \$2 \, getlatency;
#X floatatom 262 169 7 0 0 0 - - - 0;
#X floatatom 331 169 8 0 0 0 - - - 0;
#X obj 332 191 t b f;
#X obj 262 228 pack 1024 512, f 15;
#X msg 262 147 1024;
#X msg 331 147 512;
#X obj 291 115 loadbang;
#X msg 29 250 algorithm \$1;
#X obj 29 810 r \$0-params;
#X obj 29 833 outlet;
#X obj 29 272 s \$0-params;
#X text 28 6 Optional parameters to fluid.noveltyslice~;
#X obj 499 272 s \$0-params;
#X obj 29 614 s \$0-params;
#X obj 267 614 s \$0-params;
#X obj 144 115 loadbang;
#X obj 499 147 bng 15 250 50 0 empty empty empty 17 7 0 10 #fcfcfc
#000000 #000000;
#X obj 499 115 loadbang;
#X obj 267 506 bng 15 250 50 0 empty empty empty 17 7 0 10 #fcfcfc
#000000 #000000;
#X obj 267 465 loadbang;
#X obj 29 506 bng 15 250 50 0 empty empty empty 17 7 0 10 #fcfcfc #000000
#000000;
#X obj 29 465 loadbang;
#X obj 262 272 s \$0-params;
#X obj 258 74 cnv 10 200 2 empty empty empty 20 12 0 14 #bbbbbb #404040
0;
#X text 256 54 FFT settings;
#X obj 28 74 cnv 10 200 2 empty empty empty 20 12 0 14 #bbbbbb #404040
0;
#X text 26 54 Algorithm;
#X obj 29 161 vradio 15 1 0 4 empty empty Algorithm 0 -8 0 10 #fcfcfc
#000000 #000000 0;
#X msg 144 137 0;
#X obj 498 74 cnv 10 200 2 empty empty empty 20 12 0 14 #bbbbbb #404040
0;
#X text 496 54 filter size;
#X obj 259 434 cnv 10 200 2 empty empty empty 20 12 0 14 #bbbbbb #404040
0;
#X obj 29 434 cnv 10 200 2 empty empty empty 20 12 0 14 #bbbbbb #404040
0;
#X obj 499 434 cnv 10 200 2 empty empty empty 20 12 0 14 #bbbbbb #404040
0;
#X text 27 414 kernel size;
#X text 257 414 min slice length;
#X text 497 414 threshold;
#X floatatom 499 549 8 0 0 0 - - - 0;
#X obj 499 614 s \$0-params;
#X obj 499 506 bng 15 250 50 0 empty empty empty 17 7 0 10 #fcfcfc
#000000 #000000;
#X obj 499 465 loadbang;
#X msg 499 587 threshold \$1;
#X msg 499 527 0.33;
#X connect 0 0 2 0;
#X connect 1 0 3 0;
#X connect 2 0 27 0;
#X connect 3 0 28 0;
#X connect 4 0 0 0;
#X connect 5 0 22 0;
#X connect 10 0 1 0;
#X connect 11 0 29 0;
#X connect 12 0 11 0;
#X connect 13 0 12 0;
#X connect 14 0 37 0;
#X connect 15 0 18 0;
#X connect 16 0 17 0;
#X connect 17 0 18 0;
#X connect 17 1 18 1;
#X connect 18 0 14 0;
#X connect 19 0 15 0;
#X connect 20 0 16 0;
#X connect 21 0 20 0;
#X connect 21 0 19 0;
#X connect 22 0 25 0;
#X connect 23 0 24 0;
#X connect 30 0 43 0;
#X connect 31 0 4 0;
#X connect 32 0 31 0;
#X connect 33 0 13 0;
#X connect 34 0 33 0;
#X connect 35 0 10 0;
#X connect 36 0 35 0;
#X connect 42 0 5 0;
#X connect 43 0 42 0;
#X connect 52 0 56 0;
#X connect 54 0 57 0;
#X connect 55 0 54 0;
#X connect 56 0 53 0;
#X connect 57 0 52 0;
#X restore 453 310 pd parameters;
#X text 452 260 2) experiment with parameters, f 15;
#X msg 259 158 \; pd dsp 1;
#X text 333 156 1) turn DSP on;
#X obj 18 367 delwrite~ \$0-latencycomp 200;
#X obj 527 799 cnv 15 149 50 empty empty More\\\ information 4 10 0
13 #e0e0e0 #404040 0;
#N canvas 350 142 689 763 musical_example 0;
#X obj 17 525 * 1000;
#X obj 339 490 / 1;
#N canvas 520 147 732 932 parameters 0;
#X floatatom 499 191 8 0 0 0 - - - 0;
#X floatatom 29 549 8 0 0 0 - - - 0;
#X msg 499 250 filtersize \$1 \, getlatency;
#X msg 29 587 kernelsize \$1 \, getlatency;
#X msg 499 169 3;
#X floatatom 29 229 8 0 0 0 - - - 0;
#X text 47 160 0: spectrum;
#X text 47 175 1: MFCC, f 11;
#X text 47 190 2: pitch;
#X text 47 205 3: loudness;
#X msg 29 527 11;
#X msg 267 587 minslicelength \$1;
#X floatatom 267 549 8 0 0 0 - - - 0;
#X msg 267 527 2;
#X msg 262 250 fftsettings \$1 \$2 \, getlatency;
#X floatatom 262 169 7 0 0 0 - - - 0;
#X floatatom 331 169 8 0 0 0 - - - 0;
#X obj 332 191 t b f;
#X obj 262 228 pack 1024 512, f 15;
#X msg 262 147 1024;
#X msg 331 147 512;
#X obj 291 115 loadbang;
#X msg 29 250 algorithm \$1;
#X obj 29 810 r \$0-params;
#X obj 29 833 outlet;
#X obj 29 272 s \$0-params;
#X text 28 6 Optional parameters to fluid.noveltyslice~;
#X obj 499 272 s \$0-params;
#X obj 29 614 s \$0-params;
#X obj 267 614 s \$0-params;
#X obj 144 115 loadbang;
#X obj 499 147 bng 15 250 50 0 empty empty empty 17 7 0 10 #fcfcfc
#000000 #000000;
#X obj 499 115 loadbang;
#X obj 267 506 bng 15 250 50 0 empty empty empty 17 7 0 10 #fcfcfc
#000000 #000000;
#X obj 267 465 loadbang;
#X obj 29 506 bng 15 250 50 0 empty empty empty 17 7 0 10 #fcfcfc #000000
#000000;
#X obj 29 465 loadbang;
#X obj 262 272 s \$0-params;
#X obj 258 74 cnv 10 200 2 empty empty empty 20 12 0 14 #bbbbbb #404040
0;
#X text 256 54 FFT settings;
#X obj 28 74 cnv 10 200 2 empty empty empty 20 12 0 14 #bbbbbb #404040
0;
#X text 26 54 Algorithm;
#X obj 29 161 vradio 15 1 0 4 empty empty Algorithm 0 -8 0 10 #fcfcfc
#000000 #000000 0;
#X msg 144 137 0;
#X obj 498 74 cnv 10 200 2 empty empty empty 20 12 0 14 #bbbbbb #404040
0;
#X text 496 54 filter size;
#X obj 259 434 cnv 10 200 2 empty empty empty 20 12 0 14 #bbbbbb #404040
0;
#X obj 29 434 cnv 10 200 2 empty empty empty 20 12 0 14 #bbbbbb #404040
0;
#X obj 499 434 cnv 10 200 2 empty empty empty 20 12 0 14 #bbbbbb #404040
0;
#X text 27 414 kernel size;
#X text 257 414 min slice length;
#X text 497 414 threshold;
#X floatatom 499 549 8 0 0 0 - - - 0;
#X obj 499 614 s \$0-params;
#X obj 499 506 bng 15 250 50 0 empty empty empty 17 7 0 10 #fcfcfc
#000000 #000000;
#X obj 499 465 loadbang;
#X msg 499 587 threshold \$1;
#X msg 499 527 0.33;
#X connect 0 0 2 0;
#X connect 1 0 3 0;
#X connect 2 0 27 0;
#X connect 3 0 28 0;
#X connect 4 0 0 0;
#X connect 5 0 22 0;
#X connect 10 0 1 0;
#X connect 11 0 29 0;
#X connect 12 0 11 0;
#X connect 13 0 12 0;
#X connect 14 0 37 0;
#X connect 15 0 18 0;
#X connect 16 0 17 0;
#X connect 17 0 18 0;
#X connect 17 1 18 1;
#X connect 18 0 14 0;
#X connect 19 0 15 0;
#X connect 20 0 16 0;
#X connect 21 0 20 0;
#X connect 21 0 19 0;
#X connect 22 0 25 0;
#X connect 23 0 24 0;
#X connect 30 0 43 0;
#X connect 31 0 4 0;
#X connect 32 0 31 0;
#X connect 33 0 13 0;
#X connect 34 0 33 0;
#X connect 35 0 10 0;
#X connect 36 0 35 0;
#X connect 42 0 5 0;
#X connect 43 0 42 0;
#X connect 52 0 56 0;
#X connect 54 0 57 0;
#X connect 55 0 54 0;
#X connect 56 0 53 0;
#X connect 57 0 52 0;
#X restore 229 385 pd parameters;
#X text 228 367 2) experiment with parameters;
#X obj 195 422 fluid.noveltyslice~ -threshold 0.2 -kernelsize 31 -filtersize
3, f 21;
#X obj 357 423 r pd-dsp-started;
#X obj 357 448 samplerate~;
#X obj 17 148 fluid.demosound~;
#X obj 17 258 delwrite~ \$0-latencydelay 1000;
#X obj 17 547 delread~ \$0-latencydelay;
#X obj 17 645 fluid.out~ noveltyslice-help;
#X obj 17 13 cnv 15 660 42 empty empty fluid.noveltyslice~ 1 22 0 36
#4ba3fb #ffffff 0;
#X obj 17 60 cnv 15 488 17 empty empty Real-Time\\\ Novelty-Based\\\ Slicer
4 8 0 13 #e0e0e0 #404040 0;
#X text 18 85 A musical example.;
#X floatatom 367 490 5 0 0 0 - - - 0;
#X obj 208 576 bng 15 250 50 0 empty empty empty 17 7 0 10 #ffe3c6
#000000 #000000;
#X obj 208 545 threshold~ 0.5 1 0.1 1;
#X connect 0 0 9 0;
#X connect 1 0 0 0;
#X connect 2 0 4 0;
#X connect 4 0 10 1;
#X connect 4 0 16 0;
#X connect 4 1 1 0;
#X connect 4 1 14 0;
#X connect 5 0 6 0;
#X connect 6 0 1 1;
#X connect 7 0 4 0;
#X connect 7 0 8 0;
#X connect 9 0 10 0;
#X connect 16 0 15 0;
#X restore 535 824 pd musical_example;
#X connect 0 0 2 0;
#X connect 1 0 23 0;
#X connect 1 0 29 0;
#X connect 2 0 1 0;
#X connect 3 0 16 1;
#X connect 4 0 6 0;
#X connect 5 0 8 1;
#X connect 6 0 9 0;
#X connect 6 1 5 0;
#X connect 7 0 3 0;
#X connect 8 0 7 0;
#X connect 9 0 23 0;
#X connect 10 0 11 0;
#X connect 12 0 10 0;
#X connect 13 0 12 0;
#X connect 14 0 15 1;
#X connect 15 0 10 0;
#X connect 16 0 15 0;
#X connect 17 0 16 0;
#X connect 17 0 14 0;
#X connect 23 0 14 1;
#X connect 23 1 8 0;
#X connect 25 0 23 0;
