#N canvas 60 44 946 806 10;
#X obj 33 195 soundfiler;
#X obj 12 19 cnv 15 100 10 empty empty fluid.bufmelbands~ 20 12 0 36
-262144 -66577 0;
#X obj 34 156 loadbang;
#X obj 399 109 bng 15 250 50 0 empty empty empty 17 7 0 10 -262144
-1 -1;
#X obj 134 257 dac~;
#X obj 133 216 bng 15 250 50 0 empty empty empty 17 7 0 10 -262144
-1 -1;
#X msg 152 215 stop;
#N canvas 739 43 703 617 multichannel 0;
#X obj 46 510 loadbang;
#X obj 46 559 soundfiler;
#X obj 48 80 bng 15 250 50 0 empty empty empty 17 7 0 10 -262144 -1
-1;
#X obj 48 195 dac~;
#X obj 45 242 bng 15 250 50 0 empty empty empty 17 7 0 10 -262144 -1
-1;
#X obj 122 153 bng 15 250 50 0 empty empty empty 17 7 0 10 -262144
-1 -1;
#X text 67 80 1) compose an artificially wide "stereo" array;
#X text 46 11 "multichannel" arrays will process each channel in turn
\, and output 'channels' will be consecutive \, i.e. all features of
"channel" 1 \, then all features of "channel" 2 \, etc, f 87;
#X text 146 152 2) listen to the source;
#X msg 48 152 stop;
#X text 64 241 3) process;
#X obj 48 100 fluid.bufcompose~ -source bufmelguitar -startframe 555000
-numframes 468335 -deststartchan 1 -destination bufmel_source, f 73
;
#X obj 48 174 tabplay~ bufmel_source-0;
#X obj 211 175 tabplay~ bufmel_source-1;
#X msg 46 529 read -resize ../media/Tremblay-SA-UprightPianoPedalWide.wav
bufmel_source-0 bufmel_source-1 \, read -resize ../media/Tremblay-AaS-AcousticStrums-M.wav
bufmelguitar, f 90;
#X obj 115 559 array define bufmelguitar;
#X obj 287 559 clone multiarray 2 bufmel_source;
#X obj 45 259 fluid.bufmelbands~ 5 -source bufmel_source -features
bufmelbands_feats, f 84;
#X msg 45 277 \; bufmelbands_feats-0 xticks 0 0 0 \; bufmelbands_feats-1
xticks 0 0 0 \; bufmelbands_feats-2 xticks 0 0 0 \; bufmelbands_feats-3
xticks 0 0 0 \; bufmelbands_feats-4 xticks 0 0 0 \; bufmelbands_feats-5
xticks 0 0 0 \; bufmelbands_feats-6 xticks 0 0 0 \; bufmelbands_feats-7
xticks 0 0 0 \; bufmelbands_feats-8 xticks 0 0 0 \; bufmelbands_feats-9
xticks 0 0 0;
#X text 44 450 4) Look in the main window: since we have requested
5 melbands on a stereo buffer \, the first 5 feats arrays are the left
channel's melbands \, and the following 5 feats are the right channel
melbands., f 100;
#X connect 0 0 14 0;
#X connect 2 0 11 0;
#X connect 4 0 17 0;
#X connect 5 0 12 0;
#X connect 5 0 13 0;
#X connect 9 0 12 0;
#X connect 9 0 13 0;
#X connect 12 0 3 0;
#X connect 13 0 3 1;
#X connect 14 0 1 0;
#X connect 17 0 18 0;
#X restore 823 169 pd multichannel;
#N canvas 0 22 450 278 (subpatch) 0;
#X array bufmelbands_feats-0 915 float 0;
#X coords 0 3000 914 0 887 30 1 0 0;
#X restore 31 367 graph;
#N canvas 0 22 450 278 (subpatch) 0;
#X array bufmelbands_drums 453932 float 0;
#X coords 0 0.5 453931 -0.5 887 53 1 0 0;
#X restore 31 299 graph;
#X obj 674 194 note_on_assumed_sampling_rates_of_arrays;
#X obj 398 128 fluid.bufmelbands~ 10 -source bufmelbands_drums -features
bufmelbands_feats, f 75;
#X msg 33 177 read -resize ../media/Nicol-LoopE-M.wav bufmelbands_drums
;
#X obj 134 236 tabplay~ bufmelbands_drums;
#X text 36 58 A Perceptually Spread Spectral Contour Descriptor on
a Buffer, f 62;
#X msg 399 147 \; bufmelbands_feats-0 xticks 0 0 0 \; bufmelbands_feats-1
xticks 0 0 0 \; bufmelbands_feats-2 xticks 0 0 0 \; bufmelbands_feats-3
xticks 0 0 0 \; bufmelbands_feats-4 xticks 0 0 0 \; bufmelbands_feats-5
xticks 0 0 0 \; bufmelbands_feats-6 xticks 0 0 0 \; bufmelbands_feats-7
xticks 0 0 0 \; bufmelbands_feats-8 xticks 0 0 0 \; bufmelbands_feats-9
xticks 0 0 0;
#N canvas 0 22 450 278 (subpatch) 0;
#X array bufmelbands_feats-1 915 float 0;
#X coords 0 3000 914 0 887 30 1 0 0;
#X restore 31 410 graph;
#N canvas 0 22 450 278 (subpatch) 0;
#X array bufmelbands_feats-2 915 float 0;
#X coords 0 3000 914 0 887 30 1 0 0;
#X restore 31 453 graph;
#N canvas 0 22 450 278 (subpatch) 0;
#X array bufmelbands_feats-3 915 float 0;
#X coords 0 3000 914 0 887 30 1 0 0;
#X restore 31 496 graph;
#N canvas 0 22 450 278 (subpatch) 0;
#X array bufmelbands_feats-4 915 float 0;
#X coords 0 3000 914 0 887 30 1 0 0;
#X restore 31 539 graph;
#N canvas 0 22 450 278 (subpatch) 0;
#X array bufmelbands_feats-5 915 float 0;
#X coords 0 3000 914 0 887 30 1 0 0;
#X restore 31 582 graph;
#N canvas 0 22 450 278 (subpatch) 0;
#X array bufmelbands_feats-6 915 float 0;
#X coords 0 3000 914 0 887 30 1 0 0;
#X restore 31 625 graph;
#N canvas 0 22 450 278 (subpatch) 0;
#X array bufmelbands_feats-7 915 float 0;
#X coords 0 3000 914 0 887 30 1 0 0;
#X restore 31 668 graph;
#N canvas 0 22 450 278 (subpatch) 0;
#X array bufmelbands_feats-8 915 float 0;
#X coords 0 3000 914 0 887 30 1 0 0;
#X restore 31 711 graph;
#N canvas 0 22 450 278 (subpatch) 0;
#X array bufmelbands_feats-9 915 float 0;
#X coords 0 3000 914 0 887 30 1 0 0;
#X restore 31 754 graph;
#X text 416 110 1) process;
#X msg 550 107 numbands \$1;
#X msg 630 107 minfreq \$1;
#X msg 704 107 maxfreq \$1;
#X floatatom 550 90 8 0 0 0 - - -;
#X floatatom 630 90 8 0 0 0 - - -;
#X floatatom 704 90 8 0 0 0 - - -;
#X obj 703 51 loadbang;
#X msg 550 69 10;
#X msg 630 69 20;
#X msg 703 69 20000;
#N canvas 0 23 450 300 (subpatch) 0;
#X obj 83 51 inlet;
#X obj 83 89 pdcontrol;
#X msg 83 71 dir 0 ../docs/fluid.bufmelbands~.html;
#X msg 143 89 browse \$1;
#X connect 0 0 2 0;
#X connect 1 0 3 0;
#X connect 2 0 1 0;
#X connect 3 0 1 0;
#X restore 895 266 pd;
#X text 764 247 launch the HTML doc->;
#X obj 896 249 bng 15 250 50 0 empty empty empty 17 7 0 10 -262144
-1 -1;
#X obj 782 219 note_on_multithreading;
#X connect 2 0 12 0;
#X connect 3 0 11 0;
#X connect 5 0 13 0;
#X connect 6 0 13 0;
#X connect 11 0 15 0;
#X connect 12 0 0 0;
#X connect 13 0 4 0;
#X connect 13 0 4 1;
#X connect 26 0 11 0;
#X connect 27 0 11 0;
#X connect 28 0 11 0;
#X connect 29 0 26 0;
#X connect 30 0 27 0;
#X connect 31 0 28 0;
#X connect 32 0 33 0;
#X connect 32 0 34 0;
#X connect 32 0 35 0;
#X connect 33 0 29 0;
#X connect 34 0 30 0;
#X connect 35 0 31 0;
#X connect 38 0 36 0;
