#N canvas 837 287 366 300 10;
#X obj 31 39 inlet;
#X obj 31 59 t f b;
#X obj 221 152 tabplay~ bufpitch_env;
#X obj 32 232 *~;
#X obj 32 151 tabplay~ bufpitch_synthsource;
#X obj 32 253 outlet~;
#X obj 32 128 pack f 1024;
#X connect 0 0 1 0;
#X connect 1 0 6 0;
#X connect 1 1 2 0;
#X connect 2 0 3 1;
#X connect 3 0 5 0;
#X connect 4 0 3 0;
#X connect 6 0 4 0;
