#N canvas 394 213 770 744 12;
#X obj 233 530 line~;
#X obj 47 578 *~;
#X obj 47 650 dac~;
#X obj 145 131 inlet~;
#X obj 127 577 *~;
#X obj 65 528 hip~ 3;
#X obj 145 528 hip~ 3;
#X obj 65 131 inlet~;
#X obj 295 496 switch~;
#X obj 373 205 tgl 15 0 empty empty listen -46 9 0 12 #fcfcfc #000000
#000000 0 1;
#X obj 435 267 f \$0;
#X floatatom 435 293 5 0 0 0 - - - 0;
#X obj 428 124 route \$0;
#X msg 431 153 0;
#X obj 435 241 sel 1;
#X obj 428 98 r \$1-tog;
#X obj 435 326 s \$1-tog;
#X obj 262 296 sel 0 1;
#X msg 231 354 0;
#X obj 233 496 pack 0 5;
#X obj 264 354 delay 5;
#X msg 264 377 0;
#X obj 320 354 delay 5;
#X msg 377 354 1;
#X msg 320 377 1;
#X obj 371 156 inlet;
#X text 444 357 when on \, turn others off;
#X text 357 497 turn local DSP on and off;
#X connect 0 0 4 0;
#X connect 0 0 1 0;
#X connect 1 0 2 0;
#X connect 3 0 6 0;
#X connect 4 0 2 1;
#X connect 5 0 1 1;
#X connect 6 0 4 1;
#X connect 7 0 5 0;
#X connect 9 0 14 0;
#X connect 9 0 17 0;
#X connect 10 0 11 0;
#X connect 11 0 16 0;
#X connect 12 1 13 0;
#X connect 13 0 9 0;
#X connect 14 0 10 0;
#X connect 15 0 12 0;
#X connect 17 0 18 0;
#X connect 17 0 20 0;
#X connect 17 1 23 0;
#X connect 17 1 22 0;
#X connect 18 0 19 0;
#X connect 19 0 0 0;
#X connect 20 0 21 0;
#X connect 21 0 8 0;
#X connect 22 0 24 0;
#X connect 23 0 8 0;
#X connect 24 0 19 0;
#X connect 25 0 9 0;
#X coords 0 0 1 1 65 24 2 325 200;
