#N canvas 701 157 450 300 10;
#X obj 295 99 osc~ 0.2;
#X obj 295 120 *~ 0.1;
#X obj 57 197 dac~;
#X obj 65 99 osc~ 220;
#X msg 143 98 gain \$1;
#X floatatom 143 67 5 0 0 0 - - -;
#X obj 90 151 fluid.gain~;
#X obj 238 154 fluid.gain~;
#X connect 0 0 1 0;
#X connect 1 0 7 1;
#X connect 3 0 2 0;
#X connect 3 0 6 0;
#X connect 4 0 6 0;
#X connect 5 0 4 0;
#X connect 6 0 2 1;
