#N canvas 306 119 699 924 12;
#X obj 18 727 tabplay~;
#X msg 18 621 set interp \, bang;
#X obj 18 507 bng 15 250 50 0 empty empty empty 17 7 0 10 #fcfcfc #000000
#000000;
#X obj 17 13 cnv 15 660 42 empty empty fluid.bufaudiotransport 1 22
0 36 #4ba3fb #ffffff 0;
#X obj 509 60 fluid.referencelauncher fluid.bufaudiotransport.html
reference/audiotransport/;
#X obj 17 60 cnv 15 488 17 empty empty A\\\ histogram\\\ of\\\ pitch\\\ classes\\\ in\\\ real-time.
4 8 0 13 #e0e0e0 #404040 0;
#X text 17 79 This object computes a histogram of the energy contained
in each pitch class across the analysis frequency range, f 56;
#X obj 515 807 cnv 15 165 43 empty empty More\\\ information 4 10 0
13 #e0e0e0 #404040 0;
#X obj 18 232 soundfiler;
#X obj 18 257 bng 15 250 50 0 empty empty empty 17 7 0 10 #fcfcfc #000000
#000000;
#X obj 18 163 fluid.demoaudiofiles;
#X obj 228 232 soundfiler;
#X obj 228 257 bng 15 250 50 0 empty empty empty 17 7 0 10 #fcfcfc
#000000 #000000;
#X obj 228 163 fluid.demoaudiofiles;
#X msg 18 210 read -resize \$1 sourceA;
#X msg 228 210 read -resize \$1 sourceB;
#X text 35 504 bang when done;
#X msg 28 644 set sourceA \, bang;
#X msg 39 667 set sourceB \, bang;
#X obj 18 820 fluid.out~ bufaudiotransporthelp;
#X obj 88 770 loadbang;
#X msg 88 794 1;
#X obj 532 162 array define sourceA;
#X obj 532 187 array define sourceB;
#X obj 532 212 array define interp;
#X obj 18 439 fluid.bufaudiotransport 8192 -sourcea sourceA -sourceb
sourceB -destination interp -blocking 0 -interpolation 0.5, f 31;
#X msg 18 355 interpolation \$1;
#X floatatom 18 334 5 0 1 0 - - - 0;
#X obj 18 288 loadbang;
#X msg 18 312 0.5;
#X obj 34 411 bng 15 250 50 0 empty empty empty 17 7 0 10 #fcfcfc #000000
#000000;
#X text 171 643 ... or sourceA;
#X text 185 666 ... or sourceB;
#X text 34 526 The output will be the same length as the shortest source
, f 21;
#N canvas 151 83 830 873 parameters 0;
#X obj 545 284 s \$0-params;
#X obj 29 810 r \$0-params;
#X obj 29 833 outlet;
#X msg 545 235 blocking 0;
#X msg 553 258 blocking 1;
#X text 28 6 Optional parameters to fluid.bufaudiotransport;
#X text 647 234 non-blocking;
#X text 647 257 blocking (low priority);
#X obj 29 125 s \$0-params;
#X text 192 158 for hopsize \, -1 = windowsize/2;
#X text 193 100 window size (1024) \, hop size (-1) \, fft size (-1)
, f 24;
#X text 192 199 for fftsize \, -1 = windowsize snapped to nearest power
of 2, f 29;
#X obj 547 541 s \$0-params;
#X msg 547 496 interpolation 0.5;
#X text 687 495 A and B equal;
#X msg 557 518 interpolation 0.9;
#X text 687 517 mostly B;
#X obj 545 154 s \$0-params;
#X msg 545 97 warnings 1;
#X msg 555 119 warnings 0;
#X text 634 96 warnings;
#X text 634 118 or no warnings;
#X obj 29 452 s \$0-params;
#X msg 29 430 numchansa 1;
#X obj 29 512 s \$0-params;
#X msg 29 490 numframesa -1;
#X obj 29 632 s \$0-params;
#X msg 29 610 startframea 0;
#X obj 29 572 s \$0-params;
#X msg 29 550 startchana 0;
#X obj 291 452 s \$0-params;
#X obj 291 512 s \$0-params;
#X obj 289 632 s \$0-params;
#X obj 289 572 s \$0-params;
#X obj 29 392 s \$0-params;
#X msg 291 430 numchansb 1;
#X msg 289 550 startchanb 0;
#X msg 289 610 startframeb 0;
#X msg 291 490 numframesb -1;
#X msg 29 370 sourcea MySourceA;
#X obj 290 392 s \$0-params;
#X msg 290 370 sourcea MySourceB;
#X text 27 335 Source A;
#X text 289 335 Source B;
#X text 170 369 <- source ->;
#X text 136 429 <- no of channels ->, f 22;
#X text 141 489 <- no of frames ->;
#X text 140 549 <- start channel ->, f 20;
#X text 170 609 <- offset ->;
#X obj 547 393 s \$0-params;
#X msg 547 370 destination myarray;
#X obj 29 355 cnv 10 233 2 empty empty empty 20 12 0 14 #bbbbbb #404040
0;
#X obj 287 355 cnv 10 233 2 empty empty empty 20 12 0 14 #bbbbbb #404040
0;
#X obj 547 355 cnv 10 233 2 empty empty empty 20 12 0 14 #bbbbbb #404040
0;
#X text 545 335 Output;
#X obj 29 74 cnv 10 310 2 empty empty empty 20 12 0 14 #bbbbbb #404040
0;
#X text 27 54 FFT settings;
#X obj 547 465 cnv 10 233 2 empty empty empty 20 12 0 14 #bbbbbb #404040
0;
#X text 545 445 Interpolation between A and B;
#X obj 545 208 cnv 10 280 2 empty empty empty 20 12 0 14 #bbbbbb #404040
0;
#X text 543 188 Blocking;
#X obj 545 74 cnv 10 200 2 empty empty empty 20 12 0 14 #bbbbbb #404040
0;
#X text 543 54 Warnings;
#X msg 29 102 fftsettings 13000 -1 1;
#X connect 1 0 2 0;
#X connect 3 0 0 0;
#X connect 4 0 0 0;
#X connect 13 0 12 0;
#X connect 15 0 12 0;
#X connect 18 0 17 0;
#X connect 19 0 17 0;
#X connect 23 0 22 0;
#X connect 25 0 24 0;
#X connect 27 0 26 0;
#X connect 29 0 28 0;
#X connect 35 0 30 0;
#X connect 36 0 33 0;
#X connect 37 0 32 0;
#X connect 38 0 31 0;
#X connect 39 0 34 0;
#X connect 41 0 40 0;
#X connect 50 0 49 0;
#X connect 63 0 8 0;
#X restore 199 385 pd parameters;
#X text 198 364 open to see parameter messages;
#N canvas -436 -824 884 674 link 0;
#X msg 227 339 \; pd open \$1 \$2;
#X obj 401 191 pdcontrol;
#X msg 401 168 dir;
#X obj 227 119 bng 15 250 50 0 empty empty empty 17 7 0 10 #fcfcfc
#000000 #000000;
#X obj 227 313 pack s s;
#X obj 401 214 symbol;
#X msg 227 282 list fluid.audiotransport~-help.pd;
#X obj 227 89 inlet;
#X connect 1 0 5 0;
#X connect 2 0 1 0;
#X connect 3 0 2 0;
#X connect 3 0 6 0;
#X connect 4 0 0 0;
#X connect 5 0 4 1;
#X connect 6 0 4 0;
#X connect 7 0 3 0;
#X restore 438 537 pd link;
#X obj 421 537 bng 15 250 50 0 empty empty empty 17 7 0 10 #fcfcfc
#000000 #000000;
#X text 295 422 The FFT settings have a drastic impact on the result
of this algorithm., f 28;
#X text 294 486 See the real-time version of the object for a more
interactive demonstration of their effect., f 28;
#X obj 519 828 note_on_multithreading;
#X obj 18 143 cnv 15 15 15 empty empty empty 20 12 0 14 #c6ffc7 #404040
0;
#X text 18 141 1) Pick two source sounds;
#X obj 87 289 cnv 15 15 15 empty empty empty 20 12 0 14 #c6ffc7 #404040
0;
#X text 88 287 2) select interpolation. 0 is sourceA \, 0.5 is between
sourceA and sourceB, f 24;
#X obj 34 392 cnv 15 15 15 empty empty empty 20 12 0 14 #c6ffc7 #404040
0;
#X text 34 391 3) Process;
#X obj 140 621 cnv 15 15 15 empty empty empty 20 12 0 14 #c6ffc7 #404040
0;
#X text 140 620 4) Listen to the result;
#X connect 0 0 19 1;
#X connect 0 0 19 0;
#X connect 1 0 0 0;
#X connect 8 0 9 0;
#X connect 10 0 14 0;
#X connect 11 0 12 0;
#X connect 13 0 15 0;
#X connect 14 0 8 0;
#X connect 15 0 11 0;
#X connect 17 0 0 0;
#X connect 18 0 0 0;
#X connect 20 0 21 0;
#X connect 21 0 19 2;
#X connect 25 0 2 0;
#X connect 26 0 25 0;
#X connect 27 0 26 0;
#X connect 28 0 29 0;
#X connect 29 0 27 0;
#X connect 30 0 25 0;
#X connect 34 0 25 0;
#X connect 37 0 36 0;
