#N canvas 106 66 582 680 10;
#X obj 12 19 cnv 15 100 10 empty empty fluid.bufampslice~ 20 12 0 36
-262144 -66577 0;
#X text 37 50 Amplitude-based Slicer for Buffers;
#X text 36 92 This class implements an amplitude-based slicer \, with
various customisable options and conditions to detect absolute and
relative amplitude changes as onsets and offsets., f 86;
#X obj 59 197 until;
#X msg 41 149 6;
#X msg 59 338 1;
#X msg 180 200 const 0;
#X obj 40 401 list store;
#X obj 183 374 t l l;
#X obj 40 430 t b l;
#X obj 59 240 + 20;
#X obj 59 316 t b f f f;
#X obj 59 282 +;
#X obj 183 353 list prepend;
#X obj 59 218 random 81;
#X msg 115 263 0;
#X obj 41 170 t b f b, f 14;
#X text 70 149 trigger 6 random spikes in the buffer;
#X obj 67 459 print original_positions;
#X obj 40 612 print discovered_onsets;
#X text 203 590 the detected locations are slightly before the click
in this toy example \, since the envelope follower is 1 sample long
(not very useful on real signal);
#X text 220 461 the actual locations;
#N canvas 525 241 536 554 musical_example 0;
#X obj 17 77 soundfiler;
#X obj 17 97 t b;
#X obj 20 356 t f f;
#X obj 22 498 dac~;
#X obj 47 436 -;
#X obj 21 457 pack;
#X floatatom 20 334 5 0 0 0 - - -;
#X obj 255 473 array define bufampslice_source;
#X obj 255 494 clone fluid.multiarray 2 bufampslice_indices;
#X obj 17 210 array size bufampslice_indices-0;
#X obj 20 377 tabread bufampslice_indices-1;
#X obj 204 376 tabread bufampslice_indices-0;
#X obj 20 398 t b f;
#X obj 21 476 tabplay~ bufampslice_source;
#X msg 17 57 read -resize ../media/Nicol-LoopE-M.wav bufampslice_source
;
#X floatatom 17 231 5 0 0 0 - - -;
#X obj 21 419 f;
#X obj 17 177 fluid.bufampslice~ -source bufampslice_source -indices
bufampslice_indices -absthreshon -30 -absthreshoff -36 -absrampup 110
-absrampdown 4410, f 76;
#X text 18 35 1) read a source \, and triggers the analysis;
#X text 54 231 number of slices found;
#X floatatom 209 136 8 0 0 0 - - -;
#X floatatom 349 136 8 0 0 0 - - -;
#X text 260 136 dB;
#X text 401 137 dB;
#X msg 209 117 -30;
#X msg 349 117 -36;
#X text 207 99 change the thresholds;
#X msg 209 155 absthreshon \$1 \, bang;
#X msg 349 155 absthreshoff \$1 \, bang;
#X text 18 314 2) play a give slice \, by retrieving the onset and
offset indices, f 65;
#X connect 0 0 1 0;
#X connect 1 0 17 0;
#X connect 2 0 10 0;
#X connect 2 1 11 0;
#X connect 4 0 5 1;
#X connect 5 0 13 0;
#X connect 6 0 2 0;
#X connect 9 0 15 0;
#X connect 10 0 12 0;
#X connect 11 0 4 1;
#X connect 11 0 16 1;
#X connect 12 0 16 0;
#X connect 12 1 4 0;
#X connect 13 0 3 0;
#X connect 13 0 3 1;
#X connect 14 0 0 0;
#X connect 16 0 5 0;
#X connect 17 0 9 0;
#X connect 20 0 27 0;
#X connect 21 0 28 0;
#X connect 24 0 20 0;
#X connect 25 0 21 0;
#X connect 27 0 17 0;
#X connect 28 0 17 0;
#X restore 435 238 pd musical_example;
#N canvas 331 106 770 604 options_explained 0;
#N canvas 86 337 450 300 wavemaker 0;
#X msg 37 87 44100;
#X obj 37 132 until;
#X obj 37 108 t f b;
#X msg 82 151 -1;
#X msg 37 153 1;
#X obj 37 174 +;
#X obj 37 66 loadbang;
#X obj 37 217 expr sin($f1 * 3.14159 * 640 / 44100) * abs(sin($f1 *
3.14159 / 22050.));
#X obj 36 265 tabwrite bufampslice_wave;
#X obj 37 196 t f f f, f 40;
#X connect 0 0 2 0;
#X connect 1 0 4 0;
#X connect 2 0 1 0;
#X connect 2 1 3 0;
#X connect 3 0 5 1;
#X connect 4 0 5 0;
#X connect 5 0 9 0;
#X connect 6 0 0 0;
#X connect 7 0 8 0;
#X connect 9 0 7 0;
#X connect 9 1 8 1;
#X connect 9 2 5 1;
#X restore 295 228 pd wavemaker;
#N canvas 931 327 450 394 markermaker 0;
#X obj 37 37 inlet;
#X obj 37 58 t b b;
#X msg 63 77 \; bufampslice_markers const;
#X obj 37 110 array size bufampslice_pointers-0;
#X obj 37 129 t f b;
#X obj 37 150 until;
#X msg 37 169 1;
#X obj 37 188 +;
#X msg 81 151 -1;
#X obj 37 252 tabread bufampslice_pointers-0;
#X obj 37 271 t b f;
#X obj 88 348 tabwrite bufampslice_markers;
#X msg 37 292 1;
#X obj 227 271 t b f;
#X msg 227 292 -1;
#X obj 227 252 tabread bufampslice_pointers-1;
#X obj 37 207 t f f f;
#X text 237 209 +1: onsets / -1: offsets;
#X connect 0 0 1 0;
#X connect 1 0 3 0;
#X connect 1 1 2 0;
#X connect 3 0 4 0;
#X connect 4 0 5 0;
#X connect 4 1 8 0;
#X connect 5 0 6 0;
#X connect 6 0 7 0;
#X connect 7 0 16 0;
#X connect 8 0 7 1;
#X connect 9 0 10 0;
#X connect 10 0 12 0;
#X connect 10 1 11 1;
#X connect 12 0 11 0;
#X connect 13 0 14 0;
#X connect 13 1 11 1;
#X connect 14 0 11 0;
#X connect 15 0 13 0;
#X connect 16 0 9 0;
#X connect 16 1 15 0;
#X connect 16 2 7 1;
#X restore 23 564 pd markermaker;
#X obj 18 228 clone fluid.multiarray 2 bufampslice_pointers;
#X msg 19 298 reset \, bang;
#N canvas 744 353 621 315 relative_thresholds 0;
#X obj 31 278 outlet;
#X text 25 21 a second envelope follower allows relative thresholds
;
#X text 25 51 this is useful for being able to robustly detect events
despite changes in dynamics, f 84;
#X text 25 101 1) here we have a slow absolute envelope with low thresholds.
Our toy signal is always 'on', f 91;
#X text 39 155 2) use a faster relative envelope and set thresholds
relative to absolute env, f 80;
#X text 59 222 3) adding a minimum slice length can help clean things
up further, f 75;
#X msg 29 117 reset \, absrampup 2205 \, absrampdown 2205 \, absthreshon
-60 \, absthreshoff -60 \, bang, f 86;
#X msg 41 176 reset \, absrampup 2205 \, absrampdown 2205 \, absthreshon
-60 \, absthreshoff -60 \, relrampup 5 \, relrampdown 220 \, relthreshon
-1 \, relthreshoff -2 \, bang, f 88;
#X msg 60 242 reset \, absrampup 2205 \, absrampdown 2205 \, absthreshon
-60 \, absthreshoff -60 \, relrampup 5 \, relrampdown 220 \, relthreshon
-1 \, relthreshoff -2 \, minslicelength 2205 \, bang, f 88;
#X connect 6 0 0 0;
#X connect 7 0 0 0;
#X connect 8 0 0 0;
#X restore 97 503 pd relative_thresholds;
#N canvas 0 22 450 278 (subpatch) 0;
#X array bufampslice_wave 44100 float 0;
#X coords 0 1 44099 -1 720 144 1;
#X restore 17 15 graph;
#N canvas 0 22 450 278 (subpatch) 0;
#X array bufampslice_markers 44100 float 2;
#X coords 0 1 44100 -1 719 52 1;
#X restore 18 172 graph;
#X text 18 281 1) At its most basic \, fluid.ampslice~ is like [high
pass]–[half wave rectify]–[slide~]-[>~], f 91;
#X text 400 228 +1: onsets / -1: offsets;
#X text 35 328 2) by using different 'on' and 'off' thresholds \, we
add hysterisis \, which can help with triggering errors. This is like
replacing [>~] with [thresh~], f 111;
#X msg 37 361 reset \, absthreshoff -16 \, bang;
#X text 60 390 3) we can also enforce a minimum slice length \, or
a minimum silence length, f 74;
#X msg 62 410 reset \, minslicelength 441 \, bang;
#X msg 62 429 reset \, minsilencelength 441 \, bang;
#X text 78 465 4) advance settings;
#N canvas 678 353 533 402 looking_ahead_and_back 0;
#X obj 22 369 outlet;
#X text 20 9 look forward or backward in the signal to exercise more
control, f 63;
#X text 22 42 we can move onsets / offsets to more desireable positions
\, or supress state changes that are too fast, f 83;
#X text 20 108 1) set a minimum time for a transition to be above absthreshon
\, else ignore, f 75;
#X text 43 153 2) set a minimum time for a transition to be below absthreshoff
\, else ignore, f 77;
#X text 57 209 3) move onset backwards to minimum within window;
#X text 75 265 4) move offset forwards to minimum within window;
#X text 87 317 5) set both \, e.g. to capture reverb tail;
#X msg 59 226 reset \, lookback 441 \, bang;
#X msg 76 280 reset \, lookahead 441 \, bang;
#X msg 89 336 reset \, lookback 221 \, lookahead 441 \, bang;
#X msg 44 169 reset \, minlengthbelow 441 \, bang;
#X msg 22 126 reset \, minlengthabove 441 \, bang;
#X connect 8 0 0 0;
#X connect 9 0 0 0;
#X connect 10 0 0 0;
#X connect 11 0 0 0;
#X connect 12 0 0 0;
#X restore 79 482 pd looking_ahead_and_back;
#X obj 23 532 fluid.bufampslice~ -source bufampslice_wave -indices
bufampslice_pointers -absrampup 5 -absrampdown 50 -absthreshon -12
-absthreshoff -12, f 73;
#X connect 3 0 16 0;
#X connect 4 0 16 0;
#X connect 10 0 16 0;
#X connect 12 0 16 0;
#X connect 13 0 16 0;
#X connect 15 0 16 0;
#X connect 16 0 1 0;
#X restore 435 210 pd options_explained;
#X obj 180 237 clone fluid.multiarray 2 ampslicepoints;
#X obj 40 591 array get ampslicepoints-0;
#X obj 59 358 tabwrite ampspikes;
#N canvas 0 23 450 300 (subpatch) 0;
#X obj 83 51 inlet;
#X obj 83 89 pdcontrol;
#X msg 83 71 dir 0 ../docs/fluid.bufampslice~.html;
#X msg 143 89 browse \$1;
#X connect 0 0 2 0;
#X connect 1 0 3 0;
#X connect 2 0 1 0;
#X connect 3 0 1 0;
#X restore 524 315 pd;
#X text 393 296 launch the HTML doc->;
#X obj 525 298 bng 15 250 50 0 empty empty empty 17 7 0 10 -262144
-1 -1;
#X obj 411 352 note_on_multithreading;
#X obj 59 261 * 150;
#X obj 40 518 fluid.bufampslice~ -source ampspikes -indices ampslicepoints
-absrampup 1 -absrampdown 10 -absthreshon -30 -absthreshoff -50, f
63;
#X obj 180 217 array define ampspikes 60000;
#X connect 3 0 14 0;
#X connect 4 0 16 0;
#X connect 5 0 26 0;
#X connect 6 0 33 0;
#X connect 7 0 9 0;
#X connect 8 0 7 1;
#X connect 8 1 13 1;
#X connect 9 0 32 0;
#X connect 9 1 18 0;
#X connect 10 0 31 0;
#X connect 11 0 5 0;
#X connect 11 1 26 1;
#X connect 11 2 13 0;
#X connect 11 3 12 1;
#X connect 12 0 11 0;
#X connect 13 0 8 0;
#X connect 14 0 10 0;
#X connect 15 0 12 1;
#X connect 16 0 7 0;
#X connect 16 1 3 0;
#X connect 16 2 6 0;
#X connect 16 2 13 1;
#X connect 16 2 15 0;
#X connect 25 0 19 0;
#X connect 29 0 27 0;
#X connect 31 0 12 0;
#X connect 32 0 25 0;
