#N canvas 119 139 917 635 10;
#X obj 12 19 cnv 15 100 10 empty empty fluid.melbands~ 20 12 0 36 -262144
-66577 0;
#X obj 45 373 dac~;
#X obj 57 287 *~;
#X obj 71 269 tgl 15 0 empty empty empty 17 7 0 10 -262144 -1 -1 0
1;
#X obj 149 282 *~;
#X obj 163 264 tgl 15 0 empty empty empty 17 7 0 10 -262144 -1 -1 0
1;
#X obj 205 282 *~;
#X obj 219 264 tgl 15 0 empty empty empty 17 7 0 10 -262144 -1 -1 0
1;
#X obj 279 282 *~;
#X obj 293 264 tgl 15 0 empty empty empty 17 7 0 10 -262144 -1 -1 0
1;
#X obj 149 245 osc~ 220;
#X obj 149 314 *~ 0.1;
#X obj 353 282 *~;
#X obj 368 264 tgl 15 0 empty empty empty 17 7 0 10 -262144 -1 -1 0
1;
#X obj 81 429 vsl 13 128 0 127 0 0 empty empty empty 0 -9 0 5 -262144
-1 -1 0 1;
#X msg 140 349 0.1;
#X msg 169 349 0.8;
#X floatatom 253 213 5 0 0 0 - - -;
#X msg 253 192 220;
#X msg 285 191 333;
#X msg 316 192 555;
#X msg 348 193 789;
#N canvas 765 239 363 247 drums_players 0;
#X obj 94 59 r pd-dsp-started;
#X obj 27 17 loadbang;
#X obj 27 59 soundfiler;
#X obj 28 180 *~, f 10;
#X obj 28 140 /~;
#X msg 28 121 1;
#X obj 28 161 phasor~;
#X obj 125 100 samplerate~;
#X obj 98 121 / 1;
#X obj 27 77 t b f b;
#X obj 95 77 t b b b;
#X msg 27 37 read -resize media/Nicol-LoopE-M.wav mfcc_drums;
#X obj 124 154 array define mfcc_drums;
#X obj 28 200 tabread4~ mfcc_drums;
#X obj 28 221 outlet~;
#X connect 0 0 10 0;
#X connect 1 0 11 0;
#X connect 2 0 9 0;
#X connect 3 0 13 0;
#X connect 4 0 6 0;
#X connect 5 0 4 0;
#X connect 6 0 3 0;
#X connect 7 0 8 1;
#X connect 8 0 4 1;
#X connect 9 0 5 0;
#X connect 9 1 3 1;
#X connect 9 1 8 0;
#X connect 9 2 7 0;
#X connect 10 0 5 0;
#X connect 10 1 8 0;
#X connect 10 2 7 0;
#X connect 11 0 2 0;
#X connect 13 0 14 0;
#X restore 44 245 pd drums_players;
#X obj 81 372 *~ 1;
#N canvas 0 23 450 300 triangle 0;
#X obj 37 47 inlet;
#X obj 37 67 phasor~ 220;
#X obj 37 85 -~ 0.5;
#X obj 37 103 abs~;
#X obj 37 121 *~ 4;
#X obj 37 139 -~ 1;
#X obj 37 160 outlet~;
#X connect 0 0 1 0;
#X connect 1 0 2 0;
#X connect 2 0 3 0;
#X connect 3 0 4 0;
#X connect 4 0 5 0;
#X connect 5 0 6 0;
#X restore 205 245 pd triangle;
#N canvas 0 23 450 300 sawtooth 0;
#X obj 37 37 inlet;
#X obj 37 79 phasor~ 220;
#X obj 37 115 -~ 1;
#X obj 37 97 *~ 2;
#X obj 37 136 outlet~;
#X connect 0 0 1 0;
#X connect 1 0 3 0;
#X connect 2 0 4 0;
#X connect 3 0 2 0;
#X restore 279 245 pd sawtooth;
#N canvas 0 23 450 300 square 0;
#X obj 37 37 inlet;
#X obj 37 64 phasor~ 220;
#X obj 37 119 -~;
#X obj 51 83 -~ 0.5;
#X obj 51 101 wrap~;
#X obj 37 137 *~ 2;
#X obj 37 158 outlet~;
#X connect 0 0 1 0;
#X connect 1 0 3 0;
#X connect 1 0 2 0;
#X connect 2 0 5 0;
#X connect 3 0 4 0;
#X connect 4 0 2 1;
#X connect 5 0 6 0;
#X restore 353 245 pd square;
#X obj 416 245 noise~;
#X obj 461 246 tgl 15 0 empty empty empty 17 7 0 10 -262144 -1 -1 0
1;
#X obj 416 282 *~;
#X obj 461 264 * 0.2;
#X text 36 57 A Perceptually Spread Spectral Contour Descriptor in
Real-Time, f 63;
#X text 34 100 Amplitude for a number of equally spread perceptual
bands., f 59;
#X text 41 163 1) select a source - change the frequency \, observe
the spectroscope below and the mel bands on the bottomw left, f 111
;
#X obj 81 408 unpack f f f f f f f f f f f f f f f f f f f f f f f
f f f f f f f f f f f f f f f f f, f 86;
#X obj 94 429 vsl 13 128 0 127 0 0 empty empty empty 0 -9 0 5 -262144
-1 -1 0 1;
#X obj 107 429 vsl 13 128 0 127 0 0 empty empty empty 0 -9 0 5 -262144
-1 -1 0 1;
#X obj 120 429 vsl 13 128 0 127 0 0 empty empty empty 0 -9 0 5 -262144
-1 -1 0 1;
#X obj 133 429 vsl 13 128 0 127 0 0 empty empty empty 0 -9 0 5 -262144
-1 -1 0 1;
#X obj 146 429 vsl 13 128 0 127 0 0 empty empty empty 0 -9 0 5 -262144
-1 -1 0 1;
#X obj 159 429 vsl 13 128 0 127 0 0 empty empty empty 0 -9 0 5 -262144
-1 -1 0 1;
#X obj 172 429 vsl 13 128 0 127 0 0 empty empty empty 0 -9 0 5 -262144
-1 -1 0 1;
#X obj 185 429 vsl 13 128 0 127 0 0 empty empty empty 0 -9 0 5 -262144
-1 -1 0 1;
#X obj 198 429 vsl 13 128 0 127 0 0 empty empty empty 0 -9 0 5 -262144
-1 -1 0 1;
#X obj 211 429 vsl 13 128 0 127 0 0 empty empty empty 0 -9 0 5 -262144
-1 -1 0 1;
#X obj 224 429 vsl 13 128 0 127 0 0 empty empty empty 0 -9 0 5 -262144
-1 -1 0 1;
#X obj 237 429 vsl 13 128 0 127 0 0 empty empty empty 0 -9 0 5 -262144
-1 -1 0 1;
#X obj 250 429 vsl 13 128 0 127 0 0 empty empty empty 0 -9 0 5 -262144
-1 -1 0 1;
#X obj 263 429 vsl 13 128 0 127 0 0 empty empty empty 0 -9 0 5 -262144
-1 -1 0 1;
#X obj 276 429 vsl 13 128 0 127 0 0 empty empty empty 0 -9 0 5 -262144
-1 -1 0 1;
#X obj 289 429 vsl 13 128 0 127 0 0 empty empty empty 0 -9 0 5 -262144
-1 -1 0 1;
#X obj 302 429 vsl 13 128 0 127 0 0 empty empty empty 0 -9 0 5 -262144
-1 -1 0 1;
#X obj 315 429 vsl 13 128 0 127 0 0 empty empty empty 0 -9 0 5 -262144
-1 -1 0 1;
#X obj 328 429 vsl 13 128 0 127 0 0 empty empty empty 0 -9 0 5 -262144
-1 -1 0 1;
#X obj 341 429 vsl 13 128 0 127 0 0 empty empty empty 0 -9 0 5 -262144
-1 -1 0 1;
#X obj 354 429 vsl 13 128 0 127 0 0 empty empty empty 0 -9 0 5 -262144
-1 -1 0 1;
#X obj 367 429 vsl 13 128 0 127 0 0 empty empty empty 0 -9 0 5 -262144
-1 -1 0 1;
#X obj 380 429 vsl 13 128 0 127 0 0 empty empty empty 0 -9 0 5 -262144
-1 -1 0 1;
#X obj 393 429 vsl 13 128 0 127 0 0 empty empty empty 0 -9 0 5 -262144
-1 -1 0 1;
#X obj 406 429 vsl 13 128 0 127 0 0 empty empty empty 0 -9 0 5 -262144
-1 -1 0 1;
#X obj 419 429 vsl 13 128 0 127 0 0 empty empty empty 0 -9 0 5 -262144
-1 -1 0 1;
#X obj 432 429 vsl 13 128 0 127 0 0 empty empty empty 0 -9 0 5 -262144
-1 -1 0 1;
#X obj 445 429 vsl 13 128 0 127 0 0 empty empty empty 0 -9 0 5 -262144
-1 -1 0 1;
#X obj 458 429 vsl 13 128 0 127 0 0 empty empty empty 0 -9 0 5 -262144
-1 -1 0 1;
#X obj 471 429 vsl 13 128 0 127 0 0 empty empty empty 0 -9 0 5 -262144
-1 -1 0 1;
#X obj 484 429 vsl 13 128 0 127 0 0 empty empty empty 0 -9 0 5 -262144
-1 -1 0 1;
#X obj 497 429 vsl 13 128 0 127 0 0 empty empty empty 0 -9 0 5 -262144
-1 -1 0 1;
#X obj 510 429 vsl 13 128 0 127 0 0 empty empty empty 0 -9 0 5 -262144
-1 -1 0 1;
#X obj 523 429 vsl 13 128 0 127 0 0 empty empty empty 0 -9 0 5 -262144
-1 -1 0 1;
#X obj 536 429 vsl 13 128 0 127 0 0 empty empty empty 0 -9 0 5 -262144
-1 -1 0 1;
#X obj 549 429 vsl 13 128 0 127 0 0 empty empty empty 0 -9 0 5 -262144
-1 -1 0 1;
#X obj 562 429 vsl 13 128 0 127 0 0 empty empty empty 0 -9 0 5 -262144
-1 -1 0 1;
#X obj 575 429 vsl 13 128 0 127 0 0 empty empty empty 0 -9 0 5 -262144
-1 -1 0 1;
#X obj 588 429 vsl 13 128 0 127 0 0 empty empty empty 0 -9 0 5 -262144
-1 -1 0 1;
#X obj 81 390 fluid.melbands~ 40;
#N canvas 228 148 252 544 fft-analysis 0;
#X obj 15 164 *~;
#X obj 14 99 inlet~;
#X obj 15 218 rfft~;
#X obj 14 306 *~;
#X obj 56 306 *~;
#X obj 15 356 sqrt~;
#X obj 23 427 loadbang;
#X obj 23 449 tgl 15 0 empty empty empty 0 -6 0 8 -262144 -1 -1 1 1
;
#X obj 15 332 +~;
#X obj 14 498 tabwrite~ melbands-magnitude;
#X obj 36 141 tabreceive~ melbands-hann;
#X obj 13 76 block~ 1024;
#X obj 23 470 metro 11;
#X connect 0 0 2 0;
#X connect 1 0 0 0;
#X connect 2 0 3 0;
#X connect 2 0 3 1;
#X connect 2 1 4 0;
#X connect 2 1 4 1;
#X connect 3 0 8 0;
#X connect 4 0 8 1;
#X connect 5 0 9 0;
#X connect 6 0 7 0;
#X connect 7 0 12 0;
#X connect 8 0 5 0;
#X connect 10 0 0 1;
#X connect 12 0 9 0;
#X restore 27 570 pd fft-analysis;
#N canvas 0 0 450 300 (subpatch) 0;
#X array melbands-magnitude 256 float 0;
#X coords 0 32 255 0 256 100 1 0 0;
#X restore 647 439 graph;
#X text 644 542 0;
#X text 882 542 255;
#X text 633 528 0;
#N canvas 556 77 450 468 make.hann.window 0;
#X obj 107 94 t f b;
#X obj 107 136 until;
#X msg 107 157 1;
#X obj 107 178 +;
#X msg 148 156 -1;
#X obj 107 197 t f f f;
#X obj 107 218 / 1024;
#X obj 107 260 sin;
#X obj 107 281 *;
#X obj 234 134 expr 4*atan(1);
#X obj 107 239 * 3.1;
#X obj 107 47 t b b;
#X obj 107 26 loadbang;
#X obj 106 324 tabwrite melbands-hann;
#X obj 107 348 array define melbands-hann 1024;
#X msg 107 71 1024;
#X connect 0 0 1 0;
#X connect 0 1 4 0;
#X connect 1 0 2 0;
#X connect 2 0 3 0;
#X connect 3 0 5 0;
#X connect 4 0 3 1;
#X connect 5 0 6 0;
#X connect 5 1 3 1;
#X connect 5 2 13 1;
#X connect 6 0 10 0;
#X connect 7 0 8 0;
#X connect 7 0 8 1;
#X connect 8 0 13 0;
#X connect 9 0 10 1;
#X connect 10 0 7 0;
#X connect 11 0 15 0;
#X connect 11 1 9 0;
#X connect 12 0 11 0;
#X connect 15 0 0 0;
#X restore 126 571 pd make.hann.window;
#X text 614 434 32;
#X text 615 483 16;
#X text 200 350 2) the spectral shape is proportional to amplitude
change;
#X text 588 236 3) change numbands - it fixes the precision of the
model \, but will never go higher than the first argument (maxNumBands)
\, and will always output that number. Changing the lowest and highest
frequency modelled is helpful to focus the descriptor on a useful range
, f 46;
#X msg 590 373 numbands \$1;
#X msg 670 373 minfreq \$1;
#X msg 744 373 maxfreq \$1;
#X floatatom 590 356 8 0 0 0 - - -;
#X floatatom 670 356 8 0 0 0 - - -;
#X floatatom 744 356 8 0 0 0 - - -;
#X obj 743 317 loadbang;
#X msg 670 335 20;
#X msg 743 335 20000;
#X msg 590 335 40;
#N canvas 469 93 547 536 musical_example 0;
#X obj 21 90 inlet~;
#X text 18 17 mel-band vocoder;
#X text 64 91 takes the drum loop as input;
#X obj 58 242 fluid.melbands~ 40;
#X msg 174 215 numbands \$1;
#X msg 254 215 minfreq \$1;
#X msg 328 215 maxfreq \$1;
#X floatatom 174 191 8 1 40 0 - - -;
#X floatatom 254 191 8 0 0 0 - - -;
#X floatatom 328 191 8 0 0 0 - - -;
#X obj 327 152 loadbang;
#X msg 254 170 20;
#X msg 327 170 20000;
#X msg 174 170 40;
#N canvas 1044 232 662 502 melbandcalculator 0;
#X obj 35 52 inlet;
#X obj 245 51 inlet;
#X obj 180 48 inlet;
#X text 32 27 nb bands;
#X text 245 28 low freq;
#X text 179 30 high freq;
#X obj 245 87 expr 1127.01 * log(($f1/700.) +1.);
#X text 482 85 converts Hz to Mel;
#X obj 181 115 expr 1127.01 * log(($f1/700.) +1.);
#X obj 181 184 -;
#X obj 246 146 t b f;
#X obj 106 246 expr $f2 / ($f1 + 1);
#X obj 179 207 t b f;
#X obj 35 279 until;
#X msg 35 299 1;
#X obj 35 320 +;
#X obj 35 341 t f f f;
#X obj 34 453 outlet;
#X obj 35 432 pack f f;
#X text 248 247 makes a range \, and splits it evenly in Mel;
#X text 102 401 calculate the position of the centre of each band in
mel \, then converts them all back in Hz;
#X msg 71 299 -1;
#X obj 54 378 expr (exp(((($f1 + 1) * $f2) + $f3) / 1127.01048) - 1
) * 700, f 62;
#X obj 35 167 f;
#X obj 35 82 t b f;
#X obj 35 188 t f b f;
#X connect 0 0 24 0;
#X connect 1 0 6 0;
#X connect 2 0 8 0;
#X connect 6 0 10 0;
#X connect 8 0 9 0;
#X connect 9 0 12 0;
#X connect 10 0 9 0;
#X connect 10 1 9 1;
#X connect 10 1 22 2;
#X connect 11 0 22 1;
#X connect 12 0 23 0;
#X connect 12 1 11 1;
#X connect 13 0 14 0;
#X connect 14 0 15 0;
#X connect 15 0 16 0;
#X connect 16 0 18 0;
#X connect 16 1 22 0;
#X connect 16 2 15 1;
#X connect 18 0 17 0;
#X connect 21 0 15 1;
#X connect 22 0 18 1;
#X connect 23 0 25 0;
#X connect 24 0 23 0;
#X connect 24 1 23 1;
#X connect 25 0 13 0;
#X connect 25 1 21 0;
#X connect 25 2 11 0;
#X restore 404 215 pd melbandcalculator;
#X obj 62 312 clone fluid.melbands.polyoscil 40;
#X obj 62 269 list prepend all;
#X obj 62 290 list trim;
#X obj 20 496 dac~;
#X obj 22 411 *~;
#X obj 36 393 tgl 15 0 empty empty empty 17 7 0 10 -262144 -1 -1 0
1;
#X obj 72 371 tgl 15 0 empty empty empty 17 7 0 10 -262144 -1 -1 1
1;
#X obj 58 411 *~;
#X text 135 393 select what to listen to source / resynth;
#X text 186 130 experiment with parameters;
#X obj 72 391 * 0.0001;
#N canvas 0 23 450 300 modulator 0;
#X obj 77 81 osc~ 0.21;
#X obj 77 102 snapshot~;
#X obj 295 103 snapshot~;
#X obj 295 82 osc~ 0.19;
#X obj 359 83 metro 20;
#X obj 77 121 expr 20 * pow(4 \, (($f1 + 1.) / 2.));
#X obj 295 124 expr 5000 * pow(4 \, (($f1 + 1.) / 2.));
#X obj 77 142 outlet;
#X obj 295 145 outlet;
#X obj 359 63 tgl 15 0 empty empty empty 17 7 0 10 -262144 -1 -1 1
1;
#X text 296 43 switch on the mod;
#X connect 0 0 1 0;
#X connect 1 0 5 0;
#X connect 2 0 6 0;
#X connect 3 0 2 0;
#X connect 4 0 2 0;
#X connect 4 0 1 0;
#X connect 5 0 7 0;
#X connect 6 0 8 0;
#X connect 9 0 4 0;
#X restore 403 171 pd modulator;
#X connect 0 0 3 0;
#X connect 0 0 19 0;
#X connect 3 0 16 0;
#X connect 4 0 3 0;
#X connect 5 0 3 0;
#X connect 6 0 3 0;
#X connect 7 0 4 0;
#X connect 7 0 14 0;
#X connect 8 0 5 0;
#X connect 8 0 14 2;
#X connect 9 0 6 0;
#X connect 9 0 14 1;
#X connect 10 0 13 0;
#X connect 10 0 11 0;
#X connect 10 0 12 0;
#X connect 11 0 8 0;
#X connect 12 0 9 0;
#X connect 13 0 7 0;
#X connect 14 0 15 1;
#X connect 15 0 22 0;
#X connect 16 0 17 0;
#X connect 17 0 15 0;
#X connect 19 0 18 0;
#X connect 19 0 18 1;
#X connect 20 0 19 1;
#X connect 21 0 25 0;
#X connect 22 0 18 0;
#X connect 22 0 18 1;
#X connect 25 0 22 1;
#X connect 26 0 8 0;
#X connect 26 1 9 0;
#X restore 15 600 pd musical_example;
#N canvas 0 23 450 300 (subpatch) 0;
#X obj 83 51 inlet;
#X obj 83 89 pdcontrol;
#X msg 83 71 dir 0 docs/fluid.melbands~.html;
#X msg 143 89 browse \$1;
#X connect 0 0 2 0;
#X connect 1 0 3 0;
#X connect 2 0 1 0;
#X connect 3 0 1 0;
#X restore 839 127 pd;
#X text 708 108 launch the HTML doc->;
#X obj 840 110 bng 15 250 50 0 empty empty empty 17 7 0 10 -262144
-1 -1;
#X connect 2 0 1 0;
#X connect 2 0 1 1;
#X connect 2 0 23 0;
#X connect 3 0 2 1;
#X connect 4 0 11 0;
#X connect 5 0 4 1;
#X connect 6 0 11 0;
#X connect 7 0 6 1;
#X connect 8 0 11 0;
#X connect 9 0 8 1;
#X connect 10 0 4 0;
#X connect 11 0 1 0;
#X connect 11 0 1 1;
#X connect 11 0 23 0;
#X connect 12 0 11 0;
#X connect 13 0 12 1;
#X connect 15 0 23 1;
#X connect 16 0 23 1;
#X connect 17 0 10 0;
#X connect 17 0 24 0;
#X connect 17 0 25 0;
#X connect 17 0 26 0;
#X connect 18 0 17 0;
#X connect 19 0 17 0;
#X connect 20 0 17 0;
#X connect 21 0 17 0;
#X connect 22 0 2 0;
#X connect 22 0 95 0;
#X connect 23 0 74 0;
#X connect 23 0 75 0;
#X connect 24 0 6 0;
#X connect 25 0 8 0;
#X connect 26 0 12 0;
#X connect 27 0 29 0;
#X connect 28 0 30 0;
#X connect 29 0 11 0;
#X connect 30 0 29 1;
#X connect 34 0 14 0;
#X connect 34 1 35 0;
#X connect 34 2 36 0;
#X connect 34 3 37 0;
#X connect 34 4 38 0;
#X connect 34 5 39 0;
#X connect 34 6 40 0;
#X connect 34 7 41 0;
#X connect 34 8 42 0;
#X connect 34 9 43 0;
#X connect 34 10 44 0;
#X connect 34 11 45 0;
#X connect 34 12 46 0;
#X connect 34 13 47 0;
#X connect 34 14 48 0;
#X connect 34 15 49 0;
#X connect 34 16 50 0;
#X connect 34 17 51 0;
#X connect 34 18 52 0;
#X connect 34 19 53 0;
#X connect 34 20 54 0;
#X connect 34 21 55 0;
#X connect 34 22 56 0;
#X connect 34 23 57 0;
#X connect 34 24 58 0;
#X connect 34 25 59 0;
#X connect 34 26 60 0;
#X connect 34 27 61 0;
#X connect 34 28 62 0;
#X connect 34 29 63 0;
#X connect 34 30 64 0;
#X connect 34 31 65 0;
#X connect 34 32 66 0;
#X connect 34 33 67 0;
#X connect 34 34 68 0;
#X connect 34 35 69 0;
#X connect 34 36 70 0;
#X connect 34 37 71 0;
#X connect 34 38 72 0;
#X connect 34 39 73 0;
#X connect 74 0 34 0;
#X connect 85 0 74 0;
#X connect 86 0 74 0;
#X connect 87 0 74 0;
#X connect 88 0 85 0;
#X connect 89 0 86 0;
#X connect 90 0 87 0;
#X connect 91 0 94 0;
#X connect 91 0 92 0;
#X connect 91 0 93 0;
#X connect 92 0 89 0;
#X connect 93 0 90 0;
#X connect 94 0 88 0;
#X connect 98 0 96 0;
