#N canvas 55 112 956 851 10;
#X obj 33 195 soundfiler;
#X obj 12 19 cnv 15 100 10 empty empty fluid.bufspectralshape~ 20 12
0 36 -262144 -66577 0;
#X obj 34 156 loadbang;
#X text 37 59 Seven Spectral Shape Descriptors on a Buffer;
#X text 37 90 Seven of the spectral shape descriptors \, computed on
a linear scale for both amplitude and frequency., f 102;
#X msg 34 176 read -resize ../media/Nicol-LoopE-M.wav bufshape_drums
;
#N canvas 0 22 450 278 (subpatch) 0;
#X array bufshape_drums 453932 float 0;
#X coords 0 0.5 453931 -0.5 887 53 1 0 0;
#X restore 30 294 graph;
#N canvas 0 22 450 278 (subpatch) 0;
#X array bufshape_feats-0 915 float 0;
#X coords 0 22050 914 0 887 53 1 0 0;
#X restore 29 363 graph;
#N canvas 0 22 450 278 (subpatch) 0;
#X array bufshape_feats-1 915 float 0;
#X coords 0 22050 914 0 887 53 1 0 0;
#X restore 30 434 graph;
#N canvas 0 22 450 278 (subpatch) 0;
#X array bufshape_feats-2 915 float 0;
#X coords 0 20 914 0 887 53 1 0 0;
#X restore 30 504 graph;
#N canvas 0 22 450 278 (subpatch) 0;
#X array bufshape_feats-3 915 float 0;
#X coords 0 500 914 0 887 53 1 0 0;
#X restore 30 574 graph;
#N canvas 0 22 450 278 (subpatch) 0;
#X array bufshape_feats-4 915 float 0;
#X coords 0 22050 914 0 887 53 1 0 0;
#X restore 30 644 graph;
#N canvas 0 22 450 278 (subpatch) 0;
#X array bufshape_feats-5 915 float 0;
#X coords 0 30 914 -60 887 53 1 0 0;
#X restore 30 714 graph;
#N canvas 0 22 450 278 (subpatch) 0;
#X array bufshape_feats-6 915 float 0;
#X coords 0 30 914 -30 887 53 1 0 0;
#X restore 30 784 graph;
#X obj 410 151 bng 15 250 50 0 empty empty empty 17 7 0 10 -262144
-1 -1;
#X text 142 488 skewness(ratio):;
#X text 143 559 kurtosis(ratio):;
#X text 144 698 flatness(dB):;
#X text 146 768 crest(dB):;
#X msg 410 189 \; bufshape_feats-0 xticks 0 0 0 \; bufshape_feats-1
xticks 0 0 0 \; bufshape_feats-2 xticks 0 0 0 \; bufshape_feats-3 xticks
0 0 0 \; bufshape_feats-4 xticks 0 0 0 \; bufshape_feats-5 xticks 0
0 0 \; bufshape_feats-6 xticks 0 0 0;
#X obj 134 236 tabplay~ bufshape_drums;
#X obj 134 257 dac~;
#X obj 133 216 bng 15 250 50 0 empty empty empty 17 7 0 10 -262144
-1 -1;
#X msg 152 215 stop;
#N canvas 635 112 939 850 multichannel 0;
#X obj 24 758 loadbang;
#X obj 24 810 soundfiler;
#X obj 28 81 bng 15 250 50 0 empty empty empty 17 7 0 10 -262144 -1
-1;
#X obj 28 196 dac~;
#X obj 631 23 bng 15 250 50 0 empty empty empty 17 7 0 10 -262144 -1
-1;
#X obj 102 154 bng 15 250 50 0 empty empty empty 17 7 0 10 -262144
-1 -1;
#X text 47 81 1) compose an artificially wide "stereo" array;
#X text 26 12 "multichannel" arrays will process each channel in turn
\, and output 'channels' will be consecutive \, i.e. all features of
"channel" 1 \, then all features of "channel" 2 \, etc, f 87;
#X obj 28 101 fluid.bufcompose~ -source bufshapeguitar -startframe
555000 -numframes 468335 -deststartchan 1 -destination bufshape_source
, f 73;
#X obj 28 175 tabplay~ bufshape_source-0;
#X obj 191 176 tabplay~ bufshape_source-1;
#X text 126 153 2) listen to the source;
#X msg 28 153 stop;
#X obj 93 810 array define bufshapeguitar;
#X obj 265 810 clone multiarray 2 bufshape_source;
#X msg 24 779 read -resize ../media/Tremblay-SA-UprightPianoPedalWide.wav
bufshape_source-0 bufshape_source-1 \, read -resize ../media/Tremblay-AaS-AcousticStrums-M.wav
bufshapeguitar, f 90;
#X text 650 22 3) process;
#X msg 631 69 \; bufshape_feats-0 xticks 0 0 0 \; bufshape_feats-1
xticks 0 0 0 \; bufshape_feats-2 xticks 0 0 0 \; bufshape_feats-3 xticks
0 0 0 \; bufshape_feats-4 xticks 0 0 0 \; bufshape_feats-5 xticks 0
0 0 \; bufshape_feats-6 xticks 0 0 0 \; bufshape_feats-7 xticks 0 0
0 \; bufshape_feats-8 xticks 0 0 0 \; bufshape_feats-9 xticks 0 0 0
\; bufshape_feats-10 xticks 0 0 0 \; bufshape_feats-11 xticks 0 0 0
\; bufshape_feats-12 xticks 0 0 0 \; bufshape_feats-13 xticks 0 0 0
, f 32;
#N canvas 0 22 450 278 (subpatch) 0;
#X array bufshape_feats-7 915 float 0;
#X coords 0 22050 914 0 887 53 1 0 0;
#X restore 23 259 graph;
#N canvas 0 22 450 278 (subpatch) 0;
#X array bufshape_feats-8 915 float 0;
#X coords 0 22050 914 0 887 53 1 0 0;
#X restore 24 330 graph;
#N canvas 0 22 450 278 (subpatch) 0;
#X array bufshape_feats-9 915 float 0;
#X coords 0 20 914 0 887 53 1 0 0;
#X restore 24 400 graph;
#N canvas 0 22 450 278 (subpatch) 0;
#X array bufshape_feats-10 915 float 0;
#X coords 0 500 914 0 887 53 1 0 0;
#X restore 24 470 graph;
#N canvas 0 22 450 278 (subpatch) 0;
#X array bufshape_feats-11 915 float 0;
#X coords 0 22050 914 0 887 53 1 0 0;
#X restore 24 540 graph;
#N canvas 0 22 450 278 (subpatch) 0;
#X array bufshape_feats-12 915 float 0;
#X coords 0 30 914 -60 887 53 1 0 0;
#X restore 24 610 graph;
#N canvas 0 22 450 278 (subpatch) 0;
#X array bufshape_feats-13 915 float 0;
#X coords 0 30 914 -30 887 53 1 0 0;
#X restore 24 680 graph;
#X text 136 384 skewness(ratio):;
#X text 137 455 kurtosis(ratio):;
#X text 138 594 flatness(dB):;
#X text 140 664 crest(dB):;
#X text 139 314 spread(Hz):;
#X text 138 524 rolloff(Hz):;
#X obj 631 40 fluid.bufspectralshape~ -source bufshape_source -features
bufshape_feats, f 40;
#X text 138 244 centroid(Hz):;
#X text 156 223 All 'channel 2' features follow here. For 'channel
1' look at the main window, f 77;
#X connect 0 0 15 0;
#X connect 2 0 8 0;
#X connect 4 0 31 0;
#X connect 5 0 9 0;
#X connect 5 0 10 0;
#X connect 9 0 3 0;
#X connect 10 0 3 1;
#X connect 12 0 9 0;
#X connect 12 0 10 0;
#X connect 15 0 1 0;
#X connect 31 0 17 0;
#X restore 672 240 pd multichannel;
#X text 144 348 centroid(Hz):;
#X text 145 418 spread(Hz):;
#X text 144 628 rolloff(Hz):;
#X obj 671 217 note_on_assumed_sampling_rates_of_arrays;
#X obj 410 170 fluid.bufspectralshape~ -source bufshape_drums -features
bufshape_feats, f 71;
#N canvas 0 23 450 300 (subpatch) 0;
#X obj 83 51 inlet;
#X obj 83 89 pdcontrol;
#X msg 83 71 dir 0 ../docs/fluid.bufspectralshape~.html;
#X msg 143 89 browse \$1;
#X connect 0 0 2 0;
#X connect 1 0 3 0;
#X connect 2 0 1 0;
#X connect 3 0 1 0;
#X restore 892 111 pd;
#X text 761 92 launch the HTML doc->;
#X obj 893 94 bng 15 250 50 0 empty empty empty 17 7 0 10 -262144 -1
-1;
#X obj 779 240 note_on_multithreading;
#X connect 2 0 5 0;
#X connect 5 0 0 0;
#X connect 14 0 29 0;
#X connect 20 0 21 0;
#X connect 20 0 21 1;
#X connect 22 0 20 0;
#X connect 23 0 20 0;
#X connect 29 0 19 0;
#X connect 32 0 30 0;
