#N canvas 0 23 698 751 12;
#X msg 85 237 print;
#X obj 17 13 cnv 15 660 42 empty empty fluid.labelset 1 22 0 36 #4ba3fb #ffffff 0;
#X obj 17 60 cnv 15 488 17 empty empty A\ set\ of\ labels\ associated\ with\ identifiers. 4 8 0 13 #e0e0e0 #404040 0;
#X obj 509 60 fluid.referencelauncher fluid.labelset.html reference/labelset/;
#X text 17 79 FluidLabelSet is a container associating identifiers with labels.;
#X msg 42 175 addlabel perth hot;
#X msg 54 198 addlabel huddersfield cold;
#X obj 251 175 cnv 15 15 15 empty empty empty 20 12 0 14 #c6ffc7 #404040 0;
#X text 252 174 1) Add labels with the addlabel <identifier><label> strctured message, f 29;
#X obj 142 237 cnv 15 15 15 empty empty empty 20 12 0 14 #c6ffc7 #404040 0;
#X text 142 236 2) print the labelset to inspect the internal state, f 29;
#X obj 341 305 cnv 15 15 15 empty empty empty 20 12 0 14 #c6ffc7 #404040 0;
#X msg 167 325 setlabel perth dry-heat;
#X msg 84 348 updatelabel huddersfield wet-winter;
#X text 342 304 3) Set and update labels with the corresponding messages. The setlabel message will create the label if it doesn note exist \, while updatelabel message assumes it already exists and will not make it., f 44;
#X msg 165 397 print;
#X obj 219 397 cnv 15 15 15 empty empty empty 20 12 0 14 #c6ffc7 #404040 0;
#X text 218 396 4) print again to see how the labels have changed;
#X msg 163 439 deletelabel huddersfield \, print, f 26;
#X obj 359 446 cnv 15 15 15 empty empty empty 20 12 0 14 #c6ffc7 #404040 0;
#X text 359 445 5) Delete the label with the identifier huddersfield \, and print the labelset to the console again., f 41;
#X obj 474 616 cnv 15 200 131 empty empty More\ information 4 10 0 13 #e0e0e0 #404040 0;
#N canvas 22 23 696 926 audio-descriptor_example 0;
#X obj 37 296 bng 15 250 50 0 empty empty empty 17 7 0 10 #fcfcfc #000000 #000000;
#X obj 58 296 cnv 15 15 15 empty empty empty 20 12 0 14 #c6ffc7 #404040 0;
#N canvas 1600 23 448 165 loadsrc 0;
#X obj 16 77 soundfiler;
#X obj 16 19 loadbang;
#X msg 16 41 read -resize media/Tremblay-ASWINE-ScratchySynth-M.wav help.labelset.src;
#X connect 1 0 2 0;
#X connect 2 0 0 0;
#X restore 37 196 pd loadsrc;
#X obj 17 13 cnv 15 660 42 empty empty fluid.labelset 1 22 0 36 #4ba3fb #ffffff 0;
#X text 17 79 Create associations between identifiers shared across fluid.dataset~ objects and fluid.labelset~ objects.;
#X obj 460 128 array define help.labelset.src;
#X text 59 295 1) Calculate the MFCCs across a source buffer. Calculate the statistics across each coefficient per spectral frame and flatten the data to a single dimension. This is a common workflow for storing a large number of descriptors in a dataset, f 84;
#X obj 37 394 fluid.bufstats;
#X obj 348 151 array define help.labelset.features.stats.flat;
#X obj 37 356 fluid.bufmfcc 13 -source help.labelset.src;
#X obj 37 432 fluid.bufflatten -destination help.labelset.features.stats.flat;
#X obj 37 574 fluid.dataset sound-analysis;
#X msg 37 520 setpoint scratch-synth help.labelset.features.stats.flat \, print, f 34;
#X msg 357 520 setlabel scratch-synth noisy \, print, f 25;
#X obj 37 486 bng 15 250 50 0 empty empty empty 17 7 0 10 #fcfcfc #000000 #000000;
#X obj 58 486 cnv 15 15 15 empty empty empty 20 12 0 14 #c6ffc7 #404040 0;
#X text 381 587 setlabel message is sent to the fluid.labelset~ below associating the identifier "scratch-synth" with the label "noisy". Both the fluid.dataset~ and fluid.labelset~ have the identifier "scratch-synth". If for example \, a fluid.mlpclassifier~ was trained with this data \, the "noisy" label would be the training label for the data inside the dataset with that identifier., f 41;
#X obj 357 564 fluid.labelset sound-labels;
#X obj 37 742 bng 15 250 50 0 empty empty empty 17 7 0 10 #fcfcfc #000000 #000000;
#X obj 58 741 cnv 15 15 15 empty empty empty 20 12 0 14 #c6ffc7 #404040 0;
#X obj 38 862 cnv 15 15 15 empty empty empty 20 12 0 14 #c6ffc7 #404040 0;
#X obj 37 767 fluid.ds2text sound-analysis help.labelset.text.1, f 27;
#X text 59 740 3) store dataset into a text object;
#X text 39 861 4) double-click 'text' to see data;
#X obj 368 862 cnv 15 15 15 empty empty empty 20 12 0 14 #c6ffc7 #404040 0;
#X obj 367 886 text define help.labelset.text.1b;
#X obj 367 767 fluid.ls2text sound-labels help.labelset.text.1b, f 27;
#X obj 37 886 text define help.labelset.text.1;
#X text 59 485 2) Click here to set a point and a label;
#X text 369 861 5) double-click 'text' to see data;
#X connect 0 0 9 0;
#X connect 7 0 10 0;
#X connect 9 0 7 0;
#X connect 12 0 11 0;
#X connect 13 0 17 0;
#X connect 14 0 12 0;
#X connect 14 0 13 0;
#X connect 18 0 21 0;
#X connect 18 0 26 0;
#X restore 477 636 pd audio-descriptor_example;
#N canvas 149 122 701 570 other_messages 0;
#X obj 17 13 cnv 15 660 42 empty empty fluid.dataset 1 22 0 36 #4ba3fb #ffffff 0;
#X text 17 79 Other useful messages that can be used with fluid.dataset~;
#X obj 57 130 loadbang;
#N canvas 1549 23 499 766 make_dummy_dataset 0;
#X obj 37 37 inlet;
#X obj 37 132 until;
#X obj 37 160 f;
#X obj 101 162 + 1;
#X msg 96 112 0;
#X msg 37 104 100;
#X msg 111 542 symbol noisy;
#X obj 37 578 pack f s, f 39;
#X msg 273 310 symbol harsh;
#X msg 257 333 symbol brittle;
#X msg 242 356 symbol groovy;
#X msg 224 380 symbol pitchy;
#X msg 208 403 symbol rhythmic;
#X msg 192 426 symbol gentle;
#X msg 176 449 symbol soft;
#X msg 159 472 symbol loud;
#X msg 143 495 symbol bright;
#X msg 127 518 symbol tonal;
#X obj 111 254 random 11;
#X obj 111 278 sel 0 1 2 3 4 5 6 7 8 9 10;
#X obj 37 224 trigger f b;
#X obj 37 63 t b b;
#X text 130 112 reset;
#X obj 37 644 fluid.labelset help.labelset.2;
#X msg 37 609 setlabel foo\$1 \$2;
#X connect 0 0 21 0;
#X connect 1 0 2 0;
#X connect 2 0 3 0;
#X connect 2 0 20 0;
#X connect 3 0 2 1;
#X connect 4 0 2 1;
#X connect 5 0 1 0;
#X connect 6 0 7 1;
#X connect 7 0 24 0;
#X connect 8 0 7 1;
#X connect 9 0 7 1;
#X connect 10 0 7 1;
#X connect 11 0 7 1;
#X connect 12 0 7 1;
#X connect 13 0 7 1;
#X connect 14 0 7 1;
#X connect 15 0 7 1;
#X connect 16 0 7 1;
#X connect 17 0 7 1;
#X connect 18 0 19 0;
#X connect 19 0 6 0;
#X connect 19 1 17 0;
#X connect 19 2 16 0;
#X connect 19 3 15 0;
#X connect 19 4 14 0;
#X connect 19 5 13 0;
#X connect 19 6 12 0;
#X connect 19 7 11 0;
#X connect 19 8 10 0;
#X connect 19 9 9 0;
#X connect 19 10 8 0;
#X connect 20 0 7 0;
#X connect 20 1 18 0;
#X connect 21 0 5 0;
#X connect 21 1 4 0;
#X connect 24 0 23 0;
#X restore 57 154 pd make_dummy_dataset;
#X msg 137 248 size;
#X msg 157 278 print;
#X msg 197 308 clear;
#X obj 307 527 text define help.labelset.text.2;
#X text 309 502 double-click 'text' to see data;
#X text 72 424 store dataset into a text object;
#X msg 51 463 bang;
#X msg 97 188 write /tmp/myfile.json;
#X msg 117 218 read /tmp/myfile.json;
#X obj 51 503 fluid.ls2text help.labelset.2 help.labelset.text.2, f 27;
#X obj 51 395 fluid.labelset help.labelset.2;
#X obj 263 188 cnv 15 15 15 empty empty empty 20 12 0 14 #c6ffc7 #404040 0;
#X obj 278 220 cnv 15 15 15 empty empty empty 20 12 0 14 #c6ffc7 #404040 0;
#X obj 179 250 cnv 15 15 15 empty empty empty 20 12 0 14 #c6ffc7 #404040 0;
#X obj 204 281 cnv 15 15 15 empty empty empty 20 12 0 14 #c6ffc7 #404040 0;
#X obj 242 311 cnv 15 15 15 empty empty empty 20 12 0 14 #c6ffc7 #404040 0;
#X text 263 187 1) Write a fluid.labelset to disk;
#X text 278 219 2) Read a fluid.labelset~ from disk;
#X text 180 249 3) Get the size (number of identifiers with associated labels)., f 63;
#X text 243 309 5) Completely empty and reset a fluid.labelset~;
#X text 204 280 4) Prints the content in the Pd window, f 63;
#X connect 2 0 3 0;
#X connect 4 0 14 0;
#X connect 5 0 14 0;
#X connect 6 0 14 0;
#X connect 10 0 13 0;
#X connect 11 0 14 0;
#X connect 12 0 14 0;
#X connect 14 0 10 0;
#X restore 477 658 pd other_messages;
#X obj 36 596 bng 15 250 50 0 empty empty empty 17 7 0 10 #fcfcfc #000000 #000000;
#X obj 57 595 cnv 15 15 15 empty empty empty 20 12 0 14 #c6ffc7 #404040 0;
#X obj 37 677 cnv 15 15 15 empty empty empty 20 12 0 14 #c6ffc7 #404040 0;
#X text 58 594 6) store dataset into a text object;
#X text 38 675 7) double-click 'text' to see data;
#X obj 36 507 fluid.labelset help.labelset;
#X obj 36 621 fluid.ls2text help.labelset help.labelset.text, f 31;
#X obj 36 700 text define help.labelset.text;
#N canvas 232 50 708 166 using_text 0;
#X obj 17 13 cnv 15 660 42 empty empty fluid.dataset 1 22 0 36 #4ba3fb #ffffff 0;
#X text 17 79 As demonstrated in the previous patchers \, the helper [fluid.ls2text] retrieves the identifier->label pairs in a provided text object., f 79;
#X restore 477 702 pd using_text;
#X obj 230 537 print right;
#X obj 36 539 print left;
#X obj 477 725 note_on_automatic_datasets;
#N canvas 131 150 695 624 merging 0;
#X obj 17 13 cnv 15 660 42 empty empty fluid.labelset 1 22 0 36 #4ba3fb #ffffff 0;
#X text 17 79 You can merge the points in one dataset with another. If the dataset you call merge on already has a key existing in the dataset you want to merge \, the caller's will be preserved. Any keys not found in the dataset to merge will be added to the caller., f 84;
#X obj 51 165 loadbang;
#X obj 51 410 bng 15 250 50 0 empty empty empty 17 7 0 10 #fcfcfc #000000 #000000;
#X text 72 407 store dataset into a text object, f 16;
#X obj 291 410 bng 15 250 50 0 empty empty empty 17 7 0 10 #fcfcfc #000000 #000000;
#X text 312 407 store dataset into a text object, f 16;
#X obj 51 190 bng 15 250 50 0 empty empty empty 17 7 0 10 #fcfcfc #000000 #000000;
#X obj 51 210 t b b;
#X obj 490 534 cnv 15 15 15 empty empty empty 20 12 0 14 #c6ffc7 #404040 0;
#X obj 208 143 cnv 15 15 15 empty empty empty 20 12 0 14 #c6ffc7 #404040 0;
#X text 209 141 2) click the message to merge and inspect again the text below to see the effect, f 41;
#X text 490 533 1) open the text objects to see the sources, f 25;
#X obj 51 342 fluid.labelset help.labelset.merge.data.1, f 29;
#X obj 51 465 fluid.ls2text help.labelset.merge.data.1 help.labelset.merge.text.1, f 27;
#X obj 51 528 text define help.labelset.merge.text.1;
#X f 27;
#X obj 291 528 text define help.labelset.merge.text.2;
#X f 27;
#X msg 308 310 clear \, addlabel three trois \, addlabel two zwei;
#X obj 291 342 fluid.labelset help.labelset.merge.data.2, f 29;
#X obj 291 465 fluid.ls2text help.labelset.merge.data.2 help.labelset.merge.text.2, f 27;
#X msg 213 178 merge help.labelset.merge.data.1;
#X obj 309 222 cnv 15 15 15 empty empty empty 20 12 0 14 #c6ffc7 #404040 0;
#X text 310 220 3) by default \, merge doesn't overwrite if an item with the same identifier exists.;
#X msg 314 257 merge help.labelset.merge.data.1 1;
#X msg 51 310 addlabel one un \, addlabel two deux;
#X connect 2 0 7 0;
#X connect 3 0 14 0;
#X connect 5 0 19 0;
#X connect 7 0 8 0;
#X connect 8 0 24 0;
#X connect 8 1 17 0;
#X connect 13 0 3 0;
#X connect 17 0 18 0;
#X connect 18 0 5 0;
#X connect 20 0 18 0;
#X connect 23 0 18 0;
#X connect 24 0 13 0;
#X restore 477 680 pd merging;
#X connect 0 0 29 0;
#X connect 5 0 29 0;
#X connect 6 0 29 0;
#X connect 12 0 29 0;
#X connect 13 0 29 0;
#X connect 15 0 29 0;
#X connect 18 0 29 0;
#X connect 24 0 30 0;
#X connect 29 0 34 0;
#X connect 29 1 33 0;
