#N canvas 72 75 955 577 10;
#X obj 33 195 soundfiler;
#X obj 12 19 cnv 15 100 10 empty empty fluid.buftransients~ 20 12 0
36 -262144 -66577 0;
#X obj 34 156 loadbang;
#X obj 424 218 bng 15 250 50 0 empty empty empty 17 7 0 10 -262144
-1 -1;
#X obj 133 325 dac~;
#X msg 97 234 stop;
#N canvas 495 405 626 619 multichannel 0;
#X obj 49 496 loadbang;
#X obj 49 548 soundfiler;
#X obj 48 80 bng 15 250 50 0 empty empty empty 17 7 0 10 -262144 -1
-1;
#X obj 54 424 dac~;
#X obj 49 178 bng 15 250 50 0 empty empty empty 17 7 0 10 -262144 -1
-1;
#X obj 307 280 bng 15 250 50 0 empty empty empty 17 7 0 10 -262144
-1 -1;
#X obj 307 300 bng 15 250 50 0 empty empty empty 17 7 0 10 -262144
-1 -1;
#X obj 307 320 bng 15 250 50 0 empty empty empty 17 7 0 10 -262144
-1 -1;
#X text 67 80 1) compose an artificially wide "stereo" array;
#X text 68 177 2) process;
#X text 306 260 3) listen to:;
#X text 323 279 the source;
#X obj 49 224 bng 15 250 50 0 empty empty empty 17 7 0 10 -262144 -1
-1;
#X text 65 223 bang when done;
#X text 46 11 "multichannel" arrays will yield outputs of similar dimensions
\, respecting the order of the input "channels", f 87;
#X text 323 319 the extracted residual components;
#X text 323 299 the extracted transient components;
#X obj 48 100 fluid.bufcompose~ -source buftransguitar -startframe
555000 -numframes 468335 -deststartchan 1 -destination buftrans_source
, f 73;
#X msg 49 517 read -resize ../media/Tremblay-SA-UprightPianoPedalWide.wav
buftrans_source-0 buftrans_source-1 \, read -resize ../media/Tremblay-AaS-AcousticStrums-M.wav
buftransguitar, f 90;
#X obj 118 549 array define buftransguitar;
#X obj 290 549 clone fluid.multiarray 2 buftrans_source;
#X obj 290 571 clone fluid.multiarray 2 buftrans_res;
#X obj 50 570 clone fluid.multiarray 2 buftrans_tra;
#X msg 65 344 set buftrans_source-0;
#X msg 198 344 set buftrans_source-1;
#X msg 65 362 set buftrans_tra-0;
#X msg 198 362 set buftrans_tra-1;
#X msg 65 380 set buftrans_res-0;
#X msg 198 380 set buftrans_res-1;
#X obj 54 403 tabplay~ buftrans_source-0;
#X obj 217 404 tabplay~ buftrans_source-1;
#X obj 49 195 fluid.buftransients~ -source buftrans_source -transients
buftrans_tra -residual buftrans_res -threshfwd 1.2, f 84;
#X connect 0 0 18 0;
#X connect 2 0 17 0;
#X connect 4 0 31 0;
#X connect 5 0 24 0;
#X connect 5 0 23 0;
#X connect 5 0 29 0;
#X connect 5 0 30 0;
#X connect 6 0 26 0;
#X connect 6 0 25 0;
#X connect 6 0 29 0;
#X connect 6 0 30 0;
#X connect 7 0 28 0;
#X connect 7 0 27 0;
#X connect 7 0 29 0;
#X connect 7 0 30 0;
#X connect 18 0 1 0;
#X connect 23 0 29 0;
#X connect 24 0 30 0;
#X connect 25 0 29 0;
#X connect 26 0 30 0;
#X connect 27 0 29 0;
#X connect 28 0 30 0;
#X connect 29 0 3 0;
#X connect 30 0 3 1;
#X connect 31 0 12 0;
#X restore 789 317 pd multichannel;
#N canvas 0 23 450 278 (subpatch) 0;
#X array buftransients_drums 453932 float 0;
#X coords 0 0.5 453931 -0.5 887 53 1 0 0;
#X restore 34 369 graph;
#X obj 133 304 tabplay~;
#N canvas 0 22 450 278 (subpatch) 0;
#X array buftransients_transients 453932 float 0;
#X coords 0 0.5 453931 -0.5 887 53 1 0 0;
#X restore 34 437 graph;
#N canvas 0 22 450 278 (subpatch) 0;
#X array buftransients_residual 453932 float 0;
#X coords 0 0.5 453931 -0.5 887 53 1 0 0;
#X restore 34 505 graph;
#X text 451 215 1) process;
#X text 40 91 This class triggers a Sinusoidal Modelling process on
buffers in non-real-time \, It implements a mix and match algorithms
taken from classic papers., f 79;
#X msg 34 176 read -resize ../media/Nicol-LoopE-M.wav buftransients_drums
;
#X msg 133 213 set buftransients_drums \, bang;
#X msg 165 274 set buftransients_residual \, bang;
#X msg 424 268 \; buftransients_transients xticks 0 0 0 \; buftransients_residual
xticks 0 0 0;
#X msg 153 254 set buftransients_transients \, bang;
#X obj 424 237 fluid.buftransients~ -source buftransients_drums -transients
buftransients_transients -residual buftransients_residual, f 75;
#X floatatom 614 190 8 0 0 0 - - -;
#X floatatom 754 190 8 0 0 0 - - -;
#X text 612 153 change the thresholds;
#X msg 754 171 1.1;
#X msg 614 171 2;
#X msg 614 209 threshfwd \$1 \, bang;
#X msg 754 209 threshback \$1 \, bang;
#X text 37 52 Buffer-Based Transient Extractor, f 50;
#N canvas 0 23 450 300 (subpatch) 0;
#X obj 83 51 inlet;
#X obj 83 89 pdcontrol;
#X msg 83 71 dir 0 ../docs/fluid.buftransients~.html;
#X msg 143 89 browse \$1;
#X connect 0 0 2 0;
#X connect 1 0 3 0;
#X connect 2 0 1 0;
#X connect 3 0 1 0;
#X restore 860 80 pd;
#X text 729 61 launch the HTML doc->;
#X obj 861 63 bng 15 250 50 0 empty empty empty 17 7 0 10 -262144 -1
-1;
#X obj 745 103 note_on_multithreading;
#X connect 2 0 13 0;
#X connect 3 0 18 0;
#X connect 5 0 8 0;
#X connect 8 0 4 0;
#X connect 8 0 4 1;
#X connect 13 0 0 0;
#X connect 14 0 8 0;
#X connect 15 0 8 0;
#X connect 17 0 8 0;
#X connect 18 0 16 0;
#X connect 19 0 24 0;
#X connect 20 0 25 0;
#X connect 22 0 20 0;
#X connect 23 0 19 0;
#X connect 24 0 18 0;
#X connect 25 0 18 0;
#X connect 29 0 27 0;
