#N canvas 0 23 450 300 10;
#X obj 186 122 inlet;
#X obj 186 143 osc~ 1;
#X obj 124 53 loadbang;
#X obj 124 72 int \$1;
#X obj 50 70 inlet;
#X obj 86 112 list split 1;
#X obj 51 90 list split \$1;
#X obj 86 133 pack f 5;
#X obj 86 154 line~;
#X obj 86 175 *~;
#X obj 86 196 outlet~;
#X connect 0 0 1 0;
#X connect 1 0 9 1;
#X connect 2 0 3 0;
#X connect 3 0 6 1;
#X connect 4 0 6 0;
#X connect 5 0 7 0;
#X connect 6 1 5 0;
#X connect 7 0 8 0;
#X connect 8 0 9 0;
#X connect 9 0 10 0;
