#N canvas 651 39 838 510 10;
#X obj 316 231 delread~ latencycomp 1;
#X obj 316 89 samplerate~;
#X obj 316 68 r pd-dsp-started;
#X obj 316 212 / 1;
#X obj 317 109 t b f;
#X obj 84 112 delwrite~ latencycomp 100;
#X obj 76 238 -~;
#X obj 76 305 snapshot~;
#X obj 75 66 osc~ 220;
#X msg 20 252 bang;
#X floatatom 76 326 5 0 0 0 - - - 0;
#X obj 144 304 snapshot~;
#X floatatom 144 325 5 0 0 0 - - - 0;
#X obj 76 259 *~ 1e+15;
#X obj 532 131 osc~ 220;
#X obj 532 152 *~ 0.1;
#X obj 532 238 dac~;
#X obj 603 65 tgl 15 0 empty empty empty 17 7 0 10 #fcfcfc #000000
#000000 0 1;
#X obj 603 85 metro 1000;
#X obj 603 106 random 9910;
#X obj 603 127 + 10;
#X obj 603 148 list prepend fftsettings;
#X obj 603 169 list trim;
#N canvas 0 22 450 278 (subpatch) 0;
#X array fluidstftview 1000 float 2;
#X coords 0 1 1000 -1 200 140 1;
#X restore 312 317 graph;
#X obj 20 362 tabwrite~ fluidstftview;
#X msg 247 133 getlatency;
#X obj 315 188 * 1000;
#X obj 75 164 fluid.stftpass~ -fftsettings 2048;
#X obj 553 204 fluid.stftpass~ -maxfftsize 16386;
#X connect 0 0 6 1;
#X connect 0 0 11 0;
#X connect 1 0 4 0;
#X connect 2 0 1 0;
#X connect 3 0 0 0;
#X connect 4 0 25 0;
#X connect 4 1 3 1;
#X connect 6 0 13 0;
#X connect 7 0 10 0;
#X connect 8 0 5 0;
#X connect 8 0 27 0;
#X connect 9 0 7 0;
#X connect 9 0 11 0;
#X connect 9 0 12 0;
#X connect 9 0 24 0;
#X connect 11 0 12 0;
#X connect 13 0 7 0;
#X connect 14 0 15 0;
#X connect 15 0 16 0;
#X connect 15 0 28 0;
#X connect 17 0 18 0;
#X connect 18 0 19 0;
#X connect 19 0 20 0;
#X connect 20 0 21 0;
#X connect 21 0 22 0;
#X connect 22 0 28 0;
#X connect 25 0 27 0;
#X connect 26 0 3 0;
#X connect 27 0 6 0;
#X connect 27 0 24 0;
#X connect 27 1 26 0;
#X connect 28 0 16 1;
