#N canvas 39 44 697 719 12;
#N canvas 69 -1070 1091 883 generators 0;
#X obj 427 4 inlet;
#X obj 427 119 until;
#X obj 153 445 / 100;
#X obj 192 583 == 0;
#X obj 153 608 spigot;
#X obj 514 283 s help.bufstats.count;
#X obj 525 693 r help.bufstats.count;
#X obj 459 95 s help.bufstats.gen;
#X obj 353 608 spigot;
#X obj 353 445 expr 1 - ($f1 / 100.);
#X obj 392 583 == 1;
#X obj 564 608 spigot;
#X obj 603 583 == 2;
#X obj 564 445 expr sin($f1 * 0.03141592653589793);
#X obj 724 608 spigot;
#X obj 192 560 r help.bufstats.gen;
#X obj 763 583 == 3;
#X obj 726 475 expr random(0 \, 100001) * 1e-05;
#X obj 427 147 f;
#X obj 463 148 + 1;
#X obj 426 259 t f f, f 13;
#X obj 763 560 r help.bufstats.gen;
#X obj 603 560 r help.bufstats.gen;
#X obj 391 560 r help.bufstats.gen;
#X obj 472 4 loadbang;
#X msg 472 29 0;
#X obj 353 718 tabwrite help.bufstats.src.1;
#X obj 427 65 t b f b;
#X msg 427 95 101;
#X msg 593 56 0;
#X connect 0 0 27 0;
#X connect 1 0 18 0;
#X connect 2 0 4 0;
#X connect 3 0 4 1;
#X connect 4 0 26 0;
#X connect 6 0 26 1;
#X connect 8 0 26 0;
#X connect 9 0 8 0;
#X connect 10 0 8 1;
#X connect 11 0 26 0;
#X connect 12 0 11 1;
#X connect 13 0 11 0;
#X connect 14 0 26 0;
#X connect 15 0 3 0;
#X connect 16 0 14 1;
#X connect 17 0 14 0;
#X connect 18 0 19 0;
#X connect 18 0 20 0;
#X connect 19 0 18 1;
#X connect 20 0 2 0;
#X connect 20 0 9 0;
#X connect 20 0 13 0;
#X connect 20 0 17 0;
#X connect 20 1 5 0;
#X connect 21 0 16 0;
#X connect 22 0 12 0;
#X connect 23 0 10 0;
#X connect 24 0 25 0;
#X connect 25 0 27 0;
#X connect 27 0 28 0;
#X connect 27 1 7 0;
#X connect 27 2 29 0;
#X connect 28 0 1 0;
#X connect 29 0 18 1;
#X restore 17 239 pd generators;
#N canvas 0 22 450 278 (subpatch) 0;
#X array help.bufstats.src.1 101 float 2;
#X coords 0 1 101 0 202 140 1 0 0;
#X restore 16 286 graph;
#X obj 518 125 note_on_multithreading;
#X obj 17 13 cnv 15 660 42 empty empty fluid.bufstats 1 22 0 36 #4ba3fb
#ffffff 0;
#X obj 509 60 fluid.referencelauncher fluid.bufstats.html reference/bufstats/
;
#X obj 17 60 cnv 15 488 17 empty empty Statistically\\\ summarise\\\ a\\\ time\\\ series\\\ in\\\ an\\\ array
4 8 0 13 #e0e0e0 #404040 0;
#X obj 465 545 cnv 15 215 152 empty empty More\ information 4 10 0
13 #e0e0e0 #404040 0;
#N canvas 880 94 698 745 musical_example 0;
#X obj 17 13 cnv 15 660 42 empty empty fluid.bufstats 1 22 0 36 #4ba3fb
#ffffff 0;
#X obj 19 230 soundfiler;
#X text 17 79 sort buffer segments by descriptor statistics;
#X obj 39 158 cnv 15 15 15 empty empty empty 20 12 0 14 #c6ffc7 #404040
0;
#X text 39 157 1) load a soundfile;
#X obj 19 158 bng 15 250 50 0 empty empty empty 17 7 0 10 #fcfcfc #000000
#000000;
#X obj 358 159 bng 15 250 50 0 empty empty empty 17 7 0 10 #fcfcfc
#000000 #000000;
#X obj 358 179 tabplay~ help.bufstats.src.2;
#X obj 358 203 fluid.out~ bufstatshelp;
#X msg 19 178 read -resize media/Tremblay-AaS-AcBassGuit-Melo-M.wav
help.bufstats.src.2, f 40;
#X obj 377 159 cnv 15 15 15 empty empty empty 20 12 0 14 #c6ffc7 #404040
0;
#X text 377 158 2) listen to the source (an acoustic bass);
#X obj 20 296 bng 15 250 50 0 empty empty empty 17 7 0 10 #fcfcfc #000000
#000000;
#X obj 42 296 cnv 15 15 15 empty empty empty 20 12 0 14 #c6ffc7 #404040
0;
#X text 42 295 3) slice and analyse the segments of the source sound
;
#X obj 448 62 array define help.bufstats.src.2;
#N canvas 239 179 967 654 analysis_and_statistics 0;
#X obj 27 22 inlet;
#X obj 27 238 fluid.bufselect -channels 0, f 17;
#X obj 381 238 fluid.bufselect -channels 1, f 16;
#X obj 27 78 fluid.bufonsetslice -source help.bufstats.src.2 -indices
help.bufstats.slices.2 -minslicelength 40, f 57;
#X obj 27 299 fluid.bufstats -source help.bufstats.pitch.2 -stats help.bufstats.stats.2
-select mid;
#N canvas 1179 393 556 696 iterate_slice_pairs 0;
#X obj 32 41 inlet;
#X obj 127 572 outlet;
#X obj 127 278 until;
#X obj 209 325 + 1;
#X msg 188 273 0;
#X obj 320 443 expr $f2 - $f1;
#X msg 320 468 numframes \$1, f 9;
#X obj 127 320 f;
#X msg 223 468 startframe \$1, f 10;
#X obj 127 468 bng 15 250 50 0 empty empty empty 17 7 0 10 #fcfcfc
#000000 #000000;
#X obj 127 417 t b f l, f 28;
#X obj 127 344 t f f;
#X obj 127 240 t f b;
#X obj 127 156 array size help.bufstats.slices.2;
#X obj 127 393 array get help.bufstats.slices.2 0 2;
#X floatatom 127 181 5 0 0 0 - - - 0;
#X obj 32 70 bng 15 250 50 0 empty empty empty 17 7 0 10 #fcfcfc #000000
#000000;
#X obj 159 368 s itercount;
#X obj 32 96 t b b, f 14;
#X msg 32 124 \; done bang, f 7;
#X obj 127 207 - 1;
#X connect 0 0 16 0;
#X connect 2 0 7 0;
#X connect 3 0 7 1;
#X connect 4 0 7 1;
#X connect 5 0 6 0;
#X connect 6 0 1 0;
#X connect 7 0 11 0;
#X connect 8 0 1 0;
#X connect 9 0 1 0;
#X connect 10 0 9 0;
#X connect 10 1 8 0;
#X connect 10 2 5 0;
#X connect 11 0 14 0;
#X connect 11 1 3 0;
#X connect 11 1 17 0;
#X connect 12 0 2 0;
#X connect 12 1 4 0;
#X connect 13 0 15 0;
#X connect 14 0 10 0;
#X connect 15 0 20 0;
#X connect 16 0 18 0;
#X connect 18 0 19 0;
#X connect 18 1 13 0;
#X connect 20 0 12 0;
#X restore 27 121 pd iterate_slice_pairs;
#X text 194 120 iterate over slice pairs, f 28;
#X text 417 153 analyse the pitch of contiguous segments;
#X text 154 237 calculate the stats of the segment's pitch, f 22;
#X text 506 235 use the pitch confidence channel of analysis as statistical
weights. This makes analysis frames with higher pitch confidence worth
more in the statistical analysis;
#X obj 615 514 array define help.bufstats.slices.2;
#X obj 545 535 clone fluid.multiarray 2 help.bufstats.pitch.2;
#X obj 615 556 array define help.bufstats.stats.2 14;
#X text 434 85 slice the source sound file, f 28;
#X obj 92 24 bng 15 250 50 0 empty empty empty 17 7 0 10 #fcfcfc #000000
#000000;
#X text 187 347 Using -select we extract only the "mid" statistic (by
default this is the 50th percentile and therefore the median). This
is a little more robust to outliers than the mean;
#X obj 27 198 t a a, f 51;
#X floatatom 27 436 5 0 0 0 - - - 0;
#X obj 27 412 array get help.bufstats.stats.2;
#X msg 27 384 0;
#X obj 27 517 pack 0 0;
#X obj 80 459 r itercount;
#X obj 27 555 outlet;
#X obj 171 558 outlet;
#X obj 27 51 t b b, f 21;
#X obj 27 150 fluid.bufpitch -source help.bufstats.src.2 -features
help.bufstats.pitch.2 -fftsettings 4096 1024 4096;
#X connect 0 0 24 0;
#X connect 1 0 4 0;
#X connect 2 0 4 1;
#X connect 3 0 5 0;
#X connect 4 0 19 0;
#X connect 5 0 25 0;
#X connect 14 0 24 0;
#X connect 16 0 1 0;
#X connect 16 1 2 0;
#X connect 17 0 20 0;
#X connect 18 0 17 0;
#X connect 19 0 18 0;
#X connect 20 0 22 0;
#X connect 21 0 20 1;
#X connect 24 0 3 0;
#X connect 24 1 23 0;
#X connect 25 0 16 0;
#X restore 20 333 pd analysis_and_statistics;
#X text 214 332 look in here for detailed explanation of the analysis
processing chain;
#X text 214 466 Sort each segment's value of fundamental pitch analysis
and retrieve the ordinal.;
#N canvas 249 209 608 767 sortslices 0;
#X obj 53 27 inlet;
#X text 110 28 slice pairs;
#X obj 210 22 inlet;
#X text 261 20 reset;
#X msg 53 138 sort;
#X msg 210 138 clear;
#X obj 187 196 text define SLICES;
#X obj 210 171 text define PROCSLICES;
#X obj 53 270 bng 15 250 50 0 empty empty empty 17 7 0 10 #fcfcfc #000000
#000000;
#X msg 100 392 0;
#X floatatom 76 323 5 0 0 0 - - - 0;
#X obj 53 393 until;
#X obj 53 437 f;
#X obj 116 436 + 1;
#X obj 116 460 % 100;
#X obj 53 358 t f b f, f 14;
#X floatatom 68 484 5 0 0 0 - - - 0;
#X listbox 62 545 20 0 0 0 - - - 0;
#X msg 53 590 \$2 \$1;
#X obj 53 618 t a b;
#X msg 129 649 1e+09;
#X text 178 651 insert after end;
#X obj 85 80 text insert SLICES, f 12;
#X obj 53 290 text size SLICES;
#X obj 53 515 text get SLICES;
#X obj 54 675 text insert PROCSLICES;
#X text 75 267 sort the slices;
#X obj 53 247 r done;
#X obj 53 50 t b a;
#X connect 0 0 28 0;
#X connect 2 0 5 0;
#X connect 4 0 6 0;
#X connect 5 0 6 0;
#X connect 5 0 7 0;
#X connect 8 0 23 0;
#X connect 9 0 12 1;
#X connect 11 0 12 0;
#X connect 12 0 13 0;
#X connect 12 0 16 0;
#X connect 12 0 24 0;
#X connect 13 0 14 0;
#X connect 14 0 12 1;
#X connect 15 0 11 0;
#X connect 15 1 9 0;
#X connect 15 2 14 1;
#X connect 18 0 19 0;
#X connect 19 0 25 0;
#X connect 19 1 20 0;
#X connect 20 0 25 1;
#X connect 23 0 10 0;
#X connect 23 0 15 0;
#X connect 24 0 17 0;
#X connect 24 0 18 0;
#X connect 27 0 8 0;
#X connect 28 0 4 0;
#X connect 28 1 22 0;
#X restore 20 467 pd sortslices;
#X f 26;
#X floatatom 31 563 5 0 0 0 - - - 0;
#N canvas 1372 -887 617 450 slicesbypitch 0;
#X obj 37 37 inlet;
#X obj 37 221 outlet;
#X text 65 157 slice;
#X msg 37 155 \$1;
#X msg 127 156 \$2;
#X text 160 157 pitch;
#X floatatom 67 250 5 0 0 0 - - - 0;
#X floatatom 157 250 5 0 0 0 - - - 0;
#X obj 127 221 outlet;
#X obj 37 82 text get PROCSLICES;
#X connect 0 0 9 0;
#X connect 3 0 6 0;
#X connect 3 0 1 0;
#X connect 4 0 7 0;
#X connect 4 0 8 0;
#X connect 9 0 3 0;
#X connect 9 0 4 0;
#X restore 31 586 pd slicesbypitch;
#X floatatom 140 616 5 0 0 0 - - - 0;
#X floatatom 31 616 5 0 0 0 - - - 0;
#X obj 30 674 tabplay~ help.bufstats.src.2;
#X obj 30 710 fluid.out~ bufstatshelp;
#N canvas 1067 -763 306 248 start_and_duration 0;
#X obj 24 27 inlet;
#X floatatom 24 57 5 0 0 0 - - - 0;
#X obj 77 142 expr $f2-$f1;
#X obj 24 172 pack 0 0;
#X obj 24 203 outlet;
#X obj 24 83 array get help.bufstats.slices.2 0 2;
#X obj 24 112 t f l, f 8;
#X connect 0 0 1 0;
#X connect 1 0 5 0;
#X connect 2 0 3 1;
#X connect 3 0 4 0;
#X connect 5 0 6 0;
#X connect 6 0 3 0;
#X connect 6 1 2 0;
#X restore 31 642 pd start_and_duration;
#X text 156 581 By indexing the ordinal linearly we effectively "sort"
the segments by their pitch value;
#X obj 80 563 cnv 15 15 15 empty empty empty 20 12 0 14 #c6ffc7 #404040
0;
#X text 80 562 4) Playback slices sorted by pitch;
#X connect 5 0 9 0;
#X connect 6 0 7 0;
#X connect 7 0 8 0;
#X connect 7 0 8 1;
#X connect 9 0 1 0;
#X connect 12 0 16 0;
#X connect 16 0 19 0;
#X connect 16 1 19 1;
#X connect 20 0 21 0;
#X connect 21 0 23 0;
#X connect 21 1 22 0;
#X connect 23 0 26 0;
#X connect 24 0 25 0;
#X connect 24 0 25 1;
#X connect 26 0 24 0;
#X restore 468 565 pd musical_example;
#N canvas 160 78 869 772 derivative 0;
#X obj 17 13 cnv 15 660 42 empty empty fluid.bufstats 1 22 0 36 #4ba3fb
#ffffff 0;
#X text 17 79 Calculating derivatives to differentiate distributions
;
#X obj 18 191 bng 15 250 50 0 empty empty empty 17 7 0 10 #fcfcfc #000000
#000000;
#N canvas 1474 -1040 384 447 fill_up 0;
#X obj 37 37 inlet;
#X obj 37 102 until;
#X obj 36 244 / 100;
#X obj 95 244 expr 1 - ($f1 / 100.);
#X obj 37 130 f;
#X obj 73 131 + 1;
#X obj 73 155 % 100;
#X msg 37 78 100;
#X obj 82 37 loadbang;
#X obj 36 286 tabwrite help.bufstats.src.up, f 21;
#X obj 95 332 tabwrite help.bufstats.src.down, f 23;
#X obj 36 202 t f f f f, f 31;
#X connect 0 0 7 0;
#X connect 1 0 4 0;
#X connect 2 0 9 0;
#X connect 3 0 10 0;
#X connect 4 0 5 0;
#X connect 4 0 11 0;
#X connect 5 0 6 0;
#X connect 6 0 4 1;
#X connect 7 0 1 0;
#X connect 8 0 7 0;
#X connect 11 0 2 0;
#X connect 11 1 3 0;
#X connect 11 2 9 1;
#X connect 11 3 10 1;
#X restore 18 211 pd fill_up;
#N canvas 0 22 450 278 (subpatch) 0;
#X array help.bufstats.src.up 100 float 2;
#X coords 0 1 100 -1 250 30 1 0 0;
#X restore 18 136 graph;
#N canvas 0 22 450 278 (subpatch) 0;
#X array help.bufstats.src.down 100 float 2;
#X coords 0 1 100 -1 250 30 1 0 0;
#X restore 278 136 graph;
#X obj 36 191 cnv 15 15 15 empty empty empty 20 12 0 14 #c6ffc7 #404040
0;
#X text 36 190 1) fill buffers with some upward and downward ramps
;
#X obj 18 281 bng 15 250 50 0 empty empty empty 17 7 0 10 #fcfcfc #000000
#000000;
#X obj 36 281 cnv 15 15 15 empty empty empty 20 12 0 14 #c6ffc7 #404040
0;
#X text 36 280 2) Calculate the raw statistics with no derivatives
;
#X listbox 18 455 47 0 0 0 - - - 0;
#X obj 39 402 array define help.bufstats.stats.up;
#X obj 403 402 array define help.bufstats.stats.down;
#X obj 18 351 fluid.bufstats -source help.bufstats.src.up -stats help.bufstats.stats.up
, f 28;
#X listbox 378 455 65 0 0 0 - - - 0;
#X obj 378 351 fluid.bufstats -source help.bufstats.src.down -stats
help.bufstats.stats.down, f 29;
#X obj 18 427 array get help.bufstats.stats.up;
#X obj 378 427 array get help.bufstats.stats.down;
#X obj 38 676 array define help.bufstats.skew.up;
#X obj 402 676 array define help.bufstats.skew.down;
#X obj 18 521 bng 15 250 50 0 empty empty empty 17 7 0 10 #fcfcfc #000000
#000000;
#X obj 36 521 cnv 15 15 15 empty empty empty 20 12 0 14 #c6ffc7 #404040
0;
#X listbox 18 735 47 0 0 0 - - - 0;
#X listbox 378 735 47 0 0 0 - - - 0;
#X obj 18 707 array get help.bufstats.stats.up;
#X obj 378 707 array get help.bufstats.stats.down;
#X text 36 520 3) Only calculate the skewness of the 0th (raw) and
1st derivative, f 75;
#X obj 378 581 fluid.bufstats -source help.bufstats.src.down -numderivs
1 -select skew -stats help.bufstats.stats.down, f 45;
#X obj 18 581 fluid.bufstats -source help.bufstats.src.up -numderivs
1 -select skew -stats help.bufstats.stats.up, f 43;
#X obj 18 404 bng 15 250 50 0 empty empty empty 17 7 0 10 #fcfcfc #000000
#000000;
#X obj 377 405 bng 15 250 50 0 empty empty empty 17 7 0 10 #fcfcfc
#000000 #000000;
#X obj 18 676 bng 15 250 50 0 empty empty empty 17 7 0 10 #fcfcfc #000000
#000000;
#X obj 378 677 bng 15 250 50 0 empty empty empty 17 7 0 10 #fcfcfc
#000000 #000000;
#X connect 2 0 3 0;
#X connect 8 0 14 0;
#X connect 8 0 16 0;
#X connect 14 0 30 0;
#X connect 16 0 31 0;
#X connect 17 0 11 0;
#X connect 18 0 15 0;
#X connect 21 0 28 0;
#X connect 21 0 29 0;
#X connect 25 0 23 0;
#X connect 26 0 24 0;
#X connect 28 0 33 0;
#X connect 29 0 32 0;
#X connect 30 0 17 0;
#X connect 31 0 18 0;
#X connect 32 0 25 0;
#X connect 33 0 26 0;
#X restore 468 609 pd derivative;
#N canvas 281 38 696 840 weighted_statistics 0;
#X obj 17 13 cnv 15 660 42 empty empty fluid.bufstats 1 22 0 36 #4ba3fb
#ffffff 0;
#X text 17 69 apply weightings and removing outliers for refining observations
;
#X obj 16 298 soundfiler;
#X obj 36 228 cnv 15 15 15 empty empty empty 20 12 0 14 #c6ffc7 #404040
0;
#X text 36 227 1) load a soundfile;
#X obj 16 228 bng 15 250 50 0 empty empty empty 17 7 0 10 #fcfcfc #000000
#000000;
#X obj 390 228 bng 15 250 50 0 empty empty empty 17 7 0 10 #fcfcfc
#000000 #000000;
#X obj 390 318 fluid.out~ bufstatshelp;
#X obj 409 228 cnv 15 15 15 empty empty empty 20 12 0 14 #c6ffc7 #404040
0;
#X obj 36 378 cnv 15 15 15 empty empty empty 20 12 0 14 #c6ffc7 #404040
0;
#X obj 16 378 bng 15 250 50 0 empty empty empty 17 7 0 10 #fcfcfc #000000
#000000;
#X text 36 377 3) Analyse a small portion of the source;
#X obj 526 95 array define help.bufstats.src.3;
#X f 21;
#X msg 16 247 read -resize media/Tremblay-ASWINE-ScratchySynth-M.wav
help.bufstats.src.3, f 32;
#X obj 390 268 tabplay~ help.bufstats.src.3;
#X obj 505 132 clone fluid.multiarray 2 help.bufstats.stats.3, f 24
;
#X listbox 26 460 33 0 0 0 - - - 0;
#X obj 26 436 list;
#N canvas 1468 -564 521 536 just_the_mean 0;
#X obj 26 31 inlet;
#X obj 27 319 outlet;
#X msg 27 235 0;
#X obj 27 263 array get;
#X listbox 66 124 41 0 0 0 - - - 0;
#X obj 66 96 list;
#X msg 87 201 symbol \$1;
#X obj 26 59 fluid.bufstats -select mean;
#X obj 87 229 makefilename %s-0;
#X msg 27 291 \$1;
#X obj 86 296 print;
#X obj 26 156 t b a;
#X connect 0 0 7 0;
#X connect 2 0 3 0;
#X connect 3 0 9 0;
#X connect 3 0 10 0;
#X connect 5 0 4 0;
#X connect 6 0 8 0;
#X connect 7 0 5 0;
#X connect 7 0 11 0;
#X connect 8 0 3 2;
#X connect 9 0 1 0;
#X connect 11 0 2 0;
#X connect 11 1 6 0;
#X restore 16 516 pd just_the_mean;
#N canvas 1164 -910 825 571 weighted_by_confidence 0;
#X obj 26 31 inlet;
#X msg 27 295 0;
#X obj 27 321 array get;
#X listbox 102 176 41 0 0 0 - - - 0;
#X obj 102 152 list;
#X msg 87 261 symbol \$1;
#X obj 26 127 fluid.bufstats -select mean;
#X obj 212 64 fluid.bufselect -channels 1;
#X listbox 236 120 41 0 0 0 - - - 0;
#X obj 236 96 list;
#X obj 87 287 makefilename %s-0;
#X obj 27 379 outlet;
#X msg 27 351 \$1;
#X obj 26 55 t a a;
#X obj 26 151 t b a;
#X connect 0 0 13 0;
#X connect 1 0 2 0;
#X connect 2 0 12 0;
#X connect 4 0 3 0;
#X connect 5 0 10 0;
#X connect 6 0 4 0;
#X connect 6 0 14 0;
#X connect 7 0 9 0;
#X connect 7 0 6 1;
#X connect 9 0 8 0;
#X connect 10 0 2 2;
#X connect 12 0 11 0;
#X connect 13 0 6 0;
#X connect 13 1 7 0;
#X connect 14 0 1 0;
#X connect 14 1 5 0;
#X restore 186 516 pd weighted_by_confidence;
#X f 23;
#N canvas 1414 -969 575 606 weighted_by_confidence_and_outliers_cutoff
0;
#X obj 26 31 inlet;
#X msg 27 315 0;
#X obj 27 341 array get;
#X listbox 109 215 41 0 0 0 - - - 0;
#X obj 109 191 list;
#X msg 87 281 symbol \$1;
#X obj 247 62 fluid.bufselect -channels 1;
#X listbox 257 115 41 0 0 0 - - - 0;
#X obj 257 91 list;
#X obj 87 307 makefilename %s-0;
#X obj 27 399 outlet;
#X msg 27 371 \$1;
#X obj 26 55 t a a;
#X obj 26 147 fluid.bufstats -select mean -outlierscutoff 1.5 -numchans
1, f 32;
#X obj 27 246 t b a;
#X connect 0 0 12 0;
#X connect 1 0 2 0;
#X connect 2 0 11 0;
#X connect 4 0 3 0;
#X connect 5 0 9 0;
#X connect 6 0 8 0;
#X connect 6 0 13 1;
#X connect 8 0 7 0;
#X connect 9 0 2 2;
#X connect 11 0 10 0;
#X connect 12 0 13 0;
#X connect 12 1 6 0;
#X connect 13 0 4 0;
#X connect 13 0 14 0;
#X connect 14 0 1 0;
#X connect 14 1 5 0;
#X restore 356 516 pd weighted_by_confidence_and_outliers_cutoff;
#X f 22;
#X obj 16 398 fluid.bufpitch -source help.bufstats.src.3 -startframe
42250 -numframes 44100;
#N canvas 1525 -987 637 766 pitch_analysis_comparison 0;
#X obj 73 73 inlet;
#X obj 77 637 outlet~;
#X obj 357 611 *~ 0.1;
#X obj 357 637 outlet~;
#X obj 434 445 bng 15 250 50 0 empty empty empty 17 7 0 10 #fcfcfc
#000000 #000000;
#X msg 475 512 0 5;
#X obj 475 485 delay 995;
#X obj 434 541 line~;
#X obj 357 587 *~;
#X obj 357 542 osc~ 1200;
#X msg 434 485 1;
#X obj 182 71 inlet;
#X floatatom 357 266 5 0 0 0 - - - 0;
#X obj 357 291 sel 0 1 2, f 18;
#X obj 494 291 unpack 0 0 0;
#X obj 357 358 f;
#X obj 397 358 f;
#X obj 438 357 f;
#X floatatom 357 403 5 0 0 0 - - - 0;
#X msg 77 405 42250 44100;
#X obj 77 437 tabplay~ help.bufstats.src.3, f 23;
#X obj 77 207 t b b f, f 40;
#X connect 0 0 14 0;
#X connect 2 0 3 0;
#X connect 4 0 10 0;
#X connect 4 0 6 0;
#X connect 5 0 7 0;
#X connect 6 0 5 0;
#X connect 7 0 8 1;
#X connect 8 0 2 0;
#X connect 9 0 8 0;
#X connect 10 0 7 0;
#X connect 11 0 21 0;
#X connect 12 0 13 0;
#X connect 13 0 15 0;
#X connect 13 1 16 0;
#X connect 13 2 17 0;
#X connect 14 0 15 1;
#X connect 14 1 16 1;
#X connect 14 2 17 1;
#X connect 15 0 18 0;
#X connect 16 0 18 0;
#X connect 17 0 18 0;
#X connect 18 0 9 0;
#X connect 19 0 20 0;
#X connect 20 0 1 0;
#X connect 21 0 19 0;
#X connect 21 1 4 0;
#X connect 21 2 12 0;
#X restore 16 768 pd pitch_analysis_comparison;
#X obj 16 800 fluid.out~ bufstatshelp;
#X obj 209 639 vradio 30 1 0 3 empty empty empty 0 -8 0 10 #fcfcfc
#000000 #000000 0;
#X text 442 632 Play back the section of the source that was analysed
alongside a sine tone at the detected frequency. Decide which one is
the closest for yourself!, f 27;
#X text 242 698 weighted by confidence and outliers cutoff, f 23;
#X text 421 670 <-, f 30;
#X text 242 643 just the mean, f 23;
#X text 242 673 weighted by confidence, f 23;
#X obj 16 589 pack 0 0 0, f 49;
#X floatatom 16 556 5 0 0 0 - - - 0;
#X floatatom 186 556 5 0 0 0 - - - 0;
#X floatatom 356 566 5 0 0 0 - - - 0;
#X obj 16 493 t a a a, f 49;
#X text 409 226 2) listen to the source (an acoustic bass), f 23;
#X connect 5 0 13 0;
#X connect 6 0 14 0;
#X connect 10 0 21 0;
#X connect 13 0 2 0;
#X connect 14 0 7 0;
#X connect 14 0 7 1;
#X connect 17 0 16 0;
#X connect 18 0 31 0;
#X connect 19 0 32 0;
#X connect 20 0 33 0;
#X connect 21 0 17 0;
#X connect 21 0 34 0;
#X connect 22 0 23 0;
#X connect 22 1 23 1;
#X connect 24 0 22 1;
#X connect 30 0 22 0;
#X connect 31 0 30 0;
#X connect 32 0 30 1;
#X connect 33 0 30 2;
#X connect 34 0 18 0;
#X connect 34 1 19 0;
#X connect 34 2 20 0;
#X restore 468 631 pd weighted_statistics;
#N canvas 134 49 693 684 multichannel 0;
#X obj 17 13 cnv 15 660 42 empty empty fluid.bufstats 1 22 0 36 #4ba3fb
#ffffff 0;
#X obj 22 89 bng 15 250 50 0 empty empty empty 17 7 0 10 #fcfcfc #000000
#000000;
#X obj 22 310 bng 15 250 50 0 empty empty empty 17 7 0 10 #fcfcfc #000000
#000000;
#N canvas 741 516 859 503 composer 0;
#X obj 37 37 inlet;
#X obj 57 193 until;
#X msg 125 214 -1;
#X msg 57 214 1;
#X obj 57 235 +;
#X obj 57 256 t f f f;
#X obj 39 101 t b b b b;
#X msg 57 174 101;
#X obj 39 122 outlet;
#X obj 57 314 / 100;
#X obj 250 357 expr random(0 \, 100001) * 1e-05;
#X obj 267 403 tabwrite help.bufstats.src-1;
#X msg 138 121 \; help.bufstats.src-0 const \; help.bufstats.src-1
const;
#X obj 48 405 tabwrite help.bufstats.src-0;
#X connect 0 0 6 0;
#X connect 1 0 3 0;
#X connect 2 0 4 1;
#X connect 3 0 4 0;
#X connect 4 0 5 0;
#X connect 5 0 9 0;
#X connect 5 0 10 0;
#X connect 5 1 11 1;
#X connect 5 1 13 1;
#X connect 5 2 4 1;
#X connect 6 0 8 0;
#X connect 6 1 7 0;
#X connect 6 2 2 0;
#X connect 6 3 12 0;
#X connect 7 0 1 0;
#X connect 9 0 13 0;
#X connect 10 0 11 0;
#X restore 22 117 pd composer;
#X text 44 82 1) compose an artificially wide "stereo" array - a line
on the left channel \, and noise on the right channel, f 76;
#N canvas 0 22 450 278 (subpatch) 0;
#X array help.bufstats.src-0 101 float 2;
#X coords 0 1 101 0 202 140 1 0 0;
#X restore 170 159 graph;
#N canvas 0 22 450 278 (subpatch) 0;
#X array help.bufstats.src-1 101 float 2;
#X coords 0 1 101 0 202 140 1 0 0;
#X restore 377 159 graph;
#X text 41 309 2) process;
#X msg 22 393 0;
#X obj 22 444 list split 7;
#N canvas 1539 -672 450 300 stats 0;
#X obj 102 57 inlet;
#X text 185 128 mean;
#X text 184 145 stddev;
#X text 184 162 skewness;
#X text 184 179 kurtosis;
#X text 184 198 low;
#X text 185 214 mid;
#X text 184 230 high;
#X floatatom 102 128 10 0 0 0 - - - 0;
#X floatatom 102 145 10 0 0 0 - - - 0;
#X floatatom 102 162 10 0 0 0 - - - 0;
#X floatatom 102 179 10 0 0 0 - - - 0;
#X floatatom 102 196 10 0 0 0 - - - 0;
#X floatatom 102 213 10 0 0 0 - - - 0;
#X floatatom 102 230 10 0 0 0 - - - 0;
#X obj 102 95 unpack f f f f f f f;
#X connect 0 0 15 0;
#X connect 15 0 8 0;
#X connect 15 1 9 0;
#X connect 15 2 10 0;
#X connect 15 3 11 0;
#X connect 15 4 12 0;
#X connect 15 5 13 0;
#X connect 15 6 14 0;
#X coords 0 -1 1 1 144 150 1 100 100;
#X restore 173 485 pd stats on deriv;
#N canvas 1539 -672 450 300 stats 0;
#X obj 102 57 inlet;
#X text 185 128 mean;
#X text 184 145 stddev;
#X text 184 162 skewness;
#X text 184 179 kurtosis;
#X text 184 198 low;
#X text 185 214 mid;
#X text 184 230 high;
#X floatatom 102 128 10 0 0 0 - - - 0;
#X floatatom 102 145 10 0 0 0 - - - 0;
#X floatatom 102 162 10 0 0 0 - - - 0;
#X floatatom 102 179 10 0 0 0 - - - 0;
#X floatatom 102 196 10 0 0 0 - - - 0;
#X floatatom 102 213 10 0 0 0 - - - 0;
#X floatatom 102 230 10 0 0 0 - - - 0;
#X obj 102 95 unpack f f f f f f f;
#X connect 0 0 15 0;
#X connect 15 0 8 0;
#X connect 15 1 9 0;
#X connect 15 2 10 0;
#X connect 15 3 11 0;
#X connect 15 4 12 0;
#X connect 15 5 13 0;
#X connect 15 6 14 0;
#X coords 0 -1 1 1 144 150 1 100 100;
#X restore 22 486 pd stats on data;
#X obj 352 446 list split 7;
#N canvas 1539 -672 450 300 stats 0;
#X obj 102 57 inlet;
#X text 185 128 mean;
#X text 184 145 stddev;
#X text 184 162 skewness;
#X text 184 179 kurtosis;
#X text 184 198 low;
#X text 185 214 mid;
#X text 184 230 high;
#X floatatom 102 128 10 0 0 0 - - - 0;
#X floatatom 102 145 10 0 0 0 - - - 0;
#X floatatom 102 162 10 0 0 0 - - - 0;
#X floatatom 102 179 10 0 0 0 - - - 0;
#X floatatom 102 196 10 0 0 0 - - - 0;
#X floatatom 102 213 10 0 0 0 - - - 0;
#X floatatom 102 230 10 0 0 0 - - - 0;
#X obj 102 95 unpack f f f f f f f;
#X connect 0 0 15 0;
#X connect 15 0 8 0;
#X connect 15 1 9 0;
#X connect 15 2 10 0;
#X connect 15 3 11 0;
#X connect 15 4 12 0;
#X connect 15 5 13 0;
#X connect 15 6 14 0;
#X coords 0 -1 1 1 144 150 1 100 100;
#X restore 503 487 pd stats on deriv;
#N canvas 1539 -672 450 300 stats 0;
#X obj 102 57 inlet;
#X text 185 128 mean;
#X text 184 145 stddev;
#X text 184 162 skewness;
#X text 184 179 kurtosis;
#X text 184 198 low;
#X text 185 214 mid;
#X text 184 230 high;
#X floatatom 102 128 10 0 0 0 - - - 0;
#X floatatom 102 145 10 0 0 0 - - - 0;
#X floatatom 102 162 10 0 0 0 - - - 0;
#X floatatom 102 179 10 0 0 0 - - - 0;
#X floatatom 102 196 10 0 0 0 - - - 0;
#X floatatom 102 213 10 0 0 0 - - - 0;
#X floatatom 102 230 10 0 0 0 - - - 0;
#X obj 102 95 unpack f f f f f f f;
#X connect 0 0 15 0;
#X connect 15 0 8 0;
#X connect 15 1 9 0;
#X connect 15 2 10 0;
#X connect 15 3 11 0;
#X connect 15 4 12 0;
#X connect 15 5 13 0;
#X connect 15 6 14 0;
#X coords 0 -1 1 1 144 150 1 100 100;
#X restore 352 488 pd stats on data;
#X obj 22 333 fluid.bufstats -source help.bufstats.src -stats help.bufstats.dst
-numderivs 1, f 88;
#X obj 352 422 array get help.bufstats.dst-1 0;
#X obj 22 420 array get help.bufstats.dst-0 0;
#X obj 353 657 clone 2 fluid.multiarray help.bufstats.dst;
#X text 65 391 3) retrieves the stats of channel 0 and channel 1 separately
;
#X connect 1 0 3 0;
#X connect 2 0 15 0;
#X connect 3 0 2 0;
#X connect 8 0 17 0;
#X connect 8 0 16 0;
#X connect 9 0 11 0;
#X connect 9 1 10 0;
#X connect 12 0 14 0;
#X connect 12 1 13 0;
#X connect 15 0 8 0;
#X connect 16 0 12 0;
#X connect 17 0 9 0;
#X restore 468 653 pd multichannel;
#X text 17 79 Statistical analysis on array channels.;
#X obj 17 174 vradio 15 1 0 4 empty empty empty 0 -8 0 10 #fcfcfc #000000
#000000 0;
#X text 36 172 ramp up;
#X text 36 187 ramp down;
#X text 36 202 sine;
#X text 36 217 random;
#X obj 16 653 array define help.bufstats.stats.1 14;
#X obj 251 168 bng 15 250 50 0 empty empty empty 17 7 0 10 #fcfcfc
#000000 #000000;
#X obj 251 234 fluid.bufstats -source help.bufstats.src.1 -stats help.bufstats.stats.1
-numderivs 1, f 43;
#N canvas 139 82 693 620 select 0;
#X obj 17 13 cnv 15 660 42 empty empty fluid.bufstats 1 22 0 36 #4ba3fb
#ffffff 0;
#X obj 17 13 cnv 15 660 42 empty empty fluid.bufstats 1 22 0 36 #4ba3fb
#ffffff 0;
#X text 17 70 You can also select which outputs should even be copied
to the destination buffer. This removes the need for a fluid.bufselect~
to capture descriptors you care about., f 83;
#X obj 22 553 array define help.bufstats.select.src;
#X obj 20 184 soundfiler;
#X msg 20 148 read -resize media/Tremblay-SA-UprightPianoPedalWide.wav
help.bufstats.select.src;
#X msg 23 250 select mean skew \, bang;
#X msg 51 282 select mean std skew kurtosis low mid high \, bang;
#X msg 82 311 select skew mean \, bang;
#X obj 22 575 array define help.bufstats.select.dst;
#X obj 23 459 bng 15 250 50 0 empty empty empty 17 7 0 10 #fcfcfc #000000
#000000;
#X obj 23 423 fluid.bufstats -source help.bufstats.select.src -stats
help.bufstats.select.dst, f 47;
#X obj 23 479 array get help.bufstats.select.dst;
#X listbox 23 502 71 0 0 0 - - - 0;
#X text 19 127 1) Load a soundfile;
#X text 191 249 2) Only returns the mean and skew;
#X text 403 282 3) Back to default;
#X text 248 310 4) same as above;
#X obj 93 341 cnv 15 580 75 empty empty empty 4 10 0 13 #e0e0e0 #404040
0;
#X text 98 343 No matter what order you specify the selection in \,
the order that those choices are returned will follow the same order
as if you didn't select any. A good trick for getting the order is
to see the attributes listed out in the object when no -select is chosen.
Think of this parameter like a filter \, rather than a reordering of
the outputs., f 81;
#X connect 5 0 4 0;
#X connect 6 0 11 0;
#X connect 7 0 11 0;
#X connect 8 0 11 0;
#X connect 10 0 12 0;
#X connect 11 0 10 0;
#X connect 12 0 13 0;
#X restore 468 587 pd select;
#X obj 251 307 array get help.bufstats.stats.1 0;
#X msg 251 280 0;
#X obj 251 331 list split 7;
#X text 13 146 1) Select a source;
#X text 273 166 2) Process the statistics;
#N canvas 1539 -672 450 300 stats 0;
#X obj 102 57 inlet;
#X text 185 128 mean;
#X text 184 145 stddev;
#X text 184 162 skewness;
#X text 184 179 kurtosis;
#X text 184 198 low;
#X text 185 214 mid;
#X text 184 230 high;
#X floatatom 102 128 10 0 0 0 - - - 0;
#X floatatom 102 145 10 0 0 0 - - - 0;
#X floatatom 102 162 10 0 0 0 - - - 0;
#X floatatom 102 179 10 0 0 0 - - - 0;
#X floatatom 102 196 10 0 0 0 - - - 0;
#X floatatom 102 213 10 0 0 0 - - - 0;
#X floatatom 102 230 10 0 0 0 - - - 0;
#X obj 102 95 unpack f f f f f f f;
#X connect 0 0 15 0;
#X connect 15 0 8 0;
#X connect 15 1 9 0;
#X connect 15 2 10 0;
#X connect 15 3 11 0;
#X connect 15 4 12 0;
#X connect 15 5 13 0;
#X connect 15 6 14 0;
#X coords 0 -1 1 1 144 150 1 100 100;
#X restore 402 372 pd stats on deriv;
#N canvas 1539 -672 450 300 stats 0;
#X obj 102 57 inlet;
#X text 185 128 mean;
#X text 184 145 stddev;
#X text 184 162 skewness;
#X text 184 179 kurtosis;
#X text 184 198 low;
#X text 185 214 mid;
#X text 184 230 high;
#X floatatom 102 128 10 0 0 0 - - - 0;
#X floatatom 102 145 10 0 0 0 - - - 0;
#X floatatom 102 162 10 0 0 0 - - - 0;
#X floatatom 102 179 10 0 0 0 - - - 0;
#X floatatom 102 196 10 0 0 0 - - - 0;
#X floatatom 102 213 10 0 0 0 - - - 0;
#X floatatom 102 230 10 0 0 0 - - - 0;
#X obj 102 95 unpack f f f f f f f;
#X connect 0 0 15 0;
#X connect 15 0 8 0;
#X connect 15 1 9 0;
#X connect 15 2 10 0;
#X connect 15 3 11 0;
#X connect 15 4 12 0;
#X connect 15 5 13 0;
#X connect 15 6 14 0;
#X coords 0 -1 1 1 144 150 1 100 100;
#X restore 251 373 pd stats on data;
#N canvas 446 511 450 300 changing_the_centiles 0;
#X floatatom 45 93 5 0 0 0 - - - 0;
#X msg 45 113 low \$1;
#X floatatom 100 92 5 0 0 0 - - - 0;
#X floatatom 174 92 5 0 0 0 - - - 0;
#X msg 100 112 middle \$1;
#X msg 174 112 high \$1;
#X obj 47 151 outlet;
#X obj 42 15 loadbang;
#X msg 42 39 50;
#X msg 74 38 100;
#X connect 0 0 1 0;
#X connect 1 0 6 0;
#X connect 2 0 4 0;
#X connect 3 0 5 0;
#X connect 4 0 6 0;
#X connect 5 0 6 0;
#X connect 7 0 8 0;
#X connect 8 0 2 0;
#X connect 9 0 3 0;
#X restore 281 208 pd changing_the_centiles;
#X obj 468 675 note_on_automatic_multiarrays;
#X connect 12 0 0 0;
#X connect 18 0 19 0;
#X connect 19 0 22 0;
#X connect 21 0 23 0;
#X connect 22 0 21 0;
#X connect 23 0 27 0;
#X connect 23 1 26 0;
#X connect 28 0 19 0;
