#N canvas 97 32 691 759 12;
#X text 18 86 A real-time transient modeller on its input., f 69;
#X obj 17 13 cnv 15 660 42 empty empty fluid.transients~ 1 22 0 36
#4ba3fb #ffffff 0;
#X obj 509 60 fluid.referencelauncher fluid.transients~.html reference/transients/
;
#X obj 17 60 cnv 15 488 17 empty empty Real-Time\\\ Transient\\\ Modeller\\\ and\\\ Extractor
4 8 0 13 #e0e0e0 #404040 0;
#X obj 28 522 fluid.transients~, f 32;
#X obj 144 587 cnv 15 15 15 empty empty empty 20 12 0 14 #c6ffc7 #404040
0;
#X obj 28 713 fluid.out~ transientshelp;
#X text 57 620 transient;
#X text 180 616 residual;
#X obj 27 166 fluid.demosound~;
#X obj 104 717 cnv 15 15 15 empty empty empty 20 12 0 14 #c6ffc7 #404040
0;
#X obj 37 142 cnv 15 15 15 empty empty empty 20 12 0 14 #c6ffc7 #404040
0;
#X text 38 141 2) Play a sound;
#X text 105 716 1) Audio on;
#X text 145 586 3) Listen to a specific component;
#N canvas 1114 23 544 712 parameters 0;
#X obj 186 548 outlet;
#X obj 34 -62 loadbang;
#X obj 186 27 unpack 0 0 0 0 0 0;
#X floatatom 185 105 8 0 0 0 - - - 0;
#X text 111 105 order, f 10;
#X obj 186 4 r help.transients.presets;
#X msg 34 -37 \; help.transients.presets 20 256 128 0 2 1.1;
#X floatatom 185 125 8 0 0 0 - - - 0;
#X floatatom 185 145 8 0 0 0 - - - 0;
#X floatatom 185 165 8 0 0 0 - - - 0;
#X floatatom 185 185 8 0 0 0 - - - 0;
#X floatatom 185 205 8 0 0 0 - - - 0;
#X text 111 125 blocksize, f 10;
#X text 111 145 padsize, f 10;
#X text 111 165 skew, f 10;
#X text 111 205 threshback;
#X msg 186 271 order \$1;
#X msg 206 301 blocksize \$1;
#X msg 236 331 padsize \$1;
#X msg 266 361 skew \$1;
#X msg 336 421 threshback \$1;
#X text 111 185 threshfwd, f 10;
#X msg 296 391 threshfwd \$1;
#X connect 1 0 6 0;
#X connect 2 0 3 0;
#X connect 2 1 7 0;
#X connect 2 2 8 0;
#X connect 2 3 9 0;
#X connect 2 4 10 0;
#X connect 2 5 11 0;
#X connect 3 0 16 0;
#X connect 5 0 2 0;
#X connect 7 0 17 0;
#X connect 8 0 18 0;
#X connect 9 0 19 0;
#X connect 10 0 22 0;
#X connect 11 0 20 0;
#X connect 16 0 0 0;
#X connect 17 0 0 0;
#X connect 18 0 0 0;
#X connect 19 0 0 0;
#X connect 20 0 0 0;
#X connect 22 0 0 0;
#X coords 0 -1 1 1 150 129 2 100 100;
#X restore 76 298 pd parameters;
#X obj 28 640 *~;
#X obj 42 622 tgl 15 0 empty empty empty 17 7 0 10 #fcfcfc #000000
#000000 0 1;
#X obj 138 640 *~;
#X obj 152 622 tgl 15 0 empty empty empty 17 7 0 10 #fcfcfc #000000
#000000 0 1;
#X text 234 454 <-- more parameters;
#N canvas 1109 23 853 879 parameters 0;
#X obj 29 737 r \$0-params;
#X obj 29 760 outlet;
#X text 28 6 Optional parameters to fluid.bufaudiotransport;
#X obj 29 125 s \$0-params;
#X msg 29 102 blocksize 256;
#X text 163 100 size of audio block (in samples) on which the process
is operating, f 32;
#X obj 29 195 s \$0-params;
#X obj 29 275 s \$0-params;
#X obj 29 355 s \$0-params;
#X obj 29 425 s \$0-params;
#X obj 29 495 s \$0-params;
#X obj 29 565 s \$0-params;
#X msg 29 172 clumplength 25;
#X text 163 170 window size in samples within which anomalous samples
will be clumped together to avoid over-detecting in time, f 32;
#X msg 29 252 order 20;
#X msg 29 332 padsize 128;
#X msg 29 402 skew 0;
#X msg 29 472 threshback 1.1;
#X msg 29 542 threshfwd 2;
#X text 163 250 number of previous samples used by the algorithm to
create the model of the signal within the blocksize window of analysis
, f 32;
#X text 163 330 size (in samples) of analysis on each side of blocksize
, f 32;
#X text 163 400 nervousness of the bespoke detection function, f 32
;
#X text 163 470 threshold applied to the smoothed backward prediction
error for determining an offset, f 33;
#X text 163 540 threshold applied to the smoothed forward prediction
error for determining an onset, f 33;
#X obj 479 125 s \$0-params;
#X obj 479 195 s \$0-params;
#X obj 479 265 s \$0-params;
#X msg 479 102 warnings 0;
#X msg 479 172 windowsize 14;
#X msg 479 242 reset;
#X text 603 239 Calling reset will change parameter values back to
those the object was created with, f 33;
#X text 603 170 averaging window of the error detection function,
f 33;
#X text 603 100 enable warnings to be issued whenever a parameter value
is constrained, f 33;
#X connect 0 0 1 0;
#X connect 4 0 3 0;
#X connect 12 0 6 0;
#X connect 14 0 7 0;
#X connect 15 0 8 0;
#X connect 16 0 9 0;
#X connect 17 0 10 0;
#X connect 18 0 11 0;
#X connect 27 0 24 0;
#X connect 28 0 25 0;
#X connect 29 0 26 0;
#X restore 131 451 pd parameters;
#X obj 230 327 cnv 15 15 15 empty empty empty 20 12 0 14 #c6ffc7 #404040
0;
#X text 231 326 4) Explore the parameters;
#X connect 4 0 16 0;
#X connect 4 1 18 0;
#X connect 9 0 4 0;
#X connect 15 0 4 0;
#X connect 16 0 6 0;
#X connect 16 0 6 1;
#X connect 17 0 16 1;
#X connect 18 0 6 0;
#X connect 18 0 6 1;
#X connect 19 0 18 1;
#X connect 21 0 4 0;
