#N canvas 46 44 697 917 12;
#N canvas 731 210 626 585 make_2_tones 0;
#X msg 38 176 44100;
#X obj 61 226 until;
#X msg 129 249 -1;
#X msg 61 249 1;
#X obj 61 272 +;
#X obj 61 294 t f f f f f, f 75;
#X obj 322 329 expr sin($f1 / 22050 * 3.14159 * 5000), f 24;
#X obj 38 199 t b f b;
#X obj 38 443 fluid.bufcompose;
#X obj 38 153 loadbang;
#X obj 61 329 expr sin($f1 / 22050 * 3.14159 * 500), f 24;
#X obj 39 81 array define lowsine3 44100;
#X obj 39 104 array define hisine3 44100;
#X obj 61 370 tabwrite lowsine3, f 19;
#X obj 322 370 tabwrite hisine3, f 19;
#X msg 38 406 reset \, destgain 1 \, destination help.nmfmatch.src.1
\, source lowsine3 \, bang \, source hisine3 \, deststartframe 44100
\, bang;
#X msg 38 466 \; help.nmfmatch.src.1 xticks 0 0 0;
#X connect 0 0 7 0;
#X connect 1 0 3 0;
#X connect 2 0 4 1;
#X connect 3 0 4 0;
#X connect 4 0 5 0;
#X connect 5 0 10 0;
#X connect 5 1 13 1;
#X connect 5 2 6 0;
#X connect 5 3 14 1;
#X connect 5 4 4 1;
#X connect 6 0 14 0;
#X connect 7 0 15 0;
#X connect 7 1 1 0;
#X connect 7 2 2 0;
#X connect 8 0 16 0;
#X connect 9 0 0 0;
#X connect 10 0 13 0;
#X connect 15 0 8 0;
#X restore 17 132 pd make_2_tones;
#N canvas 0 22 450 278 (subpatch) 0;
#X array nmfmatch_bases-0 513 float 0;
#X coords 0 1 512 0 270 40 1 0 0;
#X restore 382 466 graph;
#N canvas 0 22 450 278 (subpatch) 0;
#X array nmfmatch_bases-1 513 float 0;
#X coords 0 1 512 0 270 40 1 0 0;
#X restore 382 524 graph;
#X obj 19 349 bng 15 250 50 0 empty empty empty 17 7 0 10 #fcfcfc #000000
#000000;
#X obj 19 517 osc~ 500;
#X obj 86 517 osc~ 5000;
#X obj 19 558 *~;
#X obj 37 539 tgl 15 0 empty empty empty 17 7 0 10 #fcfcfc #000000
#000000 0 1;
#X obj 86 559 *~;
#X obj 104 540 tgl 15 0 empty empty empty 17 7 0 10 #fcfcfc #000000
#000000 0 1;
#X obj 19 679 *~ 0.1;
#X text 18 88 Matches an incoming audio signal against a set of spectral
templates, f 69;
#X obj 144 645 unpack f f;
#X floatatom 144 691 8 0 0 0 - - - 0;
#X floatatom 211 691 8 0 0 0 - - - 0;
#X text 219 646 output is a list of activation levels;
#X text 275 701 the activation levels grow in the presence of a learned
component, f 33;
#X obj 17 13 cnv 15 660 42 empty empty fluid.nmfmatch~ 1 22 0 36 #4ba3fb
#ffffff 0;
#X obj 509 60 fluid.referencelauncher fluid.nmfmatch~.html reference/nmfmatch/
;
#X obj 17 60 cnv 15 488 17 empty empty Real-Time\\\ Non-Negative\\\ Matrix\\\ Factorisation\\\ with\\\ Fixed\\\ Bases
4 8 0 13 #e0e0e0 #404040 0;
#X obj 19 705 fluid.out~ nmfmatchhelp;
#X obj 470 805 cnv 15 207 88 empty empty More\\\ information 4 10 0
13 #e0e0e0 #404040 0;
#N canvas 187 74 695 855 detecting_knowns 0;
#X obj 17 13 cnv 15 660 42 empty empty fluid.nmfmatch~ 1 22 0 36 #4ba3fb
#ffffff 0;
#X text 18 88 Helping fluid.nmfmatch~ discover known "features" by
only decomposing sections of a source, f 69;
#N canvas 0 22 450 278 (subpatch) 0;
#X array help.nmfmatch.src.2 968235 float 0;
#X coords 0 1 968234 -1 250 40 1 0 0;
#X restore 302 197 graph;
#X obj 16 248 soundfiler;
#X obj 36 178 cnv 15 15 15 empty empty empty 20 12 0 14 #c6ffc7 #404040
0;
#X text 36 177 1) load a soundfile;
#X obj 16 178 bng 15 250 50 0 empty empty empty 17 7 0 10 #fcfcfc #000000
#000000;
#X msg 16 197 read -resize media/Tremblay-BaB-SoundscapeGolcarWithDog.wav
help.nmfmatch.src.2, f 37;
#X obj 17 283 bng 15 250 50 0 empty empty empty 17 7 0 10 #fcfcfc #000000
#000000;
#X obj 17 303 tabplay~ help.nmfmatch.src.2;
#X obj 17 333 fluid.out~ nmfmatchhelp;
#X obj 36 283 cnv 15 15 15 empty empty empty 20 12 0 14 #c6ffc7 #404040
0;
#X text 36 282 2) play the source;
#X text 88 328 The dog's bark is very present in this recording but
not always. By just decomposing the first four seconds (where the dog
barks a lot) we can extract nmf bases that will help differentiate
moments in time where the dog barking is an obvious feature.;
#X obj 87 441 bng 15 250 50 0 empty empty empty 17 7 0 10 #fcfcfc #000000
#000000;
#X obj 87 501 fluid.bufnmf -source help.nmfmatch.src.2 -bases help.nmfmatch.bases.2
-components 2 -numchans 1 -numframes 176400;
#X obj 233 476 clone fluid.multiarray 2 help.nmfmatch.bases.2;
#X obj 87 563 bng 15 250 50 0 empty empty empty 17 7 0 10 #fcfcfc #000000
#000000;
#X obj 147 563 bng 15 250 50 0 empty empty empty 17 7 0 10 #fcfcfc
#000000 #000000;
#X obj 147 583 tabplay~ help.nmfmatch.src.2;
#X obj 147 793 fluid.out~ nmfmatchhelp;
#X obj 166 563 cnv 15 15 15 empty empty empty 20 12 0 14 #c6ffc7 #404040
0;
#X obj 106 441 cnv 15 15 15 empty empty empty 20 12 0 14 #c6ffc7 #404040
0;
#X text 106 440 3) decompose the first four seconds into two components
;
#X text 166 562 2) Play the original source through the realtime matching.
;
#X obj 237 637 fluid.nmfmatch~ 2 -bases help.nmfmatch.bases.2;
#X obj 237 661 fluid.stats 2 -history 10;
#X obj 237 685 unpack 0 0;
#X obj 237 712 vsl 40 60 0 127 0 0 empty empty empty 0 -9 0 10 #fcfcfc
#000000 #000000 0 1;
#X obj 279 712 vsl 40 60 0 127 0 0 empty empty empty 0 -9 0 10 #fcfcfc
#000000 #000000 0 1;
#X text 328 712 One of these activation levels will jump up noticeably
when the dog barks. Because the NMF algorithm starts from a stochastic
state \, the contents of the decomposition will be vaguely similar
\, but not always in the same order., f 47;
#X connect 6 0 7 0;
#X connect 7 0 3 0;
#X connect 8 0 9 0;
#X connect 9 0 10 0;
#X connect 9 0 10 1;
#X connect 14 0 15 0;
#X connect 15 0 17 0;
#X connect 18 0 19 0;
#X connect 19 0 20 0;
#X connect 19 0 20 1;
#X connect 19 0 25 0;
#X connect 25 0 26 0;
#X connect 26 0 27 0;
#X connect 27 0 28 0;
#X connect 27 1 29 0;
#X restore 473 825 pd detecting_knowns;
#N canvas 283 88 703 816 controlling_a_comb_filter 0;
#X obj 17 13 cnv 15 660 42 empty empty fluid.nmfmatch~ 1 22 0 36 #4ba3fb
#ffffff 0;
#X text 18 88 control a compressor based on learned components, f
69;
#N canvas 0 22 450 278 (subpatch) 0;
#X array help.nmfmatch.src.3 1.00098e+06 float 0;
#X coords 0 1 1.00097e+06 -1 250 40 1 0 0;
#X restore 302 197 graph;
#X obj 16 248 soundfiler;
#X obj 36 178 cnv 15 15 15 empty empty empty 20 12 0 14 #c6ffc7 #404040
0;
#X text 36 177 1) load a soundfile;
#X obj 16 178 bng 15 250 50 0 empty empty empty 17 7 0 10 #fcfcfc #000000
#000000;
#X obj 17 283 bng 15 250 50 0 empty empty empty 17 7 0 10 #fcfcfc #000000
#000000;
#X obj 17 333 fluid.out~ nmfmatchhelp;
#X obj 36 283 cnv 15 15 15 empty empty empty 20 12 0 14 #c6ffc7 #404040
0;
#X text 36 282 2) play the source;
#X msg 16 197 read -resize media/Tremblay-AaS-AcousticStrums-M.wav
help.nmfmatch.src.3, f 37;
#X obj 17 303 tabplay~ help.nmfmatch.src.3;
#X obj 19 376 bng 15 250 50 0 empty empty empty 17 7 0 10 #fcfcfc #000000
#000000;
#X obj 40 374 cnv 15 15 15 empty empty empty 20 12 0 14 #c6ffc7 #404040
0;
#X text 41 374 3) Start decomposition process to search for plectrum
component, f 39;
#N canvas 1417 23 631 775 isolate_plectrum_component 0;
#X obj 37 37 inlet;
#X obj 37 582 outlet;
#X text 116 35 This part of the patch uses fluid.bufnmf~ to derive
some components based on the crude assumption that if a small part
of the guitar sound is broken down into two components \, one of those
components will contain the plectrum sound almost exclusively. The
other component will contain the resonant part of the guitar sound.
;
#X text 116 135 To try and measure this automatically with the computer
\, we resynthesise two components and then measure the median spectral
centroid of each one. We assume that the component with the higher
median spectral centroid will be the plectrum. The buffer channel index
is then stored so that we can extract it later when we retrieve the
matching.;
#X obj 37 190 bng 15 250 50 0 empty empty empty 17 7 0 10 #fcfcfc #000000
#000000;
#X obj 37 250 fluid.bufnmf -source help.nmfmatch.src.3 -numframes 20000
-components 2 -resynthmode 1 -fftsettings 1024 128 1024 -resynth help.nmfmatch.resynth.3
-bases help.nmfmatch.bases.3;
#X obj 37 338 fluid.bufspectralshape -power 1 -select centroid;
#X obj 383 338 clone fluid.multiarray 2 help.nmfmatch.resynth.3, f
26;
#X obj 383 380 clone fluid.multiarray 2 help.nmfmatch.bases.3, f 26
;
#X obj 37 382 fluid.bufstats -select mid;
#N canvas 1705 -1041 690 726 getvalues 0;
#X obj 37 37 inlet;
#X obj 35 248 outlet;
#X msg 35 164 0;
#X obj 35 192 array get, f 20;
#X msg 171 130 symbol \$1;
#X msg 35 220 \$1;
#X listbox 101 235 20 0 0 0 - - - 0;
#X obj 171 158 makefilename %s-0;
#X obj 305 248 outlet;
#X msg 305 164 0;
#X obj 305 192 array get, f 20;
#X msg 440 130 symbol \$1;
#X msg 305 220 \$1;
#X listbox 371 235 20 0 0 0 - - - 0;
#X obj 37 63 t b a b a, f 58;
#X obj 440 158 makefilename %s-1;
#X connect 0 0 14 0;
#X connect 2 0 3 0;
#X connect 3 0 5 0;
#X connect 3 0 6 0;
#X connect 4 0 7 0;
#X connect 5 0 1 0;
#X connect 7 0 3 2;
#X connect 9 0 10 0;
#X connect 10 0 12 0;
#X connect 10 0 13 0;
#X connect 11 0 15 0;
#X connect 12 0 8 0;
#X connect 14 0 2 0;
#X connect 14 1 4 0;
#X connect 14 2 9 0;
#X connect 14 3 11 0;
#X connect 15 0 10 2;
#X restore 37 426 pd getvalues;
#X floatatom 37 461 5 0 0 0 - - - 0;
#X floatatom 118 462 5 0 0 0 - - - 0;
#X obj 37 516 max;
#X obj 37 490 pack 0 0, f 12;
#X floatatom 37 549 5 0 0 0 - - - 0;
#X text 167 457 the component with the highest centroid will most likely
be the plectrum, f 40;
#X floatatom 128 560 5 0 0 0 - - - 0;
#X obj 128 582 s help.nmfmatch.pickedchannel;
#X obj 128 536 expr if($f1>$f2 \, 1 \, 0);
#X connect 0 0 4 0;
#X connect 4 0 5 0;
#X connect 5 0 6 0;
#X connect 6 0 9 0;
#X connect 9 0 10 0;
#X connect 10 0 11 0;
#X connect 10 1 12 0;
#X connect 11 0 14 0;
#X connect 12 0 14 1;
#X connect 13 0 15 0;
#X connect 14 0 13 0;
#X connect 14 0 19 0;
#X connect 15 0 1 0;
#X connect 17 0 18 0;
#X connect 19 0 17 0;
#X restore 19 416 pd isolate_plectrum_component;
#X obj 19 442 bng 15 250 50 0 empty empty empty 17 7 0 10 #fcfcfc #000000
#000000;
#X obj 281 481 bng 15 250 50 0 empty empty empty 17 7 0 10 #fcfcfc
#000000 #000000;
#X obj 281 522 tabplay~ help.nmfmatch.src.3;
#X obj 281 555 fluid.nmfmatch~ 2 -bases help.nmfmatch.bases.3 -fftsettings
1024 128, f 26;
#X obj 281 613 fluid.stats 2 -history 10;
#X obj 281 657 unpack 0 0, f 11;
#X obj 281 698 vsl 72 60 0 100 0 0 empty empty empty 0 -9 0 10 #606060
#ff0400 #000000 0 1;
#X obj 355 698 vsl 72 60 0 100 0 0 empty empty empty 0 -9 0 10 #606060
#00faff #000000 0 1;
#X obj 218 678 * 1.5;
#X obj 25 701 fluid.comb~ 100 10 0.2 0 0.9;
#X obj 25 765 fluid.out~ nmfmatchhelp;
#N canvas 710 177 419 357 pick 0;
#X obj 30 24 inlet;
#X obj 30 166 spigot;
#X obj 191 24 r help.nmfmatch.pickedchannel;
#X obj 69 139 == 0;
#X obj 159 139 == 1;
#X obj 111 166 spigot;
#X floatatom 30 201 5 0 0 0 - - - 0;
#X obj 30 252 outlet;
#X obj 30 66 unpack 0 0, f 12;
#X text 31 293 This ensures that the match against the plectrum component
is being used to drive the delay time of the comb filter, f 41;
#X connect 0 0 8 0;
#X connect 1 0 6 0;
#X connect 2 0 3 0;
#X connect 2 0 4 0;
#X connect 3 0 1 1;
#X connect 4 0 5 1;
#X connect 5 0 6 0;
#X connect 6 0 7 0;
#X connect 8 0 1 0;
#X connect 8 1 5 0;
#X restore 219 656 pd pick;
#X obj 302 479 cnv 15 15 15 empty empty empty 20 12 0 14 #c6ffc7 #404040
0;
#X text 303 479 4) Play the original guitar file through fluid.nmfmatch~
, f 29;
#X connect 6 0 11 0;
#X connect 7 0 12 0;
#X connect 11 0 3 0;
#X connect 12 0 8 0;
#X connect 12 0 8 1;
#X connect 13 0 16 0;
#X connect 16 0 17 0;
#X connect 18 0 19 0;
#X connect 19 0 20 0;
#X connect 19 0 26 0;
#X connect 20 0 21 0;
#X connect 21 0 22 0;
#X connect 21 0 28 0;
#X connect 22 0 23 0;
#X connect 22 1 24 0;
#X connect 25 0 26 1;
#X connect 26 0 27 0;
#X connect 26 0 27 1;
#X connect 28 0 25 0;
#X restore 473 847 pd controlling_a_comb_filter;
#N canvas 876 23 785 861 resonant_filters 0;
#X obj 17 13 cnv 15 660 42 empty empty fluid.nmfmatch~ 1 22 0 36 #4ba3fb
#ffffff 0;
#X text 18 88 Make a filter bank from learned components, f 69;
#N canvas 0 22 450 278 (subpatch) 0;
#X array help.nmfmatch.src.4 867378 float 0;
#X coords 0 1 867377 -1 250 40 1 0 0;
#X restore 302 197 graph;
#X obj 16 248 soundfiler;
#X obj 36 178 cnv 15 15 15 empty empty empty 20 12 0 14 #c6ffc7 #404040
0;
#X text 36 177 1) load a soundfile;
#X obj 16 178 bng 15 250 50 0 empty empty empty 17 7 0 10 #fcfcfc #000000
#000000;
#X obj 17 433 bng 15 250 50 0 empty empty empty 17 7 0 10 #fcfcfc #000000
#000000;
#X obj 17 743 fluid.out~ nmfmatchhelp;
#X obj 36 433 cnv 15 15 15 empty empty empty 20 12 0 14 #c6ffc7 #404040
0;
#X text 36 432 2) play the source;
#X msg 16 197 read -resize media/Tremblay-CEL-GlitchyMusicBoxMelo.wav
help.nmfmatch.src.4, f 37;
#X obj 17 453 tabplay~ help.nmfmatch.src.4;
#X obj 116 288 cnv 15 15 15 empty empty empty 20 12 0 14 #c6ffc7 #404040
0;
#X obj 96 288 bng 15 250 50 0 empty empty empty 17 7 0 10 #fcfcfc #000000
#000000;
#X text 116 287 2) Decompose the source sound into 8 components;
#X obj 96 308 fluid.bufnmf -source help.nmfmatch.src.4 -bases help.nmfmatch.bases.4
-resynth help.nmfmatch.resynth.4 -resynthmode 1 -components 8 -numframes
176400;
#N canvas 930 -1032 450 411 find_median_spectral_centroid 0;
#X obj 37 37 inlet;
#X obj 37 297 outlet;
#X obj 37 61 fluid.bufspectralshape -power 1;
#X obj 37 91 fluid.bufselectevery -chanhop 7;
#X obj 37 115 fluid.bufstats -select mid;
#X connect 0 0 2 0;
#X connect 2 0 3 0;
#X connect 3 0 4 0;
#X restore 96 360 pd find_median_spectral_centroid;
#X obj 96 384 s help.nmfmatch.componentcentroids;
#X obj 446 514 s help.nmfmatch.componentcentroids;
#X obj 107 497 fluid.nmfmatch~ 8 -bases help.nmfmatch.bases.4;
#X obj 383 118 clone fluid.multiarray 2 help.nmfmatch.resynth.4;
#X obj 383 140 clone fluid.multiarray 2 help.nmfmatch.bases.4;
#X obj 101 587 clone fluid.nmfmatch.polyfilter 8;
#N canvas 63 101 338 195 sum 0;
#X obj 54 39 inlet~;
#X obj 104 39 inlet~;
#X obj 54 72 +~;
#X obj 54 120 outlet~;
#X connect 0 0 2 0;
#X connect 1 0 2 1;
#X connect 2 0 3 0;
#X restore 17 687 pd sum;
#X f 12;
#X obj 107 521 fluid.stats 8 -history 5;
#X connect 6 0 11 0;
#X connect 7 0 12 0;
#X connect 11 0 3 0;
#X connect 12 0 20 0;
#X connect 12 0 23 0;
#X connect 12 0 24 0;
#X connect 14 0 16 0;
#X connect 16 0 17 0;
#X connect 17 0 18 0;
#X connect 20 0 25 0;
#X connect 23 0 24 1;
#X connect 24 0 8 0;
#X connect 24 0 8 1;
#X restore 473 869 pd resonant_filters;
#N canvas 0 22 450 278 (subpatch) 0;
#X array help.nmfmatch.src.1 88200 float 0;
#X coords 0 1 88199 -1 516 141 1 0 0;
#X restore 17 179 graph;
#N canvas 63 101 338 195 sum 0;
#X obj 54 39 inlet~;
#X obj 104 39 inlet~;
#X obj 54 72 +~;
#X obj 54 120 outlet~;
#X connect 0 0 2 0;
#X connect 1 0 2 1;
#X connect 2 0 3 0;
#X restore 19 586 pd sum;
#X f 10;
#N canvas 0 22 450 278 (subpatch) 0;
#X array base0 100 float 3;
#A 0 2.77273e-16 2.77273e-16 2.77273e-16 2.77273e-16 2.77273e-16 2.77273e-16
2.77315e-16 2.77315e-16 2.77315e-16 2.77315e-16 2.77315e-16 2.77315e-16
2.77315e-16 2.77315e-16 2.77274e-16 2.77274e-16 2.77274e-16 2.77274e-16
2.77274e-16 2.77274e-16 2.77274e-16 2.77274e-16 2.77285e-16 2.77285e-16
2.77285e-16 2.77285e-16 2.77285e-16 2.77285e-16 2.77285e-16 2.77285e-16
2.7731e-16 2.7731e-16 2.7731e-16 2.7731e-16 2.7731e-16 2.7731e-16 2.7731e-16
2.7731e-16 2.77244e-16 2.77244e-16 2.77244e-16 2.77244e-16 2.77244e-16
2.77244e-16 2.77244e-16 2.77244e-16 2.77284e-16 2.77284e-16 2.77284e-16
2.77284e-16 2.77284e-16 2.77284e-16 2.77284e-16 2.77284e-16 2.77268e-16
2.77268e-16 2.77268e-16 2.77268e-16 2.77268e-16 2.77268e-16 2.77268e-16
2.77268e-16 2.77278e-16 2.77278e-16 2.77278e-16 2.77278e-16 2.77278e-16
2.77278e-16 2.77278e-16 2.77278e-16 2.77252e-16 2.77252e-16 2.77252e-16
2.77252e-16 2.77252e-16 2.77252e-16 2.77252e-16 2.77252e-16 2.77361e-16
2.77361e-16 2.77361e-16 2.77361e-16 2.77361e-16 2.77361e-16 2.77361e-16
2.77361e-16 2.7723e-16 2.7723e-16 2.7723e-16 2.7723e-16 2.7723e-16
2.7723e-16 2.7723e-16 2.7723e-16 2.77273e-16 2.77273e-16 2.77273e-16
2.77273e-16 2.77273e-16 2.77273e-16;
#X coords 0 400 100 0 271 40 1 0 0;
#X restore 145 743 graph;
#N canvas 0 22 450 278 (subpatch) 0;
#X array base1 100 float 3;
#A 0 3.02713e-16 3.02713e-16 3.02713e-16 3.02713e-16 3.02713e-16 3.02713e-16
3.02459e-16 3.02459e-16 3.02459e-16 3.02459e-16 3.02459e-16 3.02459e-16
3.02459e-16 3.02459e-16 3.02712e-16 3.02712e-16 3.02712e-16 3.02712e-16
3.02712e-16 3.02712e-16 3.02712e-16 3.02712e-16 3.0268e-16 3.0268e-16
3.0268e-16 3.0268e-16 3.0268e-16 3.0268e-16 3.0268e-16 3.0268e-16 3.02497e-16
3.02497e-16 3.02497e-16 3.02497e-16 3.02497e-16 3.02497e-16 3.02497e-16
3.02497e-16 3.0279e-16 3.0279e-16 3.0279e-16 3.0279e-16 3.0279e-16
3.0279e-16 3.0279e-16 3.0279e-16 3.02683e-16 3.02683e-16 3.02683e-16
3.02683e-16 3.02683e-16 3.02683e-16 3.02683e-16 3.02683e-16 3.02729e-16
3.02729e-16 3.02729e-16 3.02729e-16 3.02729e-16 3.02729e-16 3.02729e-16
3.02729e-16 3.02698e-16 3.02698e-16 3.02698e-16 3.02698e-16 3.02698e-16
3.02698e-16 3.02698e-16 3.02698e-16 3.02772e-16 3.02772e-16 3.02772e-16
3.02772e-16 3.02772e-16 3.02772e-16 3.02772e-16 3.02772e-16 3.01762e-16
3.01762e-16 3.01762e-16 3.01762e-16 3.01762e-16 3.01762e-16 3.01762e-16
3.01762e-16 3.02821e-16 3.02821e-16 3.02821e-16 3.02821e-16 3.02821e-16
3.02821e-16 3.02821e-16 3.02821e-16 3.02713e-16 3.02713e-16 3.02713e-16
3.02713e-16 3.02713e-16 3.02713e-16;
#X coords 0 400 100 0 271 40 1 0 0;
#X restore 145 803 graph;
#N canvas 2119 -456 446 295 draw 0;
#X obj 39 85 inlet;
#X obj 39 154 list prepend 0, f 17;
#X obj 39 108 t b f, f 17;
#X obj 39 131 array get base0;
#X obj 39 177 array set base0;
#X obj 189 85 inlet;
#X obj 189 154 list prepend 0, f 17;
#X obj 189 108 t b f, f 17;
#X obj 189 131 array get base1;
#X obj 189 177 array set base1;
#X connect 0 0 2 0;
#X connect 1 0 4 0;
#X connect 2 0 3 0;
#X connect 2 1 1 1;
#X connect 3 0 1 0;
#X connect 5 0 7 0;
#X connect 6 0 9 0;
#X connect 7 0 8 0;
#X connect 7 1 6 1;
#X connect 8 0 6 0;
#X restore 155 668 pd draw;
#X obj 19 732 cnv 15 15 15 empty empty empty 20 12 0 14 #c6ffc7 #404040
0;
#X text 19 731 1) audio on;
#X obj 48 349 cnv 15 15 15 empty empty empty 20 12 0 14 #c6ffc7 #404040
0;
#X text 47 348 2) decompose the 2 consecutive sines above in 2 components
with bufnmf~, f 74;
#X text 381 418 These are the "bases" of each component.;
#X obj 19 367 fluid.bufnmf -source help.nmfmatch.src.1 -bases nmfmatch_bases
-components 2, f 72;
#X obj 144 624 fluid.nmfmatch~ 2 -bases nmfmatch_bases;
#X connect 3 0 35 0;
#X connect 4 0 6 0;
#X connect 5 0 8 0;
#X connect 6 0 26 0;
#X connect 7 0 6 1;
#X connect 8 0 26 1;
#X connect 9 0 8 1;
#X connect 10 0 20 0;
#X connect 10 0 20 1;
#X connect 12 0 13 0;
#X connect 12 0 29 0;
#X connect 12 1 14 0;
#X connect 12 1 29 1;
#X connect 26 0 10 0;
#X connect 26 0 36 0;
#X connect 36 0 12 0;
