#N canvas 528 76 529 445 12;
#X obj 121 405 print;
#N canvas 0 22 450 278 (subpatch) 0;
#X array datapoint 1 float 2;
#X coords 0 278 1 277 200 140 0;
#X restore 290 172 graph;
#X msg 81 270 cols \, size;
#X obj 150 172 tabwrite datapoint;
#X obj 19 51 until;
#X obj 19 79 f;
#X obj 58 100 + 1;
#X msg 94 72 0;
#X obj 20 143 trigger float float;
#X msg 20 198 setpoint foo\$1 datapoint;
#X msg 81 242 clear;
#X msg 19 23 100;
#X obj 121 349 route size cols;
#X msg 181 378 cols \$1;
#X msg 121 377 size \$1;
#X msg 181 265 print;
#X obj 26 325 fluid.dataset~ foo;
#X msg 260 263 read /tmp/doesit.json;
#X msg 263 297 write /tmp/didit.json;
#X connect 2 0 16 0;
#X connect 4 0 5 0;
#X connect 5 0 6 0;
#X connect 5 0 8 0;
#X connect 6 0 5 1;
#X connect 7 0 5 1;
#X connect 8 0 9 0;
#X connect 8 1 3 0;
#X connect 9 0 16 0;
#X connect 10 0 16 0;
#X connect 11 0 4 0;
#X connect 12 0 14 0;
#X connect 12 1 13 0;
#X connect 13 0 0 0;
#X connect 14 0 0 0;
#X connect 15 0 16 0;
#X connect 16 2 12 0;
#X connect 17 0 16 0;
#X connect 18 0 16 0;
