#N canvas 214 244 993 577 10;
#X obj 57 86 until;
#X msg 39 38 6;
#X obj 178 107 array define spikes 30000;
#X msg 57 227 1;
#X obj 57 248 tabwrite spikes;
#X msg 178 89 const 0;
#X obj 37 395 fluid.bufonsetslice~ -source spikes -indices slicepoints
-minslicelength 2 -fftsettings 128 -threshold 0.1;
#X obj 188 140 array define slicepoints 20;
#X obj 37 441 array get slicepoints;
#X obj 38 290 list store;
#X obj 167 263 t l l;
#X obj 38 319 t b l;
#X obj 64 344 print original;
#X obj 37 462 print discovered;
#X obj 57 129 + 20;
#X obj 57 150 * 50;
#X obj 57 205 t b f f f;
#X obj 57 171 +;
#X obj 167 242 list prepend;
#X obj 57 107 random 81;
#X obj 497 102 soundfiler;
#X obj 592 107 array define audiofromfile;
#X obj 497 123 t b;
#X obj 497 232 print indices;
#X obj 592 136 array define indices 1;
#X obj 497 165 fluid.bufonsetslice~ -source audiofromfile -indices
indices -metric 6 -threshold 0.1;
#X obj 497 203 array size indices;
#X obj 496 352 tabread indices;
#X obj 496 309 t f f;
#X obj 494 488 dac~;
#X obj 496 330 + 1;
#X obj 593 352 tabread indices;
#X obj 536 388 -;
#X obj 496 373 t f f;
#X obj 495 426 pack;
#X obj 496 449 tabplay~ audiofromfile;
#X floatatom 496 287 5 0 0 0 - - -;
#X msg 113 152 0;
#X obj 39 59 t b f b, f 14;
#X msg 497 59 read -resize ../media/Tremblay-ASWINE-ScratchySynth-M.wav
audiofromfile;
#X connect 0 0 19 0;
#X connect 1 0 38 0;
#X connect 3 0 4 0;
#X connect 5 0 2 0;
#X connect 6 0 8 0;
#X connect 8 0 13 0;
#X connect 9 0 11 0;
#X connect 10 0 9 1;
#X connect 10 1 18 1;
#X connect 11 0 6 0;
#X connect 11 1 12 0;
#X connect 14 0 15 0;
#X connect 15 0 17 0;
#X connect 16 0 3 0;
#X connect 16 1 4 1;
#X connect 16 2 18 0;
#X connect 16 3 17 1;
#X connect 17 0 16 0;
#X connect 18 0 10 0;
#X connect 19 0 14 0;
#X connect 20 0 22 0;
#X connect 22 0 25 0;
#X connect 25 0 26 0;
#X connect 26 0 23 0;
#X connect 27 0 33 0;
#X connect 28 0 30 0;
#X connect 28 1 31 0;
#X connect 30 0 27 0;
#X connect 31 0 32 1;
#X connect 32 0 34 1;
#X connect 33 0 34 0;
#X connect 33 1 32 0;
#X connect 34 0 35 0;
#X connect 35 0 29 0;
#X connect 35 0 29 1;
#X connect 36 0 28 0;
#X connect 37 0 17 1;
#X connect 38 0 9 0;
#X connect 38 1 0 0;
#X connect 38 2 5 0;
#X connect 38 2 18 1;
#X connect 38 2 37 0;
#X connect 39 0 20 0;
