#N canvas 55 60 697 1009 12;
#X obj 17 13 cnv 15 660 42 empty empty fluid.mds 1 22 0 36 #4ba3fb #ffffff 0;
#X obj 455 920 cnv 15 222 68 empty empty More\ information 4 10 0 13 #e0e0e0 #404040 0;
#X obj 509 60 fluid.referencelauncher fluid.mds.html reference/mds/;
#X text 17 79 Multidimensional Scaling;
#X text 17 119 Dimensionality Reduction of a fluid.dataset Using Multidimensional Scaling;
#N canvas 104 94 702 1052 comparing_distance_metrics 0;
#X obj 17 13 cnv 15 660 42 empty empty fluid.mds 1 22 0 36 #4ba3fb #ffffff 0;
#X text 17 79 comparing distance metrics (-distancemetric parameter);
#N canvas 1567 -787 425 151 loadsrc 0;
#X obj 16 63 soundfiler;
#X obj 16 19 loadbang;
#X msg 16 41 read -resize media/Nicol-LoopE-M.wav help.mds.src.2;
#X connect 1 0 2 0;
#X connect 2 0 0 0;
#X restore 20 133 pd loadsrc;
#X obj 478 152 array define help.mds.src.2;
#X obj 24 199 bng 15 250 50 0 empty empty empty 17 7 0 10 #fcfcfc #000000 #000000;
#X obj 24 229 fluid.bufmfcc -source help.mds.src.2 -numframes 176400 -startcoeff 1;
#X obj 24 272 list;
#X msg 24 301 frombuffer \$2;
#X obj 24 330 fluid.dataset help.mds.mfccs;
#X obj 24 388 bng 15 250 50 0 empty empty empty 17 7 0 10 #fcfcfc #000000 #000000;
#X obj 24 413 fluid.ds2text help.mds.mfccs help.mds.mfccs.text, f 24;
#X obj 424 199 bng 15 250 50 0 empty empty empty 17 7 0 10 #fcfcfc #000000 #000000;
#X obj 424 239 s help.mds.load_comparison, f 25;
#X obj 44 199 cnv 15 15 15 empty empty empty 20 12 0 14 #c6ffc7 #404040 0;
#X text 45 198 1) Analyse the MFCCs of a source buffer;
#N canvas 1213 -1038 838 883 help.mds.metrics.1 0;
#X obj 0 -414 r help.mds.load_comparison;
#X obj 0 -246 fluid.normalize;
#X obj 0 -222 route fittransform;
#X obj 0 -196 bng 15 250 50 0 empty empty empty 17 7 0 10 #fcfcfc #000000 #000000;
#X obj 0 -169 t b b;
#X obj 0 0 fluid.plotter 300 300 1 0 empty empty;
#X msg 0 -390 fittransform help.mds.mfccs help.mds.data.out.m.3, f 29;
#X msg 0 -329 fittransform help.mds.data.out.m.3 help.mds.data.out.m.3.norm;
#X obj 32 -143 fluid.ds2text help.mds.data.out.m.3.norm help.mds.data.out.m.3.norm.text, f 32;
#X obj 42 -86 text define help.mds.data.out.m.3.norm.text;
#X f 32;
#X msg 0 -24 setpoints help.mds.data.out.m.3.norm.text;
#X obj 379 -395 fluid.dataset help.mds.data.out.m.3, f 24;
#X obj 379 -355 fluid.dataset help.mds.data.out.m.3.norm, f 27;
#X obj 0 -354 fluid.mds -distancemetric 2;
#X connect 0 0 6 0;
#X connect 1 0 2 0;
#X connect 2 0 3 0;
#X connect 3 0 4 0;
#X connect 4 0 10 0;
#X connect 4 1 8 0;
#X connect 6 0 13 0;
#X connect 7 0 1 0;
#X connect 10 0 5 0;
#X connect 13 0 7 0;
#X coords 0 -1 1 1 300 300 2 0 0;
#X restore 24 892 pd help.mds.metrics.1;
#X obj 23 864 cnv 15 302 26 empty empty Squared\ Euclidian 90 12 1 16 #ecefef #0400ff 0;
#N canvas 1644 -1035 838 883 help.mds.metrics.1 0;
#X obj 0 -414 r help.mds.load_comparison;
#X obj 0 -246 fluid.normalize;
#X obj 0 -222 route fittransform;
#X obj 0 -196 bng 15 250 50 0 empty empty empty 17 7 0 10 #fcfcfc #000000 #000000;
#X obj 0 -169 t b b;
#X obj 0 0 fluid.plotter 300 300 1 0 empty empty;
#X obj 0 -354 fluid.mds -distancemetric 3;
#X msg 0 -390 fittransform help.mds.mfccs help.mds.data.out.m.4, f 29;
#X msg 0 -329 fittransform help.mds.data.out.m.4 help.mds.data.out.m.4.norm;
#X obj 32 -143 fluid.ds2text help.mds.data.out.m.4.norm help.mds.data.out.m.4.norm.text, f 32;
#X obj 42 -86 text define help.mds.data.out.m.4.norm.text;
#X f 32;
#X msg 0 -24 setpoints help.mds.data.out.m.4.norm.text;
#X obj 379 -395 fluid.dataset help.mds.data.out.m.4, f 24;
#X obj 379 -355 fluid.dataset help.mds.data.out.m.4.norm, f 24;
#X connect 0 0 7 0;
#X connect 1 0 2 0;
#X connect 2 0 3 0;
#X connect 3 0 4 0;
#X connect 4 0 11 0;
#X connect 4 1 9 0;
#X connect 6 0 8 0;
#X connect 7 0 6 0;
#X connect 8 0 1 0;
#X connect 11 0 5 0;
#X coords 0 -1 1 1 300 300 2 0 0;
#X restore 344 892 pd help.mds.metrics.1;
#X obj 343 864 cnv 15 302 26 empty empty Max\ distance 100 12 1 16 #ecefef #0400ff 0;
#N canvas 1351 -978 838 883 help.mds.metrics.1 0;
#X obj 0 -414 r help.mds.load_comparison;
#X obj 0 -246 fluid.normalize;
#X obj 0 -222 route fittransform;
#X obj 0 -196 bng 15 250 50 0 empty empty empty 17 7 0 10 #fcfcfc #000000 #000000;
#X obj 0 -169 t b b;
#X obj 0 0 fluid.plotter 300 300 1 0 empty empty;
#X obj 0 -354 fluid.mds -distancemetric 4;
#X msg 0 -390 fittransform help.mds.mfccs help.mds.data.out.m.5, f 29;
#X msg 0 -329 fittransform help.mds.data.out.m.5 help.mds.data.out.m.5.norm;
#X obj 32 -143 fluid.ds2text help.mds.data.out.m.5.norm help.mds.data.out.m.5.norm.text, f 32;
#X obj 42 -86 text define help.mds.data.out.m.5.norm.text;
#X f 32;
#X msg 0 -24 setpoints help.mds.data.out.m.5.norm.text;
#X obj 379 -395 fluid.dataset help.mds.data.out.m.5, f 24;
#X obj 379 -355 fluid.dataset help.mds.data.out.m.5.norm, f 24;
#X connect 0 0 7 0;
#X connect 1 0 2 0;
#X connect 2 0 3 0;
#X connect 3 0 4 0;
#X connect 4 0 11 0;
#X connect 4 1 9 0;
#X connect 6 0 8 0;
#X connect 7 0 6 0;
#X connect 8 0 1 0;
#X connect 11 0 5 0;
#X coords 0 -1 1 1 300 300 2 0 0;
#X restore 23 1232 pd help.mds.metrics.1;
#X obj 23 1204 cnv 15 302 26 empty empty Min\ Distance 100 12 1 16 #ecefef #0400ff 0;
#N canvas 1644 -1035 838 883 help.mds.metrics.1 0;
#X obj 0 -414 r help.mds.load_comparison;
#X obj 0 -246 fluid.normalize;
#X obj 0 -222 route fittransform;
#X obj 0 -196 bng 15 250 50 0 empty empty empty 17 7 0 10 #fcfcfc #000000 #000000;
#X obj 0 -169 t b b;
#X obj 0 0 fluid.plotter 300 300 1 0 empty empty;
#X obj 0 -354 fluid.mds -distancemetric 5;
#X msg 0 -390 fittransform help.mds.mfccs help.mds.data.out.m.6, f 29;
#X msg 0 -329 fittransform help.mds.data.out.m.6 help.mds.data.out.m.6.norm;
#X obj 32 -143 fluid.ds2text help.mds.data.out.m.6.norm help.mds.data.out.m.6.norm.text, f 32;
#X obj 42 -86 text define help.mds.data.out.m.6.norm.text;
#X f 32;
#X msg 0 -24 setpoints help.mds.data.out.m.6.norm.text;
#X obj 379 -395 fluid.dataset help.mds.data.out.m.6, f 24;
#X obj 379 -355 fluid.dataset help.mds.data.out.m.6.norm, f 26;
#X connect 0 0 7 0;
#X connect 1 0 2 0;
#X connect 2 0 3 0;
#X connect 3 0 4 0;
#X connect 4 0 11 0;
#X connect 4 1 9 0;
#X connect 6 0 8 0;
#X connect 7 0 6 0;
#X connect 8 0 1 0;
#X connect 11 0 5 0;
#X coords 0 -1 1 1 300 300 2 0 0;
#X restore 344 1232 pd help.mds.metrics.1;
#X obj 343 1204 cnv 15 302 26 empty empty KL\ Divergence 100 12 1 16 #ecefef #0400ff 0;
#N canvas -266 -936 838 883 help.mds.metrics.1 0;
#X obj 0 -414 r help.mds.load_comparison;
#X obj 0 -246 fluid.normalize;
#X obj 379 -395 fluid.dataset help.mds.data.out.m.1, f 24;
#X msg 0 -390 fittransform help.mds.mfccs help.mds.data.out.m.1, f 29;
#X obj 0 -222 route fittransform;
#X obj 0 -196 bng 15 250 50 0 empty empty empty 17 7 0 10 #fcfcfc #000000 #000000;
#X obj 0 -169 t b b;
#X obj 0 0 fluid.plotter 300 300 1 0 empty empty;
#X obj 379 -355 fluid.dataset help.mds.data.out.m.1.norm, f 24;
#X msg 0 -329 fittransform help.mds.data.out.m.1 help.mds.data.out.m.1.norm;
#X obj 32 -143 fluid.ds2text help.mds.data.out.m.1.norm help.mds.data.out.m.1.norm.text, f 32;
#X obj 42 -86 text define help.mds.data.out.m.1.norm.text;
#X f 32;
#X msg 0 -24 setpoints help.mds.data.out.m.1.norm.text;
#X obj 0 -354 fluid.mds -distancemetric 0;
#X connect 0 0 3 0;
#X connect 1 0 4 0;
#X connect 3 0 13 0;
#X connect 4 0 5 0;
#X connect 5 0 6 0;
#X connect 6 0 12 0;
#X connect 6 1 10 0;
#X connect 9 0 1 0;
#X connect 12 0 7 0;
#X connect 13 0 9 0;
#X coords 0 -1 1 1 300 300 2 0 0;
#X restore 24 552 pd help.mds.metrics.1;
#X obj 23 524 cnv 15 302 26 empty empty Manhattan 115 12 1 16 #ecefef #0400ff 0;
#N canvas 1644 -1035 838 883 help.mds.metrics.1 0;
#X obj 0 -414 r help.mds.load_comparison;
#X obj 0 -246 fluid.normalize;
#X obj 0 -222 route fittransform;
#X obj 0 -196 bng 15 250 50 0 empty empty empty 17 7 0 10 #fcfcfc #000000 #000000;
#X obj 0 -169 t b b;
#X obj 0 0 fluid.plotter 300 300 1 0 empty empty;
#X msg 0 -390 fittransform help.mds.mfccs help.mds.data.out.m.2, f 29;
#X obj 379 -395 fluid.dataset help.mds.data.out.m.2, f 24;
#X obj 379 -355 fluid.dataset help.mds.data.out.m.2.norm, f 24;
#X msg 0 -329 fittransform help.mds.data.out.m.2 help.mds.data.out.m.2.norm;
#X obj 32 -143 fluid.ds2text help.mds.data.out.m.2.norm help.mds.data.out.m.2.norm.text, f 32;
#X obj 42 -86 text define help.mds.data.out.m.2.norm.text;
#X f 32;
#X msg 0 -24 setpoints help.mds.data.out.m.2.norm.text;
#X obj 0 -354 fluid.mds -distancemetric 1;
#X connect 0 0 6 0;
#X connect 1 0 2 0;
#X connect 2 0 3 0;
#X connect 3 0 4 0;
#X connect 4 0 12 0;
#X connect 4 1 10 0;
#X connect 6 0 13 0;
#X connect 9 0 1 0;
#X connect 12 0 5 0;
#X connect 13 0 9 0;
#X coords 0 -1 1 1 300 300 2 0 0;
#X restore 344 552 pd help.mds.metrics.1;
#X obj 343 524 cnv 15 302 26 empty empty Euclidian 115 12 1 16 #ecefef #0400ff 0;
#X obj 444 199 cnv 15 15 15 empty empty empty 20 12 0 14 #c6ffc7 #404040 0;
#X text 444 197 2) plot all six metrics below, f 17;
#X obj 24 359 route frombuffer;
#X obj 30 466 cnv 15 145 32 empty empty empty 20 12 0 14 #dfdfdf #404040 0;
#X obj 30 465 text define help.mds.mfccs.text;
#X f 20;
#X connect 4 0 5 0;
#X connect 5 0 6 0;
#X connect 6 0 7 0;
#X connect 7 0 8 0;
#X connect 8 0 29 0;
#X connect 9 0 10 0;
#X connect 11 0 12 0;
#X connect 29 0 9 0;
#X restore 466 942 pd comparing_distance_metrics;
#N canvas 1567 -787 448 179 loadsrc 0;
#X obj 16 63 soundfiler;
#X obj 16 19 loadbang;
#X msg 16 41 read -resize media/Nicol-LoopE-M.wav help.mds.src.1;
#X connect 1 0 2 0;
#X connect 2 0 0 0;
#X restore 39 185 pd loadsrc;
#X obj 483 161 array define help.mds.src.1;
#X obj 39 242 bng 15 250 50 0 empty empty empty 17 7 0 10 #fcfcfc #000000 #000000;
#X obj 39 262 fluid.bufmfcc -source help.mds.src.1 -features help.mds.features.1;
#X obj 58 242 cnv 15 15 15 empty empty empty 20 12 0 14 #c6ffc7 #404040 0;
#X text 59 241 1) Analyse the MFCCs of a source buffer;
#X obj 39 361 fluid.dataset help.mds.data.in;
#X msg 39 336 frombuffer \$2;
#X obj 483 185 clone fluid.multiarray 13 help.mds.features.1, f 27;
#X obj 39 395 bng 15 250 50 0 empty empty empty 17 7 0 10 #fcfcfc #000000 #000000;
#X text 55 392 store dataset into a text object;
#X obj 39 430 fluid.ds2text help.mds.data.in help.mds.data.in.text, f 27;
#X obj 39 313 list;
#X obj 372 376 fluid.mds -numdimensions 2;
#N canvas 32 38 818 921 output_dataset 0;
#X obj 37 17 inlet;
#X obj 37 81 fluid.normalize;
#X text 345 259 <- double-click 'text' to see data, f 18;
#X obj 104 172 bng 15 250 50 0 empty empty empty 17 7 0 10 #fcfcfc #000000 #000000;
#X obj 435 47 fluid.dataset help.mds.data.out.norm, f 23;
#X obj 104 200 fluid.ds2text help.mds.data.out.norm help.mds.data.out.norm.text, f 27;
#X obj 117 253 text define help.mds.data.out.norm.text;
#X f 29;
#X msg 37 50 fittransform help.mds.data.out help.mds.data.out.norm;
#X obj 37 114 route fittransform;
#X obj 37 172 outlet;
#X obj 37 143 t b b, f 10;
#X connect 0 0 7 0;
#X connect 1 0 8 0;
#X connect 3 0 5 0;
#X connect 7 0 1 0;
#X connect 8 0 10 0;
#X connect 10 0 9 0;
#X connect 10 1 3 0;
#X restore 372 474 pd output_dataset;
#X msg 510 474 print;
#X obj 510 503 fluid.dataset help.mds.data.out, f 20;
#X msg 372 327 fittransform help.mds.data.in help.mds.data.out, f 31;
#X obj 372 579 fluid.plotter 300 300 1 0 empty empty;
#X msg 372 555 setpoints help.mds.data.out.norm.text;
#X obj 44 482 cnv 15 180 33 empty empty empty 20 12 0 14 #e0e0e0 #404040 0;
#X obj 44 482 text define help.mds.data.in.text;
#X f 25;
#X obj 466 965 note_on_automatic_datasets;
#X obj 232 483 cnv 15 15 15 empty empty empty 20 12 0 14 #c6ffc7 #404040 0;
#X text 232 482 2) open text to see data, f 12;
#X obj 372 307 cnv 15 15 15 empty empty empty 20 12 0 14 #c6ffc7 #404040 0;
#X text 372 306 3) Click to reduce dimensions and draw.;
#X connect 8 0 9 0;
#X connect 9 0 18 0;
#X connect 12 0 15 0;
#X connect 13 0 12 0;
#X connect 15 0 17 0;
#X connect 18 0 13 0;
#X connect 19 0 20 0;
#X connect 19 0 21 0;
#X connect 20 0 25 0;
#X connect 21 0 22 0;
#X connect 23 0 19 0;
#X connect 25 0 24 0;
