#N canvas 205 135 693 724 12;
#X obj 309 289 array define input 10;
#X obj 53 313 array set input;
#X msg 40 389 print;
#X msg 21 229 -1;
#X msg 55 229 0;
#X msg 91 229 1;
#N canvas 535 225 1107 619 newarray 0;
#X obj 309 286 until;
#X msg 377 307 -1;
#X msg 309 307 1;
#X obj 309 334 +;
#X obj 323 586 outlet;
#X msg 309 267 10;
#X obj 309 359 t f f;
#X obj 310 162 inlet;
#X obj 393 414 expr (($f1 / 10) + $f2);
#X obj 500 464 list prepend;
#X obj 500 490 t l l;
#X obj 292 509 list;
#X obj 280 223 t b b f f b, f 51;
#X connect 0 0 2 0;
#X connect 1 0 3 1;
#X connect 2 0 3 0;
#X connect 3 0 6 0;
#X connect 5 0 0 0;
#X connect 6 0 8 0;
#X connect 6 1 3 1;
#X connect 7 0 12 0;
#X connect 8 0 9 0;
#X connect 9 0 10 0;
#X connect 10 0 11 1;
#X connect 10 1 9 1;
#X connect 11 0 4 0;
#X connect 12 0 11 0;
#X connect 12 1 5 0;
#X connect 12 2 1 0;
#X connect 12 3 8 1;
#X connect 12 4 9 1;
#X restore 53 289 pd newarray;
#X obj 21 263 t f f;
#X msg 21 346 setpoint entry-\$1 input;
#X obj 21 681 text define myText;
#X obj 21 537 bng 15 250 50 0 empty empty empty 17 7 0 10 #fcfcfc #000000
#000000;
#X obj 21 436 fluid.dataset myDS;
#X obj 21 579 fluid.ds2text myDS myText;
#X obj 17 13 cnv 15 660 42 empty empty fluid.ds2text 1 22 0 36 #4ba3fb
#ffffff 0;
#X obj 509 60 fluid.referencelauncher fluid.ds2text.html reference/ds2text/
;
#X obj 17 60 cnv 15 488 17 empty empty Convert\\\ FluCoMa\\\ DataSet\\\ into\\\ text
4 8 0 13 #e0e0e0 #404040 0;
#X text 17 79 A utility object to convert a dataset into text.;
#X text 18 134 1) Click these to populate an array with values and
save those in dataset myDS.;
#X text 19 194 Message '-1' will store a dataset point with an identifier
'entry--1' and data which is the list of values in the array., f 61
;
#X text 169 285 create values in array 'input', f 16;
#X text 87 388 2) Click to see the DataSet printed in the console,
f 28;
#X text 42 535 3) Click to convert the myDS dataset and save it in
text object myText, f 36;
#X text 19 651 Click on Text object to see its content;
#X obj 571 679 fluid.ls2text;
#X text 495 679 see also:;
#X connect 2 0 11 0;
#X connect 3 0 7 0;
#X connect 4 0 7 0;
#X connect 5 0 7 0;
#X connect 6 0 1 0;
#X connect 7 0 8 0;
#X connect 7 1 6 0;
#X connect 8 0 11 0;
#X connect 10 0 12 0;
