#N canvas 60 44 946 934 10;
#X obj 33 195 soundfiler;
#X obj 12 19 cnv 15 100 10 empty empty fluid.bufmfcc~ 20 12 0 36 -262144
-66577 0;
#X obj 34 156 loadbang;
#X obj 379 98 bng 15 250 50 0 empty empty empty 17 7 0 10 -262144 -1
-1;
#X obj 134 257 dac~;
#X obj 133 216 bng 15 250 50 0 empty empty empty 17 7 0 10 -262144
-1 -1;
#X msg 152 215 stop;
#N canvas 805 51 707 696 multichannel 0;
#X obj 46 510 loadbang;
#X obj 46 559 soundfiler;
#X obj 48 80 bng 15 250 50 0 empty empty empty 17 7 0 10 -262144 -1
-1;
#X obj 48 195 dac~;
#X obj 45 242 bng 15 250 50 0 empty empty empty 17 7 0 10 -262144 -1
-1;
#X obj 122 153 bng 15 250 50 0 empty empty empty 17 7 0 10 -262144
-1 -1;
#X text 67 80 1) compose an artificially wide "stereo" array;
#X text 46 11 "multichannel" arrays will process each channel in turn
\, and output 'channels' will be consecutive \, i.e. all features of
"channel" 1 \, then all features of "channel" 2 \, etc, f 87;
#X text 146 152 2) listen to the source;
#X msg 48 152 stop;
#X text 64 241 3) process;
#X obj 48 100 fluid.bufcompose~ -source bufmfccguitar -startframe 555000
-numframes 468335 -deststartchan 1 -destination bufmfcc_source, f
73;
#X obj 48 174 tabplay~ bufmfcc_source-0;
#X obj 211 175 tabplay~ bufmfcc_source-1;
#X obj 45 259 fluid.bufmfcc~ 6 -source bufmfcc_source -features bufmfcc_feats
, f 84;
#X obj 115 559 array define bufmfccguitar;
#X obj 287 559 clone multiarray 2 bufmfcc_source;
#X msg 46 529 read -resize ../media/Tremblay-SA-UprightPianoPedalWide.wav
bufmfcc_source-0 bufmfcc_source-1 \, read -resize ../media/Tremblay-AaS-AcousticStrums-M.wav
bufmfccguitar, f 90;
#X text 44 450 4) Look in the main window: since we have requested
6 MFCC coefficients on a stereo buffer \, the first 6 feats arrays
are the left channel's coefficients \, and the following 6 feats are
the right channel melbands., f 100;
#X msg 45 277 \; bufmfcc_feats-0 xticks 0 0 0 \; bufmfcc_feats-1 xticks
0 0 0 \; bufmfcc_feats-2 xticks 0 0 0 \; bufmfcc_feats-3 xticks 0 0
0 \; bufmfcc_feats-4 xticks 0 0 0 \; bufmfcc_feats-5 xticks 0 0 0 \;
bufmfcc_feats-6 xticks 0 0 0 \; bufmfcc_feats-7 xticks 0 0 0 \; bufmfcc_feats-8
xticks 0 0 0 \; bufmfcc_feats-9 xticks 0 0 0 \; bufmfcc_feats-10 xticks
0 0 0 \; bufmfcc_feats-11 xticks 0 0 0 \; bufmfcc_feats-12 const;
#X connect 0 0 17 0;
#X connect 2 0 11 0;
#X connect 4 0 14 0;
#X connect 5 0 12 0;
#X connect 5 0 13 0;
#X connect 9 0 12 0;
#X connect 9 0 13 0;
#X connect 12 0 3 0;
#X connect 13 0 3 1;
#X connect 14 0 19 0;
#X connect 17 0 1 0;
#X restore 826 169 pd multichannel;
#X msg 34 176 read -resize ../media/Nicol-LoopE-M.wav bufmfcc_drums
;
#X obj 134 236 tabplay~ bufmfcc_drums;
#X msg 379 136 \; bufmfcc_feats-0 xticks 0 0 0 \; bufmfcc_feats-1 xticks
0 0 0 \; bufmfcc_feats-2 xticks 0 0 0 \; bufmfcc_feats-3 xticks 0 0
0 \; bufmfcc_feats-4 xticks 0 0 0 \; bufmfcc_feats-5 xticks 0 0 0 \;
bufmfcc_feats-6 xticks 0 0 0 \; bufmfcc_feats-7 xticks 0 0 0 \; bufmfcc_feats-8
xticks 0 0 0 \; bufmfcc_feats-9 xticks 0 0 0 \; bufmfcc_feats-10 xticks
0 0 0 \; bufmfcc_feats-11 xticks 0 0 0 \; bufmfcc_feats-12 xticks 0
0 0;
#N canvas 0 22 450 278 (subpatch) 0;
#X array bufmfcc_feats-0 915 float 0;
#X coords 0 300 914 -300 887 30 1 0 0;
#X restore 31 367 graph;
#N canvas 0 22 450 278 (subpatch) 0;
#X array bufmfcc_drums 453932 float 0;
#X coords 0 0.5 453931 -0.5 887 53 1 0 0;
#X restore 31 299 graph;
#X obj 379 117 fluid.bufmfcc~ 13 -source bufmfcc_drums -features bufmfcc_feats
, f 63;
#X obj 677 194 note_on_assumed_sampling_rates_of_arrays;
#N canvas 0 22 450 278 (subpatch) 0;
#X array bufmfcc_feats-1 915 float 0;
#X coords 0 200 914 -200 887 30 1 0 0;
#X restore 31 410 graph;
#N canvas 0 22 450 278 (subpatch) 0;
#X array bufmfcc_feats-2 915 float 0;
#X coords 0 100 914 -100 887 30 1 0 0;
#X restore 31 453 graph;
#N canvas 0 22 450 278 (subpatch) 0;
#X array bufmfcc_feats-3 915 float 0;
#X coords 0 100 914 -100 887 30 1 0 0;
#X restore 31 496 graph;
#N canvas 0 22 450 278 (subpatch) 0;
#X array bufmfcc_feats-4 915 float 0;
#X coords 0 100 914 -100 887 30 1 0 0;
#X restore 31 539 graph;
#N canvas 0 22 450 278 (subpatch) 0;
#X array bufmfcc_feats-5 915 float 0;
#X coords 0 100 914 -100 887 30 1 0 0;
#X restore 31 582 graph;
#N canvas 0 22 450 278 (subpatch) 0;
#X array bufmfcc_feats-6 915 float 0;
#X coords 0 300 914 -300 887 30 1 0 0;
#X restore 31 625 graph;
#N canvas 0 22 450 278 (subpatch) 0;
#X array bufmfcc_feats-7 915 float 0;
#X coords 0 200 914 -200 887 30 1 0 0;
#X restore 31 668 graph;
#N canvas 0 22 450 278 (subpatch) 0;
#X array bufmfcc_feats-8 915 float 0;
#X coords 0 100 914 -100 887 30 1 0 0;
#X restore 31 711 graph;
#N canvas 0 22 450 278 (subpatch) 0;
#X array bufmfcc_feats-9 915 float 0;
#X coords 0 100 914 -100 887 30 1 0 0;
#X restore 31 754 graph;
#N canvas 0 22 450 278 (subpatch) 0;
#X array bufmfcc_feats-10 915 float 0;
#X coords 0 100 914 -100 887 30 1 0 0;
#X restore 31 797 graph;
#N canvas 0 22 450 278 (subpatch) 0;
#X array bufmfcc_feats-11 915 float 0;
#X coords 0 100 914 -100 887 30 1 0 0;
#X restore 31 840 graph;
#N canvas 0 22 450 278 (subpatch) 0;
#X array bufmfcc_feats-12 915 float 0;
#X coords 0 100 914 -100 887 30 1 0 0;
#X restore 31 883 graph;
#N canvas 0 23 450 300 (subpatch) 0;
#X obj 83 51 inlet;
#X obj 83 89 pdcontrol;
#X msg 83 71 dir 0 ../docs/fluid.bufmfcc~.html;
#X msg 143 89 browse \$1;
#X connect 0 0 2 0;
#X connect 1 0 3 0;
#X connect 2 0 1 0;
#X connect 3 0 1 0;
#X restore 891 258 pd;
#X text 760 239 launch the HTML doc->;
#X obj 892 241 bng 15 250 50 0 empty empty empty 17 7 0 10 -262144
-1 -1;
#X connect 2 0 8 0;
#X connect 3 0 13 0;
#X connect 5 0 9 0;
#X connect 6 0 9 0;
#X connect 8 0 0 0;
#X connect 9 0 4 0;
#X connect 9 0 4 1;
#X connect 13 0 10 0;
#X connect 29 0 27 0;
