#N canvas 23 78 990 834 12;
#X obj 560 321 file glob;
#X obj 560 135 file which;
#X msg 560 113 symbol fluid.dataset-help.pd;
#X obj 560 158 file split;
#X obj 560 182 t l l;
#X obj 592 205 list length;
#X obj 592 229 - 1;
#X obj 560 254 list split;
#X obj 560 277 file join;
#X msg 560 299 symbol \$1/media/*.wav;
#X obj 561 444 file split;
#X obj 561 468 t l l;
#X obj 593 497 list length;
#X obj 593 521 - 1;
#X obj 561 571 list split;
#X msg 943 342 0;
#X obj 871 377 f;
#X obj 597 755 list append;
#X obj 871 401 t f f;
#X obj 934 383 + 1;
#X obj 539 642 f, f 38;
#X obj 538 44 t b b b;
#X obj 635 25 s \$0-reset;
#X obj 811 642 * 20;
#X obj 431 717 + 1;
#X obj 811 663 + 12;
#X obj 104 144 r \$0-file-select;
#X msg 223 746 obj 10 10 vradio 20 1 0 \$1 \\\$0-file-select empty
empty 0 -8 0 10 #fcfcfc #000000 #000000 0, f 47;
#X obj 635 88 text define \$0-fluid-file-list;
#X msg 635 67 clear;
#X obj 560 347 t l l b, f 46;
#X msg 599 778 text 33 \$2 \$1;
#X obj 668 427 text set \$0-fluid-file-list;
#X obj 104 168 text get \$0-fluid-file-list;
#X obj 228 238 outlet;
#X obj 537 16 loadbang;
#X obj 278 105 bng 15 250 50 0 empty empty empty 17 7 0 10 #fcfcfc
#000000 #000000;
#X obj 104 192 list split 1;
#X obj 326 184 openpanel;
#X obj 278 123 bng 15 250 50 0 empty empty empty 17 7 0 10 #fcfcfc
#000000 #000000;
#X text 105 102 Select a FluCoMa sound;
#X text 105 121 Browse your own files;
#X text 267 102 >;
#X text 267 120 >;
#X obj 599 802 s pd-\$0-file-list;
#N canvas 89 530 354 478 \$0-file-list 0;
#X coords 0 478 1 477 85 60 0;
#X restore 9 10 pd \$0-file-list;
#X obj 718 60 s pd-\$0-file-list;
#X msg 719 39 clear;
#X msg 331 138 vis 1;
#X obj 331 159 s pd-\$0-file-list;
#X connect 0 0 30 0;
#X connect 1 0 3 0;
#X connect 2 0 1 0;
#X connect 3 0 4 0;
#X connect 4 0 7 0;
#X connect 4 1 5 0;
#X connect 5 0 6 0;
#X connect 6 0 7 1;
#X connect 7 0 8 0;
#X connect 8 0 9 0;
#X connect 9 0 0 0;
#X connect 10 0 11 0;
#X connect 11 0 14 0;
#X connect 11 1 12 0;
#X connect 12 0 13 0;
#X connect 13 0 14 1;
#X connect 14 1 17 0;
#X connect 15 0 16 1;
#X connect 16 0 18 0;
#X connect 17 0 31 0;
#X connect 18 0 20 1;
#X connect 18 0 23 0;
#X connect 18 0 32 1;
#X connect 18 1 19 0;
#X connect 19 0 16 1;
#X connect 20 0 24 0;
#X connect 21 0 20 0;
#X connect 21 1 2 0;
#X connect 21 2 47 0;
#X connect 21 2 22 0;
#X connect 21 2 29 0;
#X connect 21 2 15 0;
#X connect 23 0 25 0;
#X connect 24 0 27 0;
#X connect 25 0 17 1;
#X connect 26 0 33 0;
#X connect 27 0 44 0;
#X connect 29 0 28 0;
#X connect 30 0 10 0;
#X connect 30 1 32 0;
#X connect 30 2 16 0;
#X connect 31 0 44 0;
#X connect 33 0 37 0;
#X connect 35 0 21 0;
#X connect 36 0 48 0;
#X connect 37 0 34 0;
#X connect 38 0 34 0;
#X connect 39 0 38 0;
#X connect 47 0 46 0;
#X connect 48 0 49 0;
#X coords 0 0 1 1 200 44 2 100 100;
