#N canvas 38 45 697 771 12;
#X obj 17 13 cnv 15 660 42 empty empty fluid.buftransientslice 1 22 0 36 #4ba3fb #ffffff 0;
#X obj 509 60 fluid.referencelauncher fluid.buftransientslice.html reference/buftransientslice/;
#X obj 17 60 cnv 15 488 17 empty empty Buffer-Based\ Transient-Based\ Slicer 4 8 0 13 #e0e0e0 #404040 0;
#X text 17 79 Transient-based slice extractor on buffers;
#X obj 18 382 bng 15 250 50 0 empty empty empty 17 7 0 10 #c6ffc7 #000000 #000000;
#X obj 18 467 fluid.buftransientslice -source help.ts.src -indices help.ts.slices;
#X obj 482 170 array define help.ts.src;
#X obj 482 194 array define help.ts.slices;
#X obj 455 681 cnv 15 215 68 empty empty More\ information 4 10 0 13 #e0e0e0 #404040 0;
#X obj 460 725 note_on_multithreading;
#X obj 460 703 note_on_automatic_multiarrays;
#N canvas 1955 -858 448 179 loadsrc 0;
#X obj 16 83 soundfiler;
#X obj 16 19 inlet;
#X msg 16 41 read -resize \$1 help.ts.src;
#X connect 1 0 2 0;
#X connect 2 0 0 0;
#X restore 18 218 pd loadsrc;
#X obj 18 151 cnv 15 15 15 empty empty empty 20 12 0 14 #c6ffc7 #404040 0;
#X obj 18 170 fluid.demoaudiofiles;
#X text 19 151 1) select a source;
#N canvas 1718 -961 510 218 drawing_commands 0;
#X obj 37 37 inlet;
#X obj 37 87 outlet;
#X msg 37 61 waveform help.ts.src \, indices help.ts.slices help.ts.src;
#X connect 0 0 2 0;
#X connect 2 0 1 0;
#X restore 18 505 pd drawing_commands;
#X obj 18 529 fluid.waveform 361 110 0 empty empty 0;
#N canvas 1114 -944 544 712 parameters 0;
#X obj 186 548 outlet;
#X obj 34 -62 loadbang;
#X obj 186 27 unpack 0 0 0 0 0 0;
#X floatatom 185 105 8 0 0 0 - - - 0;
#X text 111 105 order, f 10;
#X floatatom 185 125 8 0 0 0 - - - 0;
#X floatatom 185 145 8 0 0 0 - - - 0;
#X floatatom 185 165 8 0 0 0 - - - 0;
#X floatatom 185 185 8 0 0 0 - - - 0;
#X floatatom 185 205 8 0 0 0 - - - 0;
#X text 111 125 blocksize, f 10;
#X text 111 145 padsize, f 10;
#X text 111 165 skew, f 10;
#X text 111 205 threshback;
#X msg 186 271 order \$1;
#X msg 206 301 blocksize \$1;
#X msg 236 331 padsize \$1;
#X msg 266 361 skew \$1;
#X msg 336 421 threshback \$1;
#X text 111 185 threshfwd, f 10;
#X msg 296 391 threshfwd \$1;
#X msg 34 -37 \; help.buftransientslice.presets 20 256 128 0 2 1.1;
#X obj 186 4 r help.buftransientslice.presets;
#X connect 1 0 21 0;
#X connect 2 0 3 0;
#X connect 2 1 5 0;
#X connect 2 2 6 0;
#X connect 2 3 7 0;
#X connect 2 4 8 0;
#X connect 2 5 9 0;
#X connect 3 0 14 0;
#X connect 5 0 15 0;
#X connect 6 0 16 0;
#X connect 7 0 17 0;
#X connect 8 0 20 0;
#X connect 9 0 18 0;
#X connect 14 0 0 0;
#X connect 15 0 0 0;
#X connect 16 0 0 0;
#X connect 17 0 0 0;
#X connect 18 0 0 0;
#X connect 20 0 0 0;
#X connect 22 0 2 0;
#X coords 0 -1 1 1 150 129 2 100 100;
#X restore 276 246 pd parameters;
#X text 435 407 <-- more parameters;
#N canvas 1586 -1074 889 865 parameters 0;
#X obj 29 757 r \$0-params;
#X obj 29 780 outlet;
#X obj 29 125 s \$0-params;
#X msg 29 102 blocksize 256;
#X text 163 101 size of audio block (in samples) on which the process is operating, f 32;
#X obj 29 195 s \$0-params;
#X obj 29 265 s \$0-params;
#X obj 29 349 s \$0-params;
#X obj 29 405 s \$0-params;
#X obj 29 475 s \$0-params;
#X obj 29 545 s \$0-params;
#X msg 29 172 clumplength 25;
#X text 163 171 window size in samples within which anomalous samples will be clumped together to avoid over-detecting in time, f 32;
#X obj 479 475 s \$0-params;
#X obj 479 545 s \$0-params;
#X obj 479 615 s \$0-params;
#X msg 479 452 warnings 0;
#X msg 479 522 windowsize 14;
#X msg 479 592 reset;
#X text 603 591 Calling reset will change parameter values back to those the object was created with, f 33;
#X text 603 521 averaging window of the error detection function, f 33;
#X text 603 451 enable warnings to be issued whenever a parameter value is constrained, f 33;
#X obj 29 615 s \$0-params;
#X obj 29 685 s \$0-params;
#X obj 479 335 s \$0-params;
#X obj 479 405 s \$0-params;
#X msg 29 592 padsize 128;
#X msg 29 662 skew 0;
#X msg 479 312 threshback 1.1;
#X msg 479 382 threshfwd 2;
#X text 163 591 size (in samples) of analysis on each side of blocksize, f 32;
#X text 163 661 nervousness of the bespoke detection function, f 32;
#X text 613 311 threshold applied to the smoothed backward prediction error for determining an offset, f 33;
#X text 604 381 threshold applied to the smoothed forward prediction error for determining an onset, f 33;
#X msg 29 242 indices symbol;
#X text 163 241 name of array where indices will be written, f 32;
#X msg 29 312 minslicelength 1000, f 15;
#X msg 29 382 numchans -1;
#X msg 29 452 numframes 1;
#X msg 29 522 order 20;
#X text 165 311 minimum duration of a slice in samples, f 32;
#X text 163 381 for multichannel source \, how many channels to process, f 32;
#X text 163 451 How many frames of source should be processed, f 32;
#X text 163 521 number of previous samples used by algorithm to create the model of the signal within the blocksize window of analysis, f 32;
#X obj 479 125 s \$0-params;
#X obj 479 195 s \$0-params;
#X obj 479 265 s \$0-params;
#X msg 479 102 source symbol;
#X text 613 101 name of array to analyse, f 32;
#X msg 479 172 startchan 0;
#X text 613 171 for multichannel source \, which channel to begin processing from, f 32;
#X msg 479 242 startframe 0;
#X text 613 241 where in source the process should begin \, in samples, f 33;
#X text 28 6 Optional parameters to fluid.buftransientslice;
#X connect 0 0 1 0;
#X connect 3 0 2 0;
#X connect 11 0 5 0;
#X connect 16 0 13 0;
#X connect 17 0 14 0;
#X connect 18 0 15 0;
#X connect 26 0 22 0;
#X connect 27 0 23 0;
#X connect 28 0 24 0;
#X connect 29 0 25 0;
#X connect 34 0 6 0;
#X connect 36 0 7 0;
#X connect 37 0 8 0;
#X connect 38 0 9 0;
#X connect 39 0 10 0;
#X connect 47 0 44 0;
#X connect 49 0 45 0;
#X connect 51 0 46 0;
#X restore 332 404 pd parameters;
#X obj 38 381 cnv 15 15 15 empty empty empty 20 12 0 14 #c6ffc7 #404040 0;
#X obj 453 609 fluid.out~ bufnoveltyslicehelp;
#X obj 525 614 cnv 15 15 15 empty empty empty 20 12 0 14 #c6ffc7 #404040 0;
#X floatatom 453 548 5 0 0 0 - - - 0;
#N canvas 2078 -1040 412 479 extract_slices 0;
#X obj 37 427 outlet~;
#X obj 37 14 inlet;
#X floatatom 37 45 5 0 0 0 - - - 0;
#X floatatom 47 185 5 0 0 0 - - - 0;
#X obj 279 92 + 1;
#X obj 37 68 t f f, f 35;
#X floatatom 289 185 10 0 0 0 - - - 0;
#X obj 37 236 t f f, f 8;
#X floatatom 90 329 11 0 0 0 - - - 0;
#X floatatom 47 270 5 0 0 0 - - - 0;
#X floatatom 285 115 5 0 0 0 - - - 0;
#X floatatom 103 268 5 0 0 0 - - - 0;
#X obj 90 302 expr $f2-$f1, f 27;
#X obj 37 354 pack 0 0;
#X obj 37 142 array get help.ts.slices, f 15;
#X obj 279 142 array get help.ts.slices, f 15;
#X obj 37 391 tabplay~ help.ts.src;
#X connect 1 0 2 0;
#X connect 2 0 5 0;
#X connect 4 0 10 0;
#X connect 4 0 15 0;
#X connect 5 0 14 0;
#X connect 5 1 4 0;
#X connect 7 0 9 0;
#X connect 7 0 13 0;
#X connect 7 1 11 0;
#X connect 7 1 12 0;
#X connect 8 0 13 1;
#X connect 12 0 8 0;
#X connect 13 0 16 0;
#X connect 14 0 3 0;
#X connect 14 0 7 0;
#X connect 15 0 6 0;
#X connect 15 0 12 1;
#X connect 16 0 0 0;
#X restore 453 571 pd extract_slices;
#X text 39 381 2) slice using transient slicing, f 17;
#X obj 276 443 t a;
#X text 439 248 fluid.transientslice~ has a lot of parameters. These 6 are a good place to start if you want to configure the algorithm., f 27;
#X text 525 612 3) Start audio, f 17;
#X obj 494 549 cnv 15 15 15 empty empty empty 20 12 0 14 #c6ffc7 #404040 0;
#X text 494 548 4) choose a slice;
#X connect 4 0 5 0;
#X connect 5 0 15 0;
#X connect 13 0 11 0;
#X connect 15 0 16 0;
#X connect 17 0 26 0;
#X connect 19 0 26 0;
#X connect 23 0 24 0;
#X connect 24 0 21 0;
#X connect 24 0 21 1;
#X connect 26 0 5 0;
