#N canvas 22 62 699 786 12;
#X obj 17 13 cnv 15 660 42 empty empty fluid.mfcc~ 1 22 0 36 #4ba3fb
#ffffff 0;
#X obj 17 60 cnv 15 488 17 empty empty Mel-Frequency\\\ Cepstral\\\ Coefficients\\\ as\\\ Spectral
4 8 0 13 #e0e0e0 #404040 0;
#X text 19 108 A classic timbral audio descriptor \, the Mel-Frequency
Cepstral Coefficients (MFCCs).;
#X obj 509 60 fluid.referencelauncher fluid.mfcc~.html reference/mfcc/
;
#X obj 17 74 cnv 15 488 17 empty empty Descriptors\\\ in\\\ Real-Tim*
4 8 0 13 #e0e0e0 #404040 0;
#X obj 17 179 fluid.demosound~;
#X obj 17 161 cnv 15 15 15 empty empty empty 20 12 0 14 #c6ffc7 #404040
0;
#X obj 353 282 fluid.out~ mfcchelp;
#X obj 475 692 cnv 15 192 68 empty empty More\\\ information 4 10 0
13 #e0e0e0 #404040 0;
#N canvas 200 54 691 855 first_MFCC_coefficient 0;
#X obj 17 13 cnv 15 660 42 empty empty fluid.mfcc~ 1 22 0 36 #4ba3fb
#ffffff 0;
#X text 18 82 Understanding the role of the first MFCC coefficient
;
#X obj 64 384 fluid.out~ nmffilterhelp;
#N canvas 1770 -861 716 580 srcselect3 0;
#X obj 60 71 inlet~;
#X obj 140 71 inlet~;
#X obj 281 71 inlet;
#X obj 60 379 +~;
#X obj 60 433 outlet~;
#X obj 171 218 tgl 15 0 empty empty empty 17 7 0 10 #fcfcfc #000000
#000000 0 1;
#X msg 169 286 \$1 10;
#X obj 169 312 line~;
#X obj 283 94 loadbang;
#X msg 283 116 0;
#X msg 78 286 \$1 10;
#X obj 78 314 line~;
#X obj 60 350 *~;
#X obj 140 350 *~;
#X floatatom 171 152 5 0 0 0 - - - 0;
#X obj 81 192 == 0;
#X obj 81 218 tgl 15 0 empty empty empty 17 7 0 10 #fcfcfc #000000
#000000 0 1;
#X obj 171 192 == 1;
#X obj 60 406 +~;
#X obj 220 71 inlet~;
#X obj 251 218 tgl 15 0 empty empty empty 17 7 0 10 #fcfcfc #000000
#000000 0 1;
#X msg 249 286 \$1 10;
#X obj 249 312 line~;
#X obj 220 350 *~;
#X obj 251 192 == 2;
#X connect 0 0 12 0;
#X connect 1 0 13 0;
#X connect 2 0 14 0;
#X connect 3 0 18 0;
#X connect 5 0 6 0;
#X connect 6 0 7 0;
#X connect 7 0 13 1;
#X connect 8 0 9 0;
#X connect 9 0 14 0;
#X connect 10 0 11 0;
#X connect 11 0 12 1;
#X connect 12 0 3 0;
#X connect 13 0 3 1;
#X connect 14 0 17 0;
#X connect 14 0 15 0;
#X connect 14 0 24 0;
#X connect 15 0 16 0;
#X connect 16 0 10 0;
#X connect 17 0 5 0;
#X connect 18 0 4 0;
#X connect 19 0 23 0;
#X connect 20 0 21 0;
#X connect 21 0 22 0;
#X connect 22 0 23 1;
#X connect 23 0 18 1;
#X connect 24 0 20 0;
#X restore 20 321 pd srcselect3;
#X f 28;
#X obj 20 174 vradio 15 1 0 3 empty empty empty 0 -8 0 10 #fcfcfc #000000
#000000 0;
#X obj 20 247 osc~ 220;
#X text 39 170 sine;
#X text 39 187 saw;
#X text 39 202 triangle;
#X obj 20 352 *~ 0.1, f 31;
#N canvas 0 23 450 300 triangle 0;
#X obj 37 47 inlet;
#X obj 37 67 phasor~ 220;
#X obj 37 85 -~ 0.5;
#X obj 37 103 abs~;
#X obj 37 121 *~ 4;
#X obj 37 139 -~ 1;
#X obj 37 160 outlet~;
#X connect 0 0 1 0;
#X connect 1 0 2 0;
#X connect 2 0 3 0;
#X connect 3 0 4 0;
#X connect 4 0 5 0;
#X connect 5 0 6 0;
#X restore 80 290 pd triangle;
#N canvas 0 38 450 300 sawtooth 0;
#X obj 37 37 inlet;
#X obj 37 79 phasor~ 220;
#X obj 37 115 -~ 1;
#X obj 37 97 *~ 2;
#X obj 37 136 outlet~;
#X connect 0 0 1 0;
#X connect 1 0 3 0;
#X connect 2 0 4 0;
#X connect 3 0 2 0;
#X restore 41 268 pd sawtooth;
#X floatatom 234 276 5 0 1 0 - - - 0;
#X text 318 332 Removing the first coefficient is a common practice
if you only care about the timbre of the measured sound., f 46;
#X text 282 276 <---;
#X obj 20 536 fluid.mfcc~ 13;
#N canvas 0 22 450 278 (subpatch) 0;
#X array help.mfcc.plot.2 13 float 3;
#A 0 183.82 79.7375 45.4755 39.2733 13.92 14.6093 1.24805 -2.25182
-12.8253 -6.14114 -18.4673 -16.5629 -13.076;
#X coords 0 1000 13 -1000 200 140 1 0 0;
#X restore 22 649 graph;
#X obj 20 598 array set help.mfcc.plot.2;
#X obj 131 389 cnv 15 15 15 empty empty empty 20 12 0 14 #c6ffc7 #404040
0;
#X text 131 387 1) turn audio on;
#X obj 20 153 cnv 15 15 15 empty empty empty 20 12 0 14 #c6ffc7 #404040
0;
#X text 20 151 2) select a source;
#X msg 39 438 startcoeff 1;
#X msg 48 476 startcoeff 0;
#X obj 317 263 cnv 15 15 15 empty empty empty 20 12 0 14 #c6ffc7 #404040
0;
#X text 318 262 3) Try modulating the volume here on any of the sources
\, and watch that it doesn't really effect the "shape" of the coefficients.
, f 46;
#X text 142 433 ask the object for 13 MFCCs starting from the 'first'
(it counts starting at 0);
#X text 146 473 or just have the default behaviour of counting from
the zeroth., f 63;
#X text 17 109 The zeroth coefficient (the first index) is essentally
a value that represents the energy., f 92;
#X connect 3 0 9 0;
#X connect 4 0 3 3;
#X connect 5 0 3 0;
#X connect 9 0 2 1;
#X connect 9 0 2 0;
#X connect 9 0 15 0;
#X connect 10 0 3 2;
#X connect 11 0 3 1;
#X connect 12 0 9 1;
#X connect 15 0 17 0;
#X connect 22 0 15 0;
#X connect 23 0 15 0;
#X restore 484 712 pd first_MFCC_coefficient;
#N canvas 144 83 693 767 timbral_matching 0;
#X obj 17 13 cnv 15 660 42 empty empty fluid.mfcc~ 1 22 0 36 #4ba3fb
#ffffff 0;
#X text 19 108 A real-time timbral matching example;
#X obj 17 275 readsf~;
#X obj 17 183 bng 15 250 50 0 empty empty empty 17 7 0 10 #c6ffc7 #000000
#000000;
#X obj 217 275 readsf~;
#X obj 217 183 bng 15 250 50 0 empty empty empty 17 7 0 10 #c6ffc7
#000000 #000000;
#X obj 17 319 +~;
#X msg 17 224 open ./media/Tremblay-ASWINE-ScratchySynth-M.wav \, 1
, f 24;
#X obj 231 377 fluid.out~ helpmfcc;
#X msg 217 224 open ./media/Olencki-TenTromboneLongTones-M.wav \, 1
, f 24;
#X obj 17 383 fluid.mfcc~ 20 -startcoeff 1;
#X obj 17 407 fluid.stats -history 10;
#N canvas 329 23 389 325 euclidean_distance 0;
#X text 73 68 learn template 1;
#X obj 26 92 inlet;
#X obj 30 243 outlet;
#X obj 76 92 inlet;
#X obj 226 92 inlet;
#X text 223 68 learn template 2;
#X obj 150 235 outlet;
#X obj 26 134 t a a;
#N canvas 278 327 1320 569 distance1 0;
#X obj 114 263 spigot;
#X obj 114 284 t f b;
#X msg 158 271 0;
#X obj 100 303 -;
#X obj 26 193 unpack f f f f f f f f f f f f f, f 169;
#X obj 100 324 *;
#X obj 196 263 spigot;
#X obj 196 284 t f b;
#X msg 240 271 0;
#X obj 182 303 -;
#X obj 182 324 *;
#X obj 284 263 spigot;
#X obj 284 284 t f b;
#X msg 328 271 0;
#X obj 270 303 -;
#X obj 270 324 *;
#X obj 366 263 spigot;
#X obj 366 284 t f b;
#X msg 410 271 0;
#X obj 352 303 -;
#X obj 352 324 *;
#X obj 451 263 spigot;
#X obj 451 284 t f b;
#X msg 495 271 0;
#X obj 437 303 -;
#X obj 437 324 *;
#X obj 533 263 spigot;
#X obj 533 284 t f b;
#X msg 577 271 0;
#X obj 519 303 -;
#X obj 519 324 *;
#X obj 621 263 spigot;
#X obj 621 284 t f b;
#X msg 665 271 0;
#X obj 607 303 -;
#X obj 607 324 *;
#X obj 703 263 spigot;
#X obj 703 284 t f b;
#X msg 747 271 0;
#X obj 689 303 -;
#X obj 689 324 *;
#X obj 783 263 spigot;
#X obj 783 284 t f b;
#X msg 827 271 0;
#X obj 769 303 -;
#X obj 769 324 *;
#X obj 865 263 spigot;
#X obj 865 284 t f b;
#X msg 909 271 0;
#X obj 851 303 -;
#X obj 851 324 *;
#X obj 953 263 spigot;
#X obj 953 284 t f b;
#X msg 997 271 0;
#X obj 939 303 -;
#X obj 939 324 *;
#X obj 1035 263 spigot;
#X obj 1035 284 t f b;
#X msg 1079 271 0;
#X obj 1021 303 -;
#X obj 1021 324 *;
#X obj 1234 196 inlet;
#X msg 1227 233 1;
#X obj 101 363 expr sqrt($f1 + $f2 + $f3 + $f4 + $f5 +$f6 + $f7 + $f8
+ $f9 + $f10 + $f11 +$f12), f 154;
#X obj 28 152 inlet;
#X obj 101 387 outlet;
#X connect 0 0 1 0;
#X connect 1 0 3 1;
#X connect 1 1 2 0;
#X connect 2 0 0 1;
#X connect 3 0 5 0;
#X connect 3 0 5 1;
#X connect 4 1 3 0;
#X connect 4 1 0 0;
#X connect 4 2 9 0;
#X connect 4 2 6 0;
#X connect 4 3 14 0;
#X connect 4 3 11 0;
#X connect 4 4 19 0;
#X connect 4 4 16 0;
#X connect 4 5 24 0;
#X connect 4 5 21 0;
#X connect 4 6 29 0;
#X connect 4 6 26 0;
#X connect 4 7 34 0;
#X connect 4 7 31 0;
#X connect 4 8 39 0;
#X connect 4 8 36 0;
#X connect 4 9 44 0;
#X connect 4 9 41 0;
#X connect 4 10 49 0;
#X connect 4 10 46 0;
#X connect 4 11 54 0;
#X connect 4 11 51 0;
#X connect 4 12 59 0;
#X connect 4 12 56 0;
#X connect 5 0 63 0;
#X connect 6 0 7 0;
#X connect 7 0 9 1;
#X connect 7 1 8 0;
#X connect 8 0 6 1;
#X connect 9 0 10 0;
#X connect 9 0 10 1;
#X connect 10 0 63 1;
#X connect 11 0 12 0;
#X connect 12 0 14 1;
#X connect 12 1 13 0;
#X connect 13 0 11 1;
#X connect 14 0 15 0;
#X connect 14 0 15 1;
#X connect 15 0 63 2;
#X connect 16 0 17 0;
#X connect 17 0 19 1;
#X connect 17 1 18 0;
#X connect 18 0 16 1;
#X connect 19 0 20 0;
#X connect 19 0 20 1;
#X connect 20 0 63 3;
#X connect 21 0 22 0;
#X connect 22 0 24 1;
#X connect 22 1 23 0;
#X connect 23 0 21 1;
#X connect 24 0 25 0;
#X connect 24 0 25 1;
#X connect 25 0 63 4;
#X connect 26 0 27 0;
#X connect 27 0 29 1;
#X connect 27 1 28 0;
#X connect 28 0 26 1;
#X connect 29 0 30 0;
#X connect 29 0 30 1;
#X connect 30 0 63 5;
#X connect 31 0 32 0;
#X connect 32 0 34 1;
#X connect 32 1 33 0;
#X connect 33 0 31 1;
#X connect 34 0 35 0;
#X connect 34 0 35 1;
#X connect 35 0 63 6;
#X connect 36 0 37 0;
#X connect 37 0 39 1;
#X connect 37 1 38 0;
#X connect 38 0 36 1;
#X connect 39 0 40 0;
#X connect 39 0 40 1;
#X connect 40 0 63 7;
#X connect 41 0 42 0;
#X connect 42 0 44 1;
#X connect 42 1 43 0;
#X connect 43 0 41 1;
#X connect 44 0 45 0;
#X connect 44 0 45 1;
#X connect 45 0 63 8;
#X connect 46 0 47 0;
#X connect 47 0 49 1;
#X connect 47 1 48 0;
#X connect 48 0 46 1;
#X connect 49 0 50 0;
#X connect 49 0 50 1;
#X connect 50 0 63 9;
#X connect 51 0 52 0;
#X connect 52 0 54 1;
#X connect 52 1 53 0;
#X connect 53 0 51 1;
#X connect 54 0 55 0;
#X connect 54 0 55 1;
#X connect 55 0 63 10;
#X connect 56 0 57 0;
#X connect 57 0 59 1;
#X connect 57 1 58 0;
#X connect 58 0 56 1;
#X connect 59 0 60 0;
#X connect 59 0 60 1;
#X connect 60 0 63 11;
#X connect 61 0 62 0;
#X connect 62 0 56 1;
#X connect 62 0 51 1;
#X connect 62 0 46 1;
#X connect 62 0 41 1;
#X connect 62 0 36 1;
#X connect 62 0 31 1;
#X connect 62 0 26 1;
#X connect 62 0 21 1;
#X connect 62 0 16 1;
#X connect 62 0 11 1;
#X connect 62 0 6 1;
#X connect 62 0 0 1;
#X connect 63 0 65 0;
#X connect 64 0 4 0;
#X restore 31 208 pd distance1;
#N canvas 278 327 1320 569 distance2 0;
#X obj 114 263 spigot;
#X obj 114 284 t f b;
#X msg 158 271 0;
#X obj 100 303 -;
#X obj 26 193 unpack f f f f f f f f f f f f f, f 169;
#X obj 100 324 *;
#X obj 196 263 spigot;
#X obj 196 284 t f b;
#X msg 240 271 0;
#X obj 182 303 -;
#X obj 182 324 *;
#X obj 284 263 spigot;
#X obj 284 284 t f b;
#X msg 328 271 0;
#X obj 270 303 -;
#X obj 270 324 *;
#X obj 366 263 spigot;
#X obj 366 284 t f b;
#X msg 410 271 0;
#X obj 352 303 -;
#X obj 352 324 *;
#X obj 451 263 spigot;
#X obj 451 284 t f b;
#X msg 495 271 0;
#X obj 437 303 -;
#X obj 437 324 *;
#X obj 533 263 spigot;
#X obj 533 284 t f b;
#X msg 577 271 0;
#X obj 519 303 -;
#X obj 519 324 *;
#X obj 621 263 spigot;
#X obj 621 284 t f b;
#X msg 665 271 0;
#X obj 607 303 -;
#X obj 607 324 *;
#X obj 703 263 spigot;
#X obj 703 284 t f b;
#X msg 747 271 0;
#X obj 689 303 -;
#X obj 689 324 *;
#X obj 783 263 spigot;
#X obj 783 284 t f b;
#X msg 827 271 0;
#X obj 769 303 -;
#X obj 769 324 *;
#X obj 865 263 spigot;
#X obj 865 284 t f b;
#X msg 909 271 0;
#X obj 851 303 -;
#X obj 851 324 *;
#X obj 953 263 spigot;
#X obj 953 284 t f b;
#X msg 997 271 0;
#X obj 939 303 -;
#X obj 939 324 *;
#X obj 1035 263 spigot;
#X obj 1035 284 t f b;
#X msg 1079 271 0;
#X obj 1021 303 -;
#X obj 1021 324 *;
#X obj 1234 196 inlet;
#X msg 1227 233 1;
#X obj 101 363 expr sqrt($f1 + $f2 + $f3 + $f4 + $f5 +$f6 + $f7 + $f8
+ $f9 + $f10 + $f11 +$f12), f 154;
#X obj 28 152 inlet;
#X obj 101 387 outlet;
#X connect 0 0 1 0;
#X connect 1 0 3 1;
#X connect 1 1 2 0;
#X connect 2 0 0 1;
#X connect 3 0 5 0;
#X connect 3 0 5 1;
#X connect 4 1 3 0;
#X connect 4 1 0 0;
#X connect 4 2 9 0;
#X connect 4 2 6 0;
#X connect 4 3 14 0;
#X connect 4 3 11 0;
#X connect 4 4 19 0;
#X connect 4 4 16 0;
#X connect 4 5 24 0;
#X connect 4 5 21 0;
#X connect 4 6 29 0;
#X connect 4 6 26 0;
#X connect 4 7 34 0;
#X connect 4 7 31 0;
#X connect 4 8 39 0;
#X connect 4 8 36 0;
#X connect 4 9 44 0;
#X connect 4 9 41 0;
#X connect 4 10 49 0;
#X connect 4 10 46 0;
#X connect 4 11 54 0;
#X connect 4 11 51 0;
#X connect 4 12 59 0;
#X connect 4 12 56 0;
#X connect 5 0 63 0;
#X connect 6 0 7 0;
#X connect 7 0 9 1;
#X connect 7 1 8 0;
#X connect 8 0 6 1;
#X connect 9 0 10 0;
#X connect 9 0 10 1;
#X connect 10 0 63 1;
#X connect 11 0 12 0;
#X connect 12 0 14 1;
#X connect 12 1 13 0;
#X connect 13 0 11 1;
#X connect 14 0 15 0;
#X connect 14 0 15 1;
#X connect 15 0 63 2;
#X connect 16 0 17 0;
#X connect 17 0 19 1;
#X connect 17 1 18 0;
#X connect 18 0 16 1;
#X connect 19 0 20 0;
#X connect 19 0 20 1;
#X connect 20 0 63 3;
#X connect 21 0 22 0;
#X connect 22 0 24 1;
#X connect 22 1 23 0;
#X connect 23 0 21 1;
#X connect 24 0 25 0;
#X connect 24 0 25 1;
#X connect 25 0 63 4;
#X connect 26 0 27 0;
#X connect 27 0 29 1;
#X connect 27 1 28 0;
#X connect 28 0 26 1;
#X connect 29 0 30 0;
#X connect 29 0 30 1;
#X connect 30 0 63 5;
#X connect 31 0 32 0;
#X connect 32 0 34 1;
#X connect 32 1 33 0;
#X connect 33 0 31 1;
#X connect 34 0 35 0;
#X connect 34 0 35 1;
#X connect 35 0 63 6;
#X connect 36 0 37 0;
#X connect 37 0 39 1;
#X connect 37 1 38 0;
#X connect 38 0 36 1;
#X connect 39 0 40 0;
#X connect 39 0 40 1;
#X connect 40 0 63 7;
#X connect 41 0 42 0;
#X connect 42 0 44 1;
#X connect 42 1 43 0;
#X connect 43 0 41 1;
#X connect 44 0 45 0;
#X connect 44 0 45 1;
#X connect 45 0 63 8;
#X connect 46 0 47 0;
#X connect 47 0 49 1;
#X connect 47 1 48 0;
#X connect 48 0 46 1;
#X connect 49 0 50 0;
#X connect 49 0 50 1;
#X connect 50 0 63 9;
#X connect 51 0 52 0;
#X connect 52 0 54 1;
#X connect 52 1 53 0;
#X connect 53 0 51 1;
#X connect 54 0 55 0;
#X connect 54 0 55 1;
#X connect 55 0 63 10;
#X connect 56 0 57 0;
#X connect 57 0 59 1;
#X connect 57 1 58 0;
#X connect 58 0 56 1;
#X connect 59 0 60 0;
#X connect 59 0 60 1;
#X connect 60 0 63 11;
#X connect 61 0 62 0;
#X connect 62 0 56 1;
#X connect 62 0 51 1;
#X connect 62 0 46 1;
#X connect 62 0 41 1;
#X connect 62 0 36 1;
#X connect 62 0 31 1;
#X connect 62 0 26 1;
#X connect 62 0 21 1;
#X connect 62 0 16 1;
#X connect 62 0 11 1;
#X connect 62 0 6 1;
#X connect 62 0 0 1;
#X connect 63 0 65 0;
#X connect 64 0 4 0;
#X restore 151 207 pd distance2;
#X connect 1 0 7 0;
#X connect 3 0 8 1;
#X connect 4 0 9 1;
#X connect 7 0 8 0;
#X connect 7 1 9 0;
#X connect 8 0 2 0;
#X connect 9 0 6 0;
#X restore 17 554 pd euclidean_distance;
#X f 30;
#X floatatom 17 578 5 0 0 0 - - - 0;
#X floatatom 223 579 5 0 0 0 - - - 0;
#X text 271 557 Inside this subpatch a Euclidian distance is calculated
on the current MFCC analysis to the one stored against either the first
or second template. The lower the number \, the more similar it is.
, f 56;
#X obj 120 520 bng 20 250 50 0 empty empty empty 17 7 0 10 #00ff04
#000000 #000000;
#X obj 224 520 bng 20 250 50 0 empty empty empty 17 7 0 10 #00faff
#000000 #000000;
#X text 222 488 learn template2, f 9;
#X text 22 654 match template1, f 9;
#X text 141 652 match template2, f 9;
#X text 118 487 learn template1, f 9;
#X obj 306 381 cnv 15 15 15 empty empty empty 20 12 0 14 #c6ffc7 #404040
0;
#X text 306 379 1) turn audio on;
#X obj 446 261 cnv 15 15 15 empty empty empty 20 12 0 14 #c6ffc7 #404040
0;
#X text 446 259 2) Follow these instructions;
#X text 465 297 1) Play one of the sfplay~ sources., f 27;
#X text 465 332 2) Click on the first button to define the a timbre
template., f 27;
#X text 465 382 3) Select the other second and use second button to
define a 2nd template., f 27;
#N canvas 0 22 450 278 (subpatch) 0;
#X array help.mfcc.timbral.display 13 float 3;
#A 0 104.169 -21.8773 -29.2162 -41.9118 3.29888 -17.1992 -9.68277 -10.0256
-12.7667 -13.0661 -10.964 -9.6955 -12.0402;
#X coords 0 150 13 -150 240 63 1 0 0;
#X restore 428 675 graph;
#X obj 47 429 array set help.mfcc.timbral.display;
#X obj 89 657 hradio 25 1 0 2 empty empty empty 0 -8 0 10 #fcfcfc #000000
#000000 0;
#X obj 17 602 >, f 30;
#X msg 79 275 stop;
#X msg 275 274 stop;
#X obj 85 700 cnv 15 15 15 empty empty empty 20 12 0 14 #c6ffc7 #404040
0;
#X text 85 698 3) see which is the nearest;
#X connect 2 0 6 0;
#X connect 3 0 7 0;
#X connect 4 0 6 1;
#X connect 5 0 9 0;
#X connect 6 0 8 1;
#X connect 6 0 8 0;
#X connect 6 0 10 0;
#X connect 7 0 2 0;
#X connect 9 0 4 0;
#X connect 10 0 11 0;
#X connect 11 0 12 0;
#X connect 11 0 30 0;
#X connect 12 0 13 0;
#X connect 12 1 14 0;
#X connect 13 0 32 0;
#X connect 14 0 32 1;
#X connect 16 0 12 1;
#X connect 17 0 12 2;
#X connect 32 0 31 0;
#X connect 33 0 2 0;
#X connect 34 0 4 0;
#X restore 484 734 pd timbral_matching;
#X obj 423 287 cnv 15 15 15 empty empty empty 20 12 0 14 #c6ffc7 #404040
0;
#X text 423 285 1) turn audio on;
#X text 17 159 2) Play a sound;
#N canvas 0 22 450 278 (subpatch) 0;
#X array help.mfcc.plot.1 13 float 3;
#A 0 -1980.04 1.42109e-14 2.70006e-13 -2.13163e-13 2.84217e-14 -1.7053e-13
8.52651e-14 -1.42109e-14 9.9476e-14 -5.25802e-13 1.13687e-13 -3.83693e-13
0;
#X coords 0 1000 13 -1000 200 140 1 0 0;
#X restore 22 609 graph;
#X obj 20 558 array set help.mfcc.plot.1;
#X text 426 529 MFCCs are output as a list which can be used for many
applications where we are interested in the timbral differences between
sounds., f 31;
#N canvas 1339 -877 861 776 parameters 0;
#X obj 186 502 outlet;
#X obj 34 -62 loadbang;
#X floatatom 245 187 8 -1 0 0 - - - 0;
#X floatatom 185 186 8 0 0 0 - - - 0;
#X floatatom 185 105 8 0 0 0 - - - 0;
#X floatatom 305 187 8 -1 0 0 - - - 0;
#X text 104 186 fftsettings;
#X obj 596 328 pack 0 0 0;
#X msg 596 352 fftsettings \$1 \$2 \$3;
#X obj 186 4 r help.mfcc.presets;
#X obj 186 27 unpack 0 0 0 0 0 0 0, f 31;
#X msg 34 -37 \; help.mfcc.presets 13 40 20000 20 1024 -1 -1;
#X text 111 105 numcoeffs, f 10;
#X floatatom 185 125 8 0 0 0 - - - 0;
#X floatatom 185 145 8 10 20000 0 - - - 0;
#X floatatom 185 165 8 10 20000 0 - - - 0;
#X msg 186 352 numcoeffs \$1;
#X msg 286 352 numbands \$1;
#X msg 386 352 maxfreq \$1;
#X msg 486 352 minfreq \$1;
#X text 118 125 numbands, f 9;
#X text 125 145 maxfreq, f 8;
#X text 125 165 minfreq, f 8;
#X connect 1 0 11 0;
#X connect 2 0 7 1;
#X connect 3 0 7 0;
#X connect 4 0 16 0;
#X connect 5 0 7 2;
#X connect 7 0 8 0;
#X connect 8 0 0 0;
#X connect 9 0 10 0;
#X connect 10 0 4 0;
#X connect 10 1 13 0;
#X connect 10 2 14 0;
#X connect 10 3 15 0;
#X connect 10 4 3 0;
#X connect 10 5 2 0;
#X connect 10 6 5 0;
#X connect 13 0 17 0;
#X connect 14 0 18 0;
#X connect 15 0 19 0;
#X connect 16 0 0 0;
#X connect 17 0 0 0;
#X connect 18 0 0 0;
#X connect 19 0 0 0;
#X coords 0 -1 1 1 270 110 2 100 100;
#X restore 224 343 pd parameters;
#X text 329 471 <-- more parameters;
#N canvas 1501 -1040 840 977 parameters 0;
#X obj 439 307 s \$0-params;
#X obj 29 827 r \$0-params;
#X obj 29 850 outlet;
#X text 28 6 Optional parameters to fluid.bufaudiotransport;
#X obj 29 125 s \$0-params;
#X text 192 158 for hopsize \, -1 = windowsize/2, f 24;
#X text 193 100 window size (1024) \, hop size (-1) \, fft size (-1)
, f 24;
#X text 192 199 for fftsize \, -1 = windowsize snapped to nearest power
of 2, f 24;
#X obj 439 119 s \$0-params;
#X obj 29 323 s \$0-params;
#X obj 29 285 cnv 10 233 2 empty empty empty 20 12 0 14 #bbbbbb #404040
0;
#X obj 29 74 cnv 10 310 2 empty empty empty 20 12 0 14 #bbbbbb #404040
0;
#X text 27 54 FFT settings;
#X obj 441 424 cnv 10 233 2 empty empty empty 20 12 0 14 #bbbbbb #404040
0;
#X obj 439 257 cnv 10 280 2 empty empty empty 20 12 0 14 #bbbbbb #404040
0;
#X obj 439 74 cnv 10 200 2 empty empty empty 20 12 0 14 #bbbbbb #404040
0;
#X msg 29 102 fftsettings 1024 -1 1;
#X text 27 265 Max FFT size;
#X text 439 404 Warnings;
#X obj 442 503 s \$0-params;
#X msg 442 446 warnings 1;
#X msg 452 468 warnings 0;
#X text 531 445 warnings;
#X text 531 467 or no warnings;
#X msg 29 300 maxfftsize -1;
#X text 138 295 Set an explicit upper bound on the FFT size at object
instantiation. The default of -1 sets this to whatever the initial
FFT size is, f 33;
#X text 437 54 Filter Min and Max frequencies;
#X msg 439 96 maxfreq 20000;
#X text 549 94 upper bound of the frequency band to use in analysis
\, in Hz., f 33;
#X obj 439 179 s \$0-params;
#X text 549 154 lower bound of the frequency band to use in analysis
\, in Hz., f 33;
#X obj 29 478 s \$0-params;
#X obj 29 428 cnv 10 280 2 empty empty empty 20 12 0 14 #bbbbbb #404040
0;
#X obj 29 588 s \$0-params;
#X text 437 238 numbands;
#X text 551 283 number of mel-bands to be perceptually equally distributed
between minfreq and maxfreq to describe the spectral shape before the
cepstral coefficients are computed., f 33;
#X msg 439 284 numbands 40;
#X text 27 409 Coefficients;
#X obj 29 688 s \$0-params;
#X text 141 454 maximum value for numcoeffs. Can only be set at object
instantiation. The default of -1 sets this equal to the initial value
of numcoeffs, f 33;
#X text 141 564 number of cepstral coefficients to output. When smaller
than maximum \, output is zero-padded., f 33;
#X text 141 664 lowest index of output cepstral coefficients to return
\, zero-counting., f 33;
#X msg 439 156 minfreq 20;
#X msg 29 565 numcoeffs 13;
#X msg 29 455 maxnumcoeffs -1;
#X msg 29 665 startcoeff 0;
#X connect 1 0 2 0;
#X connect 16 0 4 0;
#X connect 20 0 19 0;
#X connect 21 0 19 0;
#X connect 24 0 9 0;
#X connect 27 0 8 0;
#X connect 36 0 0 0;
#X connect 42 0 29 0;
#X connect 43 0 33 0;
#X connect 44 0 31 0;
#X connect 45 0 38 0;
#X restore 226 468 pd parameters;
#X obj 227 556 list length;
#X obj 20 513 fluid.mfcc~ 13 -maxnumcoeffs 40;
#X obj 226 579 array size help.mfcc.plot.1;
#X connect 5 0 7 0;
#X connect 5 0 7 1;
#X connect 5 0 21 0;
#X connect 17 0 21 0;
#X connect 19 0 21 0;
#X connect 20 0 22 0;
#X connect 21 0 15 0;
#X connect 21 0 20 0;
