#N canvas 1342 224 450 300 10;
#X obj 89 55 r bufnmfmatch_freqlist;
#X obj 124 136 list split 1;
#X obj 320 51 loadbang;
#X obj 89 114 list split \$1;
#X obj 320 70 int \$1;
#X obj 242 115 inlet;
#X obj 278 157 list split 1;
#X obj 243 135 list split \$1;
#X obj 13 96 inlet~;
#X obj 278 198 pack f 10;
#X obj 278 217 line~;
#X obj 13 284 outlet~;
#X obj 13 243 *~;
#X obj 278 178 * 0.1;
#X obj 62 282 outlet~;
#X obj 114 186 % 2;
#X obj 13 264 *~;
#X obj 62 262 *~;
#X obj 114 207 == 0;
#X obj 13 205 bp~ 666 20, f 12;
#X connect 0 0 3 0;
#X connect 1 0 19 1;
#X connect 2 0 4 0;
#X connect 3 1 1 0;
#X connect 4 0 7 1;
#X connect 4 0 3 1;
#X connect 4 0 15 0;
#X connect 5 0 7 0;
#X connect 6 0 13 0;
#X connect 7 1 6 0;
#X connect 8 0 19 0;
#X connect 9 0 10 0;
#X connect 10 0 12 1;
#X connect 12 0 16 0;
#X connect 12 0 17 0;
#X connect 13 0 9 0;
#X connect 15 0 16 1;
#X connect 15 0 18 0;
#X connect 16 0 11 0;
#X connect 17 0 14 0;
#X connect 18 0 17 1;
#X connect 19 0 12 0;
