#N canvas 143 206 600 443 10;
#X obj 31 39 inlet;
#X obj 31 59 t f b;
#X obj 32 232 *~;
#X obj 32 253 outlet~;
#X obj 32 128 pack f 1024;
#X obj 32 151 tabplay~ help.bufpitch.3.src;
#X obj 221 152 tabplay~ help.bufpitch.3.env;
#X connect 0 0 1 0;
#X connect 1 0 4 0;
#X connect 1 1 6 0;
#X connect 2 0 3 0;
#X connect 4 0 5 0;
#X connect 5 0 2 0;
#X connect 6 0 2 1;
