#N struct 1507-rectangle float x float c;
#N struct 1507-pixel float x0 float y0 float x1 float y1;
#N struct 1509-rectangle float x float c;
#N struct 1509-pixel float x0 float y0 float x1 float y1;
#N struct 1511-rectangle float x float c;
#N struct 1511-pixel float x0 float y0 float x1 float y1;
#N canvas 58 88 699 914 12;
#X obj 17 13 cnv 15 660 42 empty empty fluid.robustscale 1 22 0 36
#4ba3fb #ffffff 0;
#X obj 509 60 fluid.referencelauncher fluid.robustscale.html reference/robustscale/
;
#X obj 455 807 cnv 15 222 87 empty empty More\ information 4 10 0 13
#e0e0e0 #404040 0;
#N canvas 1699 -807 448 179 loadsrc 0;
#X obj 16 83 soundfiler;
#X obj 16 19 loadbang;
#X msg 16 41 read -resize media/Tremblay-UW-ComplexDescent-M.wav help.r.src.1
;
#X connect 1 0 2 0;
#X connect 2 0 0 0;
#X restore 37 196 pd loadsrc;
#X obj 499 167 array define help.r.src.1;
#X obj 35 267 bng 15 250 50 0 empty empty empty 17 7 0 10 #fcfcfc #000000
#000000;
#X obj 35 307 fluid.bufpitch -source help.r.src.1 -features help.r.features.1
, f 37;
#X obj 379 197 clone fluid.multiarray 2 help.r.features.1;
#X text 308 303 Two channels of feature data. One pitch \, the other
confidence, f 17;
#X obj 34 407 fluid.dataset help.r.raw.1, f 16;
#X obj 35 351 list;
#X obj 56 267 cnv 15 15 15 empty empty empty 20 12 0 14 #c6ffc7 #404040
0;
#X text 57 266 1) Analyse the pitch of a source buffer;
#X text 158 386 Turn the two channel array into a two column dataset.
, f 19;
#X obj 37 522 bng 15 250 50 0 empty empty empty 17 7 0 10 #fcfcfc #000000
#000000;
#X obj 58 521 cnv 15 15 15 empty empty empty 20 12 0 14 #c6ffc7 #404040
0;
#X text 59 520 2) store dataset into a text object, f 21;
#X text 35 717 The raw analysis \, where each identifier is an analysis
window of two columns. The first column is the pitch in Hz \, the second
is the confidence in linear values., f 28;
#X obj 38 642 cnv 15 15 15 empty empty empty 20 12 0 14 #c6ffc7 #404040
0;
#X text 39 641 3) double-click 'text' to see data, f 22;
#X msg 467 411 print;
#X obj 468 303 cnv 15 15 15 empty empty empty 20 12 0 14 #c6ffc7 #404040
0;
#X text 469 302 4) Standardise the dataset of raw data, f 22;
#N canvas 902 23 697 766 visualising_standardisation 0;
#X obj 40 138 bng 15 250 50 0 empty empty empty 17 7 0 10 #fcfcfc #000000
#000000;
#X obj 40 188 fluid.bufpitch -source help.r.src.1 -features help.r.features.1
, f 37;
#X msg 40 260 \$2;
#X obj 40 232 list;
#X obj 40 288 list prepend frombuffer;
#X obj 40 312 list trim;
#X obj 61 138 cnv 15 15 15 empty empty empty 20 12 0 14 #c6ffc7 #404040
0;
#X text 62 137 1) Analyse the pitch of a source buffer, f 21;
#X obj 40 356 fluid.dataset help.r.raw.2, f 27;
#X obj 72 431 fluid.ds2text help.r.raw.2 help.r.raw.text, f 27;
#X obj 40 496 text define help.r.raw.text;
#N canvas 0 22 450 278 (subpatch) 0;
#X array r.visnorm-0 1780 float 2;
#X coords 0 2.75 1780 -0.34 250 70 1 0 0;
#X restore 425 581 graph;
#N canvas 0 22 450 278 (subpatch) 0;
#X array r.visnorm-1 1780 float 2;
#X coords 0 9.71 1780 0 250 70 1 0 0;
#X restore 425 675 graph;
#X text 600 560 Pitch (Hz);
#X text 600 656 confidence;
#N canvas 2028 -708 511 451 labels 0;
#X obj 36 76 loadbang;
#X obj 36 206 loadbang;
#X msg 52 99 \; r.vis-0 ylabel -20 0 20000;
#X msg 52 134 \; r.vis-1 ylabel -20 0 0.95;
#X msg 52 229 \; r.visnorm-0 ylabel -20 -0.34 2.75;
#X msg 52 264 \; r.visnorm-1 ylabel -20 0 9.71;
#X connect 0 0 2 0;
#X connect 0 0 3 0;
#X connect 1 0 4 0;
#X connect 1 0 5 0;
#X restore 610 87 pd labels;
#N canvas 0 22 450 278 (subpatch) 0;
#X array r.vis-0 1780 float 2;
#X coords 0 20000 1780 0 250 70 1 0 0;
#X restore 63 581 graph;
#N canvas 0 22 450 278 (subpatch) 0;
#X array r.vis-1 1780 float 2;
#X coords 0 1 1780 0 250 70 1 0 0;
#X restore 64 675 graph;
#X text 239 561 Pitch (Hz);
#X text 239 654 confidence;
#X obj 40 383 route frombuffer;
#X obj 40 407 t b b;
#X obj 421 383 route frombuffer;
#X obj 422 138 cnv 15 15 15 empty empty empty 20 12 0 14 #c6ffc7 #404040
0;
#X obj 17 13 cnv 15 660 42 empty empty fluid.robustscale 1 22 0 36
#4ba3fb #ffffff 0;
#X text 17 79 visualising the effect of scaling;
#X text 423 137 2) Apply robust scaling to the raw data, f 25;
#X msg 421 191 fittransform help.r.raw.2 help.r.robustscaled.2, f
26;
#X obj 421 228 fluid.robustscale;
#X obj 421 356 fluid.dataset help.r.robustscaled.2;
#X obj 421 431 fluid.ds2text help.r.robustscaled.2 help.r.robustscaled.text
, f 27;
#X obj 421 496 text define help.r.robustscaled.text;
#X msg 16 469 tobuffer r.vis;
#X msg 421 326 tobuffer r.visnorm;
#X connect 0 0 1 0;
#X connect 1 0 3 0;
#X connect 2 0 4 0;
#X connect 3 0 2 0;
#X connect 4 0 5 0;
#X connect 5 0 8 0;
#X connect 8 0 20 0;
#X connect 20 0 21 0;
#X connect 21 0 32 0;
#X connect 21 1 9 0;
#X connect 22 0 30 0;
#X connect 27 0 28 0;
#X connect 28 0 33 0;
#X connect 29 0 22 0;
#X connect 32 0 8 0;
#X connect 33 0 29 0;
#X restore 458 827 pd visualising_standardisation;
#N canvas 681 23 1367 1047 comparing_scalers 0;
#X text 17 79 Comparing the shape of scalers;
#N canvas -221 -807 448 179 loadsrc 0;
#X obj 16 83 soundfiler;
#X obj 16 19 loadbang;
#X msg 16 41 read -resize media/Olencki-TenTromboneLongTones-M.wav
help.r.src.3;
#X connect 1 0 2 0;
#X connect 2 0 0 0;
#X restore 33 166 pd loadsrc;
#X obj 112 166 array define help.r.src.3;
#X obj 33 247 bng 15 250 50 0 empty empty empty 17 7 0 10 #fcfcfc #000000
#000000;
#X obj 33 319 list;
#X obj 33 413 fluid.dataset help.r.scalercomparison.in, f 43;
#X obj 33 267 fluid.bufspectralshape -source help.r.src.3 -select centroid
flatness, f 25;
#X obj 33 482 bng 15 250 50 0 empty empty empty 17 7 0 10 #fcfcfc #000000
#000000;
#X obj 33 507 fluid.ds2text help.r.scalercomparison.in help.normalize.text.3
, f 27;
#X obj 33 566 text define help.normalize.text.3;
#X f 23;
#X obj 1025 184 fluid.normalize;
#X text 57 481 save dataset in text;
#X text 202 574 <- open to see data, f 10;
#X msg 1025 207 print;
#X obj 1025 230 fluid.dataset help.r.scalercomparison.norm, f 31;
#X msg 1025 147 fittransform help.r.scalercomparison.in help.r.scalercomparison.norm
;
#X obj 1025 307 bng 15 250 50 0 empty empty empty 17 7 0 10 #fcfcfc
#000000 #000000;
#X text 1047 306 save dataset in text;
#X obj 1025 332 fluid.ds2text help.r.scalercomparison.norm help.normalize.text.norm
, f 31;
#X obj 1035 384 text define help.normalize.text.norm;
#X obj 1024 535 fluid.plotter;
#X msg 1024 509 setpoints help.normalize.text.norm;
#X msg 715 207 print;
#X obj 715 307 bng 15 250 50 0 empty empty empty 17 7 0 10 #fcfcfc
#000000 #000000;
#X text 737 306 save dataset in text;
#X obj 714 535 fluid.plotter;
#X msg 405 207 print;
#X obj 405 307 bng 15 250 50 0 empty empty empty 17 7 0 10 #fcfcfc
#000000 #000000;
#X obj 405 535 fluid.plotter;
#X msg 405 147 fittransform help.r.scalercomparison.in help.r.scalercomparison.robust
;
#X obj 405 230 fluid.dataset help.r.scalercomparison.robust, f 34
;
#X obj 405 332 fluid.ds2text help.r.scalercomparison.robust help.normalize.text.robust
, f 35;
#X obj 415 384 text define help.normalize.text.robust;
#X msg 405 509 setpoints help.normalize.text.robust;
#X msg 715 147 fittransform help.r.scalercomparison.in help.r.scalercomparison.std
;
#X obj 715 230 fluid.dataset help.r.scalercomparison.std, f 31;
#X obj 715 332 fluid.ds2text help.r.scalercomparison.std help.robust.text.std
, f 30;
#X obj 725 384 text define help.robust.text.std;
#X msg 714 509 setpoints help.robust.text.std;
#X obj 405 184 fluid.robustscale;
#X obj 715 184 fluid.standardize;
#X obj 52 247 cnv 15 15 15 empty empty empty 20 12 0 14 #c6ffc7 #404040
0;
#X text 53 246 1) Analyse the pitch of a source buffer;
#X obj 406 479 cnv 15 15 15 empty empty empty 20 12 0 14 #c6ffc7 #404040
0;
#X obj 406 118 cnv 15 15 15 empty empty empty 20 12 0 14 #c6ffc7 #404040
0;
#X text 407 117 2) send messages to rescale the data;
#X text 407 478 4) click to plot;
#X obj 426 307 cnv 15 15 15 empty empty empty 20 12 0 14 #c6ffc7 #404040
0;
#X text 427 306 3) save dataset in text;
#X text 719 850 Standardise produces a similar shape to the robust
scaler. Notice how outliers still pull the entire shape such that centrally
located data is still warped toward the outliers., f 40;
#X text 1029 850 Normalise retains the exact same shape as the original
data but remaps the extrema between 0 and 1 in both dimensions., f
41;
#X obj 17 13 cnv 15 660 42 empty empty fluid.robustscale 1 22 0 36
#4ba3fb #ffffff 0;
#X text 409 850 Robust scaling keeps more of the data centred around
0 in both dimensions compared to the standardised output., f 41;
#X text 409 897 However \, notice how lots of data is "off the plot"
\, because samples outside the IQR are pushed further from those that
are., f 41;
#X text 409 959 This makes it a scaler that is "robust" against outliers
\, compared to say normalisation or standardisation., f 41;
#X obj 1276 419 loadbang;
#X msg 1276 443 10;
#X msg 1277 512 range \$1 \$2;
#N canvas 299 350 450 300 format 0;
#X obj 37 37 inlet;
#X obj 38 69 t f f;
#X obj 38 93 * -1;
#X obj 38 117 pack f f;
#X obj 38 141 outlet;
#X connect 0 0 1 0;
#X connect 1 0 2 0;
#X connect 1 1 3 1;
#X connect 2 0 3 0;
#X connect 3 0 4 0;
#X restore 1276 488 pd format;
#X floatatom 1276 467 5 0 0 0 - - - 0;
#X msg 33 345 frombuffer \$2;
#X connect 3 0 6 0;
#X connect 4 0 60 0;
#X connect 5 0 7 0;
#X connect 6 0 4 0;
#X connect 7 0 8 0;
#X connect 10 0 13 0;
#X connect 13 0 14 0;
#X connect 15 0 10 0;
#X connect 16 0 18 0;
#X connect 21 0 20 0;
#X connect 22 0 35 0;
#X connect 23 0 36 0;
#X connect 26 0 30 0;
#X connect 27 0 31 0;
#X connect 29 0 39 0;
#X connect 33 0 28 0;
#X connect 34 0 40 0;
#X connect 38 0 25 0;
#X connect 39 0 26 0;
#X connect 40 0 22 0;
#X connect 55 0 56 0;
#X connect 56 0 59 0;
#X connect 57 0 20 1;
#X connect 57 0 28 1;
#X connect 57 0 25 1;
#X connect 58 0 57 0;
#X connect 59 0 58 0;
#X connect 60 0 5 0;
#X restore 458 849 pd comparing_scalers;
#X obj 355 513 bng 15 250 50 0 empty empty empty 17 7 0 10 #fcfcfc
#000000 #000000;
#X text 17 109 Apply Robust Scaling to a fluid.dataset based on statistics
of the data such that each dimension has a median centred on 0 and
a range of 1 from the low percentile to the high percentile.;
#X text 17 79 Apply Robust Scaling to a FluidDataSet;
#X obj 467 387 fluid.robustscale;
#X obj 467 441 fluid.dataset help.r.robustscaled.1, f 22;
#X obj 355 548 fluid.ds2text help.r.robustscaled.1 help.robustscaled.text.1b
, f 27;
#X obj 355 667 text define help.robustscaled.text.1b;
#X f 27;
#X obj 37 557 fluid.ds2text help.r.raw.1 help.robustscale.text.1,
f 27;
#X obj 37 676 text define help.robustscale.text.1;
#X f 23;
#X msg 467 345 fittransform help.r.raw.1 help.r.robustscaled.1, f
28;
#X text 350 719 The robust scaled analysis. Notice that it's the exact
same "shape" as the raw data but the values are in a different range
now. Both of the scales for pitch and confidence are now expressed
as values within a comparable range., f 46;
#X obj 376 513 cnv 15 15 15 empty empty empty 20 12 0 14 #c6ffc7 #404040
0;
#X obj 356 634 cnv 15 15 15 empty empty empty 20 12 0 14 #c6ffc7 #404040
0;
#X text 377 512 5) store dataset into a text object, f 21;
#X text 357 633 6) double-click 'text' to see data, f 22;
#X msg 35 379 frombuffer \$2;
#X obj 458 873 note_on_automatic_datasets;
#X connect 5 0 6 0;
#X connect 6 0 10 0;
#X connect 10 0 40 0;
#X connect 14 0 32 0;
#X connect 20 0 29 0;
#X connect 25 0 30 0;
#X connect 28 0 20 0;
#X connect 34 0 28 0;
#X connect 40 0 9 0;
