#N canvas 69 214 875 404 12;
#X obj 101 6 inlet~;
#X obj 101 287 outlet~;
#X obj 101 190 +~, f 8;
#X obj 101 214 +~, f 28;
#X obj 101 150 *~ \$3;
#X obj 154 63 delwrite~ ff-\$0 \$1;
#X obj 154 115 delread4~ ff-\$0 \$2;
#X obj 293 255 delwrite~ fb-\$0 \$1;
#X obj 294 115 delread4~ fb-\$0 \$2;
#X obj 154 150 *~ \$4;
#X obj 294 150 *~ \$5;
#X text 491 34 clone of max comb~ object;
#X text 494 66 arguments:;
#X text 554 92 maxdel (ms);
#X text 554 108 del (ms);
#X text 554 123 gain a;
#X text 554 138 gain b;
#X text 554 154 gain c;
#X text 483 205 y(n) = a*x + b*x(n-d) + c*y(n-d);
#X obj 294 2 inlet;
#X obj 426 122 cnv 15 3 140 empty empty empty 20 12 0 14 #00af00 #404040 0;
#X obj 101 251 *~ 0.3333;
#X connect 0 0 4 0;
#X connect 0 0 5 0;
#X connect 2 0 3 0;
#X connect 3 0 7 0;
#X connect 3 0 21 0;
#X connect 4 0 2 0;
#X connect 6 0 9 0;
#X connect 8 0 10 0;
#X connect 9 0 2 1;
#X connect 10 0 3 1;
#X connect 19 0 8 0;
#X connect 19 0 6 0;
#X connect 21 0 1 0;
