#N struct 1383-draw-item float x float y float c float a float b;
#N struct 1384-rectangle float x float c;
#N struct 1384-pixel float x0 float y0 float x1 float y1;
#N canvas 31 42 695 748 12;
#X obj 17 13 cnv 15 660 42 empty empty fluid.stats 1 22 0 36 #4ba3fb
#ffffff 0;
#X obj 536 683 cnv 15 140 46 empty empty More\\\ information 4 10 0
13 #e0e0e0 #404040 0;
#X obj 509 60 fluid.referencelauncher fluid.stats.html reference/stats/
;
#X obj 56 189 cnv 15 15 15 empty empty empty 20 12 0 14 #c6ffc7 #404040
0;
#X text 17 79 Rolling mean and standard deviation on control inputs
;
#X text 17 119 Computes the rolling mean and sample standard deviation
over a given window for multichannel control inputs.;
#X text 57 188 1) switch the message rate noise generator on;
#X obj 22 189 tgl 15 0 empty empty empty 17 7 0 10 #fcfcfc #000000
#000000 0 1;
#N canvas 1292 -1011 697 822 a_real_use_case 0;
#X obj 17 13 cnv 15 660 42 empty empty fluid.stats 1 22 0 36 #4ba3fb
#ffffff 0;
#X text 17 79 smoothing a stream of audio descriptors;
#X obj 41 129 bng 15 250 50 0 empty empty empty 17 7 0 10 #fcfcfc #000000
#000000;
#X obj 41 197 readsf~;
#X msg 66 149 0;
#X text 97 149 stop;
#X obj 190 245 fluid.out~ helpstats;
#X msg 41 173 open media/Tremblay-AaS-AcBassGuit-Melo-M.wav \, 1;
#X obj 41 106 cnv 15 15 15 empty empty empty 20 12 0 14 #c6ffc7 #404040
0;
#X obj 41 283 fluid.mfcc~ 20 -startcoeff 1;
#N canvas 0 22 450 278 (subpatch) 0;
#X array help.stats.array.mfcc 20 float 2;
#X coords 0 100 19 -100 200 50 1 0 0;
#X restore 51 357 graph;
#N canvas 0 22 450 278 (subpatch) 0;
#X array help.stats.array.mean 20 float 2;
#X coords 0 100 20 -100 200 50 1 0 0;
#X restore 51 536 graph;
#X obj 41 462 fluid.stats 20 -history 15;
#X obj 51 310 array set help.stats.array.mfcc;
#X text 42 105 2) play the acoustic bass sample;
#X obj 259 250 cnv 15 15 15 empty empty empty 20 12 0 14 #c6ffc7 #404040
0;
#X text 260 249 1) audio on, f 57;
#X text 258 355 The raw MFCC values of the current frame., f 57;
#X obj 41 489 array set help.stats.array.mean;
#X text 261 532 The mean values of the last 15 MFCC frames. The changes
are much smoother because the mean of the last 15 frames is being taken
instead of the raw values., f 57;
#N canvas 0 22 450 278 (subpatch) 0;
#X array help.stats.array.stddev 20 float 2;
#X coords 0 10 20 -10 200 50 1 0 0;
#X restore 51 616 graph;
#X obj 271 489 array set help.stats.array.stddev;
#X text 261 612 The standard deviations of each coefficient. Higher
values mean that they have deviated from the mean more over the history
of the fluid.stats object. You might like to think of this as its own
kind of descriptor that can indicate variation or how sporadic the
data is over time., f 57;
#X connect 2 0 7 0;
#X connect 3 0 6 0;
#X connect 3 0 6 1;
#X connect 3 0 9 0;
#X connect 4 0 3 0;
#X connect 7 0 3 0;
#X connect 9 0 12 0;
#X connect 9 0 13 0;
#X connect 12 0 18 0;
#X connect 12 1 21 0;
#X restore 539 706 pd a_real_use_case;
#X text 476 362 mean;
#X text 475 387 standard deviation;
#N canvas 1057 -825 725 641 gaussian_noise 0;
#X obj 37 37 inlet;
#X obj 37 60 t b b, f 15;
#X obj 139 83 random 16384;
#X obj 139 106 / 16384;
#X obj 37 83 random 16384;
#X obj 37 106 / 16384;
#X obj 139 134 expr 4*acos(0)*$f1;
#X obj 139 158 cos;
#X obj 241 158 sin;
#X obj 37 214 expr sqrt (-2. *log($f1));
#X floatatom 241 182 5 0 0 0 - - - 0;
#X floatatom 139 182 5 0 0 0 - - - 0;
#X floatatom 37 244 5 0 0 0 - - - 0;
#X obj 37 304 expr $f1*$f2, f 15;
#X obj 160 304 expr $f1*$f2;
#X floatatom 160 328 15 0 0 0 - - - 0;
#X floatatom 37 328 5 0 0 0 - - - 0;
#X obj 37 276 t f f;
#X obj 37 364 pack 0 0, f 18;
#X obj 37 388 outlet;
#X msg 62 142;
#X connect 0 0 1 0;
#X connect 1 0 4 0;
#X connect 1 1 2 0;
#X connect 2 0 3 0;
#X connect 3 0 6 0;
#X connect 4 0 5 0;
#X connect 5 0 9 0;
#X connect 6 0 7 0;
#X connect 6 0 8 0;
#X connect 7 0 11 0;
#X connect 8 0 10 0;
#X connect 9 0 12 0;
#X connect 10 0 14 1;
#X connect 11 0 13 1;
#X connect 12 0 17 0;
#X connect 13 0 16 0;
#X connect 14 0 15 0;
#X connect 15 0 18 1;
#X connect 16 0 18 0;
#X connect 17 0 13 0;
#X connect 17 1 14 0;
#X connect 18 0 19 0;
#X connect 20 0 9 0;
#X restore 22 233 pd gaussian_noise;
#X obj 119 309 fluid.stats -history 20;
#X obj 22 426 fluid.plotter;
#N canvas 47 74 966 908 addpoint 0;
#X obj 159 122 inlet;
#X obj 153 425 outlet;
#X obj 440 189 unpack f f;
#X obj 341 311 expr ($f1 + 3) / 6;
#X obj 190 309 expr ($f1 + 3) / 6;
#X obj 159 146 t b l;
#X obj 183 193 expr if ($f1 >= 19 \, 0 \, $f1 + 1);
#X obj 139 214 makefilename point-%d;
#X obj 139 190 f;
#X obj 157 350 pack s f f;
#X msg 157 390 setpoint \$1 \$2 \$3 3 0;
#X connect 0 0 5 0;
#X connect 2 0 4 0;
#X connect 2 1 3 0;
#X connect 3 0 9 2;
#X connect 4 0 9 1;
#X connect 5 0 8 0;
#X connect 5 1 2 0;
#X connect 6 0 8 1;
#X connect 7 0 9 0;
#X connect 8 0 6 0;
#X connect 8 0 7 0;
#X connect 9 0 10 0;
#X connect 10 0 1 0;
#X restore 22 387 pd addpoint;
#X obj 22 274 t l l;
#N canvas 255 -480 652 300 addrange 1;
#X obj 38 45 inlet;
#X obj 40 267 outlet;
#X obj 297 43 inlet;
#X obj 40 169 pack f f f;
#X obj 38 69 unpack f f;
#X obj 104 93 expr ($f1 + 3) / 6;
#X obj 32 125 expr ($f1 + 3) / 6;
#X msg 40 209 setpoint stats \$1 \$2 \$3 5;
#X obj 297 66 expr sqrt(($f1*$f1)+($f2*$f2)) * 50;
#X connect 0 0 4 0;
#X connect 2 0 8 0;
#X connect 3 0 7 0;
#X connect 4 0 6 0;
#X connect 4 1 5 0;
#X connect 5 0 3 1;
#X connect 6 0 3 0;
#X connect 7 0 1 0;
#X connect 8 0 3 2;
#X restore 119 386 pd addrange;
#X listbox 330 363 20 0 0 0 - - - 0;
#X listbox 330 386 20 0 0 0 - - - 0;
#X obj 22 209 metro 100;
#X connect 7 0 19 0;
#X connect 11 0 15 0;
#X connect 12 0 16 0;
#X connect 12 0 17 0;
#X connect 12 1 16 1;
#X connect 12 1 18 0;
#X connect 14 0 13 0;
#X connect 15 0 14 0;
#X connect 15 1 12 0;
#X connect 16 0 13 0;
#X connect 19 0 11 0;
