#N canvas 82 79 700 790 12;
#X obj 17 13 cnv 15 660 42 empty empty fluid.multiarray 1 22 0 36 #4ba3fb
#ffffff 0;
;
#X obj 17 60 cnv 15 488 17 empty empty Multichannel\\\ arrays 4 8 0
13 #e0e0e0 #404040 0;
#X obj 17 375 bng 15 250 50 0 empty empty empty 17 7 0 10 #fcfcfc #000000
#000000;
#X obj 17 507 array set;
#X listbox 17 627 20 0 0 0 - - - 0;
#X obj 17 575 bng 15 250 50 0 empty empty empty 17 7 0 10 #fcfcfc #000000
#000000;
#X listbox 245 627 20 0 0 0 - - - 0;
#X obj 245 575 bng 15 250 50 0 empty empty empty 17 7 0 10 #fcfcfc
#000000 #000000;
#X obj 17 401 t b b, f 9;
#X obj 245 376 bng 15 250 50 0 empty empty empty 17 7 0 10 #fcfcfc
#000000 #000000;
#X obj 245 508 array set;
#X msg 245 443 1 1.1 1.2 1.3 1.4;
#X obj 245 402 t b b, f 9;
#X text 25 424 list of values to store;
#X msg 17 442 0 0.1 0.2 0.3 0.4;
#X text 17 164 This abstraction allows the creation of multichannel
arrays. Note that it requires invoking with the clone object to work.
, f 61;
#X listbox 473 627 20 0 0 0 - - - 0;
#X obj 473 575 bng 15 250 50 0 empty empty empty 17 7 0 10 #fcfcfc
#000000 #000000;
#X obj 473 376 bng 15 250 50 0 empty empty empty 17 7 0 10 #fcfcfc
#000000 #000000;
#X obj 473 508 array set;
#X obj 473 402 t b b, f 9;
#X msg 473 443 2 2.1 2.2 2.3 2.4;
#X obj 23 233 clone fluid.multiarray 3 myArray 5;
#X msg 81 481 symbol myArray-0;
#X msg 309 483 symbol myArray-1;
#X msg 540 476 symbol myArray-2;
#X obj 473 605 array get myArray-2;
#X obj 245 605 array get myArray-1;
#X obj 17 605 array get myArray-0;
#X text 272 234 create 3-channel array of 5 elements 'myArray';
#X obj 453 692 cnv 15 220 70 empty empty More\\\ information 4 10 0
13 #e0e0e0 #404040 0;
#X obj 461 713 note_on_multiarrays;
#X obj 461 737 note_on_automatic_multiarrays;
#X obj 34 375 cnv 15 15 15 empty empty empty 20 12 0 14 #c6ffc7 #404040
0;
#X obj 263 376 cnv 15 15 15 empty empty empty 20 12 0 14 #c6ffc7 #404040
0;
#X obj 490 376 cnv 15 15 15 empty empty empty 20 12 0 14 #c6ffc7 #404040
0;
#X obj 35 575 cnv 15 15 15 empty empty empty 20 12 0 14 #c6ffc7 #404040
0;
#X obj 263 575 cnv 15 15 15 empty empty empty 20 12 0 14 #c6ffc7 #404040
0;
#X obj 491 575 cnv 15 15 15 empty empty empty 20 12 0 14 #c6ffc7 #404040
0;
#X text 34 374 1) put values in channel 0;
#X text 263 375 2) put values in channel 1;
#X text 490 374 3) put values in channel 2;
#X text 36 574 4) see values in channel 0;
#X text 263 573 5) see values in ch 1;
#X text 491 573 6) see values in ch 2;
#X connect 3 0 9 0;
#X connect 6 0 29 0;
#X connect 8 0 28 0;
#X connect 9 0 15 0;
#X connect 9 1 24 0;
#X connect 10 0 13 0;
#X obj 509 60 fluid.referencelauncher fluid.multiarray.html reference;
#X connect 12 0 11 0;
#X connect 13 0 12 0;
#X connect 13 1 25 0;
#X connect 15 0 4 0;
#X connect 18 0 27 0;
#X connect 19 0 21 0;
#X connect 21 0 22 0;
#X connect 21 1 26 0;
#X connect 22 0 20 0;
#X connect 24 0 4 2;
#X connect 25 0 11 2;
#X connect 26 0 20 2;
#X connect 27 0 17 0;
#X connect 28 0 7 0;
#X connect 29 0 5 0;
