#N canvas 77 184 527 648 12;
#X obj 100 100 cnv 15 18 18 empty empty empty 20 12 0 14 #ff8300 #404040 0;
#X obj 102 102 tgl 14 0 empty empty empty 17 7 0 10 #131255 #ff8300 #000000 0 1;
#X obj 102 180 pack \$1 \$2;
#X msg 125 41 0;
#X obj 102 142 sel 1;
#X obj 62 -25 route \$1;
#X obj 63 14 route \$2;
#X obj 102 228 s _tg;
#X obj 62 -62 r _tg;
#X connect 1 0 4 0;
#X connect 2 0 7 0;
#X connect 3 0 1 0;
#X connect 4 0 2 0;
#X connect 5 0 6 0;
#X connect 5 1 3 0;
#X connect 6 1 3 0;
#X connect 8 0 5 0;
#X coords 0 -1 1 1 18 18 2 100 100;
