#N canvas 1522 -1046 1163 822 12;
#X obj 101 101 cnv 15 40 40 empty \$0-col empty 20 12 0 14 #e3e38e
#fcfcfc 0;
#X obj 220 83 inlet;
#X obj 220 726 s \$0-col;
#X obj 392 543 makefilename %02x;
#X obj 306 572 makefilename %02x;
#X obj 220 607 makefilename %02x;
#X msg 220 666 symbol #\$1\$2\$3;
#X obj 220 637 pack symbol symbol symbol;
#X floatatom 220 138 5 0 0 0 - - - 0;
#X obj 392 220 % 10;
#X floatatom 392 244 5 0 0 0 - - - 0;
#X obj 392 267 int;
#X floatatom 392 291 5 0 0 0 - - - 0;
#X obj 306 220 / 10;
#X obj 306 244 int;
#X obj 306 268 % 10;
#X floatatom 306 292 5 0 0 0 - - - 0;
#X obj 220 244 int;
#X obj 220 268 % 10;
#X floatatom 220 292 5 0 0 0 - - - 0;
#X obj 220 220 / 100;
#X obj 220 164 t f f f, f 25;
#X floatatom 392 451 5 0 0 0 - - - 0;
#X floatatom 306 452 5 0 0 0 - - - 0;
#X floatatom 220 452 5 0 0 0 - - - 0;
#X obj 270 83 loadbang;
#X obj 220 395 expr ($f1)*28.34;
#X obj 220 423 int;
#X obj 306 423 int;
#X obj 392 423 int;
#X obj 220 544 expr 255-$f1;
#X obj 306 514 expr 255-$f1;
#X obj 392 484 expr 255-$f1;
#X obj 306 365 expr ($f1)*28.34;
#X obj 392 334 expr ($f1)*28.34;
#X msg 271 110 111;
#X msg 220 693 color \$1;
#X connect 1 0 8 0;
#X connect 3 0 7 2;
#X connect 4 0 7 1;
#X connect 5 0 7 0;
#X connect 6 0 36 0;
#X connect 7 0 6 0;
#X connect 8 0 21 0;
#X connect 9 0 10 0;
#X connect 10 0 11 0;
#X connect 11 0 12 0;
#X connect 12 0 34 0;
#X connect 13 0 14 0;
#X connect 14 0 15 0;
#X connect 15 0 16 0;
#X connect 16 0 33 0;
#X connect 17 0 18 0;
#X connect 18 0 19 0;
#X connect 19 0 26 0;
#X connect 20 0 17 0;
#X connect 21 0 20 0;
#X connect 21 1 13 0;
#X connect 21 2 9 0;
#X connect 22 0 32 0;
#X connect 23 0 31 0;
#X connect 24 0 30 0;
#X connect 25 0 35 0;
#X connect 26 0 27 0;
#X connect 27 0 24 0;
#X connect 28 0 23 0;
#X connect 29 0 22 0;
#X connect 30 0 5 0;
#X connect 31 0 4 0;
#X connect 32 0 3 0;
#X connect 33 0 28 0;
#X connect 34 0 29 0;
#X connect 35 0 8 0;
#X connect 36 0 2 0;
#X coords 0 -1 1 1 42 42 2 100 100;
