#N canvas 938 -980 745 649 12;
#X obj 409 31 inlet;
#X obj 409 121 osc~ 1;
#X obj 176 31 loadbang;
#X obj 46 31 inlet;
#X obj 46 272 line~;
#X obj 46 335 *~, f 52;
#X obj 46 364 outlet~;
#X obj 46 175 array get arrayname;
#X floatatom 71 203 5 0 0 0 - - - 0;
#X listbox 207 165 26 0 0 0 - - - 0;
#X msg 176 123 symbol help.mel.1.features-\$1, f 24;
#X floatatom 46 64 5 0 0 0 - - - 0;
#X obj 176 60 f \$1;
#X msg 46 243 \$1 25;
#X connect 0 0 1 0;
#X connect 1 0 5 1;
#X connect 2 0 12 0;
#X connect 3 0 11 0;
#X connect 4 0 5 0;
#X connect 5 0 6 0;
#X connect 7 0 8 0;
#X connect 7 0 13 0;
#X connect 10 0 9 0;
#X connect 10 0 7 2;
#X connect 11 0 7 0;
#X connect 12 0 10 0;
#X connect 13 0 4 0;
