#N canvas 15 39 693 810 12;
#X obj 17 13 cnv 15 660 42 empty empty fluid.waveform 1 22 0 36 #4ba3fb
#ffffff 0;
#X obj 464 635 cnv 15 202 153 empty empty More\\\ information 4 10
0 13 #e0e0e0 #404040 0;
#X obj 509 60 fluid.referencelauncher fluid.waveform.html reference/waveform/
;
#X text 17 79 Visualise multichannel audio waveforms and data;
#X text 17 129 A custom object for visualising waveforms \, feature
data \, slices and spectrograms;
#X obj 16 440 fluid.waveform 650 180 1 empty empty 0;
#X obj 17 278 soundfiler;
#X obj 455 228 clone 2 fluid.multiarray help.wf.src.S, f 24;
#X msg 17 228 read -resize media/Tremblay-SA-UprightPianoPedalWide.wav
help.wf.src.S-0 help.wf.src.S-1 \, read -resize media/Nicol-LoopE-M.wav
help.wf.src.M;
#X obj 455 265 array define help.wf.src.M;
#X msg 16 414 waveform help.wf.src.M;
#X msg 183 414 waveform help.wf.src.S;
#X text 14 203 1) Load a mono file in a normal array \, and a stereo
file in a 'fluid.multiarray', f 80;
#X text 14 393 2) Choose a waverform to visualise \, group normalised
around zero, f 64;
#N canvas 683 23 694 522 features 0;
#X obj 17 13 cnv 15 660 42 empty empty fluid.waveform 1 22 0 36 #4ba3fb
#ffffff 0;
#X obj 17 276 fluid.waveform 650 180 1 empty empty 0;
#X msg 17 113 waveform help.wf.src.M;
#X obj 86 167 bng 15 250 50 0 empty empty empty 17 7 0 10 #fcfcfc #000000
#000000;
#X text 187 111 1) what are we describing?;
#X text 108 164 2) describe!;
#X obj 18 473 clone fluid.multiarray 2 help.wf.features;
#X obj 87 185 fluid.bufloudness -source help.wf.src.M -features help.wf.features
, f 66;
#X msg 87 241 features help.wf.features;
#X text 277 240 3) draw each feature stacked \, each individually normalised
for a better view, f 47;
#X text 17 63 Display features as stacked lines;
#X connect 2 0 1 0;
#X connect 3 0 7 0;
#X connect 7 0 8 0;
#X connect 8 0 1 0;
#X restore 467 677 pd features;
#N canvas 683 24 705 547 markers_for_indices 0;
#X obj 17 13 cnv 15 660 42 empty empty fluid.waveform 1 22 0 36 #4ba3fb
#ffffff 0;
#X text 17 63 Display markers for slice indices;
#X obj 17 276 fluid.waveform 650 180 1 empty empty 0;
#X msg 17 113 waveform help.wf.src.M;
#X msg 87 241 indices help.wf.indices;
#X obj 86 167 bng 15 250 50 0 empty empty empty 17 7 0 10 #fcfcfc #000000
#000000;
#X text 187 111 1) what are we segmenting? Needed to establish a timeframe
for the slices;
#X text 108 164 2) slice;
#X text 262 241 3) draw the slices with the timeframe of waveform as
reference;
#X obj 18 473 array define help.wf.indices;
#X obj 87 185 fluid.bufonsetslice -source help.wf.src.M -indices help.wf.indices
-metric 9 -threshold 0.3;
#X connect 3 0 2 0;
#X connect 4 0 2 0;
#X connect 5 0 10 0;
#X connect 10 0 4 0;
#X restore 467 655 pd markers_for_indices;
#N canvas 683 23 696 772 spectrograms 0;
#X obj 17 13 cnv 15 660 42 empty empty fluid.waveform 1 22 0 36 #4ba3fb
#ffffff 0;
#X text 17 63 Plot 3D data as colored 2D images;
#X obj 22 114 bng 15 250 50 0 empty empty empty 17 7 0 10 #fcfcfc #000000
#000000;
#X obj 22 134 fluid.bufstft -source help.wf.src.M;
#X obj 22 274 fluid.waveform 650 400 0 empty empty 0;
#X text 43 111 1) trigger the spectral analysis;
#X msg 22 187 imagelogflag 1 \, imagecolorscheme 1 \, image \$1;
#X msg 45 245 waveform help.wf.src.M;
#X obj 342 113 bng 15 250 50 0 empty empty empty 17 7 0 10 #fcfcfc
#000000 #000000;
#X text 341 183 2) make use of the automatically managed multichannel
buffers here for dynamic channel count, f 42;
#X text 364 110 4) a spectrogram in melbands instead;
#X text 220 245 3) drawing the wave form above;
#X obj 342 133 fluid.bufmelbands 40 -source help.wf.src.M -features
help.wf.mels, f 42;
#X obj 20 703 clone fluid.multiarray 40 help.wf.mels;
#X connect 2 0 3 0;
#X connect 3 0 6 0;
#X connect 6 0 4 0;
#X connect 7 0 4 0;
#X connect 8 0 12 0;
#X connect 12 0 6 0;
#X restore 467 699 pd spectrograms;
#N canvas 683 23 696 796 customisation 0;
#X obj 17 13 cnv 15 660 42 empty empty fluid.waveform 1 22 0 36 #4ba3fb
#ffffff 0;
#X text 17 63 Customisation of colors \, dimensions \, send \, receive
;
#N canvas 170 280 390 482 label 0;
#X obj 102 62 vsl 15 128 0 255 0 0 empty empty empty 0 -9 0 10 #0800fc
#fcfcfc #000000 0 1;
#X obj 109 225 t b f;
#X obj 81 62 vsl 15 128 0 255 0 0 empty empty empty 0 -9 0 10 #00fc00
#000000 #000000 0 1;
#X obj 61 62 vsl 15 128 0 255 0 0 empty empty empty 0 -9 0 10 #fc0000
#000000 #000000 0 1;
#X obj 81 250 t b f;
#X obj 221 257 makefilename %02x;
#X obj 141 284 makefilename %02x;
#X obj 61 321 makefilename %02x;
#X obj 61 416 outlet;
#X msg 61 380 symbol #\$1\$2\$3;
#X obj 176 59 loadbang;
#X msg 176 91 set 255;
#X obj 176 176 route set;
#X obj 61 351 pack symbol symbol symbol;
#X connect 0 0 1 0;
#X connect 1 0 2 0;
#X connect 1 1 5 0;
#X connect 2 0 4 0;
#X connect 3 0 7 0;
#X connect 4 0 3 0;
#X connect 4 1 6 0;
#X connect 5 0 13 2;
#X connect 6 0 13 1;
#X connect 7 0 13 0;
#X connect 9 0 8 0;
#X connect 10 0 11 0;
#X connect 11 0 3 0;
#X connect 11 0 2 0;
#X connect 11 0 0 0;
#X connect 11 0 12 0;
#X connect 12 0 5 0;
#X connect 12 0 6 0;
#X connect 13 0 9 0;
#X coords 0 -1 1 1 77 151 2 50 50;
#X restore 25 282 pd label;
#N canvas 170 280 390 482 label 0;
#X obj 102 62 vsl 15 128 0 255 0 0 empty empty empty 0 -9 0 10 #0800fc
#fcfcfc #000000 0 1;
#X obj 109 225 t b f;
#X obj 81 62 vsl 15 128 0 255 0 0 empty empty empty 0 -9 0 10 #00fc00
#000000 #000000 0 1;
#X obj 61 62 vsl 15 128 0 255 0 0 empty empty empty 0 -9 0 10 #fc0000
#000000 #000000 0 1;
#X obj 81 250 t b f;
#X obj 221 257 makefilename %02x;
#X obj 141 284 makefilename %02x;
#X obj 61 321 makefilename %02x;
#X obj 61 416 outlet;
#X msg 61 380 symbol #\$1\$2\$3;
#X obj 176 59 loadbang;
#X msg 176 91 set 255;
#X obj 176 176 route set;
#X obj 61 351 pack symbol symbol symbol;
#X connect 0 0 1 0;
#X connect 1 0 2 0;
#X connect 1 1 5 0;
#X connect 2 0 4 0;
#X connect 3 0 7 0;
#X connect 4 0 3 0;
#X connect 4 1 6 0;
#X connect 5 0 13 2;
#X connect 6 0 13 1;
#X connect 7 0 13 0;
#X connect 9 0 8 0;
#X connect 10 0 11 0;
#X connect 11 0 3 0;
#X connect 11 0 2 0;
#X connect 11 0 0 0;
#X connect 11 0 12 0;
#X connect 12 0 5 0;
#X connect 12 0 6 0;
#X connect 13 0 9 0;
#X coords 0 -1 1 1 77 151 2 50 50;
#X restore 153 282 pd label;
#N canvas 170 280 390 482 label 0;
#X obj 102 62 vsl 15 128 0 255 0 0 empty empty empty 0 -9 0 10 #0800fc
#fcfcfc #000000 0 1;
#X obj 109 225 t b f;
#X obj 81 62 vsl 15 128 0 255 0 0 empty empty empty 0 -9 0 10 #00fc00
#000000 #000000 0 1;
#X obj 61 62 vsl 15 128 0 255 0 0 empty empty empty 0 -9 0 10 #fc0000
#000000 #000000 0 1;
#X obj 81 250 t b f;
#X obj 221 257 makefilename %02x;
#X obj 141 284 makefilename %02x;
#X obj 61 321 makefilename %02x;
#X obj 61 416 outlet;
#X msg 61 380 symbol #\$1\$2\$3;
#X obj 176 59 loadbang;
#X msg 176 91 set 255;
#X obj 176 176 route set;
#X obj 61 351 pack symbol symbol symbol;
#X connect 0 0 1 0;
#X connect 1 0 2 0;
#X connect 1 1 5 0;
#X connect 2 0 4 0;
#X connect 3 0 7 0;
#X connect 4 0 3 0;
#X connect 4 1 6 0;
#X connect 5 0 13 2;
#X connect 6 0 13 1;
#X connect 7 0 13 0;
#X connect 9 0 8 0;
#X connect 10 0 11 0;
#X connect 11 0 3 0;
#X connect 11 0 2 0;
#X connect 11 0 0 0;
#X connect 11 0 12 0;
#X connect 12 0 5 0;
#X connect 12 0 6 0;
#X connect 13 0 9 0;
#X coords 0 -1 1 1 77 151 2 50 50;
#X restore 280 281 pd label;
#X msg 25 438 waveformcolor \$1;
#X msg 153 438 indicescolor \$1;
#X msg 280 437 featurescolor \$1;
#X floatatom 414 415 5 1 300 0 - - - 0;
#X msg 414 437 linewidth \$1;
#X text 22 108 arguments can be one list (width height outline send
receive latch) -outline - flag if the frame is drawn -latch - send
a message on mouse up -send -receive They can all be edited in the
'property' window and are saved as state of the object, f 86;
#X obj 415 467 tgl 15 0 empty empty empty 17 7 0 10 #fcfcfc #000000
#000000 0 1;
#X msg 415 487 outline \$1;
#X obj 532 416 tgl 15 0 empty empty empty 17 7 0 10 #fcfcfc #000000
#000000 0 1;
#X msg 532 436 imagelogflag \$1;
#X obj 532 465 tgl 15 0 empty empty empty 17 7 0 10 #fcfcfc #000000
#000000 0 1;
#X msg 532 485 imagecolorscheme \$1;
#X obj 24 566 fluid.waveform 650 200 1 empty empty 0;
#X msg 305 520 waveform help.wf.src.M \, features help.wf.features
\, image help.wf.mels \, indices help.wf.indices, f 51;
#X connect 2 0 5 0;
#X connect 3 0 6 0;
#X connect 4 0 7 0;
#X connect 5 0 17 0;
#X connect 6 0 17 0;
#X connect 7 0 17 0;
#X connect 8 0 9 0;
#X connect 9 0 17 0;
#X connect 11 0 12 0;
#X connect 12 0 17 0;
#X connect 13 0 14 0;
#X connect 14 0 17 0;
#X connect 15 0 16 0;
#X connect 16 0 17 0;
#X connect 18 0 17 0;
#X restore 467 721 pd customisation;
#X obj 467 765 note_on_multiarrays;
#N canvas 683 23 701 444 mousing 0;
#X obj 17 13 cnv 15 660 42 empty empty fluid.waveform 1 22 0 36 #4ba3fb
#ffffff 0;
#X obj 20 159 fluid.waveform 650 180 1 empty empty 0;
#X msg 20 135 waveform help.wf.src.M;
#X text 17 63 Click and drag to report the x-y values within the window
;
#X listbox 20 344 20 0 0 0 - - - 0;
#N canvas 362 23 693 311 playback 0;
#X obj 37 37 inlet;
#X obj 37 247 outlet~;
#X obj 37 61 t f b;
#X obj 140 79 fluid.bufinfo -source help.wf.src.M;
#X obj 38 137 expr $f1 / 650 * $f2;
#X msg 38 161 \$1 4410;
#X obj 37 198 tabplay~ help.wf.src.M;
#X text 190 134 compute the x position vs the full width vs the full
length;
#X text 172 103 retrieve the full length of the source;
#X text 107 167 plays 100ms;
#X connect 0 0 2 0;
#X connect 2 0 4 0;
#X connect 2 1 3 0;
#X connect 3 0 4 1;
#X connect 4 0 5 0;
#X connect 5 0 6 0;
#X connect 6 0 1 0;
#X restore 20 367 pd playback;
#X obj 20 391 fluid.out~;
#X text 192 136 1) draw the waveform;
#X text 177 341 relative pixel of the click and drag position (0 0
is bottom left), f 66;
#X connect 1 0 4 0;
#X connect 2 0 1 0;
#X connect 4 0 5 0;
#X connect 5 0 6 0;
#X connect 5 0 6 1;
#X restore 467 743 pd mousing;
#X listbox 16 623 20 0 0 0 - - - 0;
#X connect 5 0 20 0;
#X connect 8 0 6 0;
#X connect 10 0 5 0;
#X connect 11 0 5 0;
