#N canvas 541 47 696 937 12;
#X obj 17 13 cnv 15 660 42 empty empty fluid.bufsinefeature 1 22 0 36 #4ba3fb #ffffff 0;
#X obj 509 60 fluid.referencelauncher fluid.bufsinefeature.html reference/sinefeature/;
#X obj 17 60 cnv 15 488 17 empty empty Buffer-Based\ Spectral\ Difference\ Feature 4 8 0 13 #e0e0e0 #404040 0;
#X text 17 79 Calculate the spectral difference feature used by fluid.bufsinefeature.;
#X obj 450 843 cnv 15 222 65 empty empty More\ information 4 10 0 13 #e0e0e0 #404040 0;
#X obj 461 885 note_on_multithreading;
#X obj 461 863 note_on_automatic_multiarrays;
#X obj 28 121 cnv 15 15 15 empty empty empty 20 12 0 14 #c6ffc7 #404040 0;
#X text 29 121 1) Pick a source;
#X obj 92 315 cnv 15 15 15 empty empty empty 20 12 0 14 #c6ffc7 #404040 0;
#N canvas 1182 23 866 453 drawing_commands 0;
#X obj 23 66 inlet;
#X obj 193 66 inlet;
#X obj 23 288 outlet;
#X obj 23 100 t b;
#X obj 193 100 t b b, f 24;
#X msg 358 140 waveform help.onset.src, f 14;
#X msg 23 140 indices help.onset.slices help.onset.src, f 20;
#X msg 193 140 features help.onset.curve, f 16;
#X connect 0 0 3 0;
#X connect 1 0 4 0;
#X connect 3 0 6 0;
#X connect 4 0 7 0;
#X connect 4 1 5 0;
#X connect 5 0 2 0;
#X connect 6 0 2 0;
#X connect 7 0 2 0;
#X restore 178 799 pd drawing_commands;
#X f 41;
#X obj 31 796 fluid.waveform 630 117 1 empty empty 0;
#N canvas 920 -1080 904 1012 parameters 0;
#X obj 435 541 s \$0-params;
#X obj 435 121 s \$0-params;
#X obj 435 331 s \$0-params;
#X obj 435 401 s \$0-params;
#X obj 435 471 s \$0-params;
#X obj 435 611 s \$0-params;
#X msg 435 517 source arrayname;
#X msg 435 97 features arrayname;
#X msg 435 307 numchans -1;
#X msg 435 377 numframes -1;
#X msg 435 447 padding 1;
#X msg 435 587 startchan 0;
#X obj 435 681 s \$0-params;
#X msg 435 657 startframe 0;
#X text 577 510 index of the buffer to use as the source material to be analysed, f 39;
#X text 577 370 How many frames to analyse, f 39;
#X text 577 440 controls the zero-padding added to either end of the source buffer or segment, f 39;
#X obj 435 258 s \$0-params;
#X obj 29 897 r \$0-params;
#X obj 29 920 outlet;
#X obj 29 125 s \$0-params;
#X text 192 158 for hopsize \, -1 = windowsize/2;
#X text 193 100 window size (1024) \, hop size (-1) \, fft size (-1), f 24;
#X text 192 199 for fftsize \, -1 = windowsize snapped to nearest power of 2, f 29;
#X obj 435 190 s \$0-params;
#X obj 33 602 s \$0-params;
#X obj 29 283 s \$0-params;
#X obj 29 415 cnv 10 233 2 empty empty empty 20 12 0 14 #bbbbbb #404040 0;
#X obj 29 74 cnv 10 310 2 empty empty empty 20 12 0 14 #bbbbbb #404040 0;
#X text 27 54 FFT settings;
#X obj 29 685 cnv 10 233 2 empty empty empty 20 12 0 14 #bbbbbb #404040 0;
#X obj 435 74 cnv 10 200 2 empty empty empty 20 12 0 14 #bbbbbb #404040 0;
#X text 27 395 Metric;
#X msg 29 102 fftsettings 1024 -1 1;
#X text 27 665 Warnings;
#X obj 30 764 s \$0-params;
#X msg 30 707 warnings 1;
#X msg 40 729 warnings 0;
#X text 119 706 warnings;
#X text 119 728 or no warnings;
#X msg 435 167 filtersize 5;
#X text 577 234 default 0 \, otherwise distance between comparison windows in samples, f 39;
#X msg 29 260 maxfftsize -1;
#X text 188 255 Set an explicit upper bound on the FFT size at object instantiation. The default of -1 sets this to whatever the initial FFT size is, f 25;
#X msg 33 580 metric 0;
#X text 48 446 0: Energy, f 15;
#X text 48 458 1: HFC, f 15;
#X text 48 470 2: SpectralFlux;
#X text 48 482 3: MKL, f 15;
#X text 48 494 4: IS, f 15;
#X text 48 506 5: Cosine, f 15;
#X text 48 519 6: PhaseDev, f 15;
#X text 48 531 7: WPhaseDev, f 15;
#X text 48 543 8: ComplexDev, f 15;
#X text 48 555 9: RComplexDev, f 15;
#X obj 33 450 vradio 12 1 0 10 empty empty metric: 0 -8 0 10 #fcfcfc #000000 #000000 0;
#X msg 435 235 framedelta 0;
#X text 28 6 Optional parameters to fluid.buufsinefeature;
#X text 188 446 metric used to derive a difference curve between spectral frames, f 25;
#X text 575 165 size of a smoothing filter that is applied on the novelty curve, f 39;
#X text 577 300 for a multichannel source \, how many channels to process, f 39;
#X text 577 580 for a multichannel source \, which channel should be processed first, f 39;
#X text 577 650 where in the source the analysis should start \, in samples, f 39;
#X text 577 90 destination buffer to write the analysis into, f 38;
#X connect 6 0 0 0;
#X connect 7 0 1 0;
#X connect 8 0 2 0;
#X connect 9 0 3 0;
#X connect 10 0 4 0;
#X connect 11 0 5 0;
#X connect 13 0 12 0;
#X connect 18 0 19 0;
#X connect 33 0 20 0;
#X connect 36 0 35 0;
#X connect 37 0 35 0;
#X connect 40 0 24 0;
#X connect 42 0 26 0;
#X connect 44 0 25 0;
#X connect 55 0 44 0;
#X connect 56 0 17 0;
#X restore 539 504 pd parameters;
#N canvas 1463 -953 946 750 parameters 0;
#X floatatom 185 146 8 0 0 0 - - - 0;
#X floatatom 185 125 8 0 0 0 - - - 0;
#X floatatom 185 167 8 0 0 0 - - - 0;
#X obj 40 392 outlet;
#X floatatom 185 104 8 0 9 0 - - - 0;
#X msg 370 263 threshold \$1;
#X obj 228 19 unpack 0 0 0 0;
#N canvas 873 -965 666 733 showmetric 0;
#X obj 56 20 inlet;
#X obj 56 485 outlet;
#X obj 56 44 select 0 1 2 3 4 5 6 7 8 9;
#X obj 56 462 r paramname;
#X msg 56 424 \; paramname list Energy;
#X msg 73 386 \; paramname list HFC;
#X msg 91 346 \; paramname list Spectral Flux;
#X msg 109 306 \; paramname list MKL;
#X msg 127 266 \; paramname list IS;
#X msg 145 226 \; paramname list Cosine;
#X msg 163 186 \; paramname list PhaseDev;
#X msg 181 146 \; paramname list WPhaseDev;
#X msg 199 106 \; paramname list ComplexDev;
#X msg 217 66 \; paramname list RComplexDev;
#X connect 0 0 2 0;
#X connect 2 0 4 0;
#X connect 2 1 5 0;
#X connect 2 2 6 0;
#X connect 2 3 7 0;
#X connect 2 4 8 0;
#X connect 2 5 9 0;
#X connect 2 6 10 0;
#X connect 2 7 11 0;
#X connect 2 8 12 0;
#X connect 2 9 13 0;
#X connect 3 0 1 0;
#X restore 246 78 pd showmetric;
#X listbox 246 103 20 0 0 0 - - - 0;
#X obj 98 -120 loadbang;
#X obj 320 392 outlet;
#X text 132 104 metric, f 7;
#X obj 228 -4 r help.bufsinefeature.presets;
#X msg 98 -92 \; help.bufsinefeature.presets 0 5 0 0.5, f 45;
#X text 104 125 filtersize, f 11;
#X text 104 146 framedelta, f 11;
#X text 111 166 threshold, f 10;
#X msg 41 263 metric \$1;
#X msg 143 263 filtersize \$1;
#X msg 253 263 framedelta \$1;
#X connect 0 0 19 0;
#X connect 1 0 18 0;
#X connect 2 0 5 0;
#X connect 4 0 17 0;
#X connect 4 0 7 0;
#X connect 5 0 3 0;
#X connect 6 0 4 0;
#X connect 6 1 1 0;
#X connect 6 2 0 0;
#X connect 6 3 2 0;
#X connect 7 0 8 0;
#X connect 9 0 13 0;
#X connect 12 0 6 0;
#X connect 17 0 3 0;
#X connect 17 0 10 0;
#X connect 18 0 3 0;
#X connect 18 0 10 0;
#X connect 19 0 3 0;
#X connect 19 0 10 0;
#X coords 0 -1 1 1 290 90 2 100 100;
#X restore 142 341 pd parameters;
#X obj 67 316 bng 15 250 50 0 empty empty empty 17 7 0 10 #c6ffc7 #000000 #000000;
#X text 526 483 more parameters;
#X text 93 315 2) Trigger curve generation and slicing;
#X obj 67 460 t b b, f 42;
#X text 450 337 By matching the metric \, filtersize and framedelta attributes we get a glimpse of the onset curve that bufonsetslice~ uses to measure changes in the spectrum over time, f 28;
#X text 28 860 Detected slices can be seen where there are significant changes in the difference., f 32;
#X text 28 817 The amount of difference between spectral frames is show in red., f 32;
#X listbox 30 589 28 0 0 0 - - - 0;
#X obj 30 558 list;
#X obj 30 613 fluid.bufinfo;
#X listbox 30 637 20 0 0 0 - - - 0;
#X listbox 232 591 28 0 0 0 - - - 0;
#X obj 232 560 list;
#X obj 232 615 fluid.bufinfo;
#X listbox 232 639 20 0 0 0 - - - 0;
#X listbox 49 714 28 0 0 0 - - - 0;
#X obj 49 683 list;
#X obj 49 738 fluid.bufinfo;
#X listbox 49 762 20 0 0 0 - - - 0;
#X listbox 251 716 28 0 0 0 - - - 0;
#X obj 251 685 list;
#X obj 251 740 fluid.bufinfo;
#X listbox 251 764 20 0 0 0 - - - 0;
#X obj 498 700 array get;
#X obj 574 700 array get;
#X obj 498 727 print;
#X obj 574 726 print;
#X msg 521 634 symbol \$1-0;
#X msg 616 636 symbol \$1-0;
#X obj 492 667 bng 19 250 50 0 empty empty empty 0 -10 0 12 #fcfcfc #000000 #000000;
#X obj 213 263 array set help.sinefeature.src;
#X obj 403 163 array define help.sinefeature.src 4410;
#X msg 211 107 4410;
#X obj 211 131 until;
#X obj 211 155 f;
#X obj 211 179 t f f f;
#X obj 260 153 + 1;
#X msg 260 117 0;
#X obj 67 491 fluid.bufsines -source help.sinefeature.src;
#X obj 211 220 expr sin($f1 / 44.1 * 3.14);
#X obj 579 669 bng 19 250 50 0 empty empty empty 0 -10 0 12 #fcfcfc #000000 #000000;
#X obj 508 542 fluid.bufsinefeature -source help.sinefeature.src, f 23;
#X connect 10 0 11 0;
#X connect 14 0 17 0;
#X connect 17 0 52 0;
#X connect 17 1 55 0;
#X connect 22 0 21 0;
#X connect 23 0 24 0;
#X connect 26 0 25 0;
#X connect 27 0 28 0;
#X connect 30 0 29 0;
#X connect 31 0 32 0;
#X connect 34 0 33 0;
#X connect 35 0 36 0;
#X connect 37 0 39 0;
#X connect 38 0 40 0;
#X connect 41 0 37 2;
#X connect 42 0 38 2;
#X connect 43 0 37 0;
#X connect 46 0 47 0;
#X connect 47 0 48 0;
#X connect 48 0 49 0;
#X connect 49 0 53 0;
#X connect 49 1 44 1;
#X connect 49 2 50 0;
#X connect 50 0 48 1;
#X connect 51 0 48 1;
#X connect 52 0 22 0;
#X connect 52 0 23 0;
#X connect 52 1 26 0;
#X connect 52 1 27 0;
#X connect 53 0 44 0;
#X connect 54 0 38 0;
#X connect 55 0 30 0;
#X connect 55 0 31 0;
#X connect 55 0 41 0;
#X connect 55 1 34 0;
#X connect 55 1 35 0;
#X connect 55 1 42 0;
