#N canvas 91 23 697 795 12;
#X obj 17 13 cnv 15 660 42 empty empty fluid.transientslice~ 1 22 0
36 #4ba3fb #ffffff 0;
#X obj 509 60 fluid.referencelauncher fluid.transientslice~.html reference/transientslice/
;
#X obj 17 60 cnv 15 488 17 empty empty Transient-Based\\\ Real-Time\\\ Audio\\\ Slicer
4 8 0 13 #e0e0e0 #404040 0;
#X text 24 97 A real-time transient-based slice extractor;
#X obj 20 730 fluid.out~ transientshelp;
#X obj 20 171 fluid.demosound~;
#X obj 92 735 cnv 15 15 15 empty empty empty 20 12 0 14 #c6ffc7 #404040
0;
#X obj 30 147 cnv 15 15 15 empty empty empty 20 12 0 14 #c6ffc7 #404040
0;
#X text 31 146 2) Play a sound;
#X text 93 734 1) Audio on;
#N canvas 1114 23 544 712 parameters 0;
#X obj 186 548 outlet;
#X obj 34 -62 loadbang;
#X obj 186 27 unpack 0 0 0 0 0 0;
#X floatatom 185 105 8 0 0 0 - - - 0;
#X text 111 105 order, f 10;
#X obj 186 4 r help.transients.presets;
#X msg 34 -37 \; help.transients.presets 20 256 128 0 2 1.1;
#X floatatom 185 125 8 0 0 0 - - - 0;
#X floatatom 185 145 8 0 0 0 - - - 0;
#X floatatom 185 165 8 0 0 0 - - - 0;
#X floatatom 185 185 8 0 0 0 - - - 0;
#X floatatom 185 205 8 0 0 0 - - - 0;
#X text 111 125 blocksize, f 10;
#X text 111 145 padsize, f 10;
#X text 111 165 skew, f 10;
#X text 111 205 threshback;
#X msg 186 271 order \$1;
#X msg 206 301 blocksize \$1;
#X msg 236 331 padsize \$1;
#X msg 266 361 skew \$1;
#X msg 336 421 threshback \$1;
#X text 111 185 threshfwd, f 10;
#X msg 296 391 threshfwd \$1;
#X connect 1 0 6 0;
#X connect 2 0 3 0;
#X connect 2 1 7 0;
#X connect 2 2 8 0;
#X connect 2 3 9 0;
#X connect 2 4 10 0;
#X connect 2 5 11 0;
#X connect 3 0 16 0;
#X connect 5 0 2 0;
#X connect 7 0 17 0;
#X connect 8 0 18 0;
#X connect 9 0 19 0;
#X connect 10 0 22 0;
#X connect 11 0 20 0;
#X connect 16 0 0 0;
#X connect 17 0 0 0;
#X connect 18 0 0 0;
#X connect 19 0 0 0;
#X connect 20 0 0 0;
#X connect 22 0 0 0;
#X coords 0 -1 1 1 150 129 2 100 100;
#X restore 129 326 pd parameters;
#X text 287 482 <-- more parameters;
#N canvas 1109 23 853 879 parameters 0;
#X obj 29 737 r \$0-params;
#X obj 29 760 outlet;
#X text 28 6 Optional parameters to fluid.bufaudiotransport;
#X obj 29 125 s \$0-params;
#X msg 29 102 blocksize 256;
#X text 163 100 size of audio block (in samples) on which the process
is operating, f 32;
#X obj 29 195 s \$0-params;
#X obj 29 279 s \$0-params;
#X obj 29 345 s \$0-params;
#X obj 29 425 s \$0-params;
#X obj 29 495 s \$0-params;
#X obj 29 565 s \$0-params;
#X obj 29 635 s \$0-params;
#X msg 29 172 clumplength 25;
#X text 163 170 window size in samples within which anomalous samples
will be clumped together to avoid over-detecting in time, f 32;
#X msg 29 242 minslicelength 1000, f 14;
#X msg 29 322 order 20;
#X msg 29 402 padsize 128;
#X msg 29 472 skew 0;
#X msg 29 542 threshback 1.1;
#X msg 29 612 threshfwd 2;
#X text 163 250 minimum duration of a slice in samples., f 32;
#X text 163 320 number of previous samples used by the algorithm to
create the model of the signal within the blocksize window of analysis
, f 32;
#X text 163 400 size (in samples) of analysis on each side of blocksize
, f 32;
#X text 163 470 nervousness of the bespoke detection function, f 32
;
#X text 163 540 threshold applied to the smoothed backward prediction
error for determining an offset, f 33;
#X text 163 610 threshold applied to the smoothed forward prediction
error for determining an onset, f 33;
#X obj 479 125 s \$0-params;
#X obj 479 195 s \$0-params;
#X obj 479 265 s \$0-params;
#X msg 479 102 warnings 0;
#X msg 479 172 windowsize 14;
#X msg 479 242 reset;
#X text 603 239 Calling reset will change parameter values back to
those the object was created with, f 33;
#X text 603 170 averaging window of the error detection function,
f 33;
#X text 603 100 enable warnings to be issued whenever a parameter value
is constrained, f 33;
#X connect 0 0 1 0;
#X connect 4 0 3 0;
#X connect 13 0 6 0;
#X connect 15 0 7 0;
#X connect 16 0 8 0;
#X connect 17 0 9 0;
#X connect 18 0 10 0;
#X connect 19 0 11 0;
#X connect 20 0 12 0;
#X connect 30 0 27 0;
#X connect 31 0 28 0;
#X connect 32 0 29 0;
#X restore 184 479 pd parameters;
#X obj 130 599 fluid.transientslice~, f 32;
#X floatatom 351 623 5 0 0 0 - - - 0;
#N canvas 1547 23 501 476 latencydelay 0;
#X obj 37 46 inlet~;
#X obj 337 189 samplerate~;
#X obj 337 160 loadbang;
#X floatatom 217 267 12 0 0 0 - - - 0;
#X floatatom 342 214 15 0 0 0 - - - 0;
#X obj 207 242 expr ($f1*1000/$f2);
#X obj 37 350 outlet~;
#X obj 207 160 r tslatency;
#X obj 37 192 delwrite~ help.transientslice.del 1000, f 23;
#X obj 37 268 delread~ help.transientslice.del, f 23;
#X connect 0 0 8 0;
#X connect 1 0 4 0;
#X connect 1 0 5 1;
#X connect 2 0 1 0;
#X connect 5 0 3 0;
#X connect 5 0 9 0;
#X connect 7 0 5 0;
#X connect 9 0 6 0;
#X restore 20 599 pd latencydelay;
#X f 13;
#X obj 351 646 s tslatency;
#X obj 153 677 bng 15 250 50 0 empty empty empty 17 7 0 10 #ffe3c6
#000000 #000000;
#X msg 281 573 getlatency;
#X obj 281 546 loadbang;
#X obj 503 728 cnv 15 178 45 empty empty More\\\ information 4 10 0
13 #e0e0e0 #404040 0;
#N canvas 301 81 697 744 musical_example 0;
#X obj 17 13 cnv 15 660 42 empty empty fluid.transientslice~ 1 22 0
36 #4ba3fb #ffffff 0;
#X text 24 97 Using transientslice~ musically;
#X obj 26 693 fluid.out~ transientshelp;
#X obj 26 174 fluid.demosound~;
#X obj 104 698 cnv 15 15 15 empty empty empty 20 12 0 14 #c6ffc7 #404040
0;
#X obj 36 150 cnv 15 15 15 empty empty empty 20 12 0 14 #c6ffc7 #404040
0;
#X text 105 697 1) Audio on;
#X floatatom 432 386 5 0 0 0 - - - 0;
#N canvas 1547 23 501 476 latencydelay 0;
#X obj 37 46 inlet~;
#X obj 337 189 samplerate~;
#X obj 337 160 loadbang;
#X floatatom 217 267 12 0 0 0 - - - 0;
#X floatatom 342 214 15 0 0 0 - - - 0;
#X obj 207 242 expr ($f1*1000/$f2);
#X obj 37 350 outlet~;
#X obj 207 160 r ts2latency;
#X obj 37 192 delwrite~ help.transientslice.del2 1000, f 23;
#X obj 37 268 delread~ help.transientslice.del2, f 24;
#X connect 0 0 8 0;
#X connect 1 0 4 0;
#X connect 1 0 5 1;
#X connect 2 0 1 0;
#X connect 5 0 3 0;
#X connect 5 0 9 0;
#X connect 7 0 5 0;
#X connect 9 0 6 0;
#X restore 26 342 pd latencydelay;
#X f 13;
#X msg 134 312 getlatency;
#X obj 134 288 loadbang;
#X text 37 149 2) Play audio;
#X obj 134 342 fluid.transientslice~ -order 80 -blocksize 256 -padsize
128 -skew 10, f 43;
#N canvas 1324 23 724 516 equalpowerpan 0;
#X obj 37 37 inlet~;
#X obj 256 52 hsl 128 15 0 1 0 0 empty empty empty -2 -8 0 10 #fcfcfc
#000000 #000000 0 1;
#X obj 97 227 hsl 128 15 0 1 0 0 empty empty empty -2 -8 0 10 #fcfcfc
#000000 #000000 0 1;
#X obj 62 186 expr cos($f1*3.14159/2), f 18;
#X obj 275 227 hsl 128 15 0 1 0 0 empty empty empty -2 -8 0 10 #fcfcfc
#000000 #000000 0 1;
#X obj 240 186 expr sin($f1*3.14159/2), f 18;
#X obj 240 28 inlet;
#X obj 38 334 outlet~;
#X obj 38 296 *~;
#X obj 222 334 outlet~;
#X obj 222 296 *~;
#X connect 0 0 8 0;
#X connect 0 0 10 0;
#X connect 3 0 2 0;
#X connect 3 0 8 1;
#X connect 5 0 4 0;
#X connect 5 0 10 1;
#X connect 6 0 1 0;
#X connect 6 0 3 0;
#X connect 6 0 5 0;
#X connect 8 0 7 0;
#X connect 10 0 9 0;
#X restore 26 622 pd equalpowerpan;
#N canvas 1812 -970 617 495 counter 0;
#X obj 24 16 inlet;
#X obj 24 57 bng 15 250 50 0 empty empty empty 17 7 0 10 #fcfcfc #000000
#000000;
#X obj 24 77 f;
#X obj 86 65 + 1;
#X obj 86 89 % 40;
#X floatatom 24 162 5 0 0 0 - - - 0;
#X obj 24 185 - 20;
#X obj 24 209 abs;
#X obj 24 243 / 20;
#X floatatom 24 269 5 0 0 0 - - - 0;
#X obj 24 300 outlet;
#X text 81 206 count -20 to 20;
#X connect 0 0 1 0;
#X connect 1 0 2 0;
#X connect 2 0 3 0;
#X connect 3 0 4 0;
#X connect 4 0 5 0;
#X connect 4 0 2 1;
#X connect 5 0 6 0;
#X connect 6 0 7 0;
#X connect 7 0 8 0;
#X connect 8 0 9 0;
#X connect 9 0 10 0;
#X restore 135 533 pd counter;
#X obj 156 577 hsl 128 15 0 1 0 0 empty empty empty -2 -8 0 10 #fcfcfc
#000000 #000000 0 1;
#X obj 432 416 s ts2latency;
#X text 218 494 Everytime a slice is detected a panner progresses across
the stereo image, f 22;
#X obj 135 471 bng 15 250 50 0 empty empty empty 17 7 0 10 #ffe3c6
#000000 #000000;
#N canvas 1114 23 544 712 parameters 0;
#X obj 186 548 outlet;
#X obj 34 -62 loadbang;
#X obj 186 27 unpack 0 0 0 0 0 0;
#X floatatom 185 105 8 0 0 0 - - - 0;
#X text 111 105 order, f 10;
#X obj 186 4 r help.transients.presets;
#X msg 34 -37 \; help.transients.presets 20 256 128 0 2 1.1;
#X floatatom 185 125 8 0 0 0 - - - 0;
#X floatatom 185 145 8 0 0 0 - - - 0;
#X floatatom 185 165 8 0 0 0 - - - 0;
#X floatatom 185 185 8 0 0 0 - - - 0;
#X floatatom 185 205 8 0 0 0 - - - 0;
#X text 111 125 blocksize, f 10;
#X text 111 145 padsize, f 10;
#X text 111 165 skew, f 10;
#X text 111 205 threshback;
#X msg 186 271 order \$1;
#X msg 206 301 blocksize \$1;
#X msg 236 331 padsize \$1;
#X msg 266 361 skew \$1;
#X msg 336 421 threshback \$1;
#X text 111 185 threshfwd, f 10;
#X msg 296 391 threshfwd \$1;
#X connect 1 0 6 0;
#X connect 2 0 3 0;
#X connect 2 1 7 0;
#X connect 2 2 8 0;
#X connect 2 3 9 0;
#X connect 2 4 10 0;
#X connect 2 5 11 0;
#X connect 3 0 16 0;
#X connect 5 0 2 0;
#X connect 7 0 17 0;
#X connect 8 0 18 0;
#X connect 9 0 19 0;
#X connect 10 0 22 0;
#X connect 11 0 20 0;
#X connect 16 0 0 0;
#X connect 17 0 0 0;
#X connect 18 0 0 0;
#X connect 19 0 0 0;
#X connect 20 0 0 0;
#X connect 22 0 0 0;
#X coords 0 -1 1 1 150 129 2 100 100;
#X restore 444 195 pd parameters;
#X obj 135 440 threshold~ 0.5 1 0.1 1;
#X connect 3 0 8 0;
#X connect 3 0 12 0;
#X connect 7 0 16 0;
#X connect 8 0 13 0;
#X connect 9 0 12 0;
#X connect 10 0 9 0;
#X connect 12 0 20 0;
#X connect 12 1 7 0;
#X connect 13 0 2 0;
#X connect 13 1 2 1;
#X connect 14 0 15 0;
#X connect 14 0 13 1;
#X connect 18 0 14 0;
#X connect 19 0 12 0;
#X connect 20 0 18 0;
#X restore 506 748 pd musical_example;
#X obj 153 646 threshold~ 0.5 1 0.1 1;
#X connect 5 0 13 0;
#X connect 5 0 15 0;
#X connect 10 0 13 0;
#X connect 12 0 13 0;
#X connect 13 0 4 1;
#X connect 13 0 22 0;
#X connect 13 1 14 0;
#X connect 14 0 16 0;
#X connect 15 0 4 0;
#X connect 18 0 13 0;
#X connect 19 0 18 0;
#X connect 22 0 17 0;
