#N canvas 162 69 701 699 12;
#X obj 17 13 cnv 15 660 42 empty empty fluid.onsetfeature~ 1 22 0 36
#4ba3fb #ffffff 0;
#X obj 20 149 fluid.demosound~;
#X obj 509 60 fluid.referencelauncher fluid.onsetfeature~.html reference/onsetfeature/
;
#X obj 17 60 cnv 15 488 17 empty empty Realtime\\\ Spectral\\\ Difference\\\ Feature
4 8 0 13 #e0e0e0 #404040 0;
#X text 17 89 Calculate the spectral difference feature used by fluid.onsetslice~
;
#X obj 49 399 fluid.onsetslice~;
#X obj 278 408 fluid.onsetfeature~;
#N canvas 0 22 450 278 (subpatch) 0;
#X array help.onsetfeature.view 300 float 2;
#X coords 0 40 300 -10 300 140 1 0 0;
#X restore 183 530 graph;
#X obj 387 464 f;
#X obj 419 465 expr ($f1 + 1) % 300;
#X obj 278 435 t f b, f 16;
#X obj 20 458 fluid.out~ onsetfeaturehelp;
#X obj 278 489 array set help.onsetfeature.view;
#X text 491 529 This represents the change in the underlying feature
of fluid.onsetslice~ in realtime., f 21;
#N canvas 1001 23 854 529 parameters 0;
#X floatatom 185 148 8 0 0 0 - - - 0;
#X floatatom 185 127 8 0 0 0 - - - 0;
#X obj 225 291 outlet;
#X floatatom 185 106 8 0 9 0 - - - 0;
#X msg 226 242 metric \$1;
#X obj 34 -62 loadbang;
#X text 132 106 metric, f 7;
#X text 104 127 framedelta, f 11;
#X text 104 148 filtersize, f 11;
#X msg 301 242 framedelta \$1;
#X msg 408 242 filtersize \$1;
#X obj 186 4 r help.onsetfeatures.presets;
#N canvas 1188 23 860 566 showmetric 0;
#X obj 56 20 inlet;
#X obj 56 44 select 0 1 2 3 4 5 6 7 8 9;
#X obj 56 485 outlet;
#X obj 56 462 r paramname;
#X msg 56 424 \; paramname list Energy;
#X msg 73 386 \; paramname list HFC;
#X msg 91 346 \; paramname list Spectral Flux;
#X msg 109 306 \; paramname list MKL;
#X msg 127 266 \; paramname list IS;
#X msg 145 226 \; paramname list Cosine;
#X msg 163 186 \; paramname list PhaseDev;
#X msg 181 146 \; paramname list WPhaseDev;
#X msg 199 106 \; paramname list ComplexDev;
#X msg 217 66 \; paramname list RComplexDev;
#X connect 0 0 1 0;
#X connect 1 0 4 0;
#X connect 1 1 5 0;
#X connect 1 2 6 0;
#X connect 1 3 7 0;
#X connect 1 4 8 0;
#X connect 1 5 9 0;
#X connect 1 6 10 0;
#X connect 1 7 11 0;
#X connect 1 8 12 0;
#X connect 1 9 13 0;
#X connect 3 0 2 0;
#X restore 322 53 pd showmetric;
#X listbox 246 106 20 0 0 0 - - - 0;
#X floatatom 185 169 8 0 0 0 - - - 0;
#X msg 517 242 threshold \$1;
#X text 111 169 threshold, f 10;
#X msg 191 -40 \; help.onsetfeatures.presets 0 0 5 0.5;
#X text 242 169 (only for onsetslice);
#X obj 186 27 unpack 0 0 0 0;
#X obj 317 295 outlet;
#X connect 0 0 10 0;
#X connect 1 0 9 0;
#X connect 3 0 4 0;
#X connect 3 0 12 0;
#X connect 4 0 2 0;
#X connect 4 0 20 0;
#X connect 5 0 17 0;
#X connect 9 0 2 0;
#X connect 9 0 20 0;
#X connect 10 0 2 0;
#X connect 10 0 20 0;
#X connect 11 0 19 0;
#X connect 12 0 13 0;
#X connect 14 0 15 0;
#X connect 19 0 3 0;
#X connect 19 1 1 0;
#X connect 19 2 0 0;
#X connect 19 3 14 0;
#X coords 0 -1 1 1 294 90 2 100 100;
#X restore 185 251 pd parameters;
#X text 516 370 <-- more parameters;
#N canvas 566 282 788 725 parameters 0;
#X obj 415 258 s \$0-params;
#X obj 29 577 r \$0-params;
#X obj 29 600 outlet;
#X text 28 6 Optional parameters to fluid.bufaudiotransport;
#X obj 29 125 s \$0-params;
#X text 192 158 for hopsize \, -1 = windowsize/2;
#X text 193 100 window size (1024) \, hop size (-1) \, fft size (-1)
, f 24;
#X text 192 199 for fftsize \, -1 = windowsize snapped to nearest power
of 2, f 29;
#X obj 415 120 s \$0-params;
#X obj 33 452 s \$0-params;
#X obj 417 393 s \$0-params;
#X obj 29 265 cnv 10 233 2 empty empty empty 20 12 0 14 #bbbbbb #404040
0;
#X obj 417 355 cnv 10 233 2 empty empty empty 20 12 0 14 #bbbbbb #404040
0;
#X obj 29 74 cnv 10 310 2 empty empty empty 20 12 0 14 #bbbbbb #404040
0;
#X text 27 54 FFT settings;
#X obj 417 465 cnv 10 233 2 empty empty empty 20 12 0 14 #bbbbbb #404040
0;
#X obj 415 208 cnv 10 280 2 empty empty empty 20 12 0 14 #bbbbbb #404040
0;
#X obj 415 74 cnv 10 200 2 empty empty empty 20 12 0 14 #bbbbbb #404040
0;
#X text 27 245 Metric;
#X msg 29 102 fftsettings 1024 -1 1;
#X text 413 54 Filter size;
#X text 413 189 Frame delta;
#X text 415 335 Max FFT size;
#X text 415 445 Warnings;
#X obj 418 544 s \$0-params;
#X msg 418 487 warnings 1;
#X msg 428 509 warnings 0;
#X text 507 486 warnings;
#X text 507 508 or no warnings;
#X msg 415 97 filtersize 5;
#X text 525 95 size of smoothing filter;
#X text 527 234 default 0 \, otherwise distance between comparison
windows in samples, f 25;
#X msg 417 370 maxfftsize -1;
#X text 526 365 Set an explicit upper bound on the FFT size at object
instantiation. The default of -1 sets this to whatever the initial
FFT size is, f 25;
#X msg 33 430 metric 0;
#X text 48 296 0: Energy, f 15;
#X text 48 308 1: HFC, f 15;
#X text 48 320 2: SpectralFlux;
#X text 48 332 3: MKL, f 15;
#X text 48 344 4: IS, f 15;
#X text 48 356 5: Cosine, f 15;
#X text 48 369 6: PhaseDev, f 15;
#X text 48 381 7: WPhaseDev, f 15;
#X text 48 393 8: ComplexDev, f 15;
#X text 48 405 9: RComplexDev, f 15;
#X obj 33 300 vradio 12 1 0 10 empty empty metric: 0 -8 0 10 #fcfcfc
#000000 #000000 0;
#X msg 415 235 framedelta 0;
#X connect 1 0 2 0;
#X connect 19 0 4 0;
#X connect 25 0 24 0;
#X connect 26 0 24 0;
#X connect 29 0 8 0;
#X connect 32 0 10 0;
#X connect 34 0 9 0;
#X connect 45 0 34 0;
#X connect 46 0 0 0;
#X restore 413 367 pd parameters;
#X connect 1 0 5 0;
#X connect 1 0 6 0;
#X connect 1 0 11 0;
#X connect 5 0 11 1;
#X connect 6 0 10 0;
#X connect 8 0 9 0;
#X connect 8 0 12 1;
#X connect 9 0 8 1;
#X connect 10 0 12 0;
#X connect 10 1 8 0;
#X connect 14 0 5 0;
#X connect 14 1 6 0;
#X connect 16 0 6 0;
