#N canvas 7 41 699 805 12;
#X obj 17 13 cnv 15 660 42 empty empty fluid.bufampslice 1 22 0 36
#4ba3fb #ffffff 0;
#X obj 457 699 cnv 15 216 89 empty empty More\\\ information 4 10 0
13 #e0e0e0 #404040 0;
#X obj 509 60 fluid.referencelauncher fluid.bufampslice.html reference/ampslice/
;
#X obj 17 60 cnv 15 488 17 empty empty Amplitude-based\\\ Detrending\\\ Slicer\\\ for\\\ Buffers
4 8 0 13 #e0e0e0 #404040 0;
#X text 17 80 This class implements an amplitude-based slicer \, with
various customisable options and conditions to detect relative amplitude
changes as onsets.;
#N canvas 114 97 697 875 tuning_the_parameters 0;
#X obj 17 13 cnv 15 660 42 empty empty fluid.bufampslice 1 22 0 36
#4ba3fb #ffffff 0;
#X text 17 80 How to tweak the parameters of fluid.bufampslice~ to
segment to your needs;
#N canvas 1955 -858 448 179 loadsrc 0;
#X obj 16 83 soundfiler;
#X obj 16 19 inlet;
#X obj 16 107 outlet;
#X msg 16 41 read -resize \$1 help.bufampslice.tuningsrc;
#X connect 0 0 2 0;
#X connect 1 0 3 0;
#X connect 3 0 0 0;
#X restore 18 228 pd loadsrc;
#X obj 18 180 fluid.demoaudiofiles;
#X obj 399 166 array define help.bufampslice.tuningsrc;
#X f 30;
#X obj 399 206 array define help.bufampslice.tuningslices;
#X f 30;
#X obj 18 272 bng 15 250 50 0 empty empty empty 17 7 0 10 #c6ffc7 #000000
#000000;
#X obj 18 622 fluid.bufampslice -source help.bufampslice.tuningsrc
-indices help.bufampslice.tuningslices -fastrampup 10 -fastrampdown
10 -slowrampup 50 -slowrampdown 50 -onthreshold 2 -offthreshold 0 -highpassfreq
200 -floor -48, f 36;
#X obj 18 796 fluid.waveform 670 60 1 empty empty 0;
#X obj 18 161 cnv 15 15 15 empty empty empty 20 12 0 14 #c6ffc7 #404040
0;
#X text 19 161 1) Select a source;
#X obj 38 271 cnv 15 15 15 empty empty empty 20 12 0 14 #c6ffc7 #404040
0;
#X text 39 271 2) Segment the source, f 12;
#X text 141 266 This is a small selection of ways that the algorithm
can be tuned to be less or more sensitive., f 72;
#X text 141 306 Small changes in thresholds can have a drastic effect.
This increases the amount of energy required for an onset meaning less
quiet (potentially erroneous) sounds are detected., f 72;
#X msg 37 398 minslicelength 4410 \, bang, f 15;
#X msg 57 458 onthreshold 3.5 \, bang, f 12;
#X msg 77 528 slowrampup 1000 \, slowrampdown 1000 \, fastrampup 100
\, fastrampdown 100 \, bang 3.5 \, bang, f 18;
#X text 161 397 Adding a minimum slice length is always a good idea
for debouncing the time between onsets, f 69;
#X text 211 457 Small changes in thresholds can have a drastic effect.
This increases the amount of energy required for an onset meaning less
quiet (potentially erroneous) sounds are detected., f 62;
#X text 241 527 This makes both envelopes in the internal tracking
slower than the default \, meaning it is less nervous but also less
precise.;
#X text 292 712 Check out fluid.ampslice~;
#X text 290 617 It is always a good idea to prototype with the realtime
version of these objects so you can hear how parameter changes work
almost immediately., f 26;
#X obj 532 734 fluid.out~ bufnoveltyslicehelp;
#X obj 604 739 cnv 15 15 15 empty empty empty 20 12 0 14 #c6ffc7 #404040
0;
#X floatatom 531 646 5 0 0 0 - - - 0;
#N canvas 2139 -776 666 626 extract_slices 0;
#X obj 37 427 outlet~;
#X obj 37 14 inlet;
#X floatatom 37 45 5 0 0 0 - - - 0;
#X floatatom 47 185 5 0 0 0 - - - 0;
#X obj 286 92 + 1;
#X floatatom 296 185 10 0 0 0 - - - 0;
#X obj 37 236 t f f, f 8;
#X floatatom 90 329 11 0 0 0 - - - 0;
#X floatatom 292 115 5 0 0 0 - - - 0;
#X obj 90 302 expr $f2-$f1, f 29;
#X obj 37 354 pack 0 0;
#X obj 37 68 t f f, f 36;
#X floatatom 55 109 5 0 0 0 - - - 0;
#X obj 37 142 array get help.bufampslice.tuningslices;
#X obj 286 142 array get help.bufampslice.tuningslices;
#X obj 37 391 tabplay~ help.bufampslice.tuningsrc;
#X connect 1 0 2 0;
#X connect 2 0 11 0;
#X connect 4 0 8 0;
#X connect 4 0 14 0;
#X connect 6 0 10 0;
#X connect 6 1 9 0;
#X connect 7 0 10 1;
#X connect 9 0 7 0;
#X connect 10 0 15 0;
#X connect 11 0 13 0;
#X connect 11 1 4 0;
#X connect 12 0 13 0;
#X connect 13 0 3 0;
#X connect 13 0 6 0;
#X connect 14 0 5 0;
#X connect 14 0 9 1;
#X connect 15 0 0 0;
#X restore 531 669 pd extract_slices;
#X obj 528 609 cnv 15 15 15 empty empty empty 20 12 0 14 #c6ffc7 #404040
0;
#X text 605 739 3) Audio on;
#X text 529 607 4) Play back onset/offset pairs, f 18;
#X msg 18 738 waveform help.bufampslice.tuningsrc \, indices help.bufampslice.tuningslices
\, indicescolor #ffbcb8 \, waveformcolor #0000ff;
#X connect 3 0 2 0;
#X connect 6 0 7 0;
#X connect 7 0 30 0;
#X connect 15 0 7 0;
#X connect 16 0 7 0;
#X connect 17 0 7 0;
#X connect 25 0 26 0;
#X connect 26 0 23 0;
#X connect 26 0 23 1;
#X connect 30 0 8 0;
#X restore 462 720 pd tuning_the_parameters;
#X obj 462 764 note_on_multithreading;
#X obj 462 742 note_on_automatic_multiarrays;
#N canvas 1955 -858 448 179 loadsrc 0;
#X obj 16 83 soundfiler;
#X obj 16 19 inlet;
#X msg 16 41 read -resize \$1 help.bufampslice.src;
#X obj 16 107 outlet;
#X connect 0 0 3 0;
#X connect 1 0 2 0;
#X connect 2 0 0 0;
#X restore 18 228 pd loadsrc;
#X obj 18 180 fluid.demoaudiofiles;
#X obj 18 161 cnv 15 15 15 empty empty empty 20 12 0 14 #c6ffc7 #404040
0;
#X text 19 161 1) Select a source;
#X obj 511 156 array define help.bufampslice.src;
#X f 23;
#X obj 18 556 fluid.waveform 450 130 1 empty empty 0;
#X obj 167 321 cnv 15 15 15 empty empty empty 20 12 0 14 #c6ffc7 #404040
0;
#X obj 144 322 bng 15 250 50 0 empty empty empty 17 7 0 10 #c6ffc7
#000000 #000000;
#X text 168 321 2) Segment the source;
#X obj 144 342 fluid.bufampslice -source help.bufampslice.src -indices
help.bufampslice.slices -highpassfreq 200 -floor -55 -fastrampup 3
-fastrampdown 383 -slowrampup 2205 -slowrampdown 2205 -minslicelength
1024 -onthreshold 11 -offthreshold 5;
#X obj 511 196 array define help.bufampslice.slices;
#X f 23;
#X obj 483 646 fluid.out~ bufnoveltyslicehelp;
#X obj 555 651 cnv 15 15 15 empty empty empty 20 12 0 14 #c6ffc7 #404040
0;
#X floatatom 482 558 5 0 0 0 - - - 0;
#N canvas 2040 -1065 666 626 extract_slices 0;
#X obj 37 427 outlet~;
#X obj 37 14 inlet;
#X floatatom 37 45 5 0 0 0 - - - 0;
#X floatatom 47 185 5 0 0 0 - - - 0;
#X obj 286 92 + 1;
#X floatatom 296 185 10 0 0 0 - - - 0;
#X obj 37 236 t f f, f 8;
#X floatatom 90 329 11 0 0 0 - - - 0;
#X floatatom 292 115 5 0 0 0 - - - 0;
#X obj 90 302 expr $f2-$f1, f 29;
#X obj 37 354 pack 0 0;
#X obj 37 68 t f f, f 36;
#X floatatom 55 109 5 0 0 0 - - - 0;
#X obj 37 142 array get help.bufampslice.slices;
#X obj 286 142 array get help.bufampslice.slices;
#X obj 37 391 tabplay~ help.bufampslice.src;
#X connect 1 0 2 0;
#X connect 2 0 11 0;
#X connect 4 0 8 0;
#X connect 4 0 14 0;
#X connect 6 0 10 0;
#X connect 6 1 9 0;
#X connect 7 0 10 1;
#X connect 9 0 7 0;
#X connect 10 0 15 0;
#X connect 11 0 13 0;
#X connect 11 1 4 0;
#X connect 12 0 13 0;
#X connect 13 0 3 0;
#X connect 13 0 6 0;
#X connect 14 0 5 0;
#X connect 14 0 9 1;
#X connect 15 0 0 0;
#X restore 482 581 pd extract_slices;
#X obj 482 517 cnv 15 15 15 empty empty empty 20 12 0 14 #c6ffc7 #404040
0;
#X text 556 651 3) Audio on, f 17;
#X msg 144 422 indices help.bufampslice.slices \, indicescolor #ffbcb8
;
#X msg 18 252 waveform help.bufampslice.src \, waveformcolor #0000ff
;
#X text 484 518 4) Play back onset/offset pairs, f 18;
#X connect 8 0 26 0;
#X connect 9 0 8 0;
#X connect 15 0 17 0;
#X connect 17 0 25 0;
#X connect 21 0 22 0;
#X connect 22 0 19 0;
#X connect 22 0 19 1;
#X connect 25 0 13 0;
#X connect 26 0 13 0;
