#N canvas 234 148 763 560 12;
#N canvas 369 355 1332 775 \$0-players 0;
#X obj 786 104 inlet;
#X obj 812 373 s pd-\$0-players;
#X msg 899 137 1;
#X msg 929 136 2;
#X msg 962 135 3;
#X obj 881 270 * 100;
#X obj 291 169 *~;
#X obj 361 118 line~;
#X obj 5 107 fluid.demoaudiofiles;
#X obj 291 121 readsf~;
#X msg 291 96 open \$1;
#X obj 6 159 tgl 15 0 empty empty empty 17 7 0 10 #fcfcfc #000000 #000000
0 1;
#X obj 225 121 sel 0;
#X obj 225 145 t b 0;
#X obj 291 74 symbol;
#X obj 3 205 vradio 18 1 0 4 empty empty empty 0 -8 0 10 #fcfcfc #000000
#000000 0;
#X text 21 204 sine;
#X text 21 222 triangle;
#X text 21 240 saw;
#X text 21 258 square;
#X obj 370 355 *~;
#X obj 426 355 *~;
#X obj 500 355 *~;
#X obj 365 250 osc~ 220;
#X obj 574 355 *~;
#N canvas 0 23 450 300 triangle 0;
#X obj 37 47 inlet;
#X obj 37 67 phasor~ 220;
#X obj 37 85 -~ 0.5;
#X obj 37 103 abs~;
#X obj 37 121 *~ 4;
#X obj 37 139 -~ 1;
#X obj 37 160 outlet~;
#X connect 0 0 1 0;
#X connect 1 0 2 0;
#X connect 2 0 3 0;
#X connect 3 0 4 0;
#X connect 4 0 5 0;
#X connect 5 0 6 0;
#X restore 429 250 pd triangle;
#N canvas 0 23 450 300 sawtooth 0;
#X obj 37 37 inlet;
#X obj 37 79 phasor~ 220;
#X obj 37 115 -~ 1;
#X obj 37 97 *~ 2;
#X obj 37 136 outlet~;
#X connect 0 0 1 0;
#X connect 1 0 3 0;
#X connect 2 0 4 0;
#X connect 3 0 2 0;
#X restore 513 249 pd sawtooth;
#N canvas 0 23 450 300 square 0;
#X obj 37 37 inlet;
#X obj 37 64 phasor~ 220;
#X obj 37 119 -~;
#X obj 51 83 -~ 0.5;
#X obj 51 101 wrap~;
#X obj 37 137 *~ 2;
#X obj 37 158 outlet~;
#X connect 0 0 1 0;
#X connect 1 0 3 0;
#X connect 1 0 2 0;
#X connect 2 0 5 0;
#X connect 3 0 4 0;
#X connect 4 0 2 1;
#X connect 5 0 6 0;
#X restore 597 248 pd square;
#X obj 596 84 noise~;
#X text 127 217 frequency;
#X floatatom 135 237 8 0 0 0 - - - 0;
#X obj 248 274 t f b;
#X msg 296 309 0;
#X obj 623 366 line~;
#X msg 224 224 220;
#X obj 224 203 loadbang;
#X obj 606 406 *~;
#X msg 995 135 4;
#X obj 4 306 vradio 18 1 0 2 empty empty empty 0 -8 0 10 #fcfcfc #000000
#000000 0;
#X obj 541 146 *~;
#X obj 597 146 *~;
#X obj 397 136 t f b;
#X msg 456 162 0;
#X text 22 305 pink;
#X text 22 323 white;
#X obj 397 163 sel 0 1;
#X msg 433 191 0.2;
#N canvas 1079 26 424 226 pink 0;
#X obj 24 135 outlet~;
#X obj 24 69 fexpr~ $x1[0] * 0.049922 + $x1[-1] * -0.0959935 + $x1[-2]
* 0.0506127 + $x1[-3] * -0.00440879 + $y1[-1] * 2.49496 + $y1[-2] *
-2.01727 + $y1[-3] * 0.522189;
#X text 5 163 ref: https://ccrma.stanford.edu/~jos/sasp/Example_Synthesis_1_F_Noise.html
with the help of https://uk.mathworks.com/help/matlab/ref/filter.html#buagwwg-2
, f 69;
#X text 8 5 pink-noise-approximator taken from the literature. More
accurate than ~pink but more expensive too!, f 65;
#X obj 24 43 inlet~;
#X connect 1 0 0 0;
#X connect 4 0 1 0;
#X restore 540 121 pd pink;
#X msg 398 191 1.2;
#X obj 540 183 *~;
#X obj 667 109 line~;
#X obj 233 441 *~;
#X obj 233 414 adc~;
#X obj 233 468 *~;
#X obj 272 439 line~;
#X msg 666 84 \$1 100;
#X msg 362 95 \$1 100;
#X msg 623 342 \$1 100;
#X msg 272 417 \$1 100;
#X obj 786 173 t f f b;
#X msg 829 200 0;
#X obj 741 442 pack f 1;
#X obj 740 472 route 1 2 3 4;
#X msg 6 72 set 0;
#X obj 225 169 del 50;
#X obj 231 339 sel 0 1 2 3;
#X msg 385 301 0.4;
#X msg 445 300 0.5;
#X msg 514 301 0.24;
#X msg 611 292 0.2;
#X obj 582 577 outlet~;
#X obj 818 312 pack f f;
#X obj 797 259 != 0;
#X obj 796 281 * 2;
#X obj 6 421 tgl 15 0 empty empty empty 17 7 0 10 #fcfcfc #000000 #000000
0 1;
#X text 28 419 mute / unmute;
#X text 24 157 start / stop;
#X msg 813 340 donecanvasdialog 1 -1 \$1 0 1 0 1 220 100 0 \$2 \, dirty
0;
#X obj 902 43 loadbang;
#X obj 62 35 loadbang;
#X msg 62 59 0;
#X connect 0 0 59 0;
#X connect 2 0 59 0;
#X connect 3 0 59 0;
#X connect 4 0 59 0;
#X connect 5 0 71 1;
#X connect 6 0 70 0;
#X connect 7 0 6 1;
#X connect 8 0 63 0;
#X connect 8 0 14 0;
#X connect 9 0 6 0;
#X connect 10 0 9 0;
#X connect 11 0 12 0;
#X connect 12 0 13 0;
#X connect 12 1 9 0;
#X connect 13 0 64 0;
#X connect 13 1 9 0;
#X connect 14 0 10 0;
#X connect 15 0 31 0;
#X connect 20 0 36 0;
#X connect 21 0 36 0;
#X connect 22 0 36 0;
#X connect 23 0 20 0;
#X connect 24 0 36 0;
#X connect 25 0 21 0;
#X connect 26 0 22 0;
#X connect 27 0 24 0;
#X connect 28 0 40 0;
#X connect 28 0 47 0;
#X connect 30 0 23 0;
#X connect 30 0 25 0;
#X connect 30 0 26 0;
#X connect 30 0 27 0;
#X connect 31 0 65 0;
#X connect 31 1 32 0;
#X connect 32 0 20 1;
#X connect 32 0 21 1;
#X connect 32 0 22 1;
#X connect 32 0 24 1;
#X connect 33 0 36 1;
#X connect 34 0 30 0;
#X connect 35 0 34 0;
#X connect 36 0 70 0;
#X connect 37 0 59 0;
#X connect 38 0 41 0;
#X connect 39 0 49 0;
#X connect 40 0 49 0;
#X connect 41 0 45 0;
#X connect 41 1 42 0;
#X connect 42 0 39 1;
#X connect 42 0 40 1;
#X connect 45 0 48 0;
#X connect 45 1 46 0;
#X connect 46 0 40 1;
#X connect 47 0 39 0;
#X connect 48 0 39 1;
#X connect 49 0 70 0;
#X connect 50 0 49 1;
#X connect 51 0 53 0;
#X connect 52 0 51 0;
#X connect 53 0 70 0;
#X connect 54 0 53 1;
#X connect 55 0 50 0;
#X connect 56 0 7 0;
#X connect 57 0 33 0;
#X connect 58 0 54 0;
#X connect 59 0 61 0;
#X connect 59 0 72 0;
#X connect 59 1 5 0;
#X connect 59 2 60 0;
#X connect 60 0 55 0;
#X connect 60 0 56 0;
#X connect 60 0 57 0;
#X connect 60 0 58 0;
#X connect 60 0 71 0;
#X connect 61 0 62 0;
#X connect 62 0 56 0;
#X connect 62 1 57 0;
#X connect 62 2 55 0;
#X connect 62 3 58 0;
#X connect 63 0 11 0;
#X connect 64 0 14 0;
#X connect 65 0 66 0;
#X connect 65 1 67 0;
#X connect 65 2 68 0;
#X connect 65 3 69 0;
#X connect 66 0 20 1;
#X connect 67 0 21 1;
#X connect 68 0 22 1;
#X connect 69 0 24 1;
#X connect 71 0 77 0;
#X connect 72 0 73 0;
#X connect 73 0 71 0;
#X connect 74 0 51 1;
#X connect 77 0 1 0;
#X connect 78 0 2 0;
#X connect 79 0 80 0;
#X connect 80 0 15 0;
#X connect 80 0 38 0;
#X coords 0 0 1 1 220 100 2 0 100;
#X restore 126 17 pd \$0-players;
#X obj 18 44 vradio 18 1 0 4 empty empty empty 0 -8 0 10 #fcfcfc #000000
#000000 0;
#X obj 18 150 + 1;
#X text 39 42 soundfiles;
#X text 39 60 oscillator;
#X text 39 78 noise;
#X text 39 96 adc~;
#X text 17 18 Source Type;
#X floatatom 370 36 5 0 120 0 - - - 0;
#X text 367 17 volume;
#X obj 437 39 dbtorms;
#X obj 355 34 vu 10 80 empty empty -1 -8 0 12 #404040 #000000 0 0;
#X obj 341 192 - 100;
#X obj 342 169 env~ 4410 2205;
#X obj 337 129 *~;
#X obj 437 63 \$1 10;
#X obj 437 87 line~;
#X obj 283 183 outlet~;
#X msg 509 66 80;
#X obj 500 28 loadbang;
#X connect 0 0 14 0;
#X connect 1 0 2 0;
#X connect 2 0 0 0;
#X connect 8 0 10 0;
#X connect 10 0 15 0;
#X connect 12 0 11 0;
#X connect 13 0 12 0;
#X connect 14 0 17 0;
#X connect 14 0 13 0;
#X connect 15 0 16 0;
#X connect 16 0 14 1;
#X connect 18 0 8 0;
#X connect 19 0 18 0;
#X coords 0 0 1 1 410 115 2 10 10;
