#N canvas 0 23 403 160 10;
#N canvas 0 23 450 300 (subpatch) 0;
#X obj 83 51 inlet;
#X obj 83 89 pdcontrol;
#X msg 143 89 browse \$1;
#X msg 83 71 dir 0 /fluid.bufthreaddemo~-help.pd;
#X connect 0 0 3 0;
#X connect 1 0 2 0;
#X connect 2 0 1 0;
#X connect 3 0 1 0;
#X restore 286 128 pd;
#X obj 286 111 bng 15 250 50 0 empty empty empty 17 7 0 10 -262144
-1 -1;
#X text 15 109 click here to open the threading tutorial ->;
#X text 14 16 By default \, all fluid.buf* objects behave like native
object and stay in PureData's main thread \, thus blocking it. All
fluid.buf* objects also have the possibility to spawn a new thread
\, so PureData is free to go about with its business. For a more detailed
discussion of the available threading and monitoring options \, please
read the tutorial located in the fluid.bufthreaddemo~ helpfile., f
61;
#X connect 1 0 0 0;
