#N canvas 0 23 403 160 10;
#X text 18 20 By default \, all fluid.buf* objects spawn a new thread
to avoid blocking PureData's main thread \, so it is free to go about
with its business. For a more detailed discussion of the available
threading and monitoring options \, please read the tutorial located
in the fluid.bufthreaddemo~ helpfile., f 61;
#N canvas 0 23 450 300 (subpatch) 0;
#X obj 83 51 inlet;
#X obj 83 89 pdcontrol;
#X msg 143 89 browse \$1;
#X msg 83 71 dir 0 /fluid.bufthreaddemo~-help.pd;
#X connect 0 0 3 0;
#X connect 1 0 2 0;
#X connect 2 0 1 0;
#X connect 3 0 1 0;
#X restore 290 117 pd;
#X obj 290 100 bng 15 250 50 0 empty empty empty 17 7 0 10 -262144
-1 -1;
#X text 19 98 click here to open the threading tutorial ->;
#X connect 2 0 1 0;
