#N canvas 85 114 858 711 12;
#N canvas 950 386 517 377 drums_players 0;
#X obj 125 60 r pd-dsp-started;
#X obj 27 17 loadbang;
#X obj 27 59 soundfiler;
#X obj 28 180 *~, f 10;
#X obj 28 140 /~;
#X msg 28 121 1;
#X obj 28 161 phasor~;
#X obj 156 101 samplerate~;
#X obj 98 121 / 1;
#X obj 27 77 t b f b;
#X obj 126 78 t b b b;
#X obj 28 221 outlet~;
#X obj 124 154 array define jitnmf_drums;
#X obj 28 200 tabread4~ jitnmf_drums;
#X msg 26 37 read -resize ../../help/media/Nicol-LoopE-M.wav jitnmf_drums;
#X connect 0 0 10 0;
#X connect 1 0 14 0;
#X connect 2 0 9 0;
#X connect 3 0 13 0;
#X connect 4 0 6 0;
#X connect 5 0 4 0;
#X connect 6 0 3 0;
#X connect 7 0 8 1;
#X connect 8 0 4 1;
#X connect 9 0 5 0;
#X connect 9 1 3 1;
#X connect 9 1 8 0;
#X connect 9 2 7 0;
#X connect 10 0 5 0;
#X connect 10 1 8 0;
#X connect 10 2 7 0;
#X connect 13 0 11 0;
#X connect 14 0 2 0;
#X restore 155 235 pd drums_players;
#X obj 234 625 dac~;
#X obj 481 176 tgl 15 0 empty empty empty 17 7 0 10 #fcfcfc #000000 #000000 0 1;
#X obj 571 245 value counter;
#X obj 480 224 expr counter = 1 - counter;
#X obj 480 245 sel 0 1;
#X obj 571 266 array define input1 44100;
#X obj 571 287 array define input2 44100;
#X obj 157 298 tabwrite~ input1;
#X obj 275 299 tabwrite~ input2;
#X obj 480 200 metro 500;
#X msg 480 352 source input2 \, resynth output2 \, bang;
#X obj 403 614 array define output1-0 22500;
#X obj 403 635 array define output1-1 22500;
#X obj 403 656 array define output1-2 22500;
#X obj 605 614 array define output2-0 22500;
#X obj 605 635 array define output2-1 22500;
#X obj 605 656 array define output2-2 22500;
#X obj 239 571 *~ 0.707;
#X obj 106 493 tabplay~ output1-0;
#X obj 238 493 tabplay~ output1-1;
#X obj 370 493 tabplay~ output1-2;
#X obj 107 514 tabplay~ output2-0;
#X obj 239 514 tabplay~ output2-1;
#X obj 371 514 tabplay~ output2-2;
#X msg 489 374 source input1 \, resynth output1 \, bang;
#X text 167 35 what is happening: alternating arrays are doing a fake real time - every half second \, it sends a frame to be proceesed by NMF~ \, requesting 3 components. Because this latter process is randomly seeded and not sorted \, the 3 components are not getting similar results each time \, hence the random pan;
#X text 506 175 1) start to hear the process;
#X obj 480 399 fluid.bufnmf -components 3 -numframes 22050 -fftsettings 512 256 1024 -blocking 0 -resynthmode 1, f 43;
#X connect 0 0 8 0;
#X connect 0 0 9 0;
#X connect 2 0 10 0;
#X connect 4 0 5 0;
#X connect 5 0 8 0;
#X connect 5 0 11 0;
#X connect 5 0 19 0;
#X connect 5 0 21 0;
#X connect 5 0 20 0;
#X connect 5 1 9 0;
#X connect 5 1 24 0;
#X connect 5 1 23 0;
#X connect 5 1 22 0;
#X connect 5 1 25 0;
#X connect 10 0 4 0;
#X connect 11 0 28 0;
#X connect 18 0 1 1;
#X connect 18 0 1 0;
#X connect 19 0 1 0;
#X connect 20 0 18 0;
#X connect 21 0 1 1;
#X connect 22 0 1 0;
#X connect 23 0 18 0;
#X connect 24 0 1 1;
#X connect 25 0 28 0;
