#N canvas 390 110 1148 932 12;
#X obj 1075 868 dac~;
#X obj 38 424 samphold~;
#X obj 338 463 snapshot~;
#X obj 338 367 threshold~ 0.5 1 0.5 0;
#X obj 296 286 fluid.ampslice~ -absthreshon -47 -absthreshoff -47 -absrampup
2205 -absrampdown 2205 -relthreshon 12 -relthreshoff 9 -relrampup 10
-relrampdown 1666 -minslicelength 4410 -minsilencelength 4410 -highpassfreq
85;
#X obj 291 370 *~ -1;
#X obj 291 394 +~ 1;
#N canvas 293 252 1377 404 bd 0;
#X obj 28 8 inlet;
#X obj 29 338 expr~ tanh($v1);
#X obj 29 364 outlet~;
#X obj 29 173 vline~ 80;
#X obj 29 197 mtof~;
#X obj 29 221 osc~;
#X obj 28 122 pack 261 51 80, f 28;
#X msg 28 146 \$1 \, 46.5 35 \, \$2 \$3 35;
#X obj 28 98 + 55;
#X obj 28 56 random 120;
#X obj 28 77 * 0.1;
#X obj 106 97 + 29.5;
#X obj 106 76 * 0.01;
#X obj 106 56 random 150;
#X obj 184 56 random 300;
#X obj 184 76 * 0.1;
#X obj 184 97 + 70;
#X obj 29 245 *~, f 36;
#X obj 278 212 vline~ 80;
#X obj 355 76 * 0.01;
#X obj 28 35 t b b b b b b, f 58;
#X msg 277 185 \$1 5 \, 1 \$2 5 \, 0 \$3 \$4;
#X obj 277 56 random 500;
#X obj 277 77 * 0.001;
#X obj 277 98 + 0.8;
#X obj 355 56 random 500;
#X obj 355 97 + 80;
#X obj 433 97 + 250;
#X obj 433 56 random 100;
#X obj 277 161 pack 261 51 80 250, f 28;
#X obj 375 124 + 5;
#X obj 531 172 vline~ 80;
#X obj 531 196 mtof~;
#X obj 531 220 osc~;
#X obj 530 121 pack 261 51 80, f 28;
#X obj 608 75 * 0.01;
#X obj 608 55 random 150;
#X obj 531 244 *~, f 36;
#X obj 780 211 vline~ 80;
#X obj 857 75 * 0.01;
#X obj 530 33 t b b b b b b, f 58;
#X obj 779 55 random 500;
#X obj 779 76 * 0.001;
#X obj 779 97 + 0.8;
#X obj 779 160 pack 261 51 80 250, f 28;
#X obj 530 97 + 77;
#X obj 530 76 * 0.01;
#X msg 530 145 \$1 \, \$2 \$3;
#X obj 608 96 + 59;
#X obj 686 55 random 200;
#X obj 686 96 + 18;
#X obj 857 96 + 18;
#X msg 779 184 \$1 1 \, 1 \$2 1 \, 0 \$3 \$4;
#X obj 877 123 + 1;
#X obj 857 55 random 200;
#X obj 935 55 random 500;
#X obj 935 76 * 0.001;
#X obj 936 100 + 0.8;
#X obj 1064 32 t b b b;
#X obj 1064 100 random 200;
#X obj 1064 121 * 0.1;
#X obj 1064 142 + 900;
#N canvas 0 23 450 300 triangle 0;
#X obj 152 42 inlet;
#X obj 152 62 phasor~ 220;
#X obj 37 85 -~ 0.5;
#X obj 37 103 abs~;
#X obj 37 121 *~ 4;
#X obj 37 139 -~ 1;
#X obj 37 160 outlet~;
#X connect 0 0 1 0;
#X connect 1 0 2 0;
#X connect 1 0 6 0;
#X connect 2 0 3 0;
#X connect 3 0 4 0;
#X connect 4 0 5 0;
#X connect 5 0 6 0;
#X restore 1064 163 pd triangle;
#X obj 1066 242 *~;
#X obj 1194 206 dbtorms~;
#X msg 1194 162 \$1 1 \, 0 \$2 1;
#X obj 1274 77 random 400;
#X obj 1274 98 * 0.01;
#X obj 1194 141 pack 60 60;
#X obj 1194 183 vline~;
#X obj 686 75 * 0.01;
#X obj 530 55 random 235;
#X obj 1274 119 + 28;
#X obj 1064 185 bp~ 3333 10;
#X obj 1194 98 * 0.01;
#X obj 1194 77 random 100;
#X obj 1194 119 + 110;
#X obj 1064 209 hip~ 11000;
#X connect 0 0 20 0;
#X connect 0 0 40 0;
#X connect 0 0 58 0;
#X connect 1 0 2 0;
#X connect 3 0 4 0;
#X connect 4 0 5 0;
#X connect 5 0 17 0;
#X connect 6 0 7 0;
#X connect 7 0 3 0;
#X connect 8 0 6 0;
#X connect 9 0 10 0;
#X connect 10 0 8 0;
#X connect 11 0 6 1;
#X connect 12 0 11 0;
#X connect 13 0 12 0;
#X connect 14 0 15 0;
#X connect 15 0 16 0;
#X connect 16 0 6 2;
#X connect 17 0 1 0;
#X connect 18 0 17 1;
#X connect 19 0 26 0;
#X connect 20 0 9 0;
#X connect 20 1 13 0;
#X connect 20 2 14 0;
#X connect 20 3 22 0;
#X connect 20 4 25 0;
#X connect 20 5 28 0;
#X connect 21 0 18 0;
#X connect 22 0 23 0;
#X connect 23 0 24 0;
#X connect 24 0 29 0;
#X connect 25 0 19 0;
#X connect 26 0 29 1;
#X connect 26 0 30 0;
#X connect 27 0 29 2;
#X connect 28 0 27 0;
#X connect 29 0 21 0;
#X connect 30 0 29 3;
#X connect 31 0 32 0;
#X connect 32 0 33 0;
#X connect 33 0 37 0;
#X connect 34 0 47 0;
#X connect 35 0 48 0;
#X connect 36 0 35 0;
#X connect 37 0 1 0;
#X connect 38 0 37 1;
#X connect 39 0 51 0;
#X connect 40 0 71 0;
#X connect 40 1 36 0;
#X connect 40 2 49 0;
#X connect 40 3 41 0;
#X connect 40 4 54 0;
#X connect 40 5 55 0;
#X connect 41 0 42 0;
#X connect 42 0 43 0;
#X connect 43 0 44 0;
#X connect 44 0 52 0;
#X connect 45 0 34 0;
#X connect 46 0 45 0;
#X connect 47 0 31 0;
#X connect 48 0 34 1;
#X connect 49 0 70 0;
#X connect 50 0 34 2;
#X connect 51 0 44 1;
#X connect 51 0 53 0;
#X connect 52 0 38 0;
#X connect 53 0 44 3;
#X connect 54 0 39 0;
#X connect 55 0 56 0;
#X connect 56 0 57 0;
#X connect 57 0 44 2;
#X connect 58 0 59 0;
#X connect 58 1 75 0;
#X connect 58 2 66 0;
#X connect 59 0 60 0;
#X connect 60 0 61 0;
#X connect 61 0 62 0;
#X connect 62 0 73 0;
#X connect 63 0 1 0;
#X connect 64 0 63 1;
#X connect 65 0 69 0;
#X connect 66 0 67 0;
#X connect 67 0 72 0;
#X connect 68 0 65 0;
#X connect 69 0 64 0;
#X connect 70 0 50 0;
#X connect 71 0 46 0;
#X connect 72 0 68 1;
#X connect 73 0 77 0;
#X connect 74 0 76 0;
#X connect 75 0 74 0;
#X connect 76 0 68 0;
#X connect 77 0 63 0;
#X restore 803 171 pd bd;
#X obj 804 145 bng 15 250 50 0 empty empty empty 17 7 0 10 -262144
-1 -1;
#X obj 855 145 bng 15 250 50 0 empty empty empty 17 7 0 10 -262144
-1 -1;
#N canvas 478 280 856 404 sn 0;
#X obj 146 3 inlet;
#X obj 149 361 outlet~;
#X obj 148 184 vline~ 80;
#X obj 148 208 mtof~;
#X obj 148 232 osc~;
#X obj 147 133 pack 261 51 80, f 28;
#X obj 244 87 * 0.01;
#X obj 148 256 *~, f 36;
#X obj 561 240 *~;
#X obj 682 194 dbtorms~;
#X msg 682 150 \$1 1 \, 0 \$2 1;
#X obj 682 129 pack 60 60;
#X obj 682 171 vline~;
#X obj 560 143 noise~;
#X obj 682 107 + 101;
#X obj 681 65 random 200;
#X obj 682 86 * 0.001;
#X obj 762 65 random 200;
#X obj 762 86 * 0.1;
#X obj 680 41 t b b, f 12;
#X obj 448 196 dbtorms~;
#X msg 448 152 \$1 1 \, 0 \$2 1;
#X obj 448 131 pack 60 60;
#X obj 448 173 vline~;
#X obj 447 67 random 200;
#X obj 448 88 * 0.001;
#X obj 528 67 random 200;
#X obj 528 88 * 0.1;
#X obj 146 42 t b b b b b, f 58;
#X obj 149 335 *~ 1.4;
#X obj 343 66 random 200;
#X obj 343 86 * 0.01;
#X obj 343 107 + 8;
#X obj 244 108 + 50;
#X obj 244 67 random 250;
#X obj 147 109 + 103.4;
#X obj 147 88 * 0.001;
#X obj 147 67 random 500;
#X obj 29 250 tabplay~ click;
#N canvas 0 22 450 278 (subpatch) 0;
#X array click 2 float 3;
#A 0 1 0;
#X coords 0 1 2 0 50 50 1 0 0;
#X restore 369 329 graph;
#X msg 147 157 \$1 \, 67.5 5 \, \$2 \$3 5;
#X obj 762 107 + 280;
#X obj 560 168 bp~ 810 0.5;
#X obj 560 191 hip~ 1000;
#X obj 528 109 + 150;
#X obj 448 109 + 102;
#X connect 0 0 28 0;
#X connect 0 0 19 0;
#X connect 0 0 38 0;
#X connect 2 0 3 0;
#X connect 3 0 4 0;
#X connect 4 0 7 0;
#X connect 5 0 40 0;
#X connect 6 0 33 0;
#X connect 7 0 29 0;
#X connect 8 0 29 0;
#X connect 9 0 8 1;
#X connect 10 0 12 0;
#X connect 11 0 10 0;
#X connect 12 0 9 0;
#X connect 13 0 42 0;
#X connect 14 0 11 0;
#X connect 15 0 16 0;
#X connect 16 0 14 0;
#X connect 17 0 18 0;
#X connect 18 0 41 0;
#X connect 19 0 15 0;
#X connect 19 1 17 0;
#X connect 20 0 7 1;
#X connect 21 0 23 0;
#X connect 22 0 21 0;
#X connect 23 0 20 0;
#X connect 24 0 25 0;
#X connect 25 0 45 0;
#X connect 26 0 27 0;
#X connect 27 0 44 0;
#X connect 28 0 37 0;
#X connect 28 1 34 0;
#X connect 28 2 30 0;
#X connect 28 3 24 0;
#X connect 28 4 26 0;
#X connect 29 0 1 0;
#X connect 30 0 31 0;
#X connect 31 0 32 0;
#X connect 32 0 5 2;
#X connect 33 0 5 1;
#X connect 34 0 6 0;
#X connect 35 0 5 0;
#X connect 36 0 35 0;
#X connect 37 0 36 0;
#X connect 38 0 29 0;
#X connect 40 0 2 0;
#X connect 41 0 11 1;
#X connect 42 0 43 0;
#X connect 43 0 8 0;
#X connect 44 0 22 1;
#X connect 45 0 22 0;
#X restore 854 171 pd sn;
#X obj 903 145 bng 15 250 50 0 empty empty empty 17 7 0 10 -262144
-1 -1;
#N canvas 251 184 686 360 hh 0;
#X obj 487 16 inlet;
#X obj 147 308 outlet~;
#X obj 148 258 *~;
#X obj 493 211 dbtorms~;
#X obj 493 146 pack 60 60;
#X obj 493 188 vline~;
#X obj 28 109 noise~;
#X obj 573 82 random 200;
#X obj 573 103 * 0.1;
#X obj 493 103 * 0.01;
#X obj 493 235 *~;
#X obj 28 132 expr~ if ($v1 > 0 \, 1 \, -1);
#X obj 221 110 noise~;
#X obj 221 133 expr~ if ($v1 > 0 \, 1 \, -1);
#X obj 230 224 *~ 0.6;
#X obj 40 199 bp~ 4010 20;
#X obj 231 199 bp~ 4151 10;
#X obj 573 124 + 380;
#X msg 493 167 \$1 \, 0 \$2 1;
#X obj 486 50 t b b b, f 12;
#X obj 408 116 random 200;
#X obj 408 138 + 3900;
#X obj 395 171 + 141;
#X obj 148 281 hip~ 7000;
#X obj 493 124 + 106;
#X obj 492 82 random 250;
#X connect 0 0 19 0;
#X connect 2 0 23 0;
#X connect 3 0 10 0;
#X connect 3 0 10 1;
#X connect 4 0 18 0;
#X connect 5 0 3 0;
#X connect 6 0 11 0;
#X connect 7 0 8 0;
#X connect 8 0 17 0;
#X connect 9 0 24 0;
#X connect 10 0 2 1;
#X connect 11 0 15 0;
#X connect 12 0 13 0;
#X connect 13 0 16 0;
#X connect 14 0 2 0;
#X connect 15 0 2 0;
#X connect 16 0 14 0;
#X connect 17 0 4 1;
#X connect 18 0 5 0;
#X connect 19 0 20 0;
#X connect 19 1 25 0;
#X connect 19 2 7 0;
#X connect 20 0 21 0;
#X connect 21 0 22 0;
#X connect 21 0 15 1;
#X connect 22 0 16 1;
#X connect 23 0 1 0;
#X connect 24 0 4 0;
#X connect 25 0 9 0;
#X restore 902 171 pd hh;
#X text 336 86 select a source and play (drum algo optimised and randomised
from a source from Snappizz on sc list archive - https://sccode.org/1-523
);
#X obj 833 88 text define -k theseq;
#A set 111 1 \; 111 0 \; 111 3 \; 111 0 \; 111 2 \; 111 0 \; 111 3
\; 111 1 \; 111 0 \; 111 1 \; 111 1 \; 0 3 \; 111 0 \; 111 2 \; 111
0 \; 111 3 \; 111 3 \;;
#X obj 805 66 text sequence theseq -w 1;
#X msg 804 28 line 0 \, auto;
#X msg 905 28 stop;
#X obj 805 110 sel 1 2 3;
#N canvas 118 162 264 210 all_the_arrays 0;
#X obj 13 39 array define JiTactivations-0 65;
#X obj 13 60 array define JiTactivations-1 65;
#X obj 13 81 array define JiTactivations-2 65;
#X obj 13 102 array define JiTbaseTemp 65;
#X obj 13 123 array define JiTbases-0 65;
#X obj 13 144 array define JiTbases-1 65;
#X obj 13 165 array define JiTbases-2 65;
#X obj 13 18 array define input 4410;
#X restore 55 370 pd all_the_arrays;
#X obj 338 516 spigot 1;
#X obj 451 516 spigot 0;
#X msg 338 487 startframe \$1 \, bang;
#X obj 504 460 tgl 15 0 empty empty empty 17 7 0 10 -262144 -1 -1 1
1;
#X obj 504 480 == 0;
#X obj 15 554 fluid.bufnmf -components 1 -iterations 100 -bases JiTbaseTemp
-basesmode 1 -fftsettings 128 64 -numframes 128 -source input;
#X floatatom 71 673 5 0 2 0 - - -;
#X obj 71 693 int;
#X msg 171 727 destination JiTbases-\$1;
#X obj 171 748 fluid.bufcompose -source JiTbaseTemp;
#X msg 8 728 \; JiTbaseTemp const 0.1;
#X obj 362 723 bng 15 250 50 0 empty empty empty 17 7 0 10 -262144
-1 -1;
#X obj 15 610 bng 15 250 50 0 empty empty empty 17 7 0 10 -262144 -1
-1;
#X obj 37 290 fexpr~ 1 + ($y1[-1] % 2205);
#X obj 54 329 fexpr~ input[$x1[0]] = $x2[0] \; input[$x1[0]+2205] =
$x2[0];
#X obj 338 391 del 2;
#X obj 451 553 fluid.bufnmf -components 3 -iterations 100 -bases JiTbases
-basesmode 2 -activations JiTactivations -fftsettings 128 64 -numframes
128 -source input;
#X floatatom 523 701 5 0 0 0 - - -;
#X obj 523 677 expr $s2[1];
#X msg 597 652 symbol JiTactivations-1;
#X floatatom 597 743 5 0 0 0 - - -;
#X obj 597 719 expr $s2[1];
#X msg 671 694 symbol JiTactivations-2;
#X obj 737 613 loadbang;
#X floatatom 451 663 5 0 0 0 - - -;
#X obj 451 639 expr $s2[1];
#X msg 524 608 symbol JiTactivations-0;
#X floatatom 470 793 5 0 0 0 - - -;
#X obj 452 839 sel 1;
#N canvas 293 252 1377 404 bd 0;
#X obj 28 8 inlet;
#X obj 29 338 expr~ tanh($v1);
#X obj 29 364 outlet~;
#X obj 29 173 vline~ 80;
#X obj 29 197 mtof~;
#X obj 29 221 osc~;
#X obj 28 122 pack 261 51 80, f 28;
#X msg 28 146 \$1 \, 46.5 35 \, \$2 \$3 35;
#X obj 28 98 + 55;
#X obj 28 56 random 120;
#X obj 28 77 * 0.1;
#X obj 106 97 + 29.5;
#X obj 106 76 * 0.01;
#X obj 106 56 random 150;
#X obj 184 56 random 300;
#X obj 184 76 * 0.1;
#X obj 184 97 + 70;
#X obj 29 245 *~, f 36;
#X obj 278 212 vline~ 80;
#X obj 355 76 * 0.01;
#X obj 28 35 t b b b b b b, f 58;
#X msg 277 185 \$1 5 \, 1 \$2 5 \, 0 \$3 \$4;
#X obj 277 56 random 500;
#X obj 277 77 * 0.001;
#X obj 277 98 + 0.8;
#X obj 355 56 random 500;
#X obj 355 97 + 80;
#X obj 433 97 + 250;
#X obj 433 56 random 100;
#X obj 277 161 pack 261 51 80 250, f 28;
#X obj 375 124 + 5;
#X obj 531 172 vline~ 80;
#X obj 531 196 mtof~;
#X obj 531 220 osc~;
#X obj 530 121 pack 261 51 80, f 28;
#X obj 608 75 * 0.01;
#X obj 608 55 random 150;
#X obj 531 244 *~, f 36;
#X obj 780 211 vline~ 80;
#X obj 857 75 * 0.01;
#X obj 530 33 t b b b b b b, f 58;
#X obj 779 55 random 500;
#X obj 779 76 * 0.001;
#X obj 779 97 + 0.8;
#X obj 779 160 pack 261 51 80 250, f 28;
#X obj 530 97 + 77;
#X obj 530 76 * 0.01;
#X msg 530 145 \$1 \, \$2 \$3;
#X obj 608 96 + 59;
#X obj 686 55 random 200;
#X obj 686 96 + 18;
#X obj 857 96 + 18;
#X msg 779 184 \$1 1 \, 1 \$2 1 \, 0 \$3 \$4;
#X obj 877 123 + 1;
#X obj 857 55 random 200;
#X obj 935 55 random 500;
#X obj 935 76 * 0.001;
#X obj 936 100 + 0.8;
#X obj 1064 32 t b b b;
#X obj 1064 100 random 200;
#X obj 1064 121 * 0.1;
#X obj 1064 142 + 900;
#N canvas 0 23 450 300 triangle 0;
#X obj 152 42 inlet;
#X obj 152 62 phasor~ 220;
#X obj 37 85 -~ 0.5;
#X obj 37 103 abs~;
#X obj 37 121 *~ 4;
#X obj 37 139 -~ 1;
#X obj 37 160 outlet~;
#X connect 0 0 1 0;
#X connect 1 0 2 0;
#X connect 1 0 6 0;
#X connect 2 0 3 0;
#X connect 3 0 4 0;
#X connect 4 0 5 0;
#X connect 5 0 6 0;
#X restore 1064 163 pd triangle;
#X obj 1066 242 *~;
#X obj 1194 206 dbtorms~;
#X msg 1194 162 \$1 1 \, 0 \$2 1;
#X obj 1274 77 random 400;
#X obj 1274 98 * 0.01;
#X obj 1194 141 pack 60 60;
#X obj 1194 183 vline~;
#X obj 686 75 * 0.01;
#X obj 530 55 random 235;
#X obj 1274 119 + 28;
#X obj 1064 185 bp~ 3333 10;
#X obj 1194 98 * 0.01;
#X obj 1194 77 random 100;
#X obj 1194 119 + 110;
#X obj 1064 209 hip~ 11000;
#X connect 0 0 20 0;
#X connect 0 0 40 0;
#X connect 0 0 58 0;
#X connect 1 0 2 0;
#X connect 3 0 4 0;
#X connect 4 0 5 0;
#X connect 5 0 17 0;
#X connect 6 0 7 0;
#X connect 7 0 3 0;
#X connect 8 0 6 0;
#X connect 9 0 10 0;
#X connect 10 0 8 0;
#X connect 11 0 6 1;
#X connect 12 0 11 0;
#X connect 13 0 12 0;
#X connect 14 0 15 0;
#X connect 15 0 16 0;
#X connect 16 0 6 2;
#X connect 17 0 1 0;
#X connect 18 0 17 1;
#X connect 19 0 26 0;
#X connect 20 0 9 0;
#X connect 20 1 13 0;
#X connect 20 2 14 0;
#X connect 20 3 22 0;
#X connect 20 4 25 0;
#X connect 20 5 28 0;
#X connect 21 0 18 0;
#X connect 22 0 23 0;
#X connect 23 0 24 0;
#X connect 24 0 29 0;
#X connect 25 0 19 0;
#X connect 26 0 29 1;
#X connect 26 0 30 0;
#X connect 27 0 29 2;
#X connect 28 0 27 0;
#X connect 29 0 21 0;
#X connect 30 0 29 3;
#X connect 31 0 32 0;
#X connect 32 0 33 0;
#X connect 33 0 37 0;
#X connect 34 0 47 0;
#X connect 35 0 48 0;
#X connect 36 0 35 0;
#X connect 37 0 1 0;
#X connect 38 0 37 1;
#X connect 39 0 51 0;
#X connect 40 0 71 0;
#X connect 40 1 36 0;
#X connect 40 2 49 0;
#X connect 40 3 41 0;
#X connect 40 4 54 0;
#X connect 40 5 55 0;
#X connect 41 0 42 0;
#X connect 42 0 43 0;
#X connect 43 0 44 0;
#X connect 44 0 52 0;
#X connect 45 0 34 0;
#X connect 46 0 45 0;
#X connect 47 0 31 0;
#X connect 48 0 34 1;
#X connect 49 0 70 0;
#X connect 50 0 34 2;
#X connect 51 0 44 1;
#X connect 51 0 53 0;
#X connect 52 0 38 0;
#X connect 53 0 44 3;
#X connect 54 0 39 0;
#X connect 55 0 56 0;
#X connect 56 0 57 0;
#X connect 57 0 44 2;
#X connect 58 0 59 0;
#X connect 58 1 75 0;
#X connect 58 2 66 0;
#X connect 59 0 60 0;
#X connect 60 0 61 0;
#X connect 61 0 62 0;
#X connect 62 0 73 0;
#X connect 63 0 1 0;
#X connect 64 0 63 1;
#X connect 65 0 69 0;
#X connect 66 0 67 0;
#X connect 67 0 72 0;
#X connect 68 0 65 0;
#X connect 69 0 64 0;
#X connect 70 0 50 0;
#X connect 71 0 46 0;
#X connect 72 0 68 1;
#X connect 73 0 77 0;
#X connect 74 0 76 0;
#X connect 75 0 74 0;
#X connect 76 0 68 0;
#X connect 77 0 63 0;
#X restore 577 883 pd bd;
#X obj 578 857 bng 15 250 50 0 empty empty empty 17 7 0 10 -262144
-1 -1;
#X obj 629 857 bng 15 250 50 0 empty empty empty 17 7 0 10 -262144
-1 -1;
#N canvas 478 280 856 404 sn 0;
#X obj 146 3 inlet;
#X obj 149 361 outlet~;
#X obj 148 184 vline~ 80;
#X obj 148 208 mtof~;
#X obj 148 232 osc~;
#X obj 147 133 pack 261 51 80, f 28;
#X obj 244 87 * 0.01;
#X obj 148 256 *~, f 36;
#X obj 561 240 *~;
#X obj 682 194 dbtorms~;
#X msg 682 150 \$1 1 \, 0 \$2 1;
#X obj 682 129 pack 60 60;
#X obj 682 171 vline~;
#X obj 560 143 noise~;
#X obj 682 107 + 101;
#X obj 681 65 random 200;
#X obj 682 86 * 0.001;
#X obj 762 65 random 200;
#X obj 762 86 * 0.1;
#X obj 680 41 t b b, f 12;
#X obj 448 196 dbtorms~;
#X msg 448 152 \$1 1 \, 0 \$2 1;
#X obj 448 131 pack 60 60;
#X obj 448 173 vline~;
#X obj 447 67 random 200;
#X obj 448 88 * 0.001;
#X obj 528 67 random 200;
#X obj 528 88 * 0.1;
#X obj 146 42 t b b b b b, f 58;
#X obj 149 335 *~ 1.4;
#X obj 343 66 random 200;
#X obj 343 86 * 0.01;
#X obj 343 107 + 8;
#X obj 244 108 + 50;
#X obj 244 67 random 250;
#X obj 147 109 + 103.4;
#X obj 147 88 * 0.001;
#X obj 147 67 random 500;
#X obj 29 250 tabplay~ click;
#X msg 147 157 \$1 \, 67.5 5 \, \$2 \$3 5;
#X obj 762 107 + 280;
#X obj 560 168 bp~ 810 0.5;
#X obj 560 191 hip~ 1000;
#X obj 528 109 + 150;
#X obj 448 109 + 102;
#X connect 0 0 28 0;
#X connect 0 0 19 0;
#X connect 0 0 38 0;
#X connect 2 0 3 0;
#X connect 3 0 4 0;
#X connect 4 0 7 0;
#X connect 5 0 39 0;
#X connect 6 0 33 0;
#X connect 7 0 29 0;
#X connect 8 0 29 0;
#X connect 9 0 8 1;
#X connect 10 0 12 0;
#X connect 11 0 10 0;
#X connect 12 0 9 0;
#X connect 13 0 41 0;
#X connect 14 0 11 0;
#X connect 15 0 16 0;
#X connect 16 0 14 0;
#X connect 17 0 18 0;
#X connect 18 0 40 0;
#X connect 19 0 15 0;
#X connect 19 1 17 0;
#X connect 20 0 7 1;
#X connect 21 0 23 0;
#X connect 22 0 21 0;
#X connect 23 0 20 0;
#X connect 24 0 25 0;
#X connect 25 0 44 0;
#X connect 26 0 27 0;
#X connect 27 0 43 0;
#X connect 28 0 37 0;
#X connect 28 1 34 0;
#X connect 28 2 30 0;
#X connect 28 3 24 0;
#X connect 28 4 26 0;
#X connect 29 0 1 0;
#X connect 30 0 31 0;
#X connect 31 0 32 0;
#X connect 32 0 5 2;
#X connect 33 0 5 1;
#X connect 34 0 6 0;
#X connect 35 0 5 0;
#X connect 36 0 35 0;
#X connect 37 0 36 0;
#X connect 38 0 29 0;
#X connect 39 0 2 0;
#X connect 40 0 11 1;
#X connect 41 0 42 0;
#X connect 42 0 8 0;
#X connect 43 0 22 1;
#X connect 44 0 22 0;
#X restore 628 883 pd sn;
#X obj 677 857 bng 15 250 50 0 empty empty empty 17 7 0 10 -262144
-1 -1;
#N canvas 251 184 686 360 hh 0;
#X obj 487 16 inlet;
#X obj 147 308 outlet~;
#X obj 148 258 *~;
#X obj 493 211 dbtorms~;
#X obj 493 146 pack 60 60;
#X obj 493 188 vline~;
#X obj 28 109 noise~;
#X obj 573 82 random 200;
#X obj 573 103 * 0.1;
#X obj 493 103 * 0.01;
#X obj 493 235 *~;
#X obj 28 132 expr~ if ($v1 > 0 \, 1 \, -1);
#X obj 221 110 noise~;
#X obj 221 133 expr~ if ($v1 > 0 \, 1 \, -1);
#X obj 230 224 *~ 0.6;
#X obj 40 199 bp~ 4010 20;
#X obj 231 199 bp~ 4151 10;
#X obj 573 124 + 380;
#X msg 493 167 \$1 \, 0 \$2 1;
#X obj 486 50 t b b b, f 12;
#X obj 408 116 random 200;
#X obj 408 138 + 3900;
#X obj 395 171 + 141;
#X obj 148 281 hip~ 7000;
#X obj 493 124 + 106;
#X obj 492 82 random 250;
#X connect 0 0 19 0;
#X connect 2 0 23 0;
#X connect 3 0 10 0;
#X connect 3 0 10 1;
#X connect 4 0 18 0;
#X connect 5 0 3 0;
#X connect 6 0 11 0;
#X connect 7 0 8 0;
#X connect 8 0 17 0;
#X connect 9 0 24 0;
#X connect 10 0 2 1;
#X connect 11 0 15 0;
#X connect 12 0 13 0;
#X connect 13 0 16 0;
#X connect 14 0 2 0;
#X connect 15 0 2 0;
#X connect 16 0 14 0;
#X connect 17 0 4 1;
#X connect 18 0 5 0;
#X connect 19 0 20 0;
#X connect 19 1 25 0;
#X connect 19 2 7 0;
#X connect 20 0 21 0;
#X connect 21 0 22 0;
#X connect 21 0 15 1;
#X connect 22 0 16 1;
#X connect 23 0 1 0;
#X connect 24 0 4 0;
#X connect 25 0 9 0;
#X restore 676 883 pd hh;
#X obj 452 815 > 0.6;
#X floatatom 646 786 5 0 0 0 - - -;
#X obj 628 832 sel 1;
#X obj 628 808 > 0.6;
#X floatatom 738 786 5 0 0 0 - - -;
#X obj 720 832 sel 1;
#X obj 720 808 > 0.6;
#X connect 1 0 2 0;
#X connect 2 0 22 0;
#X connect 3 0 35 0;
#X connect 4 0 5 0;
#X connect 4 0 3 0;
#X connect 5 0 6 0;
#X connect 6 0 1 1;
#X connect 7 0 0 0;
#X connect 7 0 4 0;
#X connect 7 0 34 1;
#X connect 8 0 7 0;
#X connect 9 0 10 0;
#X connect 10 0 0 0;
#X connect 10 0 4 0;
#X connect 10 0 34 1;
#X connect 11 0 12 0;
#X connect 12 0 0 0;
#X connect 12 0 4 0;
#X connect 12 0 34 1;
#X connect 15 0 18 0;
#X connect 15 2 16 0;
#X connect 16 0 15 0;
#X connect 17 0 15 0;
#X connect 18 0 8 0;
#X connect 18 1 9 0;
#X connect 18 2 11 0;
#X connect 20 0 25 0;
#X connect 21 0 36 0;
#X connect 22 0 20 0;
#X connect 22 0 21 0;
#X connect 23 0 21 1;
#X connect 23 0 24 0;
#X connect 24 0 20 1;
#X connect 25 0 32 0;
#X connect 26 0 27 0;
#X connect 27 0 28 0;
#X connect 27 0 30 0;
#X connect 28 0 29 0;
#X connect 31 0 29 0;
#X connect 33 0 1 0;
#X connect 33 0 34 0;
#X connect 35 0 2 0;
#X connect 36 0 38 0;
#X connect 36 0 41 0;
#X connect 36 0 45 0;
#X connect 37 0 58 0;
#X connect 38 0 37 0;
#X connect 39 0 38 1;
#X connect 40 0 61 0;
#X connect 41 0 40 0;
#X connect 42 0 41 1;
#X connect 43 0 39 0;
#X connect 43 0 42 0;
#X connect 43 0 46 0;
#X connect 44 0 55 0;
#X connect 45 0 44 0;
#X connect 46 0 45 1;
#X connect 47 0 55 1;
#X connect 48 0 50 0;
#X connect 49 0 0 1;
#X connect 50 0 49 0;
#X connect 51 0 52 0;
#X connect 52 0 0 1;
#X connect 53 0 54 0;
#X connect 54 0 0 1;
#X connect 55 0 48 0;
#X connect 56 0 58 1;
#X connect 57 0 51 0;
#X connect 58 0 57 0;
#X connect 59 0 61 1;
#X connect 60 0 53 0;
#X connect 61 0 60 0;
