#N canvas 146 80 1004 1092 12;
#X obj 33 29 loadbang;
#X obj 33 71 soundfiler;
#X obj 136 73 array define nbslice_drums;
#X obj 60 887 t f f;
#X obj 61 1062 dac~;
#X obj 117 971 -;
#X obj 60 1004 pack;
#X floatatom 60 865 5 0 0 0 - - - 0;
#X floatatom 62 510 5 0 0 0 - - - 0;
#X obj 60 971 f;
#X text 99 510 number of slices found;
#X floatatom 197 404 8 0 0 0 - - - 0;
#X floatatom 357 403 8 0 0 0 - - - 0;
#X obj 59 945 t f f;
#X obj 59 906 + 1;
#X msg 357 422 kernelsize \$1 \, bang;
#X text 195 367 change the filter and kernel size;
#X msg 197 422 filtersize \$1 \, bang;
#X msg 197 385 1;
#X msg 357 384 3;
#X obj 62 487 array size nbslice_indices;
#X obj 331 73 array define nbslice_indices;
#X obj 60 1023 tabplay~ nbslice_drums;
#X obj 227 924 tabread nbslice_indices;
#X obj 59 924 tabread nbslice_indices;
#X floatatom 244 167 8 0 1 0 - - - 0;
#X floatatom 158 167 5 0 0 0 - - - 0;
#X text 63 142 nb slices / tolerance / initial threshold;
#X floatatom 67 167 5 0 0 0 - - - 0;
#X msg 62 341 threshold \$1 \, bang;
#X floatatom 66 317 10 0 0 0 - - - 0;
#X msg 405 161 0.1;
#X msg 439 161 0.2;
#X msg 366 161 0.01;
#X msg 474 161 0.4;
#X obj 631 175 bng 15 250 50 0 empty empty empty 17 7 0 10 #fcfcfc #000000 #000000;
#X obj 95 585 +;
#X msg 95 561 1;
#X obj 99 635 == 1;
#X obj 60 658 spigot;
#X obj 644 674 spigot;
#X obj 644 698 moses 101;
#X obj 145 560 value cur_val;
#X obj 390 671 value cur_thresh;
#X obj 390 694 value prev_thresh;
#X obj 60 715 moses;
#X obj 285 694 value prev_val;
#X obj 62 533 t f b f;
#X obj 60 682 t f b;
#X obj 285 672 value cur_val;
#X obj 70 767 expr cur_thresh = min(0.999999 \, prev_thresh * 2.0);
#X obj 59 742 expr cur_thresh = max(0.000001 \, prev_thresh * 0.5);
#X obj 244 187 value cur_thresh;
#X obj 62 294 value cur_thresh;
#X obj 19 798 t b;
#X obj 679 641 > 1;
#X obj 704 722 print failed;
#X obj 581 802 spigot;
#X floatatom 135 635 5 0 0 0 - - - 0;
#X text 177 634 iter nb;
#X obj 663 825 print success;
#X obj 111 714 value target;
#X obj 67 191 value target;
#X obj 159 212 value tolerance;
#X obj 662 802 spigot;
#X obj 676 771 == 0;
#X obj 676 747 expr abs(cur_val - target) > tolerance;
#X obj 642 722 t b b;
#X obj 669 485 value dval;
#X obj 669 510 value dthresh;
#X obj 651 857 expr dthresh = cur_thresh - prev_thresh;
#X obj 623 883 expr dval = cur_val - prev_val;
#X obj 527 937 spigot;
#X obj 589 935 spigot;
#X obj 623 907 == 0;
#X obj 579 909 != 0;
#X obj 589 959 expr cur_thresh = max(0.000001 \, min(0.999999 \, dthresh + cur_thresh));
#X obj 580 832 t b b b b;
#X obj 525 1000 expr cur_thresh = max(0.000001 \, min(0.999999 \, (((dthresh / dval) * (target - cur_val)) + cur_thresh)));
#X obj 95 608 t f f f;
#X obj 631 195 t b b 0;
#X msg 233 330 blocking \$1;
#X obj 233 313 tgl 15 0 empty empty empty 17 7 0 10 #fcfcfc #000000 #000000 0 1;
#X obj 233 292 loadbang;
#X text 139 318 thresh;
#X obj 643 311 cputime;
#X floatatom 643 335 10 0 0 0 - - - 0;
#X obj 62 448 fluid.bufnoveltyslice -source nbslice_drums -indices nbslice_indices, f 69;
#X msg 33 50 read -resize ../../help/media/Nicol-LoopE-M.wav nbslice_drums, f 61;
#X obj 62 469 bng 15 250 50 0 empty empty empty 17 7 0 10 #fcfcfc #000000 #000000;
#X connect 0 0 88 0;
#X connect 3 0 14 0;
#X connect 3 1 23 0;
#X connect 5 0 6 1;
#X connect 6 0 22 0;
#X connect 7 0 3 0;
#X connect 8 0 47 0;
#X connect 9 0 6 0;
#X connect 11 0 17 0;
#X connect 12 0 15 0;
#X connect 13 0 9 0;
#X connect 13 1 5 0;
#X connect 14 0 24 0;
#X connect 15 0 87 0;
#X connect 17 0 87 0;
#X connect 18 0 11 0;
#X connect 19 0 12 0;
#X connect 20 0 8 0;
#X connect 22 0 4 0;
#X connect 22 0 4 1;
#X connect 23 0 5 1;
#X connect 23 0 9 1;
#X connect 24 0 13 0;
#X connect 25 0 52 0;
#X connect 26 0 63 0;
#X connect 28 0 62 0;
#X connect 29 0 87 0;
#X connect 30 0 29 0;
#X connect 31 0 25 0;
#X connect 32 0 25 0;
#X connect 33 0 25 0;
#X connect 34 0 25 0;
#X connect 35 0 80 0;
#X connect 36 0 79 0;
#X connect 37 0 36 0;
#X connect 38 0 39 1;
#X connect 39 0 48 0;
#X connect 40 0 41 0;
#X connect 41 0 67 0;
#X connect 41 1 56 0;
#X connect 43 0 44 0;
#X connect 45 0 51 0;
#X connect 45 1 50 0;
#X connect 47 0 39 0;
#X connect 47 1 37 0;
#X connect 47 2 42 0;
#X connect 48 0 45 0;
#X connect 48 1 49 0;
#X connect 48 1 43 0;
#X connect 48 1 61 0;
#X connect 49 0 46 0;
#X connect 50 0 54 0;
#X connect 51 0 54 0;
#X connect 53 0 30 0;
#X connect 54 0 53 0;
#X connect 55 0 40 1;
#X connect 57 0 77 0;
#X connect 61 0 45 1;
#X connect 64 0 60 0;
#X connect 64 0 85 1;
#X connect 65 0 64 1;
#X connect 66 0 57 1;
#X connect 66 0 65 0;
#X connect 67 0 57 0;
#X connect 67 0 64 0;
#X connect 67 1 66 0;
#X connect 71 0 74 0;
#X connect 71 0 75 0;
#X connect 72 0 78 0;
#X connect 73 0 76 0;
#X connect 74 0 73 1;
#X connect 75 0 72 1;
#X connect 76 0 54 0;
#X connect 77 0 73 0;
#X connect 77 0 72 0;
#X connect 77 1 43 0;
#X connect 77 1 49 0;
#X connect 77 2 71 0;
#X connect 77 3 70 0;
#X connect 78 0 54 0;
#X connect 79 0 40 0;
#X connect 79 1 55 0;
#X connect 79 1 38 0;
#X connect 79 2 58 0;
#X connect 79 2 36 1;
#X connect 80 0 53 0;
#X connect 80 1 25 0;
#X connect 80 1 85 0;
#X connect 80 2 36 1;
#X connect 81 0 87 0;
#X connect 82 0 81 0;
#X connect 83 0 82 0;
#X connect 85 0 86 0;
#X connect 87 0 89 0;
#X connect 88 0 1 0;
#X connect 89 0 20 0;
